<?xml version="1.0" encoding="utf-8"?>
<!-- Generator: Adobe Illustrator 16.0.0, SVG Export Plug-In . SVG Version: 6.00 Build 0)  -->
<!DOCTYPE svg PUBLIC "-//W3C//DTD SVG 1.1//EN" "http://www.w3.org/Graphics/SVG/1.1/DTD/svg11.dtd">
<svg version="1.1" id="Solid" xmlns="http://www.w3.org/2000/svg" xmlns:xlink="http://www.w3.org/1999/xlink" x="0px" y="0px"
	 width="24px" height="24px" viewBox="0 0 24 24" enable-background="new 0 0 24 24" xml:space="preserve">
<path d="M19.131,12.69c-0.213,1.439-0.902,2.602-2.063,3.477c-0.719,0.543-1.537,0.854-2.436,0.949
	c-0.176,0.02-0.354,0.031-0.531,0.031c-0.41,0.007-0.811-0.058-1.203-0.168c-0.898-0.252-1.674-0.717-2.34-1.368
	c-0.344-0.337-0.682-0.685-1.117-1.128c-0.219-0.221-0.502-0.503-0.783-0.785c-0.141-0.143-0.285-0.281-0.424-0.428
	c-0.34-0.365-0.264-0.92,0.16-1.171c0.268-0.157,0.646-0.112,0.873,0.11c0.135,0.132,0.277,0.258,0.395,0.406
	c0.014,0.018,0.035,0.029,0.055,0.043c0.189,0.184,0.371,0.376,0.561,0.561c0.215,0.212,0.428,0.426,0.645,0.638
	c0.326,0.318,0.633,0.655,0.984,0.95c0.203,0.17,0.424,0.316,0.656,0.438c0.357,0.186,0.736,0.318,1.139,0.371
	c0.006,0,0.01,0.004,0.016,0.007c0.623,0.081,1.227-0.005,1.791-0.271c1.184-0.558,1.883-1.495,2.125-2.776
	c0.02-0.105,0.029-0.213,0.043-0.319c0.045-0.677-0.08-1.318-0.393-1.921c-0.303-0.579-0.734-1.043-1.35-1.417
	c-0.307-0.187-0.609-0.321-0.932-0.403c-0.473-0.122-0.951-0.15-1.434-0.086c-0.072,0.01-0.145,0.016-0.217,0.022
	c-0.287,0.063-0.568,0.144-0.83,0.278c-0.123,0.063-0.24,0.131-0.354,0.209c-0.031,0.021-0.055,0.029-0.092,0.006
	c-0.43-0.289-0.887-0.531-1.375-0.729c0.16-0.159,0.33-0.299,0.51-0.425c0.553-0.388,1.162-0.654,1.826-0.785
	c0.66-0.129,1.324-0.141,1.986-0.018c0.15,0.027,0.303,0.059,0.449,0.111c0.156,0.022,0.301,0.08,0.445,0.141
	c0.279,0.117,0.559,0.232,0.814,0.398c0.311,0.202,0.414,0.271,0.52,0.354c0.215,0.165,0.443,0.388,0.563,0.521
	c0.059,0.066,0.092,0.11,0.193,0.233c0.25,0.311,0.48,0.638,0.65,1.001c0.266,0.563,0.357,0.857,0.414,1.16s0.08,0.614,0.098,0.939
	C19.189,12.17,19.168,12.432,19.131,12.69z"/>
<path d="M11.99,23.859c-6.545,0-11.836-5.304-11.83-11.864C0.166,5.472,5.479,0.159,12.043,0.183
	c6.531,0.024,11.811,5.345,11.793,11.886C23.82,18.571,18.516,23.86,11.99,23.859z M15.461,17.8c0,0,0.715-0.187,1.346-0.478
	c0.211-0.098,0.412-0.205,1.119-0.826c0.607-0.535,1.086-1.168,1.438-1.898c0.26-0.544,0.436-1.112,0.525-1.708
	c0.055-0.354,0.07-0.712,0.066-1.069c-0.012-0.148-0.02-0.296-0.037-0.443c-0.105-0.891-0.391-1.719-0.859-2.485
	c-0.203-0.334-0.322-0.487-0.447-0.638c-0.123-0.149-0.252-0.297-0.469-0.521c-0.215-0.223-0.596-0.527-1.012-0.788
	c-0.254-0.159-0.523-0.288-0.793-0.417c-0.014-0.004-0.027-0.006-0.041-0.012c-0.852-0.348-1.736-0.494-2.654-0.428
	c-0.18,0.013-0.357,0.035-0.537,0.054c-0.07,0.015-0.141,0.03-0.213,0.043c-0.266,0.05-0.523,0.13-0.781,0.204
	c-0.297,0.113-0.59,0.232-0.807,0.342c-0.107,0.055-0.146,0.075-0.188,0.096c-0.152,0.094-0.303,0.187-0.455,0.279
	c-0.305,0.215-0.594,0.451-0.852,0.721C9.781,7.858,9.748,7.851,9.715,7.848c-0.199-0.021-0.4-0.032-0.6-0.03
	C8.875,7.82,8.758,7.835,8.641,7.849C8.521,7.862,8.402,7.874,8.193,7.911C7.982,7.949,7.615,8.053,7.26,8.202
	c-0.488,0.204-0.709,0.344-0.92,0.5C6.129,8.856,5.93,9.028,5.682,9.256s-0.615,0.698-0.902,1.231
	c-0.166,0.308-0.301,0.63-0.402,0.964c-0.098,0.318-0.16,0.647-0.191,0.98c-0.047,0.645,0.014,1.276,0.201,1.896
	c0.17,0.556,0.299,0.813,0.447,1.06c0.146,0.247,0.313,0.484,0.596,0.865c0.281,0.381,0.953,0.929,1.771,1.293
	c0.326,0.146,0.666,0.256,1.018,0.326c0.156,0.03,0.313,0.059,0.471,0.078c0.154,0.007,0.309,0.021,0.463,0.021
	c1.02,0.002,2.041,0.001,3.063,0.002c0.041,0,0.053,0.001,0.066,0.001c0.027,0.002,0.055,0.002,0.428,0.002
	c0.186,0,0.744-0.001,1.303-0.003c0.119-0.001,0.238-0.004,0.355-0.01C14.738,17.945,15.1,17.881,15.461,17.8z"/>
<path d="M9.527,15.633c0.275,0.354,0.621,0.628,0.975,0.896c0.27,0.204,0.551,0.388,0.836,0.569
	c-0.016,0.025-0.035,0.016-0.049,0.016c-0.75,0-1.498,0-2.246,0c-0.072,0-0.145,0.005-0.217-0.018
	c-0.391-0.012-0.766-0.102-1.131-0.232c-0.496-0.179-0.719-0.312-0.928-0.465c-0.211-0.154-0.408-0.328-0.607-0.504
	c-0.197-0.176-0.486-0.55-0.713-0.969C5.119,14.323,5.033,14,4.988,13.667c-0.043-0.333-0.047-0.677-0.053-0.914
	c-0.004-0.237,0.059-0.632,0.176-1.019c0.242-0.813,0.695-1.492,1.348-2.035c0.137-0.115,0.279-0.227,0.439-0.311
	c0.303-0.204,0.633-0.35,0.98-0.459c0.459-0.145,0.932-0.209,1.414-0.186c0.025,0,0.055-0.011,0.072,0.018
	c0.684,0.018,0.893,0.089,1.096,0.175c0.408,0.172,0.799,0.4,1.055,0.569c0.156,0.115,0.209,0.152,0.26,0.193
	c0.1,0.083,0.184,0.184,0.184,0.184c0.174,0.176,0.348,0.35,0.521,0.525c0.137,0.139,0.271,0.278,0.408,0.418
	c0.244,0.25,0.49,0.5,0.734,0.752c0.232,0.24,0.293,0.566,0.152,0.852c-0.232,0.475-0.82,0.561-1.178,0.227
	c-0.1-0.092-0.191-0.195-0.287-0.293c-0.211-0.195-0.404-0.408-0.605-0.613c-0.273-0.279-0.545-0.563-0.818-0.845
	c-0.074-0.077-0.105-0.097-0.135-0.117c-0.059-0.042-0.113-0.088-0.113-0.088c-0.426-0.29-0.893-0.454-1.412-0.476
	c-0.313-0.014-0.611,0.031-0.91,0.107c-0.229,0.085-0.453,0.176-0.654,0.313c-0.842,0.576-1.252,1.372-1.217,2.392
	c0.002,0.072-0.008,0.146,0.018,0.215c0.15,0.875,0.611,1.535,1.371,1.985c0.328,0.194,0.686,0.304,1.063,0.347
	c0.18,0.017,0.361,0.012,0.541,0.012C9.475,15.596,9.502,15.6,9.527,15.633z"/>
</svg>
