<?xml version="1.0" encoding="utf-8"?>
<!-- Generator: Adobe Illustrator 16.0.0, SVG Export Plug-In . SVG Version: 6.00 Build 0)  -->
<!DOCTYPE svg PUBLIC "-//W3C//DTD SVG 1.1//EN" "http://www.w3.org/Graphics/SVG/1.1/DTD/svg11.dtd">
<svg version="1.1" id="Solid" xmlns="http://www.w3.org/2000/svg" xmlns:xlink="http://www.w3.org/1999/xlink" x="0px" y="0px"
	 width="24px" height="24px" viewBox="0 0 24 24" enable-background="new 0 0 24 24" xml:space="preserve">
<path d="M11.99,23.88c-6.545,0-11.837-5.304-11.831-11.864C0.165,5.493,5.479,0.179,12.043,0.204
	c6.531,0.025,11.81,5.344,11.793,11.886C23.82,18.591,18.516,23.88,11.99,23.88z M12.056,16.561
	c0.378,0.008,0.927-0.058,1.477-0.143c1.257-0.196,2.438-0.599,3.538-1.237c0.195-0.113,0.381-0.242,0.564-0.372
	c0.104-0.073,0.182-0.174,0.115-0.309c-0.069-0.143-0.198-0.135-0.328-0.103c-0.021,0.005-0.042,0.013-0.063,0.022
	c-0.77,0.329-1.566,0.57-2.383,0.754c-0.807,0.181-1.623,0.289-2.447,0.322c-1.209,0.048-2.404-0.067-3.585-0.328
	c-1.071-0.237-2.104-0.586-3.091-1.065c-0.302-0.146-0.594-0.309-0.892-0.462c-0.081-0.042-0.173-0.073-0.235,0.021
	c-0.058,0.084-0.008,0.156,0.061,0.214c0.024,0.021,0.047,0.046,0.071,0.068c0.597,0.542,1.257,0.995,1.968,1.373
	C8.403,16.156,10.09,16.563,12.056,16.561z M10.84,11.407c-0.141-0.55-0.275-1.078-0.41-1.607c-0.122-0.482-0.246-0.965-0.365-1.448
	c-0.039-0.158-0.12-0.251-0.294-0.245C9.627,8.112,9.484,8.112,9.342,8.108C9.213,8.104,9.179,8.17,9.196,8.283
	C9.203,8.326,9.21,8.37,9.223,8.412c0.139,0.461,0.278,0.921,0.418,1.381c0.232,0.764,0.463,1.528,0.697,2.292
	c0.067,0.222,0.109,0.25,0.338,0.252c0.11,0,0.221,0.001,0.33,0c0.232,0,0.283-0.042,0.338-0.271
	c0.146-0.618,0.293-1.236,0.439-1.854c0.082-0.343,0.165-0.685,0.251-1.043c0.023,0.026,0.038,0.035,0.042,0.047
	c0.148,0.476,0.242,0.965,0.363,1.448c0.123,0.489,0.234,0.98,0.351,1.47c0.032,0.134,0.106,0.209,0.254,0.204
	c0.143-0.005,0.286-0.007,0.429,0c0.162,0.007,0.254-0.057,0.297-0.217c0.063-0.232,0.141-0.46,0.213-0.69
	c0.274-0.871,0.551-1.742,0.824-2.613c0.053-0.167,0.102-0.334,0.145-0.503c0.028-0.116,0.009-0.211-0.145-0.209
	c-0.148,0.002-0.297,0.01-0.444,0.005c-0.161-0.006-0.226,0.097-0.259,0.224c-0.228,0.885-0.451,1.772-0.678,2.658
	c-0.033,0.133-0.078,0.264-0.119,0.397c-0.057-0.025-0.058-0.06-0.064-0.091c-0.111-0.474-0.224-0.948-0.336-1.422
	c-0.121-0.518-0.244-1.034-0.365-1.552C12.51,8.19,12.443,8.11,12.296,8.112c-0.143,0.002-0.286-0.002-0.429-0.005
	c-0.172-0.003-0.251,0.085-0.285,0.25c-0.065,0.316-0.146,0.629-0.22,0.944c-0.104,0.448-0.197,0.898-0.315,1.343
	C10.98,10.89,10.957,11.15,10.84,11.407z M8.732,10.205c0-0.304,0.005-0.546,0-0.788c-0.02-0.778-0.398-1.3-1.245-1.4
	C7.016,7.961,6.555,8.005,6.104,8.144C5.617,8.293,5.565,8.36,5.574,8.75C5.58,8.963,5.635,8.997,5.839,8.917
	c0.4-0.157,0.808-0.285,1.245-0.257c0.41,0.026,0.695,0.147,0.799,0.504C7.94,9.362,7.951,9.563,7.952,9.766
	c0.001,0.205-0.003,0.216-0.199,0.165C7.386,9.834,7.014,9.816,6.641,9.844c-0.779,0.059-1.422,0.584-1.342,1.495
	c0.049,0.558,0.402,0.993,1.006,1.087c0.622,0.097,1.16-0.073,1.606-0.518c0.082-0.082,0.106-0.08,0.155,0.025
	c0.047,0.103,0.119,0.196,0.187,0.288c0.11,0.148,0.228,0.173,0.383,0.081c0.079-0.047,0.151-0.107,0.23-0.157
	c0.125-0.08,0.145-0.179,0.079-0.309c-0.087-0.17-0.156-0.344-0.182-0.541C8.715,10.911,8.747,10.526,8.732,10.205z M16.712,12.467
	c0.517-0.001,0.999-0.101,1.385-0.483c0.507-0.501,0.479-1.471-0.257-1.841c-0.271-0.136-0.563-0.207-0.848-0.301
	c-0.207-0.069-0.418-0.125-0.606-0.241c-0.239-0.146-0.321-0.432-0.18-0.668c0.118-0.197,0.319-0.259,0.532-0.276
	c0.416-0.034,0.822,0,1.203,0.189c0.09,0.043,0.197,0.086,0.247-0.052c0.101-0.282-0.025-0.552-0.312-0.645
	c-0.58-0.187-1.17-0.264-1.752-0.02c-0.584,0.246-0.895,0.729-0.759,1.362c0.104,0.493,0.461,0.76,0.916,0.912
	c0.312,0.104,0.629,0.19,0.937,0.304c0.217,0.08,0.403,0.207,0.41,0.478c0.006,0.255-0.104,0.417-0.381,0.531
	c-0.333,0.136-0.682,0.089-1.023,0.052c-0.258-0.028-0.494-0.136-0.734-0.226c-0.08-0.03-0.147-0.021-0.189,0.042
	c-0.113,0.175,0.016,0.547,0.213,0.636C15.895,12.392,16.295,12.464,16.712,12.467z M18.026,13.313
	c-0.416-0.007-0.81,0.055-1.187,0.205c-0.158,0.063-0.311,0.14-0.443,0.248c-0.051,0.04-0.081,0.092-0.06,0.159
	c0.022,0.069,0.082,0.065,0.138,0.062c0.104-0.006,0.207-0.015,0.311-0.026c0.408-0.043,0.816-0.103,1.229-0.026
	c0.27,0.05,0.354,0.164,0.314,0.435c-0.045,0.306-0.137,0.599-0.244,0.888c-0.064,0.175-0.138,0.347-0.2,0.522
	c-0.021,0.059-0.054,0.135,0.019,0.18c0.061,0.037,0.129,0.017,0.186-0.025c0.021-0.017,0.042-0.036,0.062-0.055
	c0.592-0.574,0.839-1.299,0.896-2.099c0.017-0.237-0.064-0.314-0.281-0.379C18.52,13.326,18.27,13.308,18.026,13.313z"/>
<path d="M7.953,10.736c0.034,0.775-0.616,1.112-1.214,1.067c-0.378-0.028-0.569-0.224-0.595-0.571
	c-0.031-0.405,0.148-0.673,0.511-0.77c0.411-0.11,0.816-0.047,1.22,0.042C8.028,10.538,7.916,10.671,7.953,10.736z"/>
</svg>
