<?xml version="1.0" encoding="utf-8"?>
<!-- Generator: Adobe Illustrator 16.0.0, SVG Export Plug-In . SVG Version: 6.00 Build 0)  -->
<!DOCTYPE svg PUBLIC "-//W3C//DTD SVG 1.1//EN" "http://www.w3.org/Graphics/SVG/1.1/DTD/svg11.dtd">
<svg version="1.1" id="Solid" xmlns="http://www.w3.org/2000/svg" xmlns:xlink="http://www.w3.org/1999/xlink" x="0px" y="0px"
	 width="24px" height="24px" viewBox="0 0 24 24" enable-background="new 0 0 24 24" xml:space="preserve">
<path d="M13.272,16.584c0.033-0.017,0.068-0.026,0.105-0.028C13.349,16.617,13.31,16.627,13.272,16.584z"/>
<path d="M11.99,23.859c-6.544,0-11.836-5.304-11.831-11.864C0.165,5.472,5.478,0.158,12.043,0.183
	c6.53,0.025,11.809,5.344,11.792,11.886C23.82,18.57,18.516,23.859,11.99,23.859z M16.255,12.667c0.063,0,0.127,0.005,0.189-0.001
	c0.07-0.007,0.075,0.024,0.068,0.081c-0.027,0.22-0.048,0.44-0.074,0.659c-0.006,0.053,0.009,0.067,0.061,0.065
	c0.119-0.004,0.237-0.003,0.356,0c0.043,0.001,0.056-0.012,0.061-0.056c0.021-0.228,0.05-0.455,0.07-0.683
	c0.005-0.057,0.026-0.068,0.078-0.066c0.107,0.004,0.216,0,0.324,0.002c0.044,0.001,0.06-0.011,0.059-0.057
	c-0.003-0.113-0.003-0.227,0-0.34c0-0.042-0.015-0.054-0.055-0.053c-0.1,0.002-0.2-0.001-0.3,0.001
	c-0.044,0.001-0.052-0.014-0.047-0.056c0.021-0.178,0.041-0.355,0.056-0.534c0.004-0.048,0.019-0.063,0.066-0.062
	c0.119,0.003,0.237,0,0.355,0.002c0.04,0,0.056-0.009,0.055-0.053c-0.002-0.116-0.003-0.232,0-0.348
	c0.001-0.047-0.018-0.056-0.06-0.055c-0.098,0.003-0.195-0.002-0.292,0.002c-0.053,0.002-0.072-0.007-0.064-0.067
	c0.025-0.199,0.041-0.398,0.065-0.597c0.007-0.058-0.008-0.072-0.064-0.07c-0.113,0.004-0.227,0.003-0.339,0
	c-0.047-0.001-0.063,0.013-0.067,0.061c-0.019,0.207-0.043,0.414-0.063,0.621c-0.004,0.042-0.019,0.052-0.058,0.052
	c-0.14-0.002-0.279-0.003-0.419,0.001c-0.057,0.001-0.063-0.019-0.057-0.068c0.023-0.204,0.042-0.409,0.066-0.612
	c0.005-0.044-0.007-0.055-0.048-0.054c-0.121,0.002-0.243,0.002-0.364,0c-0.04,0-0.053,0.012-0.057,0.052
	c-0.019,0.202-0.043,0.403-0.062,0.605c-0.005,0.056-0.022,0.081-0.085,0.077c-0.103-0.006-0.206,0.001-0.308-0.003
	c-0.054-0.002-0.066,0.017-0.064,0.066c0.003,0.111,0.003,0.221,0,0.332c-0.001,0.044,0.012,0.059,0.058,0.058
	c0.095-0.003,0.189,0.001,0.284-0.002c0.047-0.001,0.058,0.014,0.053,0.059c-0.021,0.178-0.043,0.356-0.059,0.534
	c-0.004,0.052-0.025,0.06-0.069,0.059c-0.113-0.002-0.226,0.001-0.339-0.002c-0.045-0.001-0.059,0.013-0.058,0.058
	c0.003,0.113,0.003,0.226,0,0.339c-0.001,0.042,0.012,0.055,0.053,0.053c0.098-0.002,0.195,0.002,0.292-0.002
	c0.055-0.002,0.064,0.016,0.059,0.068c-0.027,0.227-0.047,0.456-0.073,0.683c-0.005,0.042,0.002,0.055,0.046,0.054
	c0.124-0.002,0.248-0.003,0.372,0c0.045,0.001,0.057-0.016,0.061-0.058c0.02-0.22,0.044-0.44,0.064-0.66
	c0.005-0.061,0.019-0.098,0.093-0.088C16.133,12.674,16.194,12.667,16.255,12.667z M7.144,14.839
	c0.027,0.012,0.034,0.039,0.047,0.061c0.329,0.565,0.756,1.048,1.25,1.472c0.258,0.221,0.546,0.399,0.844,0.562
	c0.293,0.16,0.597,0.298,0.913,0.41c0.16,0.057,0.321,0.115,0.484,0.153c0.243,0.056,0.487,0.109,0.738,0.131
	c0.211,0.019,0.42,0.044,0.634,0.043c0.486-0.003,0.966-0.053,1.439-0.164c0.012-0.002,0.024-0.004,0.036-0.006
	c0.04-0.02,0.082-0.031,0.126-0.033c0.012-0.005,0.023-0.011,0.035-0.015c0.854-0.247,1.606-0.673,2.252-1.284
	c0.412-0.39,0.751-0.837,1.041-1.324c-0.007-0.031-0.036-0.037-0.058-0.049c-0.774-0.449-1.549-0.897-2.324-1.346
	c-0.024-0.014-0.046-0.036-0.078-0.031c-0.444,0.701-1.042,1.196-1.871,1.363c-0.875,0.176-1.658-0.044-2.355-0.587
	C10.046,14,9.839,13.761,9.67,13.491c-0.017-0.026-0.029-0.055-0.043-0.083c-0.146-0.226-0.243-0.472-0.301-0.732
	c-0.223-0.991,0.015-1.869,0.687-2.621c0.472-0.528,1.078-0.814,1.781-0.885c0.871-0.087,1.623,0.183,2.254,0.787
	c0.168,0.161,0.312,0.342,0.436,0.539c0.017,0.026,0.028,0.058,0.059,0.072c0.803-0.464,1.605-0.929,2.409-1.393
	c0.016-0.009,0.033-0.016,0.039-0.036c-0.086-0.096-0.145-0.211-0.219-0.315c-0.574-0.813-1.288-1.469-2.182-1.919
	c-0.428-0.215-0.878-0.367-1.346-0.47c-0.01,0-0.021,0.001-0.031,0c-0.475-0.093-0.953-0.128-1.437-0.097
	c-0.369,0.023-0.732,0.077-1.089,0.169C9.619,6.786,8.692,7.311,7.923,8.109c-0.543,0.564-0.945,1.215-1.208,1.953
	c-0.077,0.216-0.132,0.438-0.191,0.658c-0.002,0.013-0.002,0.026-0.006,0.039c-0.066,0.276-0.106,0.558-0.117,0.84
	c-0.015,0.421,0.001,0.84,0.071,1.259c0.109,0.648,0.303,1.266,0.608,1.848C7.104,14.749,7.14,14.787,7.144,14.839z"/>
<path d="M16.588,11.569c0.034,0,0.046,0.01,0.042,0.045c-0.021,0.186-0.04,0.371-0.058,0.556c-0.004,0.035-0.017,0.049-0.054,0.049
	c-0.142-0.002-0.284-0.002-0.426,0c-0.043,0-0.054-0.015-0.05-0.055c0.021-0.183,0.041-0.366,0.058-0.548
	c0.003-0.038,0.018-0.048,0.054-0.047c0.074,0.002,0.147,0.001,0.221,0.001C16.446,11.57,16.517,11.571,16.588,11.569z"/>
<path d="M13.272,16.584c0.038,0.042,0.077,0.032,0.105-0.028C13.34,16.559,13.305,16.568,13.272,16.584z"/>
</svg>
