<?xml version="1.0" encoding="utf-8"?>
<!-- Generator: Adobe Illustrator 16.0.0, SVG Export Plug-In . SVG Version: 6.00 Build 0)  -->
<!DOCTYPE svg PUBLIC "-//W3C//DTD SVG 1.1//EN" "http://www.w3.org/Graphics/SVG/1.1/DTD/svg11.dtd">
<svg version="1.1" id="Solid" xmlns="http://www.w3.org/2000/svg" xmlns:xlink="http://www.w3.org/1999/xlink" x="0px" y="0px"
	 width="24px" height="24px" viewBox="0 0 24 24" enable-background="new 0 0 24 24" xml:space="preserve">
<path d="M12.023,12.33c-0.001-0.007-0.001-0.014-0.002-0.02c0.129-0.055,0.258-0.109,0.387-0.164
	c0.853-0.361,1.705-0.722,2.558-1.083c0.041-0.018,0.089-0.022,0.093-0.09c0.024-0.369,0.051-0.737,0.082-1.105
	c0.006-0.073-0.013-0.091-0.086-0.09c-2.064,0.004-4.127,0.007-6.191,0.006c-0.093,0-0.098,0.035-0.086,0.107
	c0.054,0.352,0.109,0.703,0.156,1.055c0.011,0.082,0.034,0.107,0.118,0.106c0.972-0.01,1.944-0.016,2.916-0.023
	c0.049,0,0.098,0,0.148,0c-0.005,0.025-0.02,0.024-0.032,0.03c-0.979,0.413-1.958,0.826-2.938,1.236
	c-0.065,0.027-0.083,0.058-0.077,0.129c0.028,0.348,0.052,0.696,0.068,1.045c0.005,0.094,0.032,0.116,0.124,0.116
	c1.39-0.003,2.779-0.001,4.168-0.004c0.095,0,0.112,0.026,0.106,0.115c-0.036,0.481-0.067,0.962-0.095,1.444
	c-0.004,0.066-0.028,0.091-0.089,0.109c-0.416,0.123-0.831,0.25-1.246,0.377c-0.055,0.017-0.105,0.017-0.16,0.002
	c-0.418-0.116-0.836-0.231-1.255-0.342c-0.074-0.02-0.104-0.051-0.108-0.13c-0.016-0.27-0.042-0.539-0.062-0.809
	c-0.003-0.05-0.017-0.072-0.072-0.072c-0.376,0.002-0.753,0.002-1.129,0c-0.054,0-0.068,0.013-0.063,0.07
	c0.052,0.589,0.103,1.179,0.148,1.769c0.006,0.078,0.038,0.102,0.104,0.121c0.804,0.232,1.607,0.466,2.41,0.702
	c0.052,0.015,0.098,0.015,0.15,0c0.819-0.229,1.639-0.456,2.459-0.681c0.071-0.02,0.096-0.052,0.101-0.125
	c0.033-0.454,0.071-0.907,0.108-1.36c0.065-0.777,0.129-1.554,0.199-2.331c0.009-0.096-0.022-0.111-0.109-0.11
	c-0.893,0.003-1.787,0.002-2.68,0.002C12.104,12.33,12.063,12.33,12.023,12.33z"/>
<path d="M11.99,23.859c-6.544,0-11.836-5.304-11.831-11.864C0.165,5.472,5.478,0.158,12.043,0.183
	c6.53,0.025,11.809,5.344,11.792,11.886C23.82,18.57,18.516,23.859,11.99,23.859z M11.998,7.705c-0.797,0-1.594,0-2.392,0
	c-0.862,0-1.725,0.001-2.587-0.001c-0.077,0-0.112,0.004-0.101,0.102c0.042,0.391,0.073,0.783,0.109,1.174
	c0.051,0.552,0.102,1.104,0.153,1.655c0.058,0.63,0.117,1.26,0.175,1.89c0.051,0.555,0.101,1.11,0.152,1.665
	c0.058,0.626,0.117,1.253,0.175,1.879c0.058,0.626,0.115,1.253,0.169,1.88c0.006,0.064,0.031,0.093,0.095,0.11
	c1.326,0.354,2.652,0.712,3.978,1.069c0.043,0.012,0.082,0.017,0.129,0.004c1.332-0.36,2.664-0.718,3.997-1.075
	c0.059-0.016,0.083-0.044,0.087-0.104c0.055-0.616,0.113-1.232,0.169-1.849c0.058-0.626,0.114-1.253,0.172-1.88
	c0.065-0.705,0.132-1.409,0.197-2.114c0.064-0.702,0.127-1.403,0.192-2.104c0.066-0.726,0.134-1.451,0.201-2.176
	c0.011-0.125,0.009-0.125-0.123-0.125C15.297,7.705,13.647,7.705,11.998,7.705z M8.223,5.193c0,0.364,0.002,0.727-0.001,1.091
	c0,0.079,0.016,0.113,0.104,0.112c0.586-0.003,1.172-0.003,1.758,0c0.077,0,0.106-0.021,0.104-0.101
	c-0.005-0.184-0.007-0.368,0.001-0.552c0.004-0.1-0.033-0.121-0.125-0.119c-0.299,0.005-0.599,0-0.898,0.003
	C9.086,5.629,9.063,5.604,9.065,5.526c0.005-0.188,0.006-0.376,0-0.564C9.062,4.875,9.091,4.855,9.173,4.856
	c0.304,0.004,0.607,0,0.911,0.003c0.077,0.001,0.105-0.019,0.104-0.099c-0.004-0.214-0.005-0.428,0-0.642
	c0.002-0.085-0.028-0.107-0.11-0.106c-0.582,0.003-1.164,0.003-1.745,0C8.239,4.011,8.22,4.042,8.221,4.128
	C8.226,4.484,8.223,4.838,8.223,5.193z M12.25,4.858c0.205,0,0.42-0.002,0.636,0.001c0.074,0.001,0.108-0.013,0.106-0.097
	c-0.005-0.218-0.004-0.436,0-0.654c0.001-0.072-0.021-0.095-0.095-0.095c-0.594,0.002-1.188,0.002-1.782,0
	c-0.075,0-0.094,0.025-0.092,0.096c0.003,0.222,0.004,0.444,0,0.667c-0.001,0.063,0.024,0.103,0.066,0.143
	c0.211,0.206,0.421,0.413,0.63,0.621c0.021,0.021,0.062,0.035,0.051,0.087c-0.217,0-0.434,0.002-0.65-0.001
	c-0.071-0.001-0.098,0.018-0.096,0.093c0.005,0.192,0.005,0.385,0,0.577c-0.002,0.08,0.025,0.101,0.102,0.101
	c0.59-0.003,1.179-0.003,1.769,0c0.083,0,0.1-0.031,0.098-0.105c-0.004-0.175-0.007-0.351,0-0.525
	c0.004-0.098-0.028-0.166-0.097-0.234C12.676,5.312,12.465,5.084,12.25,4.858z M15.045,4.858c0.192,0,0.409-0.002,0.626,0.001
	c0.067,0.001,0.101-0.011,0.099-0.09c-0.004-0.222-0.005-0.444,0-0.667c0.002-0.079-0.032-0.09-0.098-0.089
	c-0.59,0.002-1.18,0.002-1.77,0c-0.069,0-0.099,0.017-0.098,0.092c0.004,0.227,0.003,0.453,0,0.68
	c-0.001,0.064,0.03,0.102,0.071,0.142c0.208,0.203,0.416,0.406,0.622,0.61c0.022,0.022,0.06,0.036,0.053,0.09
	c-0.216,0-0.433,0.002-0.649-0.001c-0.071-0.001-0.098,0.02-0.097,0.094c0.004,0.192,0.005,0.385,0,0.577
	c-0.002,0.081,0.028,0.1,0.104,0.099c0.585-0.002,1.171-0.003,1.756,0c0.088,0,0.107-0.03,0.105-0.111
	c-0.005-0.188-0.004-0.376,0-0.564c0.001-0.07-0.022-0.118-0.07-0.167C15.478,5.323,15.261,5.088,15.045,4.858z"/>
</svg>
