<?xml version="1.0" encoding="utf-8"?>
<!-- Generator: Adobe Illustrator 16.0.0, SVG Export Plug-In . SVG Version: 6.00 Build 0)  -->
<!DOCTYPE svg PUBLIC "-//W3C//DTD SVG 1.1//EN" "http://www.w3.org/Graphics/SVG/1.1/DTD/svg11.dtd">
<svg version="1.1" id="Solid" xmlns="http://www.w3.org/2000/svg" xmlns:xlink="http://www.w3.org/1999/xlink" x="0px" y="0px"
	 width="24px" height="24px" viewBox="0 0 24 24" enable-background="new 0 0 24 24" xml:space="preserve">
<polygon points="11.246,12.409 9.207,12.409 10.318,9.37 "/>
<path d="M11.99,23.859c-6.545,0-11.836-5.304-11.83-11.864C0.166,5.472,5.479,0.159,12.043,0.183
	c6.531,0.024,11.811,5.345,11.793,11.886C23.82,18.571,18.516,23.86,11.99,23.859z M17.539,7.518c0-0.61-0.494-1.105-1.105-1.105
	c-0.609,0-1.104,0.495-1.104,1.105c0,0.609,0.494,1.104,1.104,1.104C17.045,8.623,17.539,8.127,17.539,7.518z M11.783,14.164
	l0.664,2.177h2.066l-3.195-9.204L9.066,7.129L5.867,16.34H7.77l0.795-2.177H11.783z M15.445,16.34h1.979V9.306h-1.979V16.34z"/>
</svg>
