<?xml version="1.0" encoding="utf-8"?>
<!-- Generator: Adobe Illustrator 16.0.0, SVG Export Plug-In . SVG Version: 6.00 Build 0)  -->
<!DOCTYPE svg PUBLIC "-//W3C//DTD SVG 1.1//EN" "http://www.w3.org/Graphics/SVG/1.1/DTD/svg11.dtd">
<svg version="1.1" id="Solid" xmlns="http://www.w3.org/2000/svg" xmlns:xlink="http://www.w3.org/1999/xlink" x="0px" y="0px"
	 width="24px" height="24px" viewBox="0 0 24 24" enable-background="new 0 0 24 24" xml:space="preserve">
<path d="M10.486,19.473c0,0.018,0,0.036,0,0.053c0,0.152,0.031,0.308-0.141,0.409c-0.238,0.138-0.477,0.25-0.754,0.143
	c-0.197-0.077-0.248-0.25-0.246-0.444c0.002-0.2,0.084-0.352,0.271-0.434c0.25-0.109,0.52-0.1,0.785-0.102
	c0.063,0,0.084,0.038,0.084,0.095C10.484,19.287,10.486,19.38,10.486,19.473L10.486,19.473z"/>
<path d="M16.125,19.482c0,0.009,0,0.018,0,0.027c-0.018,0.115,0.055,0.255-0.043,0.342c-0.156,0.137-0.336,0.247-0.553,0.26
	c-0.281,0.017-0.434-0.054-0.502-0.252c-0.094-0.263-0.035-0.578,0.309-0.687c0.234-0.074,0.473-0.063,0.713-0.066
	c0.059,0,0.076,0.03,0.076,0.083C16.123,19.287,16.125,19.385,16.125,19.482z"/>
<path d="M11.99,23.859c-6.545,0-11.836-5.304-11.83-11.864C0.166,5.472,5.479,0.158,12.043,0.183
	c6.531,0.025,11.811,5.344,11.793,11.886C23.82,18.57,18.516,23.859,11.99,23.859z M15.207,9.741
	c0.139-0.027,0.246-0.059,0.354-0.068c0.414-0.034,0.875,0.29,0.869,0.758c-0.004,0.307-0.146,0.544-0.338,0.761
	c-0.305,0.344-0.688,0.584-1.088,0.8c-0.037,0.021-0.1,0.026-0.08,0.109c0.283-0.075,0.559-0.168,0.824-0.288
	c0.398-0.182,0.768-0.411,1.031-0.775c0.348-0.483,0.252-1.05-0.242-1.365c-0.311-0.198-0.652-0.215-1.002-0.126
	C15.42,9.576,15.295,9.597,15.207,9.741z M16.977,14.351c-0.105,0.074-0.191,0.156-0.297,0.212
	c-0.424,0.227-0.883,0.344-1.348,0.445c-0.975,0.211-1.963,0.297-2.959,0.333c-0.6,0.021-1.197,0.011-1.797-0.02
	c-0.346-0.019-0.691-0.049-1.035-0.086c-0.16-0.017-0.318-0.04-0.51-0.063c0.074,0.064,0.129,0.086,0.188,0.104
	c0.652,0.197,1.326,0.245,2,0.272c0.83,0.034,1.662,0.034,2.492-0.029c0.783-0.06,1.564-0.148,2.316-0.397
	c0.279-0.093,0.549-0.208,0.764-0.417C16.885,14.613,16.977,14.513,16.977,14.351z M14.432,11.793
	c-0.205-0.088-0.369-0.188-0.518-0.313c-0.037-0.031-0.086-0.009-0.131-0.001c-0.98,0.192-1.969,0.282-2.967,0.192
	c-0.244-0.021-0.488-0.024-0.725-0.098c-0.211-0.064-0.248-0.188-0.109-0.354c0.016-0.018,0.049-0.031,0.02-0.072
	c-0.18,0.063-0.357,0.129-0.508,0.25c-0.188,0.15-0.178,0.308,0.021,0.438c0.09,0.059,0.186,0.104,0.289,0.137
	c0.42,0.14,0.857,0.189,1.297,0.213c0.852,0.045,1.695-0.02,2.531-0.186C13.893,11.949,14.152,11.898,14.432,11.793z M10.326,12.592
	c-0.182,0.046-0.332,0.107-0.461,0.214c-0.148,0.124-0.152,0.248-0.014,0.384c0.156,0.154,0.357,0.226,0.563,0.286
	c0.707,0.206,1.426,0.23,2.152,0.152c0.518-0.056,1.021-0.175,1.508-0.365c0.031-0.012,0.08-0.014,0.084-0.054
	c0.006-0.055-0.053-0.048-0.086-0.064c-0.154-0.077-0.316-0.143-0.465-0.23c-0.098-0.057-0.188-0.064-0.291-0.043
	c-0.615,0.125-1.236,0.184-1.865,0.149c-0.334-0.018-0.666-0.038-0.99-0.112C10.248,12.859,10.221,12.79,10.326,12.592z
	 M14.863,10.125c-0.035-0.002-0.057-0.009-0.076-0.004c-0.529,0.114-1.068,0.174-1.605,0.226c-0.881,0.084-1.764,0.13-2.648,0.107
	c-0.369-0.009-0.738-0.023-1.096-0.124c-0.068-0.02-0.152-0.037-0.16-0.12c-0.01-0.083,0.068-0.12,0.129-0.154
	c0.186-0.107,0.387-0.178,0.59-0.24c0.184-0.056,0.367-0.108,0.576-0.17c-0.088-0.033-0.15-0.025-0.211-0.02
	C9.916,9.662,9.482,9.747,9.063,9.902c-0.215,0.08-0.434,0.161-0.631,0.283c-0.16,0.099-0.16,0.203-0.004,0.301
	c0.115,0.072,0.246,0.104,0.375,0.133c0.629,0.14,1.268,0.164,1.906,0.177c0.824,0.017,1.645-0.023,2.461-0.135
	c0.531-0.073,1.08-0.112,1.547-0.431C14.762,10.198,14.82,10.185,14.863,10.125z M8.266,18.474c0.004,0,0.006,0,0.01,0
	c0-0.64-0.002-1.279,0.002-1.919c0.002-0.112-0.031-0.147-0.143-0.137c-0.137,0.012-0.275,0.009-0.414,0.002
	c-0.082-0.003-0.111,0.024-0.107,0.106c0.008,0.155,0.01,0.311,0.008,0.466c-0.01,1.088,0.018,2.176-0.016,3.264
	c-0.012,0.369-0.152,0.655-0.451,0.869c-0.182,0.128-0.178,0.132-0.041,0.301c0.158,0.194,0.16,0.197,0.385,0.08
	c0.477-0.249,0.752-0.637,0.766-1.179C8.277,19.709,8.266,19.091,8.266,18.474z M15.049,5.107c-0.123-0.051-0.195,0.022-0.277,0.047
	c-0.492,0.149-0.965,0.348-1.408,0.61c-0.467,0.275-0.885,0.6-1.113,1.115c-0.158,0.358-0.125,0.713,0,1.069
	c0.105,0.298,0.309,0.534,0.508,0.769c0.273,0.323,0.252,0.73,0.047,1.059c-0.063,0.097-0.127,0.189-0.264,0.26
	c0.166,0.009,0.258-0.079,0.34-0.141c0.084-0.063,0.162-0.144,0.246-0.211c0.227-0.183,0.408-0.415,0.49-0.681
	c0.072-0.234,0.053-0.501-0.105-0.726c-0.129-0.182-0.262-0.362-0.387-0.548c-0.102-0.15-0.186-0.31-0.213-0.493
	c-0.049-0.318,0.086-0.572,0.285-0.796c0.359-0.399,0.807-0.688,1.25-0.979C14.637,5.339,14.828,5.218,15.049,5.107z M9.35,13.603
	c-0.102-0.064-0.18-0.078-0.266-0.08c-0.311-0.008-0.609,0.062-0.9,0.156c-0.287,0.092-0.572,0.198-0.803,0.406
	c-0.199,0.182-0.168,0.332,0.082,0.44c0.215,0.093,0.443,0.121,0.672,0.156c1.01,0.158,2.027,0.237,3.051,0.255
	c1.01,0.017,2.016-0.034,3.016-0.183c0.539-0.081,1.074-0.189,1.588-0.383c0.184-0.069,0.367-0.144,0.512-0.279
	c0.174-0.161,0.131-0.334-0.096-0.406c0.047,0.203,0.008,0.281-0.191,0.387c-0.188,0.1-0.391,0.148-0.594,0.191
	c-0.908,0.188-1.83,0.257-2.752,0.29c-1.105,0.039-2.213,0.042-3.314-0.096c-0.371-0.046-0.738-0.109-1.09-0.243
	c-0.068-0.026-0.154-0.05-0.158-0.14c-0.004-0.086,0.07-0.129,0.135-0.167c0.143-0.084,0.299-0.137,0.455-0.189
	C8.896,13.65,9.107,13.631,9.35,13.603z M12.805,20.521c0.109-0.023,0.27,0.058,0.363-0.03c0.09-0.084,0.117-0.235,0.172-0.356
	c0.018-0.041,0.037-0.081,0.053-0.122c0.152-0.382,0.281-0.772,0.396-1.168c0.119-0.413,0.217-0.829,0.299-1.25
	c0.016-0.081,0.002-0.117-0.09-0.109c-0.098,0.008-0.195,0.006-0.293,0.006c-0.264,0-0.264,0-0.299,0.268
	c-0.004,0.031-0.012,0.062-0.018,0.092c-0.047,0.302-0.113,0.601-0.193,0.896c-0.092,0.338-0.191,0.673-0.291,1.009
	c-0.006,0.025-0.021,0.055-0.049,0.056c-0.037,0.002-0.033-0.033-0.039-0.058c-0.168-0.734-0.428-1.441-0.637-2.164
	c-0.021-0.075-0.059-0.101-0.131-0.1c-0.156,0.002-0.313,0.006-0.467,0c-0.111-0.005-0.113,0.041-0.086,0.127
	c0.264,0.845,0.523,1.691,0.787,2.537c0.037,0.118,0.033,0.275,0.125,0.343C12.506,20.568,12.656,20.515,12.805,20.521z
	 M12.111,9.526c-0.072-0.119-0.143-0.24-0.215-0.357c-0.215-0.342-0.484-0.648-0.654-1.02c-0.184-0.394-0.229-0.788-0.051-1.195
	c0.18-0.413,0.486-0.722,0.826-1c0.484-0.396,0.959-0.8,1.318-1.319c0.23-0.335,0.404-0.695,0.457-1.107
	c0.051-0.398-0.074-0.751-0.262-1.091c-0.016-0.027-0.039-0.022-0.057-0.017c-0.029,0.008-0.016,0.037-0.014,0.056
	c0.014,0.092,0.035,0.183,0.043,0.275c0.072,0.708-0.221,1.275-0.691,1.77c-0.346,0.363-0.75,0.66-1.143,0.97
	c-0.385,0.305-0.768,0.613-1.055,1.02c-0.156,0.22-0.25,0.463-0.23,0.733c0.021,0.288,0.137,0.548,0.291,0.79
	c0.299,0.466,0.686,0.856,1.088,1.229C11.867,9.359,11.951,9.484,12.111,9.526z M11.105,19.333c0-0.169,0-0.338,0-0.507
	c0-0.173,0.002-0.346-0.002-0.52c-0.01-0.423-0.232-0.716-0.641-0.818c-0.453-0.113-0.896-0.051-1.33,0.104
	c-0.266,0.095-0.262,0.098-0.195,0.364c0.023,0.096,0.059,0.117,0.158,0.079c0.299-0.112,0.611-0.153,0.93-0.125
	c0.107,0.01,0.209,0.041,0.299,0.119c0.146,0.131,0.154,0.3,0.154,0.475c0,0.204,0,0.207-0.201,0.204
	c-0.334-0.005-0.664,0.025-0.975,0.163c-0.541,0.24-0.707,0.75-0.514,1.244c0.172,0.441,0.672,0.535,1.164,0.425
	c0.193-0.043,0.359-0.146,0.516-0.264c0.043-0.031,0.088-0.074,0.113,0.024c0.055,0.219,0.059,0.218,0.289,0.218
	c0.035,0,0.07-0.004,0.105,0.002c0.098,0.016,0.133-0.019,0.131-0.122C11.102,20.044,11.105,19.688,11.105,19.333z M16.756,19.339
	h-0.002c0-0.333,0.002-0.667,0-1c-0.006-0.444-0.213-0.739-0.641-0.849c-0.449-0.115-0.898-0.058-1.332,0.098
	c-0.26,0.093-0.254,0.102-0.201,0.363c0.02,0.095,0.055,0.125,0.156,0.086c0.299-0.112,0.609-0.153,0.928-0.129
	c0.221,0.017,0.375,0.128,0.443,0.339c0.035,0.111,0.008,0.23,0.018,0.345c0.008,0.096-0.031,0.12-0.121,0.119
	c-0.307-0.005-0.609,0.011-0.908,0.103c-0.49,0.151-0.748,0.494-0.729,1.006c0.016,0.414,0.314,0.714,0.727,0.754
	c0.373,0.035,0.701-0.056,0.996-0.281c0.055-0.041,0.111-0.101,0.139,0.024c0.047,0.206,0.049,0.205,0.254,0.204
	c0.049,0,0.1-0.005,0.146,0c0.104,0.014,0.129-0.035,0.129-0.13C16.754,20.042,16.756,19.69,16.756,19.339z"/>
</svg>
