<?xml version="1.0" encoding="utf-8"?>
<!-- Generator: Adobe Illustrator 16.0.0, SVG Export Plug-In . SVG Version: 6.00 Build 0)  -->
<!DOCTYPE svg PUBLIC "-//W3C//DTD SVG 1.1//EN" "http://www.w3.org/Graphics/SVG/1.1/DTD/svg11.dtd">
<svg version="1.1" id="Solid" xmlns="http://www.w3.org/2000/svg" xmlns:xlink="http://www.w3.org/1999/xlink" x="0px" y="0px"
	 width="24px" height="24px" viewBox="0 0 24 24" enable-background="new 0 0 24 24" xml:space="preserve">
<path d="M14.758,13.735c-0.014,0.004-0.021,0.01-0.004,0.02C14.76,13.749,14.762,13.743,14.758,13.735z"/>
<path d="M14.768,13.668c-0.006,0.006-0.008,0.013-0.004,0.021C14.77,13.684,14.771,13.676,14.768,13.668z"/>
<path d="M11.99,23.859c-6.545,0-11.836-5.304-11.83-11.864C0.166,5.472,5.479,0.158,12.043,0.183
	c6.531,0.025,11.811,5.344,11.793,11.886C23.82,18.571,18.516,23.86,11.99,23.859z M12.389,18.457
	c0.016,0.032,0.008,0.063,0.006,0.094c-0.025,0.575-0.008,1.151-0.014,1.726c0,0.031,0.01,0.038,0.039,0.037
	c0.111-0.001,0.223-0.001,0.336,0.001c0.031,0.001,0.039-0.013,0.039-0.042c-0.002-0.781-0.002-1.563,0-2.346
	c0-0.035-0.01-0.045-0.045-0.045c-0.164,0.002-0.326,0.002-0.49,0c-0.033,0-0.051,0.01-0.061,0.043
	c-0.043,0.135-0.09,0.267-0.133,0.4c-0.141,0.433-0.299,0.859-0.414,1.3c-0.004,0.01-0.004,0.021-0.018,0.027
	c-0.033-0.111-0.061-0.221-0.094-0.329c-0.145-0.469-0.311-0.932-0.465-1.399c-0.01-0.03-0.021-0.042-0.057-0.042
	c-0.16,0.002-0.318,0.002-0.479,0c-0.049-0.002-0.057,0.015-0.057,0.059c0,0.713,0,1.426,0,2.139c0,0.066,0.002,0.131,0,0.197
	c0,0.029,0.01,0.038,0.039,0.037c0.107-0.001,0.217-0.002,0.326,0c0.039,0.002,0.053-0.009,0.051-0.049
	c-0.004-0.569,0.012-1.139-0.016-1.707c0-0.031,0-0.063,0-0.096c0.016,0.007,0.016,0.021,0.02,0.033
	c0.066,0.244,0.148,0.484,0.23,0.725c0.117,0.344,0.234,0.688,0.35,1.034c0.016,0.044,0.033,0.065,0.084,0.061
	c0.055-0.005,0.111-0.003,0.168-0.001c0.029,0.002,0.041-0.01,0.051-0.037c0.035-0.109,0.072-0.217,0.109-0.326
	c0.145-0.435,0.301-0.865,0.436-1.303C12.352,18.583,12.369,18.52,12.389,18.457z M15.053,20.313c0.057,0,0.115-0.002,0.172,0
	c0.041,0.002,0.051-0.008,0.035-0.047c-0.068-0.178-0.133-0.356-0.197-0.535c-0.223-0.602-0.443-1.204-0.664-1.807
	c-0.012-0.031-0.027-0.044-0.063-0.043c-0.094,0.002-0.189,0.002-0.283,0C14.018,17.88,14,17.89,13.988,17.926
	c-0.092,0.254-0.188,0.509-0.281,0.764c-0.193,0.528-0.389,1.057-0.584,1.586c-0.01,0.03-0.006,0.038,0.027,0.037
	c0.119-0.001,0.238-0.001,0.359,0.001c0.033,0.001,0.047-0.011,0.057-0.042c0.064-0.181,0.129-0.36,0.193-0.541
	c0.01-0.029,0.023-0.039,0.053-0.039c0.254,0.002,0.506,0.002,0.758,0c0.037,0,0.053,0.013,0.064,0.047
	c0.063,0.18,0.129,0.357,0.189,0.537c0.012,0.029,0.025,0.039,0.055,0.037C14.938,20.311,14.994,20.313,15.053,20.313z M15.4,17.882
	c0,0.023,0.012,0.035,0.02,0.048c0.24,0.367,0.482,0.734,0.725,1.101c0.021,0.034,0.023,0.057,0,0.092
	c-0.254,0.382-0.508,0.764-0.76,1.146c-0.008,0.012-0.023,0.023-0.016,0.037c0.008,0.015,0.025,0.008,0.039,0.008
	c0.125,0,0.25-0.001,0.375,0c0.029,0.001,0.049-0.008,0.064-0.035c0.18-0.281,0.361-0.562,0.541-0.842
	c0.029-0.047,0.031-0.047,0.061,0.002c0.182,0.282,0.363,0.564,0.543,0.847c0.014,0.021,0.029,0.029,0.055,0.028
	c0.074-0.001,0.146,0,0.221,0c0.068,0,0.135,0,0.213,0c-0.016-0.025-0.025-0.041-0.035-0.057c-0.252-0.379-0.502-0.759-0.756-1.137
	c-0.021-0.033-0.018-0.055,0.002-0.085c0.244-0.369,0.486-0.739,0.729-1.108c0.008-0.013,0.023-0.023,0.016-0.045
	c-0.145,0-0.291,0.001-0.436,0c-0.025,0-0.037,0.014-0.049,0.032c-0.168,0.266-0.338,0.531-0.506,0.797
	c-0.027,0.043-0.025,0.043-0.053-0.001c-0.17-0.266-0.34-0.533-0.51-0.8c-0.01-0.018-0.021-0.028-0.045-0.028
	C15.693,17.882,15.547,17.882,15.4,17.882z M12.072,12.063c0.012,0.135-0.002,0.271-0.037,0.406
	c-0.086,0.314-0.273,0.566-0.566,0.756c-0.412,0.268-0.854,0.335-1.324,0.204c-0.42-0.116-0.738-0.35-0.953-0.698
	c-0.09-0.148-0.172-0.3-0.244-0.454c-0.693,0.087-1.385,0.174-2.078,0.261c-0.002,0.004-0.006,0.007-0.01,0.01
	c-0.199,0.195-0.307,0.383-0.318,0.563c-0.049,0.704,0.166,1.393,0.645,2.063c0.676,0.947,1.68,1.501,3.012,1.662
	c1.291,0.156,2.391-0.154,3.297-0.933c0.691-0.592,1.109-1.31,1.256-2.152c0.002,0.001,0.002,0.002,0.004,0.003
	c0.006-0.006,0.008-0.012,0.004-0.02c-0.002,0.001-0.004,0.002-0.006,0.002c0.014-0.082,0.025-0.164,0.035-0.249
	c0.066-0.637-0.035-1.233-0.303-1.79c-0.111-0.229-0.229-0.453-0.354-0.674c-0.045,0.042-0.092,0.083-0.139,0.123
	c-0.107,0.088-0.219,0.172-0.334,0.25c-0.113,0.077-0.232,0.148-0.355,0.214s-0.25,0.124-0.379,0.177
	c-0.064,0.027-0.129,0.052-0.195,0.074c-0.018,0.006-0.033,0.012-0.051,0.018c-0.023,0.008-0.047,0.016-0.07,0.023
	c-0.055,0.018-0.109,0.035-0.164,0.053C12.32,11.994,12.197,12.03,12.072,12.063z M14.768,13.668
	c-0.006,0.006-0.008,0.013-0.004,0.021C14.77,13.684,14.771,13.676,14.768,13.668z M11.598,11.36c0.367-0.104,0.73-0.232,1.09-0.385
	c0.695-0.296,1.25-0.767,1.666-1.412c0.322-0.502,0.51-1.04,0.561-1.617c0.041-0.471-0.006-0.934-0.141-1.388
	c-0.201-0.677-0.57-1.264-1.107-1.76c-0.607-0.561-1.309-0.908-2.102-1.041c-0.6-0.101-1.193-0.09-1.783,0.03
	C9.211,3.904,8.688,4.14,8.213,4.494C7.697,4.879,7.299,5.356,7.021,5.925C6.787,6.401,6.613,6.891,6.496,7.394
	C6.479,7.468,6.465,7.558,6.453,7.665C6.51,7.671,6.568,7.676,6.627,7.682c0.467,0.044,0.934,0.089,1.4,0.134
	c0.367,0.035,0.734,0.07,1.104,0.105C9.16,7.799,9.209,7.68,9.279,7.564c0.137-0.228,0.326-0.395,0.568-0.5
	c0.24-0.105,0.49-0.149,0.748-0.133c0.25,0.016,0.482,0.074,0.693,0.174c0.205,0.095,0.375,0.254,0.516,0.477
	c0.063,0.097,0.111,0.213,0.148,0.349c-0.035,0.032-0.068,0.065-0.104,0.097c-0.441,0.413-0.936,0.743-1.484,0.99
	c-0.41,0.185-0.83,0.333-1.264,0.444c-0.125,0.031-0.25,0.063-0.375,0.092c0.021,0.459,0.041,0.92,0.061,1.379
	c0.166,0.071,0.332,0.138,0.502,0.201c0.586,0.215,1.184,0.304,1.793,0.266C11.254,11.389,11.426,11.375,11.598,11.36z"/>
<path d="M13.908,19.313c0.1-0.275,0.193-0.553,0.281-0.833c0.02,0.002,0.018,0.019,0.02,0.028c0.082,0.259,0.168,0.516,0.26,0.771
	c0.008,0.017,0.025,0.039-0.016,0.039c-0.178,0-0.355,0-0.533-0.001C13.918,19.318,13.914,19.316,13.908,19.313z"/>
</svg>
