<?xml version="1.0" encoding="utf-8"?>
<!-- Generator: Adobe Illustrator 16.0.0, SVG Export Plug-In . SVG Version: 6.00 Build 0)  -->
<!DOCTYPE svg PUBLIC "-//W3C//DTD SVG 1.1//EN" "http://www.w3.org/Graphics/SVG/1.1/DTD/svg11.dtd">
<svg version="1.1" id="Solid" xmlns="http://www.w3.org/2000/svg" xmlns:xlink="http://www.w3.org/1999/xlink" x="0px" y="0px"
	 width="24px" height="24px" viewBox="0 0 24 24" enable-background="new 0 0 24 24" xml:space="preserve">
<path d="M11.99,23.859c-6.544,0-11.836-5.304-11.831-11.864C0.165,5.472,5.478,0.158,12.043,0.183
	c6.53,0.025,11.809,5.344,11.792,11.886C23.82,18.571,18.516,23.86,11.99,23.859z M10.489,5.637
	c-0.538,0.018-1.002,0.215-1.386,0.59C8.6,6.718,8.399,7.337,8.38,8.024c-0.021,0.742,0.159,1.443,0.466,2.113
	c0.26,0.568,0.61,1.077,1.065,1.509c0.307,0.291,0.664,0.386,1.072,0.249c0.096-0.031,0.192-0.063,0.286-0.102
	c0.415-0.168,0.836-0.234,1.272-0.095c0.169,0.054,0.334,0.118,0.502,0.175c0.433,0.146,0.826,0.075,1.156-0.244
	c0.532-0.516,0.91-1.131,1.16-1.826c0.02-0.057,0-0.074-0.048-0.097c-0.314-0.148-0.573-0.366-0.772-0.651
	c-0.48-0.684-0.493-1.9,0.521-2.542c0.091-0.058,0.085-0.093,0.023-0.166c-0.493-0.581-1.132-0.779-1.868-0.71
	c-0.334,0.032-0.642,0.171-0.954,0.285c-0.213,0.078-0.419,0.1-0.633,0.011c-0.097-0.04-0.196-0.073-0.295-0.107
	C11.058,5.732,10.786,5.63,10.489,5.637z M13.625,3.851c0-0.032-0.003-0.065,0-0.098c0.01-0.093-0.021-0.112-0.116-0.097
	c-0.203,0.033-0.396,0.093-0.575,0.189c-0.657,0.353-1.028,0.891-1.057,1.65c-0.004,0.105,0.038,0.126,0.132,0.122
	c0.288-0.014,0.547-0.106,0.774-0.279C13.276,4.963,13.598,4.49,13.625,3.851z M4.467,14.985c0-0.023,0-0.047,0.001-0.07
	c0-0.027,0.001-0.054,0.001-0.08c0-0.025,0-0.05-0.002-0.074c0-0.006,0-0.013-0.001-0.02c-0.003-0.037-0.007-0.074-0.013-0.11
	c-0.013-0.078-0.032-0.155-0.059-0.229c-0.025-0.071-0.057-0.141-0.096-0.207c-0.035-0.063-0.076-0.121-0.122-0.176
	c-0.047-0.057-0.101-0.109-0.158-0.156s-0.119-0.088-0.185-0.123c-0.066-0.035-0.136-0.064-0.208-0.086
	c-0.018-0.006-0.037-0.011-0.055-0.016c-0.012-0.003-0.025-0.006-0.037-0.009c-0.02-0.004-0.039-0.008-0.058-0.011
	c-0.076-0.014-0.153-0.021-0.23-0.021c-0.075,0-0.149,0.007-0.223,0.021c-0.072,0.014-0.144,0.033-0.213,0.059
	c-0.07,0.027-0.138,0.061-0.202,0.101c-0.062,0.038-0.121,0.083-0.174,0.133c-0.055,0.051-0.104,0.106-0.148,0.167
	c-0.011,0.015-0.021,0.03-0.032,0.046c-0.01,0.015-0.019,0.03-0.028,0.046c-0.016,0.025-0.031,0.053-0.044,0.079
	c-0.027,0.053-0.051,0.106-0.071,0.163c-0.02,0.055-0.036,0.109-0.048,0.166c-0.007,0.033-0.014,0.068-0.019,0.102
	c-0.005,0.035-0.009,0.068-0.012,0.104c-0.003,0.028-0.004,0.057-0.005,0.085c-0.001,0.028-0.002,0.057-0.001,0.085
	c0,0.058,0.003,0.115,0.008,0.172c0.001,0.015,0.002,0.029,0.004,0.043c0.001,0.015,0.003,0.029,0.005,0.043
	c0.002,0.015,0.004,0.029,0.006,0.043c0.002,0.016,0.004,0.029,0.006,0.043c0.009,0.059,0.021,0.116,0.037,0.173
	c0.015,0.054,0.034,0.108,0.055,0.159s0.045,0.1,0.073,0.147c0.026,0.046,0.056,0.091,0.089,0.132
	c0.032,0.041,0.066,0.08,0.103,0.117c0.036,0.035,0.075,0.068,0.116,0.1c0.041,0.03,0.084,0.059,0.129,0.083
	c0.044,0.024,0.091,0.047,0.139,0.065c0.048,0.02,0.097,0.035,0.147,0.047c0.051,0.012,0.103,0.021,0.155,0.027
	c0.027,0.003,0.054,0.005,0.081,0.006c0.027,0.002,0.054,0.002,0.082,0.002c0.028-0.001,0.056-0.002,0.083-0.005
	c0.028-0.002,0.056-0.005,0.083-0.009c0.057-0.008,0.113-0.02,0.169-0.035c0.014-0.004,0.028-0.008,0.042-0.012
	c0.014-0.004,0.028-0.008,0.042-0.013c0.019-0.006,0.037-0.013,0.055-0.02c0.036-0.014,0.07-0.029,0.104-0.047
	c0.034-0.017,0.066-0.036,0.098-0.058c0.031-0.02,0.061-0.043,0.09-0.066s0.056-0.049,0.082-0.076
	c0.026-0.026,0.052-0.055,0.075-0.084c0.048-0.061,0.089-0.127,0.125-0.195c0.037-0.072,0.067-0.147,0.09-0.225
	c0.025-0.082,0.043-0.166,0.055-0.251C4.463,15.168,4.468,15.077,4.467,14.985z M5.336,14.575c0-0.076,0-0.152-0.001-0.228
	c0-0.072-0.001-0.144-0.001-0.216c0-0.138,0.001-0.275,0.005-0.412c0-0.014,0-0.029,0-0.043c-0.001-0.014-0.002-0.027-0.004-0.04
	c-0.001-0.009-0.004-0.019-0.006-0.026c-0.002-0.007-0.004-0.013-0.006-0.018c-0.004-0.012-0.011-0.022-0.018-0.033
	c-0.007-0.01-0.016-0.019-0.025-0.026c-0.009-0.007-0.02-0.015-0.03-0.019c-0.011-0.006-0.022-0.01-0.034-0.014
	c-0.004,0-0.008-0.002-0.012-0.002c-0.006-0.002-0.013-0.003-0.019-0.004c-0.013-0.002-0.026-0.003-0.04-0.004
	c-0.014,0-0.028,0-0.042,0c-0.013,0-0.025,0.001-0.038,0.002c-0.012,0.001-0.023,0.002-0.035,0.005
	c-0.007,0.001-0.014,0.003-0.02,0.005C5,13.505,4.989,13.51,4.979,13.514c-0.01,0.006-0.02,0.012-0.028,0.02
	c-0.008,0.008-0.016,0.017-0.022,0.026c-0.003,0.005-0.006,0.01-0.009,0.015c-0.003,0.006-0.005,0.011-0.007,0.016
	c-0.004,0.012-0.007,0.023-0.01,0.034c-0.002,0.013-0.004,0.024-0.005,0.037c-0.001,0.014-0.001,0.027-0.001,0.041
	c0.006,0.798,0.006,1.597,0,2.396c0,0.014,0,0.028,0.001,0.043c0.001,0.012,0.002,0.025,0.005,0.038
	c0.002,0.012,0.006,0.023,0.011,0.034c0.002,0.006,0.005,0.012,0.008,0.017c0.003,0.005,0.007,0.011,0.01,0.015
	c0.004,0.005,0.008,0.01,0.012,0.014s0.009,0.008,0.014,0.012c0.009,0.006,0.02,0.012,0.03,0.017
	c0.012,0.005,0.024,0.009,0.036,0.013c0.012,0.003,0.023,0.006,0.035,0.007c0.013,0.003,0.026,0.004,0.039,0.006
	c0.005,0.001,0.011,0.001,0.016,0.001c0.005,0.001,0.01,0.001,0.015,0.001c0.01,0.001,0.019,0,0.029-0.001
	c0.009-0.001,0.018-0.002,0.026-0.005c0.008-0.003,0.017-0.005,0.024-0.009c0.008-0.003,0.015-0.008,0.021-0.012
	s0.013-0.01,0.019-0.016c0.005-0.004,0.01-0.01,0.015-0.016s0.008-0.012,0.012-0.018c0.006-0.011,0.012-0.022,0.017-0.034
	c0.005-0.011,0.009-0.022,0.013-0.034c0.002-0.008,0.005-0.016,0.008-0.023c0-0.001,0.001-0.002,0.001-0.004
	c0.031,0.022,0.063,0.043,0.095,0.063c0.031,0.018,0.062,0.034,0.095,0.049c0.036,0.017,0.073,0.03,0.111,0.042
	c0.037,0.011,0.074,0.02,0.112,0.025c0.036,0.005,0.073,0.009,0.109,0.009c0.036,0,0.071-0.002,0.106-0.008
	c0.034-0.004,0.068-0.012,0.102-0.021c0.033-0.01,0.065-0.022,0.096-0.037c0.045-0.021,0.089-0.047,0.13-0.076
	c0.028-0.021,0.054-0.043,0.08-0.066c0.025-0.024,0.049-0.051,0.072-0.077c0.046-0.056,0.085-0.116,0.117-0.181
	c0.034-0.068,0.06-0.139,0.079-0.212c0.01-0.038,0.017-0.075,0.023-0.114c0.003-0.02,0.005-0.039,0.007-0.06
	c0-0.009,0.001-0.018,0.002-0.026c0.001-0.008,0.001-0.016,0.002-0.024c0.005-0.065,0.008-0.131,0.007-0.196
	c0-0.033-0.001-0.066-0.003-0.1c-0.001-0.017-0.002-0.033-0.004-0.049s-0.003-0.029-0.005-0.044C6.645,15,6.639,14.963,6.631,14.926
	c-0.008-0.036-0.017-0.072-0.027-0.107c-0.011-0.034-0.023-0.068-0.038-0.102c-0.014-0.032-0.031-0.063-0.05-0.094
	c-0.019-0.03-0.04-0.059-0.063-0.086c-0.024-0.027-0.05-0.053-0.078-0.076c-0.029-0.023-0.06-0.045-0.093-0.063
	c-0.035-0.02-0.071-0.037-0.109-0.051c-0.02-0.007-0.04-0.014-0.06-0.019c-0.02-0.006-0.04-0.011-0.06-0.015
	c-0.038-0.009-0.077-0.015-0.116-0.018c-0.038-0.002-0.075-0.002-0.112,0.002c-0.036,0.004-0.072,0.01-0.108,0.02
	c-0.035,0.01-0.07,0.022-0.104,0.038c-0.034,0.017-0.067,0.035-0.099,0.057c-0.031,0.021-0.06,0.044-0.088,0.068
	C5.396,14.51,5.365,14.542,5.336,14.575z M7.132,15.447c0,0.267,0,0.532,0,0.798c0,0.01,0,0.021,0,0.031c0,0.004,0,0.008,0,0.012
	c0,0.008,0,0.016,0,0.023c-0.001,0.021-0.002,0.041-0.003,0.063c-0.001,0.018-0.003,0.036-0.006,0.055
	c-0.002,0.016-0.005,0.031-0.008,0.047c-0.003,0.014-0.007,0.027-0.011,0.041c-0.004,0.011-0.008,0.021-0.013,0.033
	c-0.004,0.01-0.01,0.018-0.016,0.027c-0.002,0.004-0.005,0.007-0.008,0.01c-0.003,0.004-0.006,0.008-0.009,0.011
	C7.053,16.6,7.05,16.603,7.047,16.606c-0.003,0.003-0.007,0.006-0.01,0.008c-0.007,0.005-0.015,0.01-0.023,0.014
	C7.009,16.629,7.004,16.63,7,16.632c-0.005,0.001-0.009,0.003-0.014,0.004c-0.005,0.001-0.011,0.003-0.017,0.004
	c-0.005,0.001-0.011,0.001-0.017,0.003c-0.013,0.001-0.026,0.002-0.039,0.002c-0.007,0-0.015,0-0.022-0.001
	c-0.007,0-0.015-0.001-0.022-0.001c-0.009-0.001-0.017-0.002-0.026-0.003c-0.004-0.001-0.008-0.001-0.013-0.001
	c-0.004-0.002-0.008-0.002-0.013-0.002c-0.01-0.002-0.019-0.004-0.029-0.006c-0.009-0.002-0.019-0.003-0.029-0.006
	c-0.002,0-0.005,0-0.007-0.001c-0.003-0.001-0.005-0.001-0.008-0.001c-0.003-0.001-0.005-0.002-0.008-0.002
	c-0.002-0.001-0.005-0.002-0.008-0.002c-0.003-0.001-0.007-0.002-0.01-0.002c-0.002-0.001-0.003-0.002-0.005-0.002
	c-0.001,0-0.003-0.001-0.005-0.001c-0.001-0.001-0.002-0.001-0.003-0.001s-0.002-0.001-0.003-0.001
	C6.7,16.612,6.697,16.61,6.694,16.609c-0.003-0.001-0.007-0.003-0.01-0.005c-0.004-0.002-0.009-0.005-0.013-0.008
	c-0.004-0.002-0.008-0.004-0.013-0.006c-0.005-0.003-0.009-0.005-0.014-0.008c-0.005-0.002-0.01-0.004-0.016-0.006
	c-0.005-0.002-0.01-0.003-0.015-0.004C6.607,16.571,6.6,16.57,6.593,16.57c-0.003-0.001-0.007-0.001-0.011,0
	c-0.004,0-0.008,0.001-0.012,0.001c-0.008,0.002-0.016,0.005-0.023,0.009c-0.008,0.004-0.015,0.009-0.021,0.016
	c-0.006,0.006-0.011,0.013-0.015,0.02c-0.005,0.008-0.009,0.017-0.012,0.024c-0.003,0.009-0.005,0.018-0.007,0.025
	c-0.001,0.006-0.002,0.01-0.003,0.015s-0.001,0.011-0.002,0.016c-0.001,0.012-0.003,0.023-0.004,0.035
	c-0.001,0.011-0.001,0.022-0.001,0.033c0,0.013,0.001,0.024,0.003,0.037s0.005,0.025,0.01,0.038
	c0.005,0.012,0.011,0.024,0.019,0.035c0.008,0.012,0.018,0.023,0.028,0.033c0.011,0.01,0.024,0.019,0.037,0.026
	c0.007,0.005,0.014,0.008,0.021,0.012c0.004,0.001,0.008,0.003,0.012,0.005c0.002,0.001,0.004,0.002,0.006,0.002
	c0.005,0.003,0.011,0.005,0.017,0.007c0.057,0.021,0.114,0.036,0.174,0.046c0.055,0.008,0.111,0.012,0.167,0.008
	C7,17.01,7.026,17.006,7.052,17.002c0.026-0.006,0.052-0.012,0.077-0.02c0.024-0.008,0.048-0.018,0.071-0.028
	s0.046-0.022,0.067-0.036c0.043-0.027,0.083-0.061,0.118-0.099c0.018-0.019,0.035-0.04,0.05-0.062s0.029-0.044,0.042-0.067
	c0.013-0.024,0.024-0.05,0.035-0.076c0.01-0.026,0.018-0.054,0.025-0.08c0.007-0.028,0.013-0.058,0.017-0.087
	c0.001-0.008,0.002-0.016,0.003-0.023s0.002-0.016,0.002-0.023c0.001-0.01,0.001-0.02,0.002-0.029s0.001-0.02,0.001-0.029
	c0.005-0.151,0.008-0.304,0.01-0.456c0.001-0.151,0.001-0.304,0.001-0.456c-0.001-0.304-0.003-0.607,0.001-0.911
	c0-0.011,0-0.021-0.001-0.032c0-0.01-0.002-0.021-0.003-0.029c-0.002-0.01-0.004-0.019-0.007-0.027
	c-0.003-0.008-0.006-0.017-0.011-0.024c-0.004-0.007-0.009-0.015-0.015-0.021c-0.005-0.007-0.011-0.013-0.018-0.018
	c-0.006-0.005-0.013-0.01-0.02-0.013s-0.014-0.006-0.021-0.008c-0.006-0.002-0.013-0.004-0.02-0.005
	c-0.006-0.001-0.013-0.002-0.02-0.002c-0.012-0.001-0.024-0.001-0.036-0.001C7.391,14.34,7.379,14.34,7.368,14.34
	c-0.005,0-0.01,0-0.015,0c-0.004,0-0.009-0.001-0.013-0.002c-0.012,0-0.024-0.002-0.037-0.002c-0.012,0-0.023,0-0.035,0.001
	c-0.013,0.001-0.026,0.003-0.038,0.007c-0.006,0.002-0.011,0.004-0.017,0.006s-0.011,0.005-0.016,0.008
	c-0.005,0.003-0.01,0.006-0.015,0.01s-0.009,0.008-0.013,0.014c-0.008,0.008-0.016,0.019-0.021,0.029
	c-0.003,0.006-0.005,0.012-0.007,0.018s-0.004,0.012-0.005,0.018c-0.003,0.014-0.005,0.027-0.006,0.04
	C7.129,14.5,7.128,14.515,7.129,14.53c0.005,0.152,0.006,0.305,0.005,0.457C7.134,15.141,7.132,15.293,7.132,15.447z M7.362,13.668
	c-0.162-0.033-0.24,0.038-0.234,0.201c0.002,0.055,0.003,0.133,0.042,0.182c0.043,0.054,0.113,0.059,0.173,0.057
	c0.055-0.003,0.132-0.005,0.18-0.045c0.053-0.044,0.057-0.115,0.053-0.174c-0.004-0.053-0.003-0.134-0.04-0.182
	C7.492,13.65,7.42,13.655,7.362,13.668z M9.58,15.914c-0.005-0.013-0.01-0.026-0.016-0.038c-0.013,0.002-0.027,0.005-0.041,0.008
	c-0.03,0.006-0.06,0.012-0.09,0.018c-0.035,0.008-0.07,0.016-0.104,0.022c-0.057,0.013-0.115,0.023-0.173,0.032
	c-0.007,0-0.014,0.002-0.021,0.002c-0.008,0.002-0.016,0.003-0.024,0.004c-0.019,0.002-0.038,0.004-0.057,0.005
	c-0.035,0.001-0.071,0.001-0.106-0.002c-0.032-0.003-0.063-0.008-0.095-0.017c-0.029-0.007-0.058-0.017-0.084-0.029
	c-0.026-0.012-0.051-0.025-0.075-0.042c-0.024-0.017-0.046-0.036-0.066-0.056c-0.021-0.021-0.04-0.045-0.057-0.07
	c-0.019-0.026-0.034-0.055-0.048-0.084c-0.015-0.031-0.028-0.064-0.039-0.098c-0.006-0.018-0.011-0.035-0.016-0.054
	c-0.001-0.007-0.003-0.013-0.005-0.02c-0.002-0.011-0.004-0.021-0.006-0.032c-0.001-0.004-0.001-0.008-0.002-0.012s0-0.008,0-0.011
	c0-0.003,0-0.006,0-0.009c0-0.002,0-0.004,0-0.006c0,0,0-0.002,0.001-0.003c0-0.001,0-0.001,0-0.001c0,0,0,0,0-0.001
	c0,0,0-0.001,0.001-0.001c0.001,0,0.002-0.001,0.003-0.002c0.001,0,0.003,0,0.005-0.001c0.002-0.001,0.005-0.001,0.008-0.002
	c0.003-0.001,0.007-0.001,0.011-0.001c0.004-0.001,0.009-0.002,0.013-0.002c0.005,0,0.01,0,0.016,0c0.006,0,0.012,0,0.018,0
	c0.145,0.004,0.29,0.005,0.434,0.005c0.072-0.001,0.145-0.001,0.217-0.001c0.038-0.001,0.075-0.002,0.112-0.002s0.075,0,0.112-0.001
	c0.001,0,0.003,0,0.004,0s0.003,0.001,0.005,0.001s0.003,0,0.005,0c0.002,0,0.004,0,0.005,0c0.005,0,0.009,0.001,0.014,0.002
	c0.004,0,0.009,0,0.013,0c0.01,0.001,0.02,0.002,0.029,0.001c0.005,0,0.011-0.001,0.016-0.001c0.006-0.001,0.011-0.002,0.017-0.004
	s0.012-0.004,0.018-0.006c0.006-0.003,0.012-0.006,0.018-0.01c0.006-0.004,0.011-0.008,0.016-0.014
	c0.005-0.005,0.01-0.01,0.014-0.016c0.004-0.007,0.008-0.014,0.011-0.02c0.003-0.007,0.006-0.014,0.008-0.021
	s0.005-0.016,0.006-0.023c0.001-0.004,0.002-0.008,0.002-0.013c0-0.002,0.001-0.005,0.001-0.007
	c0.001-0.011,0.003-0.021,0.004-0.032c0.005-0.05,0.006-0.101,0.002-0.151S9.608,15,9.597,14.95
	c-0.012-0.049-0.027-0.097-0.045-0.144c-0.019-0.046-0.041-0.091-0.066-0.135c-0.025-0.042-0.053-0.083-0.084-0.12
	C9.371,14.514,9.337,14.48,9.3,14.45c-0.036-0.031-0.075-0.057-0.116-0.079c-0.021-0.011-0.042-0.021-0.063-0.029
	C9.11,14.336,9.1,14.333,9.088,14.33c-0.012-0.004-0.024-0.008-0.036-0.011c-0.05-0.014-0.101-0.021-0.152-0.025
	c-0.05-0.003-0.101-0.001-0.15,0.006c-0.049,0.006-0.098,0.018-0.145,0.033c-0.047,0.016-0.093,0.036-0.136,0.061
	c-0.044,0.024-0.085,0.053-0.124,0.086c-0.04,0.033-0.076,0.07-0.109,0.109c-0.034,0.041-0.063,0.086-0.089,0.132
	c-0.013,0.024-0.025,0.048-0.037,0.073c-0.006,0.014-0.011,0.026-0.016,0.039c-0.005,0.013-0.01,0.025-0.014,0.039
	c-0.018,0.048-0.033,0.098-0.045,0.147c-0.012,0.049-0.022,0.099-0.028,0.147c-0.007,0.049-0.011,0.098-0.011,0.147
	c0,0.049,0.002,0.097,0.008,0.146c0.006,0.049,0.016,0.096,0.028,0.143c0.013,0.049,0.03,0.095,0.05,0.141
	c0.021,0.047,0.045,0.092,0.073,0.135c0.014,0.022,0.029,0.045,0.045,0.065c0.008,0.011,0.016,0.022,0.025,0.032
	c0.008,0.012,0.018,0.023,0.027,0.033c0.036,0.043,0.075,0.082,0.117,0.117c0.02,0.017,0.04,0.032,0.061,0.047
	s0.043,0.028,0.065,0.041c0.021,0.012,0.043,0.023,0.066,0.033s0.045,0.02,0.068,0.027c0.045,0.017,0.092,0.029,0.14,0.037
	c0.024,0.004,0.048,0.008,0.072,0.011s0.048,0.005,0.073,0.005c0.024,0.002,0.049,0.002,0.074,0.002
	c0.024,0,0.049-0.002,0.074-0.004c0.05-0.002,0.1-0.008,0.15-0.016c0.024-0.004,0.049-0.008,0.073-0.012
	c0.024-0.005,0.048-0.01,0.073-0.015c0.01-0.003,0.021-0.005,0.03-0.007c0.01-0.002,0.021-0.006,0.031-0.008
	c0.019-0.006,0.037-0.012,0.055-0.02s0.036-0.016,0.052-0.027c0.008-0.005,0.016-0.011,0.023-0.018
	c0.007-0.006,0.015-0.014,0.021-0.021c0.013-0.016,0.024-0.034,0.031-0.053c0.004-0.011,0.007-0.021,0.009-0.03
	c0.002-0.012,0.003-0.022,0.004-0.033c0-0.012,0-0.023-0.001-0.035c-0.001-0.013-0.003-0.025-0.006-0.037
	c-0.003-0.014-0.006-0.026-0.01-0.039C9.59,15.942,9.585,15.927,9.58,15.914z M11.375,14.73c0.019,0.005,0.038,0.009,0.056,0.013
	c0.001-0.02,0.003-0.038,0.005-0.057c0.003-0.036,0.006-0.071,0.008-0.106c0.001-0.019,0.002-0.036,0.003-0.054
	c0-0.009,0.001-0.018,0.001-0.027c0-0.008,0-0.016,0-0.023c0-0.006,0-0.014-0.001-0.021c-0.001-0.007-0.001-0.013-0.003-0.019
	c-0.001-0.007-0.003-0.014-0.005-0.02c-0.001-0.003-0.002-0.006-0.004-0.009c-0.003-0.006-0.006-0.012-0.01-0.017
	s-0.008-0.01-0.013-0.014c-0.004-0.004-0.008-0.007-0.013-0.01c-0.003-0.002-0.007-0.004-0.01-0.007
	c-0.004-0.003-0.008-0.005-0.012-0.007c-0.033-0.02-0.068-0.034-0.104-0.047c-0.037-0.012-0.076-0.021-0.115-0.027
	c-0.04-0.008-0.081-0.011-0.122-0.012c-0.04-0.002-0.08,0-0.12,0.003c-0.043,0.004-0.086,0.01-0.128,0.018
	c-0.043,0.009-0.085,0.019-0.127,0.031c-0.042,0.013-0.083,0.026-0.124,0.044c-0.04,0.016-0.079,0.035-0.117,0.055
	c-0.038,0.021-0.074,0.043-0.108,0.067c-0.037,0.026-0.073,0.055-0.105,0.086c-0.029,0.028-0.056,0.058-0.08,0.089
	s-0.045,0.064-0.062,0.1c-0.002,0.004-0.004,0.009-0.006,0.014c-0.003,0.008-0.007,0.016-0.01,0.023
	c-0.007,0.016-0.014,0.033-0.021,0.049c-0.013,0.033-0.025,0.066-0.036,0.1c-0.021,0.066-0.037,0.133-0.047,0.2
	c-0.01,0.066-0.014,0.134-0.012,0.2c0.001,0.033,0.003,0.066,0.008,0.1c0.004,0.032,0.01,0.065,0.017,0.098
	c0.015,0.066,0.036,0.131,0.063,0.193c0.028,0.066,0.063,0.129,0.103,0.188c0.011,0.016,0.021,0.03,0.032,0.046
	c0.01,0.014,0.021,0.028,0.032,0.042c0.021,0.026,0.043,0.052,0.068,0.075c0.022,0.023,0.046,0.044,0.072,0.064
	c0.024,0.02,0.05,0.037,0.076,0.053c0.026,0.016,0.052,0.03,0.08,0.043c0.027,0.013,0.055,0.023,0.083,0.033
	c0.028,0.01,0.057,0.018,0.085,0.023c0.029,0.006,0.059,0.012,0.088,0.015c0.061,0.007,0.122,0.009,0.183,0.007
	c0.063-0.003,0.127-0.01,0.189-0.02c0.016-0.004,0.032-0.006,0.048-0.01c0.011-0.002,0.022-0.004,0.033-0.006
	c0.016-0.004,0.032-0.007,0.048-0.011c0.027-0.007,0.055-0.016,0.082-0.026c0.014-0.006,0.027-0.012,0.04-0.02
	c0.012-0.007,0.024-0.015,0.036-0.023c0.011-0.01,0.021-0.02,0.031-0.029c0.009-0.012,0.018-0.023,0.024-0.037
	c0.007-0.013,0.012-0.027,0.016-0.041c0.004-0.016,0.006-0.031,0.007-0.047c0-0.018,0-0.033-0.002-0.051s-0.005-0.036-0.01-0.055
	c-0.005-0.02-0.011-0.039-0.018-0.059c-0.005-0.015-0.011-0.029-0.016-0.045c-0.015,0.005-0.03,0.01-0.046,0.014
	c-0.042,0.014-0.085,0.027-0.128,0.039c-0.039,0.012-0.079,0.021-0.119,0.031c-0.038,0.008-0.076,0.015-0.115,0.02
	c-0.036,0.004-0.072,0.006-0.107,0.004c-0.018,0-0.035-0.002-0.053-0.004c-0.017-0.002-0.034-0.006-0.051-0.01
	c-0.017-0.005-0.033-0.01-0.05-0.016c-0.016-0.008-0.033-0.015-0.048-0.023c-0.016-0.009-0.032-0.019-0.047-0.029
	c-0.008-0.006-0.016-0.012-0.024-0.019s-0.015-0.013-0.022-0.02c-0.008-0.008-0.016-0.015-0.023-0.022
	c-0.007-0.008-0.015-0.017-0.022-0.025c-0.008-0.009-0.016-0.018-0.023-0.027s-0.015-0.02-0.021-0.029
	c-0.009-0.015-0.018-0.029-0.026-0.043c-0.008-0.016-0.015-0.031-0.022-0.046c-0.015-0.034-0.026-0.069-0.035-0.104
	c-0.009-0.039-0.016-0.077-0.021-0.116c-0.004-0.04-0.007-0.081-0.006-0.121c0-0.04,0.003-0.081,0.008-0.121
	c0.005-0.039,0.012-0.077,0.022-0.116c0.009-0.035,0.021-0.07,0.036-0.104c0.003-0.008,0.007-0.016,0.011-0.023
	s0.008-0.016,0.012-0.023c0.004-0.007,0.008-0.014,0.012-0.021c0.004-0.006,0.009-0.014,0.013-0.02
	c0.007-0.01,0.014-0.02,0.021-0.028c0.007-0.009,0.015-0.018,0.022-0.026c0.014-0.016,0.028-0.031,0.043-0.045
	c0.014-0.013,0.029-0.024,0.044-0.035c0.015-0.011,0.03-0.02,0.045-0.028c0.015-0.009,0.031-0.016,0.046-0.021
	c0.016-0.007,0.032-0.011,0.048-0.016c0.033-0.009,0.067-0.013,0.101-0.015c0.035-0.002,0.07,0,0.105,0.002
	c0.038,0.004,0.076,0.01,0.114,0.017c0.04,0.007,0.08,0.016,0.119,0.024C11.288,14.709,11.331,14.72,11.375,14.73z M12.534,16.331
	c0.004,0,0.009,0,0.013,0c0.004-0.002,0.008-0.005,0.012-0.007c0.001-0.001,0.002-0.001,0.003-0.002
	c0.002-0.001,0.004-0.001,0.006-0.002c0.004-0.001,0.008-0.001,0.012-0.002c0.003-0.001,0.007-0.001,0.011-0.001
	c0.004,0,0.008-0.001,0.013-0.001c0.011-0.001,0.021-0.001,0.032-0.001c0.011-0.001,0.022-0.002,0.033-0.004
	c0.012-0.002,0.024-0.004,0.036-0.008c0.006-0.002,0.013-0.005,0.019-0.008c0.006-0.002,0.013-0.006,0.019-0.01
	c0.012-0.008,0.023-0.019,0.033-0.031c0.01-0.012,0.017-0.027,0.023-0.042c0.003-0.009,0.005-0.017,0.007-0.024
	c0.002-0.01,0.003-0.02,0.004-0.027c0.001-0.011,0.001-0.021,0.002-0.031s0-0.02,0-0.029s-0.001-0.018-0.002-0.027
	c-0.001-0.006-0.002-0.014-0.004-0.02c-0.002-0.008-0.004-0.016-0.007-0.023c-0.003-0.006-0.006-0.014-0.011-0.02
	c-0.004-0.007-0.009-0.014-0.014-0.019c-0.005-0.005-0.011-0.011-0.017-0.015c-0.006-0.004-0.013-0.007-0.019-0.01
	c-0.006-0.002-0.013-0.004-0.02-0.006c-0.006-0.001-0.012-0.002-0.019-0.002c-0.008,0-0.017,0-0.025,0
	c-0.005,0.001-0.011,0.002-0.016,0.002c-0.005,0.001-0.01,0.002-0.015,0.003c-0.01,0.002-0.02,0.004-0.03,0.007
	c-0.004,0-0.008,0.001-0.012,0.002s-0.007,0.002-0.011,0.002c-0.003,0-0.006,0.001-0.009,0.001
	c-0.002,0.001-0.004,0.001-0.007,0.001c-0.001,0-0.003,0-0.004,0c-0.001,0-0.001-0.001-0.001-0.001
	c-0.005-0.001-0.009-0.001-0.014-0.003c-0.008-0.001-0.016-0.003-0.023-0.005c-0.015-0.004-0.029-0.009-0.042-0.015
	c-0.013-0.004-0.024-0.01-0.036-0.018c-0.01-0.006-0.02-0.014-0.029-0.021c-0.009-0.007-0.017-0.016-0.025-0.023
	c-0.007-0.01-0.014-0.02-0.02-0.029c-0.006-0.01-0.012-0.021-0.017-0.031c-0.005-0.012-0.009-0.024-0.012-0.037
	c-0.004-0.013-0.007-0.026-0.009-0.04c-0.001-0.007-0.002-0.015-0.003-0.022c0-0.007-0.001-0.014-0.002-0.021
	c0-0.004,0-0.008,0-0.012c0-0.004,0-0.008,0-0.012c-0.001-0.021-0.001-0.043-0.002-0.064s-0.001-0.043-0.001-0.064
	c-0.003-0.191-0.001-0.383-0.001-0.574c0-0.025,0-0.053,0-0.078c0-0.02,0.001-0.038,0.001-0.057c0-0.016,0.001-0.031,0.003-0.045
	c0.001-0.012,0.003-0.023,0.005-0.035c0-0.004,0.002-0.008,0.003-0.012s0.002-0.006,0.003-0.009s0.002-0.005,0.004-0.009
	c0.001-0.002,0.002-0.004,0.004-0.006s0.003-0.004,0.004-0.006c0.001-0.001,0.003-0.002,0.005-0.004s0.004-0.003,0.006-0.004
	c0.003-0.002,0.006-0.004,0.009-0.004c0.002-0.002,0.005-0.003,0.008-0.004c0.004-0.002,0.008-0.002,0.013-0.004
	c0.005-0.001,0.01-0.002,0.016-0.004c0.006-0.001,0.013-0.002,0.019-0.003c0.007-0.001,0.015-0.002,0.021-0.003
	c0.008,0,0.017-0.002,0.024-0.002c0.019-0.002,0.038-0.003,0.057-0.004c0.028-0.002,0.056-0.003,0.083-0.004
	c0.004-0.001,0.007-0.001,0.011-0.001c0.004,0,0.009,0.001,0.013,0.001c0.011,0,0.022,0.001,0.033,0.001c0.006,0,0.012,0,0.018,0
	s0.012-0.001,0.018-0.001c0.007-0.001,0.013-0.002,0.02-0.004c0.007-0.002,0.014-0.004,0.021-0.007
	c0.006-0.003,0.013-0.007,0.019-0.011c0.003-0.002,0.006-0.005,0.009-0.008c0.006-0.006,0.012-0.012,0.017-0.02
	c0.004-0.006,0.007-0.012,0.009-0.019c0.003-0.009,0.005-0.017,0.007-0.025s0.002-0.019,0.002-0.027c0-0.01,0-0.02-0.002-0.029
	c0-0.001,0-0.002,0-0.003c0-0.002,0-0.004,0-0.005c0-0.004,0-0.008,0.001-0.012c0-0.005,0.001-0.011,0.001-0.015
	c0.001-0.007,0.002-0.014,0.002-0.02c0.001-0.007,0.001-0.014,0.001-0.02c0-0.008,0-0.016,0-0.022
	c-0.001-0.009-0.002-0.017-0.005-0.024c-0.002-0.005-0.004-0.01-0.006-0.016c-0.002-0.004-0.004-0.008-0.007-0.012
	s-0.006-0.008-0.009-0.012c-0.004-0.004-0.007-0.008-0.012-0.011c-0.002-0.001-0.004-0.003-0.006-0.005
	c-0.002-0.001-0.004-0.002-0.006-0.004c-0.002-0.001-0.004-0.002-0.007-0.003s-0.005-0.003-0.007-0.003
	c-0.004-0.002-0.01-0.004-0.015-0.006c-0.005-0.001-0.01-0.002-0.015-0.003c-0.005-0.001-0.011-0.002-0.017-0.003
	c-0.006,0-0.011-0.001-0.017-0.001c-0.006-0.001-0.011-0.001-0.017-0.002c-0.013-0.001-0.026-0.001-0.039-0.003
	c-0.026,0-0.052-0.001-0.078,0c-0.026,0-0.052,0.002-0.078,0.005c-0.009,0.001-0.019,0.002-0.028,0.003c-0.008,0-0.017,0-0.025,0
	c-0.007,0-0.015,0-0.021,0c-0.005,0-0.01-0.002-0.015-0.002c-0.005-0.001-0.01-0.002-0.015-0.004
	c-0.004-0.001-0.008-0.002-0.012-0.004c-0.003-0.002-0.006-0.004-0.009-0.006s-0.005-0.004-0.007-0.006
	c-0.002-0.003-0.004-0.006-0.006-0.009c-0.001-0.001-0.001-0.003-0.002-0.005s-0.002-0.004-0.003-0.006
	c-0.002-0.004-0.003-0.01-0.004-0.014c-0.001-0.007-0.002-0.014-0.003-0.02c-0.001-0.008-0.001-0.016-0.001-0.023
	c0-0.009,0-0.019,0.001-0.027c0-0.006,0.001-0.011,0.001-0.016c0-0.002,0-0.004,0.001-0.006c0-0.006,0.001-0.01,0.002-0.016
	c0.001-0.006,0.002-0.013,0.004-0.02c0.001-0.006,0.002-0.013,0.003-0.02c0.002-0.014,0.003-0.028,0.003-0.043
	c0-0.008,0-0.016-0.001-0.023c-0.001-0.006-0.002-0.012-0.003-0.018c-0.002-0.008-0.005-0.017-0.009-0.025
	c-0.004-0.008-0.01-0.016-0.017-0.023c-0.003-0.004-0.007-0.007-0.011-0.01c-0.004-0.004-0.008-0.006-0.013-0.009
	c-0.009-0.005-0.019-0.01-0.029-0.013c-0.01-0.002-0.021-0.004-0.031-0.005s-0.021-0.001-0.031,0
	c-0.013,0.001-0.025,0.003-0.038,0.005c-0.006,0.002-0.012,0.002-0.018,0.003c-0.007,0.001-0.013,0.002-0.02,0.003
	c-0.016,0.001-0.031,0.002-0.047,0.004s-0.031,0.004-0.046,0.007c-0.008,0.002-0.016,0.003-0.023,0.006
	c-0.008,0.003-0.016,0.005-0.024,0.009s-0.016,0.008-0.023,0.012c-0.007,0.006-0.015,0.011-0.021,0.018
	c-0.007,0.006-0.013,0.014-0.019,0.021c-0.006,0.008-0.011,0.018-0.015,0.026c-0.004,0.01-0.007,0.02-0.009,0.03
	c-0.002,0.01-0.004,0.021-0.004,0.032c0,0.012,0,0.024,0,0.036c0.001,0.013,0.003,0.025,0.005,0.039
	c0.001,0.01,0.003,0.02,0.004,0.029s0.002,0.018,0.002,0.027c0,0.004,0,0.01-0.001,0.014c0,0.004,0,0.007-0.001,0.01
	c-0.001,0.006-0.002,0.01-0.004,0.015c0,0.002-0.001,0.003-0.002,0.005s-0.002,0.003-0.003,0.004
	c-0.002,0.003-0.004,0.005-0.007,0.007c-0.002,0.001-0.004,0.002-0.006,0.003c-0.002,0.001-0.005,0.002-0.008,0.002
	c-0.004,0.002-0.007,0.002-0.011,0.003c-0.004,0.001-0.009,0.001-0.014,0.001c-0.005,0-0.011,0-0.017,0
	c-0.007,0-0.013-0.001-0.02-0.002c-0.007,0-0.015-0.001-0.022-0.001c-0.007,0-0.014,0.001-0.021,0.001
	c-0.007,0.002-0.014,0.003-0.021,0.006c-0.006,0.002-0.013,0.004-0.019,0.008c-0.006,0.004-0.012,0.008-0.017,0.012
	c-0.005,0.005-0.01,0.01-0.014,0.016c-0.004,0.004-0.007,0.01-0.01,0.016c-0.002,0.005-0.005,0.01-0.006,0.016
	c-0.002,0.006-0.003,0.011-0.004,0.016c-0.001,0.006-0.002,0.01-0.003,0.016c-0.001,0.01-0.002,0.02-0.002,0.028
	c0,0.01,0,0.019,0,0.028c0,0.004,0,0.008,0,0.012s0,0.008,0,0.011c-0.001,0.017,0,0.032,0.001,0.049
	c0.001,0.009,0.003,0.019,0.005,0.028c0.002,0.008,0.005,0.017,0.009,0.024c0.004,0.009,0.009,0.017,0.016,0.024
	c0.003,0.003,0.007,0.007,0.01,0.01c0.004,0.004,0.008,0.007,0.013,0.01c0.004,0.002,0.009,0.005,0.014,0.007
	c0.004,0.003,0.01,0.004,0.015,0.005c0.01,0.004,0.021,0.005,0.031,0.006c0.011,0,0.022-0.001,0.033-0.003
	c0.007-0.001,0.013-0.001,0.02-0.003c0.005,0,0.011,0,0.017,0c0.004,0,0.008,0,0.013,0c0.003,0.001,0.006,0.002,0.009,0.002
	c0.001,0,0.002,0.001,0.003,0.002c0.001,0,0.002,0,0.003,0c0.001,0.001,0.002,0.002,0.004,0.002
	c0.001,0.001,0.001,0.002,0.002,0.002c0,0.002,0.001,0.002,0.002,0.003c0.001,0.001,0.002,0.003,0.002,0.004
	c0.001,0.001,0.001,0.003,0.002,0.005c0.001,0.003,0.001,0.006,0.002,0.008c0.001,0.003,0.001,0.006,0.002,0.01
	c0.001,0.004,0.001,0.007,0.001,0.011c0,0.005,0.001,0.01,0.001,0.015c0,0.01,0,0.02,0.001,0.029c0,0.013,0,0.025,0,0.037
	c0.001,0.063,0.001,0.125,0,0.188c-0.001,0.067-0.003,0.135-0.004,0.201c-0.002,0.064-0.003,0.127-0.003,0.191
	c0,0.064,0.001,0.129,0.004,0.193s0.008,0.129,0.017,0.193c0.002,0.016,0.004,0.032,0.007,0.049
	c0.001,0.008,0.002,0.018,0.004,0.025c0.002,0.016,0.005,0.029,0.009,0.044c0.006,0.028,0.015,0.056,0.024,0.082
	c0.009,0.025,0.021,0.05,0.033,0.074c0.012,0.023,0.026,0.046,0.042,0.066c0.015,0.021,0.032,0.04,0.05,0.058
	c0.019,0.018,0.038,0.035,0.059,0.049c0.021,0.016,0.043,0.028,0.067,0.04c0.024,0.012,0.048,0.022,0.074,0.03
	c0.026,0.009,0.053,0.016,0.081,0.021c0.028,0.006,0.058,0.01,0.086,0.012C12.472,16.331,12.503,16.331,12.534,16.331z
	 M13.192,15.315c0,0.13,0.003,0.26,0.003,0.389c0,0.064,0,0.129,0,0.193c-0.001,0.063-0.003,0.127-0.006,0.191
	c-0.001,0.017-0.001,0.033,0,0.05c0.001,0.015,0.003,0.029,0.007,0.044c0.002,0.006,0.004,0.013,0.007,0.02
	c0.002,0.006,0.005,0.012,0.009,0.018s0.007,0.012,0.012,0.017c0.004,0.005,0.009,0.01,0.014,0.015
	c0.005,0.004,0.01,0.008,0.015,0.012c0.005,0.003,0.011,0.006,0.017,0.008c0.01,0.006,0.021,0.01,0.033,0.012
	c0.012,0.003,0.024,0.005,0.037,0.006c0.011,0.001,0.022,0.002,0.034,0.002c0.012,0,0.024,0.001,0.037,0.001
	c0.012,0.001,0.025,0.001,0.037,0c0.012,0,0.024-0.001,0.036-0.002c0.013-0.001,0.026-0.003,0.04-0.007
	c0.005-0.002,0.011-0.004,0.017-0.006c0.006-0.002,0.011-0.005,0.017-0.008c0.011-0.006,0.021-0.014,0.03-0.022
	c0.009-0.009,0.017-0.02,0.023-0.03c0.003-0.006,0.006-0.012,0.009-0.019s0.004-0.013,0.006-0.019
	c0.004-0.014,0.006-0.028,0.007-0.043c0.002-0.016,0.002-0.031,0.002-0.047c-0.009-0.518-0.009-1.033,0-1.551
	c0-0.016,0-0.031-0.002-0.049c-0.001-0.014-0.004-0.027-0.008-0.042c-0.002-0.007-0.004-0.013-0.007-0.019
	c-0.003-0.007-0.006-0.013-0.009-0.019c-0.003-0.005-0.007-0.011-0.011-0.017c-0.004-0.004-0.009-0.01-0.014-0.014
	c-0.004-0.004-0.009-0.008-0.015-0.012c-0.005-0.003-0.01-0.006-0.016-0.009c-0.01-0.005-0.021-0.009-0.033-0.013
	c-0.012-0.002-0.025-0.004-0.037-0.006c-0.012-0.002-0.023-0.002-0.034-0.002c-0.013-0.002-0.025-0.002-0.038-0.002
	c-0.013,0-0.026,0-0.039,0c-0.012,0-0.024,0.001-0.037,0.002c-0.014,0.002-0.027,0.005-0.04,0.009
	c-0.005,0.001-0.011,0.003-0.017,0.006c-0.006,0.003-0.011,0.005-0.017,0.009c-0.011,0.006-0.021,0.014-0.03,0.022
	s-0.016,0.021-0.022,0.032c-0.003,0.006-0.006,0.012-0.008,0.018c-0.002,0.006-0.004,0.013-0.006,0.02
	c-0.003,0.014-0.005,0.027-0.006,0.041c-0.001,0.016-0.001,0.031,0,0.048c0.003,0.063,0.004,0.128,0.005,0.192s0.001,0.129,0,0.192
	C13.195,15.057,13.192,15.186,13.192,15.315z M13.627,13.894c0.032-0.161-0.04-0.241-0.203-0.233
	c-0.053,0.004-0.133,0.002-0.182,0.039c-0.055,0.043-0.059,0.113-0.054,0.172c0.005,0.055,0.003,0.133,0.041,0.182
	c0.042,0.056,0.113,0.059,0.172,0.053c0.053-0.005,0.133-0.002,0.182-0.039C13.641,14.024,13.639,13.953,13.627,13.894z
	 M13.951,14.366c-0.017,0.006-0.033,0.011-0.049,0.016c0.006,0.017,0.012,0.033,0.018,0.049c0.214,0.58,0.43,1.158,0.641,1.738
	c0.005,0.015,0.012,0.029,0.021,0.043c0.004,0.006,0.008,0.013,0.013,0.018c0.004,0.006,0.009,0.012,0.015,0.017
	c0.005,0.005,0.01,0.009,0.016,0.013c0.005,0.004,0.011,0.008,0.017,0.012c0.005,0.002,0.011,0.006,0.018,0.008
	c0.006,0.002,0.012,0.004,0.018,0.005c0.011,0.003,0.022,0.005,0.034,0.006c0.011,0.001,0.021,0.001,0.032,0.001
	c0.012,0,0.023-0.001,0.035-0.002c0.009,0,0.017,0,0.026-0.001c0.007,0,0.015,0,0.022,0.001c0.018,0.002,0.037,0.002,0.056,0.002
	c0.011,0,0.022,0,0.033-0.002c0.01-0.001,0.02-0.003,0.03-0.006c0.01-0.002,0.02-0.006,0.03-0.012c0.01-0.004,0.02-0.01,0.028-0.018
	c0.005-0.004,0.009-0.008,0.013-0.012c0.004-0.004,0.008-0.008,0.012-0.013c0.008-0.01,0.015-0.021,0.021-0.031
	c0.007-0.012,0.013-0.024,0.018-0.036c0.221-0.576,0.45-1.15,0.677-1.725c0.006-0.016,0.012-0.031,0.019-0.047
	c-0.016-0.007-0.031-0.013-0.047-0.019c-0.025-0.01-0.051-0.019-0.077-0.024c-0.023-0.006-0.047-0.01-0.071-0.012
	c-0.011-0.001-0.022-0.001-0.034-0.001c-0.011,0.001-0.021,0.001-0.032,0.003c-0.01,0.002-0.021,0.004-0.031,0.006
	c-0.01,0.003-0.02,0.006-0.029,0.01c-0.019,0.008-0.037,0.018-0.053,0.029c-0.008,0.006-0.016,0.013-0.023,0.02
	s-0.015,0.015-0.021,0.021c-0.016,0.019-0.029,0.039-0.041,0.06c-0.011,0.02-0.021,0.04-0.029,0.06
	c-0.009,0.023-0.017,0.045-0.024,0.068c-0.018,0.057-0.037,0.113-0.057,0.169c-0.02,0.056-0.042,0.112-0.063,0.167
	c-0.044,0.112-0.092,0.223-0.139,0.333c-0.009,0.021-0.017,0.04-0.024,0.061c-0.008,0.021-0.015,0.04-0.022,0.061
	c-0.007,0.022-0.015,0.044-0.023,0.065c-0.007,0.021-0.014,0.04-0.021,0.06c-0.008,0.02-0.016,0.039-0.024,0.058
	c-0.008,0.02-0.018,0.037-0.027,0.056c-0.007,0.013-0.014,0.024-0.021,0.036c-0.034-0.088-0.068-0.177-0.102-0.266
	c-0.034-0.086-0.067-0.174-0.1-0.26c-0.032-0.086-0.064-0.172-0.095-0.258c-0.03-0.086-0.059-0.172-0.086-0.258
	c-0.007-0.021-0.014-0.043-0.022-0.064c-0.008-0.02-0.017-0.038-0.026-0.057c-0.012-0.023-0.026-0.046-0.042-0.066
	c-0.011-0.015-0.024-0.028-0.038-0.041c-0.014-0.012-0.028-0.023-0.044-0.032c-0.016-0.009-0.033-0.017-0.05-0.022
	c-0.018-0.007-0.036-0.011-0.055-0.014c-0.009,0-0.019-0.002-0.029-0.002c-0.017,0-0.034,0-0.051,0.002
	c-0.022,0.002-0.043,0.006-0.065,0.01C13.997,14.352,13.974,14.358,13.951,14.366z M16.815,15.415c0.162,0,0.324,0.001,0.485,0
	c0.006,0,0.012,0,0.018,0c0.006,0,0.013,0,0.019,0c0.008,0,0.015,0,0.023-0.002c0.008,0,0.016-0.002,0.023-0.004
	c0.004-0.002,0.008-0.004,0.012-0.005c0.004-0.002,0.008-0.005,0.012-0.007c0.008-0.005,0.016-0.011,0.023-0.018
	c0.007-0.008,0.013-0.016,0.018-0.024c0.005-0.009,0.01-0.019,0.013-0.028c0.001-0.006,0.003-0.012,0.004-0.017
	c0.001-0.003,0.001-0.005,0.002-0.009c0.001-0.004,0.002-0.008,0.002-0.012c0.002-0.01,0.004-0.021,0.005-0.031
	c0.006-0.041,0.007-0.084,0.005-0.125c-0.002-0.044-0.007-0.087-0.016-0.13c-0.009-0.044-0.02-0.087-0.035-0.128
	c-0.014-0.043-0.031-0.084-0.051-0.124s-0.042-0.079-0.065-0.116s-0.05-0.072-0.079-0.105c-0.034-0.037-0.07-0.073-0.111-0.104
	c-0.032-0.024-0.066-0.046-0.103-0.064c-0.009-0.004-0.018-0.009-0.027-0.012c-0.011-0.005-0.022-0.009-0.034-0.013
	c-0.043-0.015-0.087-0.025-0.132-0.033c-0.044-0.007-0.088-0.01-0.132-0.01c-0.044,0-0.088,0.005-0.131,0.013
	c-0.043,0.008-0.085,0.02-0.126,0.034c-0.041,0.016-0.081,0.033-0.119,0.055c-0.039,0.021-0.075,0.047-0.109,0.074
	c-0.035,0.028-0.068,0.061-0.098,0.094c-0.031,0.035-0.059,0.072-0.083,0.111c-0.006,0.01-0.013,0.021-0.019,0.031
	c-0.006,0.01-0.012,0.021-0.017,0.031s-0.011,0.021-0.016,0.033c-0.005,0.01-0.01,0.021-0.015,0.033
	c-0.019,0.043-0.035,0.088-0.05,0.133c-0.015,0.046-0.027,0.092-0.037,0.139c-0.01,0.045-0.017,0.091-0.021,0.137
	c-0.004,0.045-0.006,0.09-0.005,0.135s0.005,0.09,0.012,0.135s0.017,0.09,0.03,0.133c0.013,0.045,0.029,0.088,0.048,0.131
	c0.01,0.021,0.021,0.043,0.032,0.064c0.011,0.021,0.023,0.041,0.036,0.063c0.007,0.01,0.014,0.021,0.021,0.031
	c0.007,0.01,0.014,0.021,0.021,0.031s0.015,0.021,0.022,0.03c0.008,0.011,0.016,0.021,0.023,0.03
	c0.017,0.02,0.034,0.039,0.052,0.059c0.009,0.01,0.018,0.019,0.027,0.027c0.009,0.01,0.019,0.018,0.028,0.027
	c0.019,0.016,0.037,0.031,0.056,0.046c0.02,0.015,0.04,0.028,0.06,0.042c0.039,0.023,0.08,0.045,0.123,0.063
	c0.021,0.01,0.042,0.018,0.063,0.023c0.021,0.008,0.043,0.014,0.065,0.02c0.021,0.005,0.043,0.01,0.065,0.014
	c0.022,0.003,0.044,0.006,0.067,0.008c0.045,0.005,0.09,0.007,0.136,0.006c0.023,0,0.046-0.001,0.069-0.002
	c0.023-0.002,0.046-0.004,0.069-0.006c0.045-0.005,0.091-0.012,0.136-0.02c0.045-0.008,0.09-0.017,0.135-0.027
	c0.014-0.002,0.028-0.006,0.041-0.01c0.014-0.004,0.027-0.008,0.041-0.012c0.007-0.003,0.014-0.006,0.021-0.009
	c0.007-0.003,0.014-0.006,0.021-0.009c0.013-0.008,0.025-0.015,0.036-0.023c0.006-0.004,0.011-0.009,0.017-0.014
	c0.005-0.006,0.01-0.011,0.015-0.017c0.004-0.006,0.009-0.013,0.013-0.019c0.004-0.008,0.007-0.014,0.01-0.021
	c0.003-0.008,0.005-0.016,0.007-0.023s0.003-0.016,0.004-0.023c0.001-0.018,0-0.035-0.002-0.052
	c-0.003-0.02-0.007-0.038-0.014-0.058c-0.006-0.018-0.014-0.035-0.024-0.051c-0.004-0.008-0.01-0.014-0.016-0.021
	s-0.012-0.013-0.02-0.017c-0.007-0.006-0.014-0.01-0.022-0.013c-0.007-0.003-0.016-0.005-0.023-0.007
	c-0.004,0-0.008-0.001-0.013-0.001c-0.007-0.001-0.015,0-0.021,0.001s-0.013,0.002-0.02,0.004s-0.013,0.004-0.019,0.006
	c-0.005,0.002-0.011,0.005-0.016,0.008c-0.006,0.002-0.011,0.005-0.016,0.008c-0.005,0.002-0.01,0.005-0.015,0.008
	c-0.005,0.002-0.01,0.005-0.015,0.008c-0.007,0.004-0.015,0.008-0.023,0.012c-0.001,0.001-0.003,0.002-0.004,0.002
	s-0.003,0.002-0.004,0.002s-0.002,0-0.003,0.001s-0.002,0.001-0.003,0.001c-0.022,0.005-0.044,0.01-0.066,0.014
	c-0.022,0.005-0.044,0.008-0.067,0.012c-0.041,0.006-0.083,0.01-0.124,0.01c-0.038,0.002-0.075,0-0.112-0.004
	c-0.034-0.003-0.067-0.01-0.1-0.018c-0.03-0.009-0.06-0.02-0.088-0.033c-0.027-0.012-0.054-0.027-0.078-0.045
	c-0.024-0.019-0.047-0.039-0.067-0.061c-0.011-0.012-0.021-0.023-0.03-0.037c-0.01-0.012-0.019-0.025-0.027-0.038
	c-0.009-0.015-0.018-0.029-0.025-0.044c-0.008-0.016-0.016-0.031-0.022-0.047c-0.003-0.008-0.006-0.015-0.01-0.022
	c-0.003-0.007-0.006-0.015-0.009-0.022c-0.005-0.012-0.01-0.024-0.015-0.037c-0.005-0.012-0.01-0.024-0.015-0.037
	c-0.003-0.01-0.007-0.02-0.01-0.029c-0.002-0.006-0.004-0.012-0.006-0.019c-0.001-0.007-0.003-0.013-0.004-0.02
	c0-0.005-0.001-0.009-0.001-0.014c0-0.003,0-0.005,0-0.007c0-0.001,0-0.001,0-0.002l0,0c0,0,0,0,0-0.001
	c0-0.001,0.001-0.001,0.001-0.001c0,0,0.001-0.001,0.002-0.002c0.003-0.001,0.006-0.002,0.01-0.004
	c0.005-0.002,0.011-0.003,0.017-0.004c0.01-0.002,0.02-0.004,0.03-0.004c0.01-0.002,0.021-0.002,0.031-0.003
	c0.013-0.001,0.025-0.001,0.038-0.001c0.03-0.002,0.061-0.002,0.092-0.002C16.621,15.415,16.718,15.415,16.815,15.415z
	 M18.65,15.409c0.105,0,0.21-0.001,0.315-0.002c0.104,0,0.209,0,0.313,0.004c0.021,0,0.042,0,0.063-0.003
	c0.012-0.002,0.024-0.005,0.036-0.009c0.009-0.002,0.019-0.007,0.027-0.012c0.009-0.006,0.018-0.012,0.025-0.02
	c0.008-0.007,0.014-0.016,0.02-0.024c0.006-0.009,0.01-0.019,0.014-0.028c0.003-0.011,0.006-0.021,0.007-0.032
	c0.002-0.011,0.003-0.022,0.003-0.034c0-0.006,0-0.012,0-0.018c0-0.005,0-0.01,0-0.014c0-0.005,0-0.01-0.001-0.016
	c-0.001-0.018-0.004-0.035-0.01-0.053c-0.003-0.009-0.007-0.018-0.011-0.025c-0.004-0.009-0.01-0.017-0.017-0.023
	c-0.006-0.008-0.014-0.014-0.022-0.02c-0.008-0.006-0.016-0.01-0.025-0.014c-0.011-0.004-0.022-0.007-0.034-0.01
	c-0.009-0.001-0.019-0.002-0.029-0.003c-0.01-0.001-0.02-0.001-0.031-0.001c-0.419,0.004-0.839,0.003-1.259,0.001
	c-0.018,0-0.037,0.001-0.055,0.003c-0.011,0.002-0.021,0.004-0.032,0.008c-0.009,0.002-0.018,0.006-0.025,0.01
	c-0.009,0.005-0.017,0.01-0.023,0.018c-0.007,0.006-0.014,0.014-0.02,0.021c-0.006,0.008-0.01,0.018-0.014,0.027
	c-0.003,0.009-0.006,0.02-0.008,0.029s-0.003,0.021-0.004,0.031c0,0.006,0,0.012,0,0.018c0,0.004,0,0.009,0,0.014
	c0,0.006,0,0.012,0,0.018c0.001,0.02,0.004,0.039,0.01,0.059c0.003,0.01,0.007,0.02,0.012,0.028s0.011,0.018,0.018,0.025
	s0.015,0.015,0.023,0.021c0.009,0.006,0.018,0.01,0.027,0.014c0.012,0.004,0.024,0.008,0.037,0.01
	c0.01,0.002,0.021,0.003,0.031,0.004c0.011,0,0.022,0,0.033,0c0.101-0.004,0.201-0.004,0.301-0.004
	C18.448,15.408,18.549,15.409,18.65,15.409z M21.886,14.13c0.015,0.003,0.03,0.007,0.044,0.011c0.005-0.015,0.01-0.029,0.015-0.043
	c0.007-0.021,0.013-0.042,0.018-0.063c0.005-0.019,0.008-0.038,0.011-0.058c0.002-0.018,0.003-0.035,0.003-0.053
	c0-0.017-0.001-0.033-0.004-0.05c-0.003-0.015-0.007-0.03-0.013-0.045c-0.005-0.015-0.013-0.028-0.021-0.04
	c-0.004-0.007-0.009-0.013-0.013-0.018c-0.005-0.006-0.01-0.012-0.015-0.018c-0.011-0.01-0.022-0.02-0.035-0.027
	c-0.012-0.009-0.025-0.016-0.039-0.022c-0.007-0.003-0.015-0.007-0.021-0.009c-0.014-0.006-0.027-0.01-0.041-0.015
	c-0.016-0.005-0.033-0.009-0.049-0.013c-0.017-0.003-0.035-0.006-0.053-0.009c-0.004-0.001-0.009-0.001-0.014-0.002
	c-0.009-0.001-0.019-0.003-0.028-0.004c-0.033-0.004-0.065-0.008-0.098-0.013c-0.066-0.008-0.131-0.015-0.197-0.02
	c-0.066-0.006-0.132-0.01-0.199-0.01c-0.033-0.001-0.067,0-0.1,0c-0.014,0.001-0.028,0.002-0.043,0.002
	c-0.012,0.001-0.024,0.002-0.037,0.003c-0.048,0.004-0.096,0.01-0.144,0.019c-0.046,0.008-0.092,0.018-0.137,0.03
	c-0.043,0.013-0.086,0.027-0.128,0.044c-0.041,0.017-0.081,0.035-0.12,0.057c-0.038,0.021-0.075,0.043-0.11,0.068
	c-0.035,0.024-0.068,0.051-0.1,0.08c-0.032,0.028-0.062,0.059-0.09,0.092c-0.028,0.032-0.055,0.066-0.079,0.102
	c-0.024,0.037-0.047,0.074-0.067,0.113s-0.039,0.08-0.055,0.123c-0.017,0.043-0.031,0.086-0.043,0.131
	c-0.012,0.047-0.022,0.094-0.03,0.142c-0.002,0.012-0.004,0.024-0.006,0.036c-0.001,0.012-0.003,0.023-0.004,0.035
	c-0.002,0.02-0.004,0.04-0.006,0.061c-0.004,0.041-0.007,0.082-0.009,0.122c-0.004,0.082-0.004,0.164,0,0.246
	c0.002,0.042,0.006,0.083,0.012,0.124s0.012,0.082,0.02,0.123c0.004,0.021,0.009,0.041,0.014,0.063
	c0.005,0.02,0.01,0.039,0.015,0.059c0.01,0.035,0.021,0.071,0.034,0.106c0.025,0.067,0.055,0.134,0.091,0.196
	c0.018,0.03,0.037,0.061,0.057,0.089s0.042,0.056,0.064,0.082c0.022,0.026,0.046,0.052,0.07,0.075
	c0.025,0.024,0.05,0.047,0.077,0.068s0.055,0.041,0.084,0.061c0.029,0.018,0.059,0.035,0.09,0.051
	c0.031,0.017,0.063,0.031,0.096,0.044c0.033,0.013,0.067,0.024,0.102,0.034c0.035,0.01,0.071,0.02,0.106,0.025
	c0.019,0.004,0.037,0.007,0.055,0.01c0.011,0.001,0.021,0.002,0.032,0.004c0.011,0.002,0.023,0.003,0.035,0.004
	c0.046,0.006,0.092,0.01,0.138,0.012s0.092,0.003,0.139,0.002s0.092-0.004,0.139-0.008s0.092-0.01,0.138-0.018
	c0.046-0.009,0.092-0.02,0.138-0.031c0.046-0.013,0.091-0.027,0.136-0.044c0.022-0.009,0.045-0.017,0.067-0.024
	c0.015-0.006,0.03-0.012,0.045-0.019c0.013-0.005,0.026-0.011,0.039-0.018c0.012-0.006,0.023-0.013,0.034-0.019
	c0.009-0.006,0.017-0.012,0.024-0.02c0.005-0.004,0.009-0.008,0.014-0.012c0.004-0.005,0.008-0.01,0.012-0.016
	c0.003-0.004,0.006-0.01,0.01-0.016c0.003-0.006,0.005-0.011,0.007-0.017c0.002-0.006,0.004-0.012,0.005-0.019
	c0.001-0.006,0.003-0.012,0.003-0.018c0.001-0.005,0.001-0.01,0.001-0.016c0-0.006,0-0.012,0-0.019c0-0.014-0.001-0.027-0.002-0.04
	c-0.002-0.016-0.004-0.031-0.006-0.045c-0.003-0.018-0.006-0.035-0.01-0.052c-0.004-0.022-0.009-0.044-0.013-0.065
	c-0.004-0.02-0.008-0.039-0.012-0.058c-0.019,0.007-0.037,0.014-0.055,0.021c-0.045,0.018-0.091,0.033-0.136,0.049
	c-0.042,0.015-0.086,0.029-0.129,0.041c-0.041,0.013-0.081,0.023-0.122,0.034c-0.038,0.009-0.076,0.019-0.114,0.025
	c-0.035,0.007-0.071,0.013-0.106,0.018c-0.033,0.005-0.066,0.008-0.1,0.01c-0.031,0.002-0.062,0.003-0.093,0.002
	c-0.022,0-0.044-0.001-0.066-0.003c-0.027-0.003-0.055-0.007-0.082-0.012c-0.026-0.005-0.051-0.012-0.076-0.02
	c-0.024-0.007-0.047-0.016-0.071-0.025c-0.022-0.01-0.044-0.021-0.066-0.034s-0.042-0.026-0.062-0.042
	c-0.021-0.015-0.04-0.031-0.059-0.049c-0.019-0.018-0.038-0.037-0.055-0.057c-0.004-0.006-0.009-0.012-0.013-0.016
	c-0.002-0.004-0.004-0.006-0.006-0.008c-0.002-0.003-0.004-0.006-0.006-0.008c-0.008-0.011-0.016-0.021-0.023-0.033
	c-0.016-0.022-0.031-0.047-0.044-0.071c-0.014-0.026-0.027-0.053-0.039-0.08c-0.012-0.028-0.023-0.058-0.033-0.087
	c-0.02-0.061-0.036-0.121-0.047-0.184c-0.013-0.066-0.021-0.135-0.024-0.202c-0.003-0.068-0.003-0.138,0.002-0.206
	c0.003-0.033,0.007-0.066,0.012-0.1s0.011-0.065,0.019-0.098c0.007-0.031,0.016-0.062,0.025-0.092
	c0.009-0.029,0.02-0.058,0.032-0.086c0.012-0.026,0.024-0.053,0.039-0.078c0.007-0.012,0.015-0.024,0.022-0.036
	c0.006-0.01,0.013-0.019,0.02-0.028c0.024-0.035,0.051-0.069,0.079-0.102c0.025-0.027,0.053-0.055,0.082-0.08
	c0.026-0.021,0.055-0.042,0.084-0.061c0.028-0.017,0.057-0.031,0.086-0.044c0.029-0.013,0.059-0.022,0.089-0.03
	c0.03-0.008,0.061-0.013,0.091-0.017c0.032-0.004,0.063-0.005,0.095-0.006c0.023,0,0.046,0.001,0.07,0.002
	c0.033,0.002,0.066,0.006,0.099,0.011c0.034,0.004,0.068,0.01,0.102,0.017c0.035,0.007,0.069,0.015,0.103,0.022
	c0.074,0.018,0.147,0.037,0.22,0.058C21.744,14.094,21.814,14.114,21.886,14.13z"/>
<path d="M3.997,14.958c0,0.04-0.002,0.079-0.004,0.119c-0.002,0.037-0.005,0.075-0.009,0.112c-0.003,0.035-0.008,0.07-0.014,0.105
	c-0.005,0.033-0.012,0.066-0.021,0.1c-0.008,0.032-0.018,0.064-0.029,0.096c-0.006,0.016-0.012,0.031-0.018,0.047
	c-0.006,0.014-0.012,0.028-0.019,0.043c-0.021,0.045-0.046,0.088-0.076,0.129c-0.014,0.019-0.028,0.037-0.043,0.055
	c-0.015,0.017-0.03,0.033-0.047,0.048c-0.016,0.015-0.033,0.029-0.051,0.042c-0.018,0.014-0.036,0.025-0.054,0.036
	c-0.019,0.011-0.039,0.021-0.059,0.03c-0.02,0.009-0.041,0.018-0.062,0.023c-0.021,0.008-0.043,0.014-0.066,0.02
	c-0.023,0.004-0.046,0.009-0.07,0.012c-0.024,0.003-0.049,0.006-0.074,0.006c-0.013,0.001-0.025,0.001-0.038,0.002
	c-0.013,0-0.025-0.001-0.038-0.002c-0.047-0.001-0.094-0.007-0.14-0.018c-0.022-0.005-0.043-0.011-0.064-0.018
	c-0.021-0.008-0.041-0.016-0.061-0.024c-0.019-0.009-0.038-0.019-0.057-0.03c-0.018-0.011-0.036-0.022-0.052-0.035
	c-0.018-0.014-0.034-0.027-0.049-0.042s-0.031-0.03-0.045-0.048c-0.015-0.017-0.028-0.035-0.041-0.053
	c-0.013-0.02-0.025-0.04-0.037-0.061c-0.012-0.021-0.022-0.043-0.033-0.066c-0.002-0.004-0.004-0.008-0.005-0.012
	c-0.003-0.009-0.007-0.017-0.01-0.025c-0.006-0.016-0.013-0.031-0.019-0.048c-0.012-0.032-0.022-0.063-0.032-0.097
	c-0.019-0.064-0.034-0.129-0.044-0.195c-0.01-0.064-0.016-0.131-0.017-0.196c-0.001-0.054,0-0.108,0.005-0.162
	c0.006-0.067,0.016-0.134,0.03-0.199c0.014-0.067,0.033-0.134,0.055-0.198c0.003-0.01,0.006-0.02,0.01-0.029
	c0.002-0.007,0.005-0.014,0.007-0.02c0.005-0.013,0.01-0.025,0.016-0.037c0.011-0.024,0.023-0.048,0.036-0.07
	c0.013-0.021,0.026-0.043,0.042-0.063c0.014-0.021,0.03-0.039,0.046-0.057s0.033-0.035,0.051-0.051
	c0.018-0.015,0.036-0.029,0.056-0.043c0.019-0.013,0.039-0.025,0.06-0.036c0.021-0.011,0.042-0.021,0.064-0.03
	C3,14.01,3.022,14.002,3.046,13.996c0.048-0.014,0.097-0.021,0.147-0.025c0.026-0.002,0.053-0.003,0.079-0.003
	c0.026,0.001,0.052,0.003,0.077,0.006c0.025,0.004,0.049,0.008,0.074,0.014c0.024,0.006,0.047,0.012,0.071,0.021
	c0.022,0.008,0.045,0.017,0.066,0.028c0.021,0.01,0.042,0.021,0.063,0.034c0.02,0.013,0.04,0.026,0.058,0.042
	c0.019,0.016,0.038,0.031,0.055,0.049c0.036,0.035,0.068,0.076,0.096,0.118c0.03,0.046,0.056,0.095,0.077,0.146
	c0.006,0.015,0.011,0.029,0.017,0.043c0.005,0.016,0.01,0.03,0.015,0.045c0.009,0.031,0.017,0.061,0.023,0.092
	c0.006,0.03,0.012,0.061,0.016,0.092c0.004,0.029,0.007,0.059,0.009,0.089c0.002,0.028,0.004,0.058,0.005,0.087
	C3.995,14.901,3.996,14.929,3.997,14.958z"/>
<path d="M6.213,15.35c-0.003,0.033-0.007,0.065-0.011,0.098c-0.004,0.041-0.01,0.08-0.017,0.121c-0.001,0.01-0.003,0.02-0.006,0.029
	c-0.002,0.01-0.004,0.02-0.006,0.028c-0.004,0.019-0.009,0.038-0.015,0.056C6.152,15.7,6.146,15.717,6.14,15.735
	c-0.007,0.016-0.014,0.031-0.022,0.047c-0.008,0.016-0.017,0.03-0.026,0.044c-0.009,0.013-0.02,0.026-0.031,0.038
	c-0.011,0.012-0.023,0.023-0.037,0.033c-0.014,0.011-0.028,0.02-0.044,0.028c-0.017,0.009-0.034,0.017-0.052,0.023
	c-0.01,0.003-0.02,0.007-0.03,0.009c-0.01,0.004-0.021,0.006-0.031,0.008c-0.021,0.004-0.041,0.008-0.061,0.009
	c-0.02,0.001-0.039,0.001-0.059,0c-0.019-0.001-0.038-0.004-0.057-0.008c-0.019-0.003-0.037-0.009-0.055-0.015
	s-0.036-0.012-0.054-0.02s-0.036-0.018-0.054-0.027c-0.037-0.02-0.072-0.041-0.106-0.065c-0.009-0.006-0.018-0.013-0.027-0.019
	c-0.004-0.004-0.009-0.006-0.013-0.01c-0.001-0.001-0.002-0.002-0.003-0.002c-0.004-0.004-0.008-0.008-0.012-0.012
	c-0.006-0.006-0.011-0.014-0.016-0.021c-0.002-0.004-0.004-0.008-0.005-0.012s-0.002-0.008-0.004-0.013
	c-0.002-0.011-0.003-0.021-0.004-0.031c-0.001-0.013-0.001-0.025,0-0.038c0.001-0.115,0.001-0.23,0.001-0.345
	c0-0.028,0-0.058,0-0.087c0-0.006,0-0.012,0-0.018s0-0.012,0-0.018c0-0.008,0-0.016,0-0.022c0.001-0.028,0.004-0.056,0.008-0.083
	c0.004-0.026,0.01-0.052,0.018-0.077c0.007-0.024,0.016-0.048,0.026-0.069c0.01-0.022,0.021-0.043,0.034-0.063
	c0.013-0.02,0.027-0.038,0.042-0.055c0.016-0.017,0.032-0.033,0.05-0.048c0.018-0.014,0.037-0.027,0.057-0.039
	c0.021-0.012,0.042-0.022,0.064-0.031c0.022-0.009,0.046-0.016,0.07-0.021c0.025-0.006,0.051-0.01,0.077-0.013
	c0.011-0.001,0.023-0.002,0.035-0.003c0.005,0,0.011,0,0.017,0c0.021,0,0.042,0.002,0.063,0.005c0.02,0.003,0.038,0.007,0.057,0.014
	c0.018,0.006,0.034,0.013,0.05,0.022c0.016,0.009,0.031,0.02,0.045,0.031s0.027,0.025,0.04,0.04
	c0.013,0.015,0.024,0.031,0.034,0.048c0.011,0.02,0.021,0.039,0.03,0.061c0.01,0.022,0.018,0.045,0.024,0.069
	c0.007,0.026,0.013,0.053,0.018,0.079c0.005,0.029,0.009,0.06,0.012,0.09c0.001,0.014,0.002,0.027,0.003,0.042
	c0,0.007,0,0.015,0,0.021c0,0.015,0,0.029,0,0.044c0,0.016,0,0.033,0,0.049s0,0.029,0,0.045C6.21,15.35,6.211,15.35,6.213,15.35z"/>
<path d="M8.81,15.066c-0.01,0-0.021,0.001-0.031,0.001c-0.011,0-0.021,0-0.032,0.001c-0.009,0-0.018,0-0.027-0.001
	c-0.008,0-0.017,0-0.025-0.001c-0.011-0.001-0.022-0.002-0.033-0.001c-0.011,0-0.021,0-0.032,0.001
	c-0.005,0.001-0.011,0.001-0.017,0.002c-0.011,0.001-0.021,0.003-0.032,0.004c-0.009,0.001-0.019,0.002-0.028,0.003
	c-0.005,0-0.011,0.001-0.016,0.001c-0.007,0.001-0.014,0.001-0.021,0c-0.005-0.001-0.01-0.001-0.015-0.003
	c-0.002,0-0.003,0-0.005-0.001c-0.001-0.001-0.002-0.001-0.003-0.001c0-0.001-0.001-0.002-0.002-0.002c0,0-0.001-0.002-0.002-0.002
	c0-0.001-0.001-0.002-0.001-0.003c-0.001-0.001-0.001-0.003-0.002-0.005c0-0.002-0.001-0.003-0.002-0.005
	c-0.003-0.007-0.005-0.015-0.007-0.022s-0.002-0.016-0.003-0.023c0-0.009,0-0.017,0.001-0.025c0.001-0.008,0.002-0.018,0.004-0.026
	c0.004-0.019,0.011-0.038,0.02-0.056c0.009-0.021,0.019-0.039,0.03-0.059c0.006-0.009,0.012-0.018,0.018-0.027
	c0.003-0.005,0.006-0.01,0.009-0.014c0.005-0.007,0.01-0.014,0.015-0.021c0.01-0.013,0.021-0.025,0.032-0.036
	c0.011-0.012,0.022-0.021,0.034-0.031c0.011-0.008,0.023-0.017,0.035-0.023c0.012-0.008,0.024-0.014,0.037-0.019
	s0.025-0.009,0.039-0.013s0.027-0.006,0.041-0.007c0.014-0.001,0.029-0.002,0.043-0.001c0.016,0,0.031,0.002,0.046,0.004
	c0.017,0.002,0.033,0.006,0.049,0.01c0.008,0.002,0.017,0.006,0.025,0.008c0.008,0.003,0.017,0.006,0.024,0.01
	c0.015,0.006,0.029,0.012,0.042,0.021c0.012,0.007,0.024,0.016,0.035,0.025c0.01,0.009,0.02,0.019,0.028,0.028
	c0.009,0.011,0.016,0.021,0.023,0.033c0.003,0.006,0.006,0.012,0.01,0.018c0.003,0.006,0.006,0.013,0.009,0.02
	c0.006,0.014,0.011,0.027,0.016,0.041c0.004,0.015,0.008,0.029,0.012,0.045s0.006,0.031,0.009,0.047
	c0.002,0.018,0.005,0.034,0.007,0.051c0,0.006,0.001,0.012,0.001,0.018c0,0.002,0,0.005,0,0.008c0,0.004,0,0.008,0,0.012
	c0,0.002,0,0.004,0,0.005s0,0.002,0,0.003c0,0.002-0.001,0.003-0.001,0.004s0,0.002,0,0.002s-0.001,0-0.001,0.001c0,0,0,0-0.001,0
	c0,0.001-0.001,0.001-0.001,0.001c-0.001,0-0.002,0.001-0.003,0.001c-0.001,0.001-0.003,0.001-0.005,0.001
	c-0.004,0.001-0.008,0.002-0.012,0.002c-0.005,0-0.011,0-0.016,0c-0.053-0.002-0.106-0.002-0.159-0.002
	C8.915,15.065,8.863,15.066,8.81,15.066z"/>
<path d="M16.666,15.066c-0.011,0-0.021,0.001-0.031,0.001c-0.011,0-0.021,0-0.032,0.001c-0.009,0-0.018,0-0.027-0.001
	c-0.008,0-0.017,0-0.025-0.001c-0.011-0.001-0.021-0.002-0.032-0.002c-0.01,0-0.021,0.001-0.031,0.001
	c-0.014,0.002-0.028,0.004-0.042,0.006c-0.01,0-0.02,0.002-0.029,0.003c-0.006,0.001-0.013,0.001-0.02,0.002
	c-0.007,0-0.014,0.001-0.021,0c-0.002,0-0.005-0.001-0.008-0.001c-0.002,0-0.004,0-0.007-0.001c-0.001,0-0.003-0.001-0.005-0.001
	s-0.002-0.001-0.004-0.002c-0.001,0-0.001-0.001-0.002-0.002c0,0-0.001,0-0.002-0.001s-0.001-0.001-0.001-0.002
	c-0.001-0.002-0.002-0.004-0.003-0.006c-0.003-0.007-0.006-0.015-0.008-0.022c-0.002-0.007-0.003-0.014-0.004-0.021
	c0-0.008,0-0.017,0-0.024c0-0.009,0.002-0.017,0.003-0.025c0.003-0.019,0.009-0.036,0.016-0.054c0.008-0.02,0.017-0.038,0.027-0.056
	c0.011-0.019,0.022-0.036,0.034-0.054c0.004-0.006,0.009-0.012,0.014-0.018c0.005-0.007,0.01-0.014,0.015-0.02
	c0.01-0.012,0.021-0.022,0.032-0.033c0.01-0.01,0.021-0.019,0.033-0.027c0.011-0.008,0.022-0.015,0.034-0.021
	c0.011-0.006,0.023-0.012,0.035-0.016c0.012-0.005,0.025-0.008,0.038-0.012c0.013-0.002,0.026-0.004,0.04-0.006
	c0.014-0.001,0.027-0.001,0.042,0c0.031,0.001,0.061,0.006,0.091,0.014c0.008,0.003,0.016,0.005,0.024,0.008
	c0.008,0.002,0.016,0.006,0.023,0.009c0.015,0.006,0.028,0.013,0.042,0.021c0.012,0.007,0.023,0.015,0.034,0.023
	c0.01,0.009,0.02,0.018,0.028,0.027s0.016,0.021,0.023,0.031c0.007,0.012,0.014,0.023,0.019,0.035
	c0.006,0.012,0.011,0.025,0.015,0.038c0.005,0.015,0.009,0.028,0.012,0.042c0.008,0.031,0.013,0.062,0.017,0.093
	c0.001,0.009,0.002,0.017,0.003,0.024c0,0.004,0.001,0.01,0.001,0.014c0,0.004,0,0.009,0,0.014c0,0.004,0,0.006,0,0.01
	c0,0.001-0.001,0.002-0.001,0.004c0,0.001-0.001,0.002-0.001,0.003c0,0.001,0,0.001,0,0.001s0,0-0.001,0.001c0,0,0,0-0.001,0.001
	c0,0-0.001,0-0.001,0c-0.001,0-0.002,0.001-0.003,0.002c-0.002,0-0.004,0-0.006,0.001c-0.003,0.001-0.007,0.001-0.011,0.001
	c-0.005,0-0.011,0-0.016,0c-0.053-0.002-0.106-0.002-0.159-0.002C16.771,15.065,16.718,15.066,16.666,15.066z"/>
</svg>
