<?xml version="1.0" encoding="utf-8"?>
<!-- Generator: Adobe Illustrator 16.0.0, SVG Export Plug-In . SVG Version: 6.00 Build 0)  -->
<!DOCTYPE svg PUBLIC "-//W3C//DTD SVG 1.1//EN" "http://www.w3.org/Graphics/SVG/1.1/DTD/svg11.dtd">
<svg version="1.1" id="Solid" xmlns="http://www.w3.org/2000/svg" xmlns:xlink="http://www.w3.org/1999/xlink" x="0px" y="0px"
	 width="24px" height="24px" viewBox="0 0 24 24" enable-background="new 0 0 24 24" xml:space="preserve">
<path d="M11.99,23.859c-6.544,0-11.836-5.304-11.831-11.864C0.165,5.472,5.478,0.159,12.043,0.183
	c6.53,0.024,11.809,5.345,11.792,11.886C23.82,18.571,18.516,23.86,11.99,23.859z M12.633,14.84
	c-0.142,0.004-0.253,0.123-0.249,0.266c0.004,0.141,0.125,0.25,0.268,0.244c0.141-0.006,0.256-0.129,0.251-0.266
	C12.898,14.947,12.776,14.835,12.633,14.84z M12.435,17.204c0,0.352,0.007,0.703-0.004,1.053c-0.005,0.15,0.055,0.181,0.183,0.168
	c0.108-0.012,0.231,0.041,0.229-0.162c-0.011-0.715-0.01-1.429,0-2.143c0.002-0.165-0.081-0.162-0.193-0.155
	c-0.103,0.007-0.225-0.042-0.218,0.149C12.443,16.477,12.435,16.84,12.435,17.204z M14.413,18.471
	c0.127,0.006,0.278-0.019,0.428-0.059c0.164-0.045,0.25-0.123,0.229-0.313c-0.014-0.132-0.015-0.16-0.148-0.084
	c-0.449,0.257-0.983,0.128-1.181-0.296c-0.175-0.373-0.163-0.756,0.06-1.113c0.139-0.224,0.35-0.34,0.615-0.355
	c0.19-0.012,0.368,0.025,0.536,0.113c0.037,0.02,0.082,0.081,0.119,0.003c0.075-0.159-0.025-0.372-0.199-0.41
	c-0.47-0.103-0.918-0.065-1.273,0.296c-0.379,0.387-0.451,0.869-0.324,1.376C13.409,18.173,13.822,18.473,14.413,18.471z
	 M17.269,17.888c-0.226,0.159-0.468,0.254-0.742,0.254c-0.441-0.001-0.733-0.265-0.784-0.7c-0.014-0.117,0.015-0.152,0.133-0.15
	c0.382,0.006,0.765,0.002,1.147,0.002c0.488,0,0.49,0,0.414-0.497c-0.061-0.399-0.237-0.722-0.65-0.838
	c-0.446-0.126-0.846-0.032-1.157,0.331c-0.38,0.443-0.418,1.266-0.09,1.752c0.142,0.209,0.333,0.35,0.579,0.398
	c0.294,0.061,0.59,0.051,0.877-0.045C17.298,18.293,17.325,18.241,17.269,17.888z M9.11,16.692c0.001-0.161-0.009-0.32-0.039-0.479
	c-0.117-0.621-0.57-1.13-1.132-1.236c-0.697-0.131-1.32-0.004-1.756,0.611c-0.33,0.465-0.371,1.001-0.286,1.543
	c0.091,0.579,0.392,1.036,0.958,1.238c0.582,0.206,1.159,0.167,1.659-0.243C8.965,17.757,9.104,17.25,9.11,16.692z M11.106,17.371
	L11.106,17.371c0,0.296,0.009,0.593-0.004,0.888c-0.007,0.153,0.057,0.175,0.183,0.166c0.114-0.01,0.227,0.029,0.222-0.168
	c-0.014-0.511-0.004-1.023-0.005-1.535c0-0.408,0-0.415,0.399-0.409c0.145,0.003,0.171-0.045,0.174-0.178
	c0.004-0.146-0.05-0.173-0.182-0.173c-0.421,0.002-0.421-0.003-0.39-0.432c0-0.012,0.001-0.024,0.003-0.037
	c0.036-0.325,0.208-0.455,0.53-0.4c0.041,0.008,0.095,0.045,0.118,0.002c0.042-0.078,0.018-0.169,0.014-0.254
	c-0.003-0.084-0.081-0.08-0.139-0.09c-0.489-0.082-0.888,0.244-0.923,0.745c-0.01,0.151,0.07,0.353-0.036,0.441
	c-0.11,0.091-0.308,0.025-0.467,0.026c-0.5,0.003-0.5,0.001-0.438-0.506c0.035-0.285,0.22-0.419,0.505-0.371
	c0.05,0.008,0.148,0.098,0.149-0.028c0.001-0.102,0.096-0.257-0.102-0.304c-0.404-0.096-0.809,0.143-0.924,0.543
	c-0.042,0.146-0.053,0.295-0.035,0.44c0.023,0.192-0.047,0.259-0.232,0.228c-0.135-0.022-0.193,0.017-0.194,0.175
	c-0.001,0.169,0.077,0.187,0.201,0.169c0.178-0.027,0.229,0.042,0.225,0.221c-0.011,0.573,0.003,1.146-0.008,1.721
	c-0.003,0.166,0.067,0.176,0.196,0.174c0.126-0.002,0.216,0.008,0.212-0.176c-0.013-0.592,0-1.185-0.007-1.776
	c-0.001-0.132,0.042-0.171,0.169-0.166c0.215,0.009,0.432,0.007,0.647,0.001c0.104-0.002,0.14,0.033,0.138,0.139
	C11.103,16.754,11.106,17.062,11.106,17.371z M7.848,11.563c0.267-0.114,0.533-0.229,0.799-0.342
	c0.151-0.064,0.245-0.098,0.37-0.213c0.11-0.1,0.194-0.227,0.244-0.367c0.056-0.16,0.051-0.258,0.051-0.422c0-0.141,0-0.281,0-0.422
	c0-0.264,0-0.526-0.001-0.79C9.31,8.549,9.309,8.092,9.308,7.635c0-0.101,0-0.2,0-0.301c0-0.064,0.002-0.127,0.014-0.191
	c0.013-0.072,0.034-0.141,0.063-0.207C9.446,6.797,9.54,6.677,9.66,6.586c0.059-0.045,0.12-0.082,0.188-0.111
	c0.064-0.028,0.131-0.046,0.199-0.063c0.557-0.129,1.113-0.259,1.67-0.389c0.278-0.064,0.556-0.129,0.835-0.194
	c0.069-0.017,0.139-0.032,0.208-0.049c0.035-0.008,0.07-0.017,0.104-0.024c0.017-0.004,0.035-0.008,0.052-0.012
	c0.004-0.001,0.009-0.002,0.013-0.003c0.002-0.001,0.004-0.001,0.007-0.002c0.001,0,0.002-0.001,0.003-0.001s0.003-0.002,0.003,0
	c0,0.008,0,0.015,0,0.021c0,0.117,0,0.233,0,0.35c0,0.999,0,1.998,0,2.996c0,0.47,0,0.939,0,1.408c0,0.243,0,0.486,0,0.729
	c0,0.062,0,0.123,0,0.185c0,0.016,0,0.031,0,0.047c0,0.008,0,0.016,0,0.023c0,0.002,0,0.004,0,0.006
	c0,0.001,0.002,0.004-0.001,0.004c-0.004,0.001-0.009,0.001-0.013,0.002c-0.035,0.002-0.071,0.004-0.106,0.007
	c-0.141,0.011-0.283,0.021-0.424,0.03c-1.13,0.081-2.26,0.162-3.39,0.242c-0.059,0.004-0.15,0.005-0.208,0.028
	c-0.063,0.026-0.115,0.075-0.144,0.138c-0.058,0.125-0.012,0.273,0.106,0.344c0.032,0.02,0.148,0.059,0.182,0.071
	c0.062,0.022,0.125,0.044,0.186,0.066c0.125,0.045,0.249,0.089,0.373,0.134c0.497,0.178,0.993,0.355,1.489,0.534
	c0.496,0.178,0.993,0.356,1.489,0.534c0.137,0.049,0.237,0.078,0.384,0.088c0.134,0.01,0.263-0.001,0.394-0.033
	c0.042-0.011,0.336-0.1,0.378-0.113c0.126-0.038,0.252-0.076,0.378-0.114c0.253-0.077,0.506-0.153,0.759-0.229
	c0.053-0.016,0.323-0.097,0.375-0.115c0.125-0.045,0.236-0.105,0.342-0.186c0.217-0.167,0.375-0.399,0.448-0.662
	c0.038-0.137,0.046-0.241,0.046-0.383c0-0.131,0-0.264,0-0.396c0-1.057,0-2.113,0-3.172c0-0.527,0-1.057,0-1.586
	c0-0.264,0-0.527,0-0.793c0-0.131,0-0.264,0-0.396c0-0.105,0.003-0.282-0.009-0.388c-0.033-0.269-0.151-0.521-0.338-0.716
	c-0.094-0.1-0.198-0.178-0.318-0.242c-0.131-0.07-0.221-0.093-0.361-0.136c-0.505-0.155-1.011-0.31-1.516-0.466
	c-0.143-0.043-0.232-0.076-0.383-0.092C12.925,3.494,12.796,3.5,12.664,3.53c-0.13,0.027-0.251,0.079-0.374,0.125
	c-0.124,0.047-0.248,0.093-0.372,0.139c-0.496,0.186-0.991,0.37-1.486,0.555c-0.496,0.186-0.991,0.37-1.486,0.555
	C8.698,4.996,8.451,5.088,8.203,5.18C8.072,5.229,7.975,5.276,7.861,5.359C7.75,5.441,7.658,5.534,7.578,5.647
	C7.42,5.87,7.347,6.121,7.347,6.392c0,0.265,0,0.528,0,0.793c0,0.528,0,1.058,0,1.585c0,0.529,0,1.058,0,1.586
	c0,0.266,0,0.529,0,0.793c0,0.066-0.003,0.131,0.018,0.195c0.022,0.068,0.057,0.119,0.111,0.164
	C7.58,11.594,7.724,11.616,7.848,11.563z"/>
<path d="M16.392,16.959c-0.179,0-0.357-0.004-0.536,0.001c-0.092,0.002-0.115-0.024-0.097-0.119
	c0.075-0.384,0.408-0.635,0.793-0.588c0.281,0.034,0.525,0.337,0.505,0.618c-0.006,0.095-0.068,0.087-0.129,0.088
	C16.749,16.959,16.57,16.959,16.392,16.959z"/>
<path d="M8.688,16.725c-0.008,0.353-0.066,0.69-0.294,0.973c-0.321,0.396-0.753,0.484-1.22,0.375
	c-0.483-0.114-0.742-0.473-0.839-0.938c-0.101-0.484-0.069-0.963,0.234-1.381c0.286-0.393,0.776-0.544,1.274-0.414
	c0.438,0.114,0.743,0.486,0.812,0.998C8.673,16.466,8.678,16.596,8.688,16.725z"/>
</svg>
