<?xml version="1.0" encoding="utf-8"?>
<!-- Generator: Adobe Illustrator 16.0.0, SVG Export Plug-In . SVG Version: 6.00 Build 0)  -->
<!DOCTYPE svg PUBLIC "-//W3C//DTD SVG 1.1//EN" "http://www.w3.org/Graphics/SVG/1.1/DTD/svg11.dtd">
<svg version="1.1" id="Solid" xmlns="http://www.w3.org/2000/svg" xmlns:xlink="http://www.w3.org/1999/xlink" x="0px" y="0px"
	 width="24px" height="24px" viewBox="0 0 24 24" enable-background="new 0 0 24 24" xml:space="preserve">
<path d="M11.99,23.859c-6.545,0-11.837-5.304-11.831-11.864C0.165,5.472,5.478,0.159,12.043,0.183
	c6.531,0.024,11.81,5.345,11.792,11.886C23.82,18.571,18.516,23.86,11.99,23.859z M11.736,9.3c0-0.28-0.193-0.523-0.467-0.585
	C11.205,8.701,11.143,8.7,11.078,8.7c-0.066,0-0.133,0-0.199,0c-0.134,0-0.268,0-0.4,0c-0.533,0-1.067,0-1.601,0
	c-1.067,0-2.134,0-3.201,0c-0.066,0-0.133,0-0.2,0c-0.064,0-0.125,0.009-0.188,0.028C5.156,8.77,5.042,8.858,4.966,8.976
	C4.929,9.034,4.903,9.094,4.887,9.163C4.872,9.225,4.871,9.288,4.871,9.352c0,0.133,0,0.267,0,0.4c0,0.533,0,1.066,0,1.6
	c0,1.067,0,2.135,0,3.201c0,0.281,0.194,0.523,0.468,0.585c0.063,0.015,0.126,0.015,0.19,0.015c0.067,0,0.133,0,0.2,0
	c0.133,0,0.267,0,0.4,0c0.534,0,1.067,0,1.601,0c1.067,0,2.134,0,3.2,0c0.067,0,0.135,0,0.201,0c0.064,0,0.125-0.008,0.188-0.027
	c0.133-0.043,0.248-0.131,0.323-0.248c0.038-0.059,0.063-0.119,0.079-0.186c0.015-0.063,0.016-0.127,0.016-0.19
	c0-0.134,0-0.267,0-0.399c0-0.534,0-1.067,0-1.602C11.736,11.434,11.736,10.368,11.736,9.3z M7.958,7.901c0.698,0,1.395,0,2.093,0
	c0.348,0,0.698,0,1.046,0c0.188,0,0.346,0.02,0.524,0.086C11.82,8.06,12,8.178,12.146,8.331s0.256,0.336,0.322,0.537
	c0.03,0.096,0.051,0.19,0.061,0.289c0.007,0.068,0.008,0.139,0.008,0.207c0,0.885,0,1.769,0,2.652c0,0.443,0,0.885,0,1.326
	c0,0.222,0,0.443,0,0.664c0,0.11,0,0.221,0,0.332c0,0.155,0.006,0.311-0.023,0.466c-0.079,0.435-0.358,0.806-0.754,1.003
	c-0.185,0.092-0.387,0.141-0.593,0.146c-0.095,0.003-0.19,0.001-0.286,0.001c-0.361,0-0.722,0-1.083,0s-0.722,0-1.083,0
	c-0.181,0-0.361,0-0.542,0c-0.09,0-0.18,0-0.271,0c-0.022,0-0.045,0-0.067,0c-0.006,0-0.012,0-0.017,0c-0.001,0-0.003,0-0.004,0
	c-0.001,0-0.004-0.002-0.003,0c0.002,0.002,0.003,0.004,0.005,0.006c0.007,0.008,0.015,0.016,0.022,0.023
	c0.029,0.031,0.059,0.062,0.089,0.092c1.304,1.311,3.156,1.919,4.984,1.635c0.877-0.137,1.71-0.473,2.436-0.984
	c0.765-0.537,1.387-1.252,1.814-2.084c0.844-1.644,0.852-3.592,0.018-5.242c-0.833-1.65-2.404-2.801-4.229-3.098
	C11.126,6.004,9.271,6.598,7.958,7.901z"/>
<path d="M7.619,12.469c0,0.428,0,0.855,0,1.283c-0.234,0-0.469,0-0.704,0c0-1.211,0-2.422,0-3.632c0.478,0,0.955,0,1.433,0
	c0.066,0.001,0.132,0.003,0.198,0.007c0.208,0.014,0.41,0.076,0.605,0.189c0.243,0.141,0.388,0.345,0.435,0.611
	c0.015,0.083,0.024,0.167,0.028,0.25c0,0.039,0.001,0.078,0.001,0.117c0.002,0.121-0.008,0.244-0.03,0.366
	c-0.047,0.267-0.192,0.47-0.435,0.61c-0.195,0.113-0.397,0.178-0.605,0.19c-0.066,0.004-0.132,0.007-0.198,0.007
	C8.105,12.469,7.862,12.469,7.619,12.469z M8.379,11.889c0.017-0.002,0.034-0.005,0.051-0.008c0.065-0.01,0.125-0.035,0.182-0.074
	c0.11-0.075,0.188-0.178,0.232-0.308c0.053-0.153,0.051-0.306-0.006-0.458c-0.045-0.119-0.121-0.209-0.227-0.273
	c-0.057-0.034-0.118-0.055-0.181-0.063c-0.017-0.002-0.034-0.004-0.051-0.005c-0.253,0-0.507,0-0.76,0c0,0.396,0,0.792,0,1.188
	C7.873,11.889,8.126,11.889,8.379,11.889z"/>
</svg>
