<?xml version="1.0" encoding="utf-8"?>
<!-- Generator: Adobe Illustrator 16.0.0, SVG Export Plug-In . SVG Version: 6.00 Build 0)  -->
<!DOCTYPE svg PUBLIC "-//W3C//DTD SVG 1.1//EN" "http://www.w3.org/Graphics/SVG/1.1/DTD/svg11.dtd">
<svg version="1.1" id="Solid" xmlns="http://www.w3.org/2000/svg" xmlns:xlink="http://www.w3.org/1999/xlink" x="0px" y="0px"
	 width="24px" height="24px" viewBox="0 0 24 24" enable-background="new 0 0 24 24" xml:space="preserve">
<path d="M8.258,15.118c0.014,0.002,0.019-0.004,0.015-0.018C8.268,15.106,8.263,15.112,8.258,15.118z"/>
<path d="M10.146,7.194C9.816,7.196,9.549,6.928,9.55,6.596c0-0.335,0.262-0.596,0.597-0.594c0.33,0.002,0.599,0.273,0.595,0.601
	C10.738,6.926,10.469,7.193,10.146,7.194z"/>
<path d="M13.896,16.33c0.337-0.001,0.599,0.257,0.599,0.592c0,0.326-0.262,0.595-0.584,0.6c-0.334,0.004-0.607-0.268-0.607-0.602
	C13.304,16.593,13.566,16.331,13.896,16.33z"/>
<path d="M11.99,23.859c-6.545,0-11.837-5.304-11.831-11.864C0.165,5.472,5.478,0.158,12.043,0.183
	c6.531,0.025,11.81,5.344,11.792,11.886C23.82,18.57,18.516,23.859,11.99,23.859z M15.315,6.687c0-0.34-0.126-0.627-0.353-0.875
	c-0.035-0.036-0.066-0.075-0.104-0.108c-0.285-0.257-0.624-0.412-0.986-0.52c-0.682-0.203-1.383-0.245-2.088-0.233
	c-0.625,0.01-1.246,0.063-1.846,0.253C9.595,5.314,9.273,5.463,9.018,5.728C8.837,5.916,8.714,6.133,8.713,6.4
	c-0.002,0.505,0.004,1.01,0,1.515c0,0.09,0.028,0.106,0.11,0.105c0.581-0.003,1.161-0.001,1.742-0.001
	c0.451,0,0.901,0.003,1.353-0.002c0.1-0.001,0.125,0.03,0.115,0.121c-0.007,0.075-0.008,0.152,0,0.227
	c0.011,0.098-0.021,0.127-0.123,0.127C10.432,8.489,8.953,8.49,7.474,8.49c-0.021,0-0.043,0-0.065,0
	C6.95,8.463,6.541,8.6,6.181,8.881c-0.442,0.346-0.677,0.823-0.825,1.35C5.193,10.811,5.171,11.404,5.183,12
	c0.012,0.583,0.084,1.157,0.281,1.709c0.13,0.365,0.31,0.7,0.604,0.962c0.223,0.229,0.494,0.383,0.807,0.425
	c0.458,0.063,0.921,0.021,1.383,0.021c0.005-0.006,0.01-0.012,0.015-0.018c0.001-0.418,0-0.837,0.004-1.255
	c0.002-0.24-0.011-0.48,0.026-0.719c0.048-0.317,0.157-0.607,0.34-0.873c0.166-0.24,0.38-0.41,0.645-0.527
	c0.295-0.131,0.607-0.17,0.924-0.171c1.058-0.003,2.114-0.001,3.171-0.001c0.138,0,0.274-0.003,0.41-0.027
	c0.516-0.089,0.965-0.293,1.264-0.748c0.199-0.302,0.267-0.642,0.266-0.999C15.319,8.75,15.316,7.718,15.315,6.687z M18.819,11.059
	c0.001-0.382-0.084-0.75-0.197-1.111c-0.151-0.475-0.374-0.9-0.782-1.212c-0.28-0.215-0.586-0.342-0.941-0.343
	c-0.34,0-0.678,0.003-1.018-0.002c-0.089-0.001-0.115,0.021-0.114,0.113c0.005,0.509,0.01,1.017,0,1.526
	c-0.011,0.561-0.169,1.069-0.585,1.472c-0.297,0.287-0.665,0.443-1.064,0.45c-1.158,0.021-2.315,0.011-3.473,0.011
	c-0.226,0-0.447,0.027-0.662,0.089c-0.534,0.154-0.945,0.453-1.147,0.992c-0.087,0.232-0.117,0.476-0.117,0.721
	c-0.002,0.996,0.006,1.991-0.005,2.986c-0.005,0.48,0.191,0.852,0.554,1.136c0.489,0.382,1.071,0.532,1.674,0.607
	c0.051,0.008,0.1,0.019,0.15,0.023c0.559,0.06,1.119,0.066,1.682,0.027c0.331-0.022,0.659-0.061,0.982-0.135
	c0.436-0.1,0.854-0.243,1.196-0.546c0.218-0.192,0.373-0.428,0.379-0.726c0.009-0.515-0.001-1.03,0-1.546
	c0-0.063-0.014-0.09-0.083-0.089c-0.52,0.003-1.038,0.004-1.557,0.005c-0.039-0.001-0.079-0.004-0.119-0.004
	c-0.486,0-0.973-0.002-1.459,0.002c-0.085,0-0.116-0.023-0.109-0.11c0.008-0.079,0.01-0.159,0-0.238
	c-0.012-0.107,0.029-0.129,0.132-0.129c0.569,0.004,1.138,0,1.707-0.001c0.036,0.001,0.072,0.004,0.108,0.004
	c0.93,0.001,1.859,0.005,2.789,0.002c0.486-0.002,0.912-0.175,1.26-0.513c0.546-0.532,0.758-1.217,0.813-1.95
	C18.85,12.07,18.818,11.563,18.819,11.059z"/>
</svg>
