<?xml version="1.0" encoding="utf-8"?>
<!-- Generator: Adobe Illustrator 16.0.0, SVG Export Plug-In . SVG Version: 6.00 Build 0)  -->
<!DOCTYPE svg PUBLIC "-//W3C//DTD SVG 1.1//EN" "http://www.w3.org/Graphics/SVG/1.1/DTD/svg11.dtd">
<svg version="1.1" id="Solid" xmlns="http://www.w3.org/2000/svg" xmlns:xlink="http://www.w3.org/1999/xlink" x="0px" y="0px"
	 width="24px" height="24px" viewBox="0 0 24 24" enable-background="new 0 0 24 24" xml:space="preserve">
<path d="M11.99,23.859c-6.545,0-11.836-5.304-11.83-11.864C0.166,5.472,5.479,0.158,12.043,0.183
	c6.531,0.025,11.811,5.344,11.793,11.886C23.82,18.57,18.516,23.859,11.99,23.859z M20.139,15.848c0-0.23,0-0.46,0-0.691
	c0-0.21,0-0.21-0.213-0.194c-0.277-0.001-0.553-0.002-0.83-0.003c-0.117,0-0.117,0-0.117-0.117c0-1.488,0-2.976,0.002-4.464
	c0-0.078-0.023-0.092-0.094-0.091c-0.316,0.003-0.631,0.004-0.945-0.001c-0.078-0.001-0.092,0.025-0.092,0.096
	c0.002,1.781,0.002,3.563,0.002,5.344c0,0.043,0.002,0.087-0.002,0.13c-0.002,0.042,0.014,0.058,0.057,0.058
	c0.412-0.002,0.824-0.002,1.238-0.004c0.313,0.001,0.627,0.001,0.941,0.005C20.141,15.916,20.139,15.885,20.139,15.848z
	 M17.434,15.808c-0.131-0.079-0.256-0.164-0.387-0.243c-0.035-0.022-0.041-0.037-0.016-0.074c0.063-0.083,0.109-0.174,0.148-0.27
	c0.137-0.341,0.148-0.697,0.131-1.057c0-0.011,0-0.021,0-0.032c0.004-0.004,0.004-0.01,0.002-0.015
	c0.002-0.027,0.004-0.054,0.004-0.081c0-0.773,0-1.547,0-2.32c0-0.158-0.016-0.314-0.047-0.469c-0.105-0.534-0.443-0.874-0.98-0.978
	c-0.252-0.049-0.508-0.047-0.76,0.005c-0.424,0.087-0.725,0.327-0.881,0.736c-0.088,0.229-0.113,0.468-0.113,0.711
	c0,0.904,0,1.808,0,2.711c0,0.171,0.016,0.341,0.049,0.509c0.143,0.739,0.857,1.19,1.563,0.986c0.043-0.008,0.078,0.005,0.113,0.029
	c0.26,0.172,0.521,0.342,0.781,0.515c0.045,0.03,0.068,0.035,0.1-0.02c0.102-0.188,0.207-0.374,0.316-0.559
	C17.484,15.85,17.475,15.833,17.434,15.808z M10.49,7.866c-0.328-0.141-0.674-0.199-1.023-0.25c-0.008-0.003-0.014-0.008-0.021-0.01
	C9.057,7.545,8.666,7.501,8.273,7.473C7.676,7.432,7.076,7.425,6.477,7.466C5.859,7.508,5.248,7.58,4.641,7.702
	c-0.215,0.043-0.43,0.091-0.613,0.222c-0.074,0.054-0.137,0.116-0.15,0.213c-0.004,0.003-0.01,0.004-0.014,0.001
	c0,0.657,0,1.314,0,1.971c0.004,0.001,0.008,0.002,0.014,0.003c0.01,0.089,0.064,0.153,0.127,0.21
	c0.135,0.124,0.299,0.196,0.469,0.256c0.48,0.171,0.982,0.244,1.486,0.293c0.586,0.056,1.174,0.077,1.764,0.056
	c0.441-0.016,0.883-0.042,1.32-0.107c0.355-0.044,0.705-0.114,1.045-0.23c0.17-0.059,0.334-0.129,0.475-0.244
	c0.109-0.089,0.168-0.197,0.166-0.345c-0.004-0.588-0.008-1.177,0.002-1.766C10.732,8.048,10.656,7.937,10.49,7.866z M10.727,11.402
	c0-0.168-0.002-0.336-0.004-0.505c0-0.068-0.023-0.126-0.076-0.174c-0.021-0.021-0.037-0.032-0.066-0.005
	c-0.164,0.146-0.365,0.22-0.568,0.288c-0.338,0.111-0.686,0.164-1.033,0.219c-0.389,0.043-0.777,0.078-1.168,0.09
	c-0.447,0.015-0.895,0.01-1.342-0.015c-0.52-0.03-1.037-0.083-1.545-0.202c-0.299-0.069-0.594-0.15-0.85-0.331
	c-0.094-0.066-0.109-0.064-0.166,0.038c-0.018,0.03-0.033,0.063-0.031,0.099c-0.006,0.001-0.01,0.002-0.014,0.003
	c0,0.651,0,1.303,0,1.955c0.004,0.004,0.008,0.005,0.014,0.004c0.008,0.08,0.053,0.14,0.107,0.194
	c0.102,0.101,0.227,0.168,0.355,0.223c0.381,0.16,0.783,0.237,1.188,0.293c0.838,0.116,1.68,0.137,2.523,0.095
	c0.113-0.005,0.229-0.003,0.34-0.027c0.092,0.007,0.18-0.01,0.268-0.019c0.451-0.046,0.9-0.112,1.334-0.246
	c0.201-0.062,0.395-0.138,0.563-0.27c0.115-0.091,0.176-0.204,0.174-0.357C10.723,12.303,10.727,11.853,10.727,11.402z
	 M10.727,13.855c0-0.038-0.002-0.076-0.006-0.114c-0.006-0.072-0.043-0.126-0.1-0.171c-0.023-0.019-0.041-0.025-0.07-0.003
	c-0.236,0.186-0.52,0.265-0.803,0.337c-0.498,0.126-1.01,0.177-1.52,0.217c-0.518,0.028-1.037,0.038-1.555,0.014
	c-0.57-0.026-1.137-0.077-1.695-0.199c-0.303-0.066-0.602-0.147-0.867-0.316c-0.104-0.066-0.129-0.062-0.197,0.046
	c-0.02,0.032-0.039,0.065-0.037,0.106c-0.004,0.001-0.01,0.002-0.014,0.002c0,0.657,0,1.314,0,1.971l0.008-0.002l0.008,0.002
	c0.018,0.107,0.088,0.178,0.168,0.24c0.197,0.153,0.428,0.231,0.664,0.297c0.445,0.125,0.902,0.187,1.361,0.227
	c0.344,0.029,0.688,0.056,1.031,0.047c0.408,0.01,0.814,0.001,1.221-0.03c0.527-0.041,1.053-0.101,1.563-0.245
	c0.248-0.07,0.494-0.151,0.695-0.324c0.098-0.084,0.146-0.187,0.146-0.32C10.725,15.044,10.727,14.45,10.727,13.855z M13.482,12.694
	c-0.244-0.236-0.498-0.461-0.729-0.71c-0.123-0.135-0.207-0.291-0.193-0.484c0.012-0.145,0.113-0.231,0.266-0.227
	c0.139,0.004,0.223,0.088,0.227,0.233c0.004,0.114,0.008,0.228,0.008,0.342c0,0.042,0.014,0.058,0.057,0.056
	c0.086-0.003,0.172-0.002,0.26-0.004c0.26,0.001,0.518,0.002,0.777,0.004c0.035,0,0.055-0.006,0.055-0.048
	c-0.006-0.249-0.02-0.496-0.1-0.735c-0.094-0.371-0.301-0.648-0.67-0.778c-0.365-0.129-0.74-0.144-1.113-0.045
	c-0.299,0.079-0.523,0.26-0.662,0.538c-0.188,0.376-0.221,0.775-0.148,1.182c0.064,0.363,0.268,0.653,0.523,0.909
	c0.271,0.27,0.547,0.537,0.809,0.815c0.27,0.288,0.318,0.643,0.254,1.018c-0.018,0.109-0.088,0.16-0.197,0.172
	c-0.119,0.013-0.207-0.027-0.256-0.12c-0.043-0.081-0.057-0.169-0.057-0.259c0-0.226,0-0.451,0.002-0.676
	c0-0.048-0.012-0.066-0.063-0.065c-0.328,0.002-0.658,0.001-0.986,0c-0.051,0-0.063,0.018-0.063,0.066
	c0.004,0.217-0.002,0.434,0.004,0.651c0.006,0.226,0.037,0.448,0.111,0.663c0.111,0.32,0.309,0.556,0.639,0.667
	c0.033,0.012,0.064,0.027,0.098,0.037c0.295,0.079,0.594,0.096,0.895,0.052c0.395-0.058,0.678-0.262,0.836-0.63
	c0.127-0.299,0.174-0.614,0.172-0.937c0.025-0.409-0.049-0.794-0.275-1.141C13.826,13.034,13.656,12.862,13.482,12.694z"/>
<path d="M4.512,14.951c-0.004,0.064-0.045,0.099-0.105,0.104c-0.059,0.004-0.107-0.048-0.105-0.121
	c0.006-0.052,0.039-0.088,0.104-0.091C4.463,14.841,4.516,14.894,4.512,14.951z"/>
<path d="M4.512,12.197c-0.006,0.063-0.043,0.1-0.107,0.099s-0.1-0.038-0.104-0.102c-0.004-0.061,0.047-0.11,0.105-0.109
	C4.465,12.085,4.516,12.138,4.512,12.197z"/>
<path d="M4.295,9.397C4.232,9.393,4.193,9.354,4.193,9.292c0-0.062,0.039-0.101,0.102-0.107C4.355,9.18,4.402,9.23,4.402,9.292
	C4.402,9.355,4.357,9.402,4.295,9.397z"/>
<path d="M10.346,8.155c-0.119,0.082-0.258,0.11-0.395,0.144C9.766,8.345,9.574,8.367,9.385,8.4C8.359,8.512,7.33,8.535,6.299,8.485
	C5.801,8.461,5.303,8.423,4.811,8.334c-0.162-0.03-0.324-0.063-0.477-0.131C4.273,8.175,4.195,8.15,4.197,8.07
	c0-0.074,0.076-0.101,0.135-0.126c0.211-0.092,0.436-0.13,0.66-0.164c0.596-0.09,1.193-0.121,1.793-0.138
	C7.43,7.625,8.072,7.641,8.713,7.685c0.252,0.017,0.502,0.048,0.754,0.073c0.238,0.041,0.48,0.073,0.711,0.152
	c0.061,0.02,0.117,0.044,0.168,0.081C10.418,8.044,10.418,8.104,10.346,8.155z"/>
<path d="M16.131,14.777c-0.031,0.103-0.092,0.149-0.195,0.154c-0.109,0.005-0.188-0.04-0.225-0.137
	c-0.045-0.112-0.059-0.23-0.059-0.351c0-0.453,0-0.906,0-1.359c0-0.461,0-0.922,0-1.384c0-0.101,0.012-0.2,0.055-0.293
	c0.045-0.093,0.123-0.141,0.221-0.136c0.107,0.005,0.168,0.052,0.207,0.154c0.029,0.08,0.043,0.162,0.043,0.247
	c0,0.931,0,1.861,0,2.792C16.178,14.57,16.164,14.676,16.131,14.777z"/>
</svg>
