<?xml version="1.0" encoding="utf-8"?>
<!-- Generator: Adobe Illustrator 16.0.0, SVG Export Plug-In . SVG Version: 6.00 Build 0)  -->
<!DOCTYPE svg PUBLIC "-//W3C//DTD SVG 1.1//EN" "http://www.w3.org/Graphics/SVG/1.1/DTD/svg11.dtd">
<svg version="1.1" id="Solid" xmlns="http://www.w3.org/2000/svg" xmlns:xlink="http://www.w3.org/1999/xlink" x="0px" y="0px"
	 width="24px" height="24px" viewBox="0 0 24 24" enable-background="new 0 0 24 24" xml:space="preserve">
<path fill="#C32323" d="M11.99,23.859c-6.545,0-11.836-5.304-11.83-11.864C0.166,5.472,5.479,0.158,12.043,0.183
	c6.531,0.025,11.811,5.344,11.793,11.886C23.82,18.571,18.516,23.86,11.99,23.859z M9.066,11.912
	c-0.342-1.019-0.674-2.019-1.014-3.017C8.039,8.854,7.971,8.809,7.926,8.807C7.662,8.799,7.396,8.803,7.127,8.803
	c0,1.051,0,2.077,0,3.108C7.777,11.912,8.406,11.912,9.066,11.912z M6.949,8.803c-0.254,0-0.486,0.008-0.717-0.004
	C6.078,8.792,6.016,8.86,5.971,8.999c-0.199,0.607-0.406,1.211-0.611,1.816c-0.121,0.359-0.242,0.72-0.369,1.094
	c0.672,0,1.309,0,1.959,0C6.949,10.874,6.949,9.854,6.949,8.803z M19.057,11.543c0.727-0.871,0.818-1.492,0.369-2.164
	c-0.336-0.5-1.262-0.69-1.748-0.533c0,1.02,0,2.039,0,3.053c0.623,0,1.227,0,1.832,0c0.004-0.015,0.01-0.029,0.014-0.045
	C19.367,11.75,19.211,11.647,19.057,11.543z M12.668,11.899c0.629,0,1.232,0,1.908,0c-0.217-0.143-0.371-0.245-0.529-0.349
	c0.719-0.747,0.832-1.416,0.418-2.103c-0.334-0.553-1.242-0.77-1.797-0.604C12.668,9.856,12.668,10.87,12.668,11.899z
	 M15.729,12.089c-0.016,0.029-0.029,0.044-0.029,0.058c-0.004,0.964-0.006,1.928-0.01,2.893c-0.002,0.151,0.1,0.146,0.203,0.146
	c0.457,0,0.914-0.01,1.371,0.004c0.207,0.007,0.27-0.06,0.268-0.267c-0.012-0.864-0.004-1.729-0.006-2.594
	c0-0.079-0.012-0.158-0.02-0.24C16.895,12.089,16.307,12.089,15.729,12.089z M17.525,11.911c0-1.004-0.002-1.977,0-2.949
	c0-0.167-0.113-0.155-0.223-0.155c-0.439-0.001-0.881,0.011-1.322-0.005c-0.223-0.008-0.301,0.055-0.297,0.29
	c0.012,0.856,0.004,1.714,0.006,2.571c0,0.08,0.012,0.16,0.018,0.248C16.316,11.911,16.902,11.911,17.525,11.911z M10.697,15.169
	c0.619,0,1.215,0,1.822,0c0-1.036,0-2.056,0-3.081c-0.613,0-1.211,0-1.822,0C10.697,13.115,10.697,14.127,10.697,15.169z
	 M10.697,11.903c0.617,0,1.219,0,1.822,0c0-1.039,0-2.058,0-3.08c-0.615,0-1.211,0-1.822,0C10.697,9.86,10.697,10.879,10.697,11.903
	z M6.949,12.075c-0.639,0-1.244-0.005-1.852,0.008c-0.066,0.002-0.16,0.098-0.188,0.17c-0.195,0.512-0.375,1.029-0.563,1.545
	c-0.162,0.451-0.326,0.902-0.5,1.387c0.514,0,0.992,0.005,1.473-0.007c0.057-0.001,0.135-0.085,0.16-0.147
	c0.129-0.314,0.254-0.632,0.359-0.955c0.051-0.16,0.135-0.203,0.289-0.197c0.271,0.01,0.543,0.002,0.82,0.002
	C6.949,13.262,6.949,12.684,6.949,12.075z M7.121,13.879c0.313,0,0.596,0.008,0.879-0.002c0.143-0.006,0.209,0.05,0.248,0.18
	c0.1,0.317,0.201,0.635,0.316,0.945c0.025,0.071,0.105,0.172,0.162,0.174c0.488,0.014,0.979,0.008,1.51,0.008
	c-0.393-1.063-0.77-2.086-1.139-3.091c-0.682,0-1.326,0-1.977,0C7.121,12.691,7.121,13.27,7.121,13.879z M12.672,15.21
	c0.361-0.035,0.705-0.036,1.033-0.106c1.258-0.27,1.875-1.766,1.178-2.831c-0.055-0.082-0.154-0.187-0.234-0.188
	c-0.654-0.016-1.311-0.009-1.977-0.009C12.672,13.118,12.672,14.129,12.672,15.21z M17.678,12.075c0,1.056,0,2.075,0,3.094
	c0.258,0,0.498,0.014,0.738-0.002c1.574-0.101,2.146-1.861,1.438-2.908c-0.053-0.078-0.156-0.174-0.236-0.176
	C18.977,12.069,18.336,12.075,17.678,12.075z"/>
</svg>
