<?xml version="1.0" encoding="utf-8"?>
<!-- Generator: Adobe Illustrator 16.0.0, SVG Export Plug-In . SVG Version: 6.00 Build 0)  -->
<!DOCTYPE svg PUBLIC "-//W3C//DTD SVG 1.1//EN" "http://www.w3.org/Graphics/SVG/1.1/DTD/svg11.dtd">
<svg version="1.1" id="Solid" xmlns="http://www.w3.org/2000/svg" xmlns:xlink="http://www.w3.org/1999/xlink" x="0px" y="0px"
	 width="24px" height="24px" viewBox="0 0 24 24" enable-background="new 0 0 24 24" xml:space="preserve">
<path fill="#AF2334" d="M11.99,23.859c-6.545,0-11.836-5.304-11.83-11.864C0.166,5.472,5.479,0.159,12.043,0.183
	c6.531,0.024,11.811,5.345,11.793,11.886C23.82,18.571,18.516,23.86,11.99,23.859z M12.537,14.553c0,0.379-0.152,0.739-0.424,1.004
	c-0.271,0.263-0.617,0.396-0.992,0.396c-0.318,0-0.639,0-0.957,0c-0.32,0-0.641,0-0.959,0c-0.16,0-0.32,0-0.479,0
	c-0.041,0-0.08,0-0.121,0c-0.02,0-0.039,0-0.059,0c-0.004,0-0.006,0-0.008,0s-0.006-0.001-0.006,0.002c0,0.006,0,0.01,0,0.016
	c0,0.01,0,0.02,0,0.029c0,0.04,0,0.08,0,0.12c0,0.021,0,0.04,0,0.06c0,0.01,0,0.021,0,0.03c0,0.122,0.031,0.226,0.09,0.331
	c0.064,0.115,0.148,0.209,0.248,0.295c0.127,0.113,0.268,0.203,0.416,0.283c0.391,0.211,0.844,0.354,1.271,0.452
	c0.994,0.23,2.129,0.288,3.143,0.212c0.611-0.045,1.262-0.145,1.854-0.321c0.256-0.076,0.504-0.166,0.742-0.284
	c0.189-0.093,0.365-0.197,0.525-0.336c0.113-0.1,0.217-0.217,0.281-0.356c0.039-0.089,0.061-0.175,0.061-0.272
	c0-0.016,0-0.031,0-0.047c0-0.063,0-0.126,0-0.189c0-0.125,0-0.25,0-0.376c0-0.251,0-0.503,0-0.753c0-1.803,0-3.605,0-5.408
	c0-0.3,0-0.6,0-0.9c0-0.15,0-0.3,0-0.45c0-0.075,0-0.149,0-0.226c0-0.018,0-0.037,0-0.056c0-0.009,0-0.019,0-0.028
	c0-0.086-0.014-0.166-0.047-0.246c-0.068-0.172-0.199-0.312-0.338-0.425c-0.201-0.165-0.443-0.292-0.682-0.392
	c-0.643-0.273-1.408-0.418-2.094-0.488c-0.969-0.1-2.033-0.073-2.994,0.094c-0.447,0.078-0.914,0.193-1.338,0.365
	c-0.176,0.07-0.344,0.149-0.504,0.247C9.037,7.014,8.918,7.1,8.809,7.208c-0.115,0.113-0.215,0.25-0.256,0.413
	c-0.018,0.066-0.021,0.132-0.016,0.2c0,0.016,0.002,0.033,0.006,0.049c0.002,0.01,0.004,0.018,0.006,0.025
	c0,0.002-0.002,0.006,0.002,0.006c0.002,0,0.004,0,0.006,0c0.02,0,0.037,0,0.055,0c0.037,0,0.074,0,0.109,0c0.074,0,0.146,0,0.221,0
	c0.145,0,0.291,0,0.438,0c0.293,0,0.584,0,0.877,0c0.291,0,0.584,0,0.875,0c0.717,0,1.318,0.531,1.398,1.246
	c0.008,0.083,0.008,0.166,0.008,0.248c0,0.056,0,0.111,0,0.166c0,0.111,0,0.223,0,0.333c0,0.222,0,0.444,0,0.666
	c0,0.443,0,0.888,0,1.331C12.537,12.778,12.537,13.666,12.537,14.553z M11.736,9.3c0-0.28-0.193-0.523-0.467-0.585
	C11.205,8.701,11.143,8.7,11.078,8.7c-0.066,0-0.133,0-0.199,0c-0.133,0-0.268,0-0.4,0c-0.533,0-1.066,0-1.6,0
	c-1.068,0-2.135,0-3.201,0c-0.066,0-0.133,0-0.201,0c-0.064,0-0.125,0.009-0.188,0.028C5.156,8.77,5.043,8.858,4.967,8.976
	C4.93,9.034,4.904,9.094,4.887,9.163C4.873,9.225,4.871,9.288,4.871,9.352c0,0.133,0,0.267,0,0.4c0,0.533,0,1.066,0,1.6
	c0,1.067,0,2.135,0,3.201c0,0.281,0.193,0.523,0.469,0.585c0.063,0.015,0.125,0.015,0.189,0.015c0.066,0,0.133,0,0.199,0
	c0.135,0,0.268,0,0.4,0c0.533,0,1.066,0,1.602,0c1.066,0,2.133,0,3.199,0c0.068,0,0.135,0,0.201,0c0.064,0,0.125-0.008,0.188-0.027
	c0.133-0.043,0.248-0.131,0.324-0.248c0.037-0.059,0.063-0.119,0.078-0.186c0.016-0.063,0.016-0.127,0.016-0.19
	c0-0.134,0-0.267,0-0.399c0-0.534,0-1.067,0-1.602C11.736,11.434,11.736,10.368,11.736,9.3z"/>
<path fill="#AF2334" d="M7.523,13.096l-0.285,0.785H6.43l1.389-3.828h0.973l1.389,3.828H9.371l-0.285-0.785H7.523z M8.305,10.941
	l-0.506,1.395h1.012L8.305,10.941z"/>
</svg>
