<?xml version="1.0" encoding="utf-8"?>
<!-- Generator: Adobe Illustrator 16.0.0, SVG Export Plug-In . SVG Version: 6.00 Build 0)  -->
<!DOCTYPE svg PUBLIC "-//W3C//DTD SVG 1.1//EN" "http://www.w3.org/Graphics/SVG/1.1/DTD/svg11.dtd">
<svg version="1.1" id="Solid" xmlns="http://www.w3.org/2000/svg" xmlns:xlink="http://www.w3.org/1999/xlink" x="0px" y="0px"
	 width="24px" height="24px" viewBox="0 0 24 24" enable-background="new 0 0 24 24" xml:space="preserve">
<path fill="#972690" d="M17.698,10.641c0,1.379,0,2.758,0,4.137c-0.226,0.023-0.458,0.039-0.695,0.046
	c-0.857,0.026-1.452-0.353-1.784-1.137c-0.232-0.548-0.241-1.085-0.026-1.607c0.186-0.453,0.493-0.786,0.921-0.997
	C16.622,10.833,17.15,10.685,17.698,10.641z"/>
<path fill="#972690" d="M11.99,23.859c-6.544,0-11.836-5.304-11.831-11.864C0.165,5.472,5.478,0.159,12.043,0.183
	c6.53,0.024,11.809,5.345,11.792,11.886C23.82,18.571,18.516,23.86,11.99,23.859z M10.214,11.834l2.507-4.676h-2.194l-1.936,3.609
	L6.656,7.159H4.462l2.507,4.676l-2.409,4.492h2.194L8.592,12.9l1.837,3.427h2.193L10.214,11.834z M17.698,9.038
	c-0.361,0.031-0.742,0.08-1.142,0.147c-1.303,0.22-2.246,0.819-2.827,1.8c-0.614,1.036-0.704,2.137-0.27,3.301
	c0.402,1.08,1.225,1.728,2.469,1.943c1.172,0.203,2.249,0.141,3.232-0.188c0.177-0.059,0.353-0.121,0.527-0.186
	c0-3.145,0-6.289,0-9.433c-0.663,0-1.327,0-1.99,0C17.698,7.294,17.698,8.167,17.698,9.038z"/>
</svg>
