<?xml version="1.0" encoding="utf-8"?>
<!-- Generator: Adobe Illustrator 16.0.0, SVG Export Plug-In . SVG Version: 6.00 Build 0)  -->
<!DOCTYPE svg PUBLIC "-//W3C//DTD SVG 1.1//EN" "http://www.w3.org/Graphics/SVG/1.1/DTD/svg11.dtd">
<svg version="1.1" id="Solid" xmlns="http://www.w3.org/2000/svg" xmlns:xlink="http://www.w3.org/1999/xlink" x="0px" y="0px"
	 width="24px" height="24px" viewBox="0 0 24 24" enable-background="new 0 0 24 24" xml:space="preserve">
<path fill="#D1302E" d="M11.99,23.859c-6.544,0-11.836-5.304-11.831-11.864C0.165,5.472,5.478,0.158,12.043,0.183
	c6.53,0.025,11.809,5.344,11.792,11.886C23.82,18.571,18.516,23.86,11.99,23.859z M9.835,14.867
	c1.398-0.225,2.796-0.447,4.195-0.672c0.153,0.646,0.262,1.301,0.326,1.966c0.029,0.304,0.054,0.606,0.076,0.91
	c0.333,0.196,0.666,0.392,0.999,0.589c0.465,0,0.93,0,1.395,0c0.247-0.07,0.457-0.2,0.628-0.392
	c0.004-0.005,0.008-0.009,0.012-0.013c-0.001-0.004-0.001-0.006-0.002-0.01c-0.183-0.818-0.374-1.634-0.574-2.448
	c-0.491-1.999-1.121-3.954-1.89-5.866c-0.456-1.132-0.932-2.255-1.429-3.368c-0.01-0.021-0.019-0.042-0.028-0.063
	c-1.026,0-2.052,0-3.078,0c-0.02,0.042-0.039,0.085-0.058,0.127c-0.382,0.842-0.754,1.689-1.115,2.541
	c-0.799,1.886-1.456,3.82-1.971,5.804c-0.282,1.086-0.545,2.177-0.79,3.271c0.062,0.102,0.148,0.182,0.257,0.24
	c0.113,0.061,0.229,0.109,0.348,0.146c0.51,0,1.021,0,1.531,0c0.303-0.18,0.606-0.358,0.909-0.537
	c0.022-0.311,0.048-0.622,0.078-0.933C9.694,15.725,9.755,15.293,9.835,14.867z"/>
<path fill="#D1302E" d="M12.888,10.898c-0.767,0.449-1.533,0.898-2.299,1.349c0.332-0.879,0.687-1.745,1.066-2.599
	c0.115-0.26,0.231-0.52,0.35-0.778c0.118,0.259,0.234,0.519,0.35,0.778C12.538,10.062,12.715,10.478,12.888,10.898z"/>
</svg>
