<?xml version="1.0" encoding="utf-8"?>
<!-- Generator: Adobe Illustrator 16.0.0, SVG Export Plug-In . SVG Version: 6.00 Build 0)  -->
<!DOCTYPE svg PUBLIC "-//W3C//DTD SVG 1.1//EN" "http://www.w3.org/Graphics/SVG/1.1/DTD/svg11.dtd">
<svg version="1.1" id="Solid" xmlns="http://www.w3.org/2000/svg" xmlns:xlink="http://www.w3.org/1999/xlink" x="0px" y="0px"
	 width="24px" height="24px" viewBox="0 0 24 24" enable-background="new 0 0 24 24" xml:space="preserve">
<path fill="#964B66" d="M11.99,23.859c-6.545,0-11.836-5.304-11.83-11.864C0.166,5.472,5.479,0.158,12.043,0.183
	c6.531,0.025,11.811,5.344,11.793,11.886C23.82,18.571,18.516,23.86,11.99,23.859z M10.105,18.245c0-0.597,0-1.193,0.002-1.789
	c0-0.299,0-0.597,0-0.895c0-0.037,0-0.074,0-0.111c0-0.01,0-0.02,0-0.028c0-0.003,0-0.005,0-0.007s0-0.002,0-0.004
	c0-0.001,0.002-0.004,0-0.003c-0.004,0.002-0.01,0.003-0.014,0.005c-0.018,0.007-0.035,0.014-0.053,0.02
	c-0.068,0.027-0.139,0.054-0.209,0.08c-0.139,0.053-0.279,0.105-0.418,0.159c-0.559,0.212-1.115,0.424-1.674,0.636
	c-0.037,0.014-0.076,0.028-0.113,0.043c-0.041,0.016-0.08,0.031-0.121,0.045c-0.172,0.057-0.33,0.135-0.48,0.236
	c-0.279,0.188-0.504,0.443-0.656,0.743c-0.092,0.181-0.152,0.364-0.188,0.564c-0.014,0.083-0.023,0.166-0.023,0.251
	c0,0.046,0,0.093,0,0.139c0,0.025,0,0.051,0.002,0.075c0.002,0.032,0.004,0.065,0.008,0.099c0.008,0.066,0.02,0.133,0.035,0.199
	c0.031,0.14,0.076,0.271,0.137,0.401c0.256,0.551,0.752,0.952,1.342,1.09c0.592,0.138,1.213-0.003,1.686-0.384
	C9.846,19.424,10.109,18.856,10.105,18.245z M10.107,14.766l0.002-2.296l-2.504,3.246L10.107,14.766z M10.109,11.487
	c0-0.007,0-0.014,0-0.021c0-0.004,0-0.008,0-0.012c0-0.002,0-0.004,0-0.005c0-0.002,0.002-0.004,0-0.005
	c-0.01-0.01-0.02-0.021-0.029-0.03c-0.02-0.021-0.039-0.04-0.059-0.061c-0.039-0.04-0.076-0.08-0.115-0.12
	c-0.078-0.08-0.156-0.16-0.234-0.24c-0.154-0.16-0.309-0.32-0.465-0.481c-0.311-0.32-0.621-0.642-0.932-0.962
	C7.654,8.908,7.033,8.266,6.412,7.624C6.375,7.586,6.34,7.549,6.303,7.512C6.285,7.493,6.268,7.474,6.248,7.456
	C6.236,7.443,6.225,7.431,6.215,7.418C6.201,7.405,6.189,7.391,6.178,7.376c-0.004-0.004-0.006-0.007-0.01-0.011
	c-0.002-0.002-0.006-0.01-0.006-0.005c0,0.003,0,0.007,0,0.01c0,0.11,0,0.219,0,0.329c0,0.22,0,0.439,0,0.659
	c0,0.438,0,0.878,0,1.317c0,0.893-0.002,1.786-0.002,2.68c0,0.893,0,1.787,0,2.68c0,0.447,0,0.894-0.002,1.34
	c0,0.057,0,0.112,0,0.168c0,0.014,0,0.028,0,0.042c0,0.007,0,0.015,0,0.021s0.004-0.002,0.006-0.004
	c0.002-0.004,0.004-0.006,0.006-0.009c0.018-0.022,0.035-0.044,0.053-0.066c0.066-0.089,0.135-0.177,0.203-0.265
	c0.137-0.178,0.273-0.354,0.41-0.531C7.928,14.317,9.02,12.902,10.109,11.487z M10.709,14.538l1.752-0.666l-1.752-1.809V14.538z
	 M10.707,15.18l-0.002,2.975l2.619-3.391l-0.41-0.423L10.707,15.18z M15.168,16.668c-0.432-0.446-0.863-0.893-1.297-1.338
	c-0.025-0.027-0.051-0.053-0.076-0.08c-0.012-0.013-0.025-0.025-0.037-0.039c-0.004-0.004-0.008-0.007-0.01-0.01
	c-0.004-0.004-0.008,0.005-0.01,0.008c-0.006,0.008-0.012,0.016-0.018,0.023c-0.049,0.061-0.096,0.123-0.143,0.185
	c-0.096,0.124-0.191,0.247-0.287,0.37c-0.191,0.248-0.381,0.494-0.572,0.742c-0.76,0.982-1.518,1.965-2.275,2.947
	c-0.008,0.008-0.014,0.016-0.02,0.024c-0.004,0.004-0.008,0.009-0.01,0.013c-0.002,0.002,0.002-0.001,0.004-0.002
	c0.002,0,0.004-0.001,0.008-0.002c0.018-0.007,0.035-0.014,0.053-0.021c0.037-0.014,0.072-0.027,0.109-0.042
	c0.072-0.027,0.145-0.055,0.217-0.082c0.145-0.055,0.289-0.109,0.436-0.164c0.289-0.11,0.578-0.221,0.867-0.33
	c0.58-0.221,1.16-0.44,1.742-0.66c0.58-0.221,1.16-0.441,1.74-0.661c0.162-0.062,0.324-0.123,0.484-0.185
	c0.021-0.008,0.041-0.016,0.061-0.023c0.012-0.004,0.021-0.007,0.031-0.011c0.006-0.002,0.01-0.004,0.016-0.006
	c0-0.001,0.002-0.001,0.004-0.001c0.004-0.002-0.004-0.003-0.006-0.004c-0.008-0.002-0.016-0.005-0.023-0.008
	c-0.125-0.045-0.246-0.1-0.361-0.163C15.557,17.02,15.354,16.864,15.168,16.668z M16.307,13.053
	c-0.564,0.215-1.129,0.429-1.695,0.644c-0.287,0.109-0.576,0.219-0.863,0.328c-0.072,0.027-0.145,0.055-0.217,0.082
	c0,0.001-0.002,0.001-0.004,0.001c0,0.001-0.004,0-0.002,0.002s0.004,0.004,0.006,0.005c0.002,0.003,0.006,0.007,0.008,0.01
	c0.008,0.007,0.014,0.013,0.02,0.02c0.014,0.013,0.025,0.026,0.039,0.04c0.025,0.025,0.051,0.052,0.076,0.078
	c0.102,0.105,0.203,0.21,0.305,0.314c0.42,0.435,0.84,0.869,1.26,1.303c0.078,0.08,0.156,0.16,0.232,0.24
	c0.098,0.1,0.191,0.203,0.299,0.292c0.275,0.228,0.605,0.376,0.957,0.431c0.607,0.096,1.225-0.099,1.67-0.523
	c0.445-0.428,0.666-1.032,0.598-1.646c-0.068-0.612-0.414-1.154-0.943-1.473C17.521,12.88,16.881,12.829,16.307,13.053z
	 M14.33,13.162l-0.248-3.624l-1.479-0.299l-1.684,2.18l2.15,2.222L14.33,13.162z M17.301,12.33
	c-0.555-0.571-1.107-1.144-1.662-1.716c-0.277-0.286-0.553-0.572-0.83-0.857c-0.033-0.035-0.066-0.068-0.1-0.103
	c-0.004-0.005-0.008-0.009-0.012-0.013c-0.002-0.002-0.004-0.004-0.006-0.006c-0.004-0.004-0.002,0.004,0,0.006
	c0,0.014,0,0.025,0.002,0.038c0.002,0.025,0.004,0.05,0.006,0.075c0.006,0.1,0.014,0.2,0.02,0.301c0.014,0.199,0.027,0.4,0.041,0.6
	c0.027,0.398,0.055,0.795,0.082,1.191c0.014,0.199,0.027,0.398,0.041,0.596c0.008,0.1,0.014,0.199,0.021,0.299
	c0.002,0.049,0.006,0.1,0.01,0.148c0,0.013,0.002,0.025,0.002,0.037c0,0.004,0,0.007,0,0.01c0,0.001,0,0.003,0.002,0.002
	c0.002,0,0.004,0,0.006-0.001c0.006-0.003,0.01-0.005,0.016-0.007c0.023-0.009,0.047-0.018,0.07-0.026
	c0.373-0.142,0.744-0.284,1.117-0.425C16.502,12.339,16.902,12.288,17.301,12.33z M10.711,8.854v1.855l1.236-1.604L10.711,8.854z
	 M15.764,9.879c0.688,0.711,1.375,1.421,2.063,2.131c0.172,0.178,0.346,0.355,0.518,0.533c0.086,0.09,0.172,0.179,0.258,0.268
	s0.17,0.179,0.258,0.267c0.008,0.007,0.014,0.015,0.021,0.021c0.002,0.001,0.004,0.009,0.004,0.005c0-0.002,0-0.002,0-0.004
	s0-0.004,0-0.006c0-0.007-0.002-0.015-0.002-0.021c0-0.016-0.002-0.031-0.002-0.046c-0.002-0.03-0.006-0.062-0.008-0.091
	c-0.004-0.061-0.008-0.121-0.012-0.183c-0.008-0.121-0.018-0.243-0.025-0.364c-0.018-0.242-0.033-0.484-0.051-0.728
	c-0.033-0.493-0.068-0.987-0.102-1.479c-0.018-0.242-0.035-0.484-0.051-0.727c-0.008-0.121-0.018-0.243-0.025-0.364
	C18.605,9.061,18.604,9.031,18.602,9C18.6,8.985,18.6,8.97,18.598,8.956c0-0.008,0-0.016-0.002-0.023c0-0.004,0-0.008,0-0.011
	c0-0.006-0.004,0.003-0.006,0.006c-0.041,0.056-0.084,0.11-0.129,0.162c-0.326,0.377-0.754,0.651-1.232,0.79
	c-0.229,0.066-0.457,0.1-0.695,0.102c-0.113,0-0.227-0.006-0.34-0.02c-0.09-0.012-0.18-0.027-0.268-0.049
	C15.871,9.901,15.816,9.89,15.764,9.879z M15.025,9.118c0.232,0.047,0.465,0.094,0.697,0.141c0.117,0.023,0.232,0.048,0.35,0.071
	c0.066,0.014,0.133,0.028,0.201,0.036c0.104,0.014,0.207,0.018,0.313,0.014c0.537-0.021,1.041-0.258,1.398-0.658
	c0.184-0.206,0.324-0.449,0.408-0.712c0.043-0.131,0.07-0.264,0.084-0.401c0.008-0.067,0.01-0.133,0.01-0.2
	c0-0.05-0.002-0.1-0.006-0.149c-0.037-0.538-0.293-1.03-0.707-1.374c-0.861-0.715-2.143-0.573-2.826,0.313
	c-0.201,0.26-0.334,0.566-0.385,0.891c-0.014,0.075-0.021,0.15-0.023,0.227c-0.002,0.032-0.004,0.063-0.002,0.095
	c0.002,0.019,0.002,0.038,0.004,0.057c0.006,0.075,0.01,0.15,0.016,0.226c0.02,0.27,0.037,0.539,0.057,0.809
	c0.004,0.068,0.008,0.135,0.014,0.203c0,0.002,0.002,0.002,0.004,0.004c0,0.002,0.002,0.003,0.004,0.004
	c0.002,0.003,0.006,0.006,0.008,0.009c0.006,0.006,0.012,0.012,0.018,0.017c0.01,0.012,0.021,0.023,0.033,0.035
	c0.021,0.023,0.043,0.046,0.066,0.068C14.848,8.934,14.936,9.026,15.025,9.118z M13.729,7.779c-0.119,0.156-0.24,0.312-0.359,0.468
	c-0.061,0.078-0.121,0.155-0.182,0.233c-0.029,0.039-0.061,0.078-0.09,0.116c-0.016,0.02-0.029,0.039-0.045,0.059
	c-0.008,0.01-0.016,0.02-0.023,0.029c-0.004,0.006-0.006,0.01-0.01,0.016c-0.002,0.002-0.004,0.004-0.006,0.007
	c-0.002,0.001-0.002,0.002,0,0.003h0.002c0.301,0.062,0.602,0.122,0.902,0.184c0.033,0.006,0.064,0.013,0.098,0.02
	c0.004,0,0.008,0.002,0.012,0.002c0.002,0.001,0.004,0.001,0.006,0.002c0.002,0,0.006,0.004,0.006,0c0-0.008,0-0.017-0.002-0.024
	c0-0.017-0.002-0.033-0.002-0.05c-0.006-0.066-0.01-0.133-0.014-0.198c-0.01-0.132-0.02-0.265-0.027-0.397
	c-0.01-0.131-0.02-0.264-0.027-0.396c-0.002-0.033-0.006-0.066-0.008-0.099c0-0.02-0.004-0.039-0.006-0.058
	c-0.004-0.022-0.006-0.043-0.008-0.065c-0.004-0.044-0.006-0.089-0.008-0.133c-0.006-0.185,0.008-0.365,0.039-0.547
	c0.127-0.699,0.537-1.314,1.133-1.701c0.045-0.03,0.092-0.058,0.141-0.085c0.006-0.003,0.012-0.006,0.018-0.01
	c0.002-0.001,0.006-0.003,0.008-0.005c0.002-0.001,0.008-0.002,0.004-0.003c-0.004-0.001-0.01-0.002-0.016-0.003
	c-0.01-0.002-0.02-0.004-0.029-0.006c-0.041-0.008-0.08-0.016-0.121-0.024c-0.08-0.016-0.162-0.033-0.242-0.049
	c-0.16-0.032-0.322-0.065-0.484-0.097c-0.322-0.065-0.645-0.13-0.967-0.195c-0.686-0.138-1.373-0.276-2.059-0.415
	c-0.344-0.069-0.688-0.139-1.031-0.208c-0.045-0.008-0.088-0.017-0.131-0.026c-0.004-0.001-0.01-0.002-0.016-0.003
	c-0.004,0,0.002,0.003,0.004,0.005c0.002,0.002,0.004,0.004,0.006,0.006c0.008,0.008,0.016,0.016,0.021,0.023
	c0.016,0.016,0.031,0.031,0.047,0.047c0.061,0.063,0.121,0.125,0.182,0.188c0.121,0.125,0.242,0.25,0.363,0.376
	C11.781,5.767,12.756,6.773,13.729,7.779z M10.713,8.243c0.35,0.07,0.697,0.142,1.047,0.213c0.176,0.035,0.35,0.07,0.525,0.105
	c0.021,0.005,0.043,0.01,0.064,0.014c0.002,0,0.006,0.002,0.008,0c0.002-0.003,0.004-0.005,0.006-0.008
	c0.002-0.004,0.006-0.008,0.01-0.013c0.006-0.009,0.014-0.018,0.02-0.026c0.027-0.035,0.055-0.07,0.082-0.105
	c0.055-0.07,0.109-0.142,0.164-0.212c0.055-0.073,0.111-0.146,0.168-0.219c0.027-0.036,0.057-0.073,0.084-0.109
	c0.014-0.019,0.029-0.037,0.043-0.055c0.002-0.002,0.004-0.004,0.002-0.007c-0.002-0.002-0.004-0.004-0.006-0.006
	c-0.004-0.004-0.008-0.008-0.012-0.012c-0.008-0.008-0.016-0.016-0.021-0.023c-0.121-0.125-0.242-0.25-0.363-0.374
	c-0.248-0.256-0.496-0.512-0.744-0.768c-0.248-0.256-0.496-0.512-0.744-0.769c-0.105-0.109-0.211-0.218-0.316-0.327
	c-0.006-0.007-0.014-0.014-0.02-0.021c0,0-0.002-0.001-0.002-0.001c-0.002-0.002,0,0.002,0,0.003c0,0.003,0,0.007,0.002,0.01
	c0,0.007,0,0.014,0,0.021c0.002,0.014,0.002,0.028,0.002,0.042c0.002,0.048,0.004,0.097,0.004,0.146
	c-0.002,0.04-0.002,0.081-0.002,0.121c0,0.081,0,0.161,0,0.241C10.713,6.816,10.713,7.529,10.713,8.243z M10.113,5.731
	c0.006-0.75-0.398-1.434-1.068-1.779C8.982,3.919,8.916,3.89,8.85,3.864C8.818,3.852,8.785,3.84,8.752,3.83
	C8.723,3.82,8.695,3.816,8.666,3.811C8.555,3.788,8.443,3.766,8.332,3.743c-0.047-0.009-0.107-0.01-0.154-0.011
	c-0.059-0.001-0.117,0-0.176,0.004C7.881,3.745,7.764,3.764,7.645,3.794C7.398,3.858,7.184,3.96,6.977,4.11
	C6.373,4.549,6.068,5.292,6.189,6.029C6.238,6.322,6.352,6.6,6.521,6.842c0.041,0.057,0.084,0.112,0.131,0.165
	c0.023,0.028,0.049,0.054,0.076,0.08c0.045,0.047,0.09,0.094,0.135,0.141C7.045,7.416,7.227,7.603,7.408,7.79
	c0.506,0.523,1.012,1.046,1.52,1.57c0.25,0.258,0.5,0.517,0.75,0.775c0.125,0.129,0.25,0.258,0.375,0.388
	c0.016,0.017,0.031,0.032,0.047,0.048c0.002,0.002,0.004,0.004,0.006,0.006s0.006,0.008,0.006,0.004c0-0.006,0-0.012,0-0.018
	c0-0.012,0-0.024,0-0.036c0-0.048,0-0.095,0-0.143c0-0.095,0-0.189,0-0.284C10.111,8.643,10.113,7.188,10.113,5.731z"/>
<circle fill="#964B66" cx="8.13" cy="18.269" r="0.925"/>
<circle fill="#964B66" cx="17.031" cy="14.891" r="0.926"/>
<circle fill="#964B66" cx="16.512" cy="7.405" r="0.926"/>
<circle fill="#964B66" cx="8.139" cy="5.708" r="0.926"/>
</svg>
