<?xml version="1.0" encoding="utf-8"?>
<!-- Generator: Adobe Illustrator 16.0.0, SVG Export Plug-In . SVG Version: 6.00 Build 0)  -->
<!DOCTYPE svg PUBLIC "-//W3C//DTD SVG 1.1//EN" "http://www.w3.org/Graphics/SVG/1.1/DTD/svg11.dtd">
<svg version="1.1" id="Solid" xmlns="http://www.w3.org/2000/svg" xmlns:xlink="http://www.w3.org/1999/xlink" x="0px" y="0px"
	 width="24px" height="24px" viewBox="0 0 24 24" enable-background="new 0 0 24 24" xml:space="preserve">
<path fill="#E00096" d="M8.156,13.376c2.467-0.001,4.934-0.001,7.4-0.001c0.008,0,0.016,0,0.021,0
	c-0.695,0.403-1.393,0.803-2.088,1.204c-0.109,0.062-0.217,0.124-0.326,0.186c-0.1,0.057-0.197,0.115-0.295,0.174
	c-0.008,0.004-0.014,0.008-0.02,0.011c-0.006,0.002-0.01,0.004-0.016,0.006c-0.002,0.001-0.006,0.002-0.01,0.003
	c-0.002,0-0.002,0-0.004,0s-0.002,0-0.002,0c-0.002,0-0.004-0.001-0.006-0.001c-0.002-0.001-0.006-0.002-0.008-0.004
	c-0.004-0.002-0.01-0.005-0.014-0.008c-0.006-0.004-0.012-0.009-0.018-0.014c-0.068-0.058-0.141-0.111-0.217-0.157
	c-0.072-0.044-0.148-0.083-0.227-0.114c-0.076-0.03-0.154-0.054-0.234-0.071c-0.041-0.008-0.08-0.014-0.119-0.019
	c-0.041-0.004-0.08-0.007-0.121-0.007c-0.08-0.001-0.16,0.005-0.24,0.019s-0.16,0.035-0.236,0.063
	c-0.08,0.029-0.158,0.064-0.23,0.106c-0.078,0.044-0.152,0.094-0.223,0.149c-0.006,0.004-0.014,0.009-0.02,0.014
	c-0.004,0.003-0.01,0.007-0.014,0.01c-0.004,0.002-0.008,0.005-0.012,0.007c-0.002,0.001-0.004,0.002-0.008,0.002c0,0,0,0-0.002,0
	c0,0,0,0-0.002,0s-0.002,0-0.004,0c-0.004-0.001-0.006-0.002-0.01-0.003c-0.006-0.002-0.01-0.005-0.016-0.008
	C9.947,14.406,9.051,13.892,8.156,13.376z"/>
<path fill="#E00096" d="M12.961,5.087c0.863,0.496,1.725,0.995,2.592,1.488c0.012,0.007,0.021,0.014,0.033,0.021
	c0.01,0.006,0.02,0.012,0.027,0.019c0.008,0.006,0.016,0.013,0.021,0.02c0.006,0.005,0.01,0.01,0.014,0.016
	c0.004,0.005,0.006,0.01,0.008,0.015c0.004,0.005,0.006,0.011,0.006,0.018c0.002,0.003,0.002,0.007,0.004,0.011
	c0,0.004,0,0.008,0,0.013c0.002,0.011,0.002,0.021,0.002,0.032c-0.002,0.014-0.004,0.028-0.006,0.042
	c-0.01,0.08-0.016,0.16-0.014,0.24c0.002,0.078,0.01,0.156,0.025,0.232c0.016,0.075,0.037,0.148,0.064,0.22
	c0.027,0.071,0.061,0.139,0.1,0.205c0.039,0.065,0.082,0.127,0.133,0.185c0.049,0.059,0.104,0.113,0.162,0.162
	c0.061,0.05,0.125,0.096,0.191,0.136c0.07,0.041,0.143,0.076,0.219,0.105c0.008,0.004,0.018,0.007,0.027,0.011
	c0.008,0.003,0.016,0.006,0.021,0.01c0.008,0.003,0.014,0.006,0.02,0.01c0.004,0.002,0.006,0.004,0.01,0.007
	c0.002,0.001,0.004,0.003,0.006,0.005c0,0.001,0.002,0.003,0.004,0.005c0,0.003,0.002,0.006,0.002,0.009
	c0.002,0.005,0.002,0.01,0.004,0.016c0,0.008,0.002,0.016,0.002,0.024c-0.006,1.023-0.004,2.047-0.004,3.07
	C15.412,9.32,14.189,7.208,12.961,5.087z"/>
<path fill="#E00096" d="M7.035,11.426c-0.002-1.007,0.002-2.013-0.004-3.02c0-0.011,0-0.022,0-0.033
	c0.002-0.009,0.002-0.017,0.004-0.026c0.002-0.006,0.002-0.012,0.004-0.018C7.041,8.325,7.043,8.32,7.045,8.316
	C7.047,8.313,7.049,8.31,7.051,8.307c0.004-0.004,0.008-0.007,0.01-0.01c0.006-0.005,0.012-0.009,0.018-0.013
	C7.086,8.28,7.094,8.276,7.104,8.272c0.01-0.005,0.02-0.01,0.031-0.014c0.076-0.03,0.15-0.066,0.221-0.108
	c0.068-0.041,0.133-0.088,0.193-0.141C7.607,7.958,7.662,7.901,7.713,7.84c0.049-0.06,0.092-0.125,0.131-0.192
	c0.037-0.068,0.07-0.139,0.096-0.212C7.967,7.362,7.986,7.286,8,7.208C8.014,7.13,8.02,7.05,8.02,6.97
	C8.021,6.889,8.014,6.807,8,6.726C7.998,6.717,7.998,6.708,7.996,6.7C7.994,6.693,7.994,6.686,7.992,6.679c0-0.006,0-0.011,0-0.017
	c0-0.003,0-0.006,0-0.009c0,0,0-0.001,0-0.002s0-0.001,0-0.001c0.002,0,0.002-0.001,0.002-0.001s0,0,0-0.001
	c0.002-0.001,0.002-0.001,0.002-0.002C7.998,6.644,7.998,6.643,8,6.642C8.002,6.64,8.002,6.639,8.004,6.638
	C8.01,6.634,8.016,6.63,8.021,6.627c0.895-0.511,1.789-1.026,2.682-1.541C9.471,7.218,8.258,9.314,7.035,11.426z"/>
<path fill="#E00096" d="M15.68,12.531c-0.006,0.008-0.01,0.017-0.016,0.025c-0.016,0-0.031,0-0.049,0c-0.008,0-0.016,0-0.023,0
	c-0.182,0-0.363,0-0.543,0c-2.318,0-4.635,0-6.953-0.003c-0.008,0-0.018,0-0.025,0.001c-0.008,0.001-0.016,0.002-0.023,0.003
	c-0.006,0.001-0.014,0.002-0.02,0.003s-0.014,0.002-0.02,0.003c-0.004,0.001-0.01,0.001-0.014,0.002s-0.008,0.001-0.012,0.001
	c0,0-0.002,0-0.004,0c0-0.002-0.002-0.006-0.002-0.012c-0.002-0.003-0.002-0.006-0.004-0.009c0-0.003-0.002-0.005-0.004-0.008
	c-0.02-0.042-0.039-0.085-0.059-0.128c-0.02-0.045-0.041-0.089-0.064-0.132c-0.012-0.022-0.023-0.044-0.037-0.065
	c-0.014-0.022-0.027-0.044-0.043-0.065c-0.016-0.021-0.031-0.042-0.049-0.063c-0.018-0.021-0.035-0.041-0.055-0.06
	c-0.004-0.002-0.006-0.005-0.01-0.009c-0.002-0.002-0.002-0.004-0.004-0.006c-0.002-0.001-0.002-0.002-0.002-0.003
	c0-0.002,0-0.003,0.002-0.005c0-0.003,0.002-0.005,0.004-0.008c0.002-0.003,0.004-0.007,0.006-0.01
	c0.002-0.004,0.006-0.008,0.008-0.013c0.004-0.006,0.008-0.012,0.012-0.018c0.004-0.005,0.008-0.011,0.012-0.017
	c0.004-0.006,0.008-0.013,0.012-0.019c0.709-1.229,1.42-2.457,2.131-3.685c0.543-0.94,1.09-1.878,1.629-2.821
	c0.006-0.01,0.012-0.02,0.02-0.03c0.004-0.007,0.01-0.015,0.016-0.022c0.006-0.006,0.012-0.012,0.018-0.017
	c0.004-0.003,0.008-0.006,0.012-0.008c0.002-0.002,0.006-0.004,0.01-0.005c0.004-0.001,0.008-0.002,0.012-0.003
	c0.002,0,0.004,0,0.006,0c0.004,0,0.006,0,0.01,0c0.006,0,0.014,0.001,0.021,0.002c0.01,0.002,0.021,0.004,0.031,0.007
	c0.031,0.009,0.063,0.017,0.096,0.022c0.031,0.005,0.064,0.008,0.098,0.009s0.066,0,0.1-0.005c0.035-0.004,0.068-0.011,0.1-0.021
	c0.014-0.004,0.027-0.008,0.041-0.01c0.012-0.002,0.021-0.003,0.033-0.003c0.004,0,0.008,0,0.012,0s0.008,0,0.012,0.001
	c0.006,0.001,0.012,0.002,0.018,0.005c0.006,0.002,0.012,0.005,0.018,0.008c0.002,0.002,0.006,0.004,0.008,0.006
	c0.004,0.002,0.006,0.005,0.01,0.008c0.008,0.008,0.016,0.017,0.023,0.026c0.008,0.01,0.016,0.021,0.023,0.032
	c0.008,0.013,0.016,0.027,0.023,0.041c1.229,2.132,2.463,4.262,3.699,6.389c0.01,0.015,0.018,0.029,0.025,0.044
	c0.006,0.013,0.014,0.026,0.02,0.039c0.002,0.007,0.006,0.015,0.008,0.022c0.002,0.005,0.004,0.01,0.006,0.015
	c0,0.005,0.002,0.009,0.004,0.014c0,0.004,0,0.008,0.002,0.013c0,0.007,0,0.015,0,0.022s-0.002,0.014-0.004,0.021
	c-0.002,0.004-0.004,0.008-0.004,0.012c-0.002,0.004-0.004,0.009-0.008,0.013c-0.004,0.011-0.012,0.021-0.02,0.03
	c-0.01,0.013-0.02,0.025-0.031,0.037c-0.016,0.015-0.029,0.031-0.043,0.047c-0.012,0.016-0.023,0.033-0.035,0.05
	c-0.012,0.017-0.021,0.034-0.033,0.051c-0.01,0.017-0.02,0.034-0.029,0.051c-0.008,0.017-0.018,0.034-0.025,0.051
	c-0.01,0.02-0.02,0.04-0.031,0.059c-0.008,0.016-0.016,0.032-0.023,0.048C15.697,12.501,15.688,12.516,15.68,12.531z"/>
<path fill="#E00096" d="M9.873,19.361c-0.002,0.03-0.006,0.061-0.01,0.091c-0.006,0.028-0.012,0.056-0.018,0.083
	C9.838,19.56,9.83,19.584,9.82,19.608c-0.01,0.022-0.02,0.043-0.031,0.063c-0.012,0.019-0.023,0.037-0.037,0.054
	c-0.014,0.016-0.029,0.031-0.045,0.045s-0.033,0.026-0.051,0.037c-0.02,0.011-0.039,0.021-0.061,0.03
	c-0.012,0.005-0.027,0.01-0.041,0.015c-0.006,0.002-0.014,0.004-0.021,0.006c-0.006,0.001-0.012,0.003-0.02,0.004
	c-0.027,0.006-0.055,0.011-0.084,0.014c-0.027,0.002-0.055,0.002-0.082,0.001c-0.014-0.001-0.025-0.002-0.039-0.004
	s-0.027-0.004-0.039-0.008c-0.014-0.003-0.025-0.007-0.039-0.011c-0.008-0.003-0.018-0.006-0.025-0.01
	c-0.01-0.004-0.021-0.009-0.031-0.014c-0.006-0.003-0.01-0.006-0.016-0.009c-0.004-0.002-0.008-0.003-0.01-0.005
	c-0.008-0.005-0.016-0.011-0.023-0.017c-0.016-0.011-0.027-0.022-0.039-0.036c-0.01-0.011-0.018-0.024-0.025-0.038
	c-0.006-0.012-0.012-0.025-0.014-0.038c-0.002-0.012-0.004-0.025-0.004-0.038s0.002-0.025,0.006-0.038
	c0.004-0.013,0.01-0.026,0.018-0.039c0.008-0.014,0.018-0.026,0.029-0.038c0.01-0.011,0.021-0.022,0.035-0.031
	c0.008-0.005,0.016-0.011,0.023-0.016c0.004-0.002,0.008-0.005,0.012-0.007c0.008-0.004,0.016-0.008,0.023-0.012
	c0.008-0.004,0.018-0.008,0.025-0.012c0.016-0.007,0.033-0.014,0.049-0.02c0.039-0.014,0.08-0.025,0.119-0.034
	c0.041-0.009,0.082-0.016,0.121-0.022c0.047-0.008,0.094-0.014,0.141-0.021c0.018-0.003,0.035-0.005,0.053-0.007
	c0.021-0.003,0.045-0.005,0.068-0.008c0.02-0.002,0.041-0.004,0.061-0.008c0.016-0.002,0.031-0.005,0.045-0.009
	c0,0.004,0,0.007,0,0.011s0,0.008,0,0.012S9.873,19.357,9.873,19.361z"/>
<path fill="#E00096" d="M11.053,19.26c0-0.031,0.002-0.063,0.002-0.094c0.002-0.031,0.004-0.061,0.008-0.091
	c0.002-0.025,0.006-0.05,0.012-0.074c0.002-0.016,0.006-0.032,0.01-0.047c0.008-0.024,0.016-0.048,0.025-0.071
	c0.01-0.027,0.023-0.053,0.037-0.078c0.01-0.018,0.021-0.035,0.035-0.052c0.01-0.012,0.02-0.024,0.029-0.035
	c0.01-0.01,0.021-0.02,0.031-0.029c0.012-0.009,0.021-0.017,0.033-0.024s0.023-0.014,0.035-0.02
	c0.012-0.006,0.023-0.011,0.035-0.016c0.018-0.006,0.035-0.011,0.053-0.015c0.027-0.006,0.057-0.01,0.086-0.012
	c0.018-0.001,0.033-0.001,0.049-0.001c0.012,0,0.023,0,0.035,0.001c0.008,0,0.016,0.001,0.023,0.001s0.016,0.001,0.023,0.002
	c0.014,0.001,0.027,0.004,0.039,0.006c0.025,0.005,0.049,0.012,0.07,0.021c0.012,0.005,0.023,0.011,0.035,0.017
	c0.01,0.005,0.02,0.011,0.027,0.018c0.01,0.007,0.018,0.014,0.027,0.021c0.008,0.008,0.016,0.016,0.023,0.024
	c0.006,0.006,0.01,0.012,0.016,0.019c0.006,0.01,0.014,0.02,0.02,0.031c0.01,0.015,0.018,0.031,0.025,0.048
	c0.004,0.007,0.006,0.015,0.01,0.022c0.002,0.006,0.004,0.012,0.006,0.018c0.002,0.004,0.004,0.009,0.004,0.013
	c0.004,0.01,0.008,0.021,0.012,0.031c0.008,0.03,0.018,0.061,0.023,0.091c0.012,0.044,0.02,0.088,0.023,0.133
	c0.004,0.033,0.006,0.066,0.008,0.1c0,0.054-0.002,0.109-0.008,0.163c-0.006,0.041-0.014,0.081-0.021,0.12
	c-0.006,0.019-0.01,0.037-0.016,0.055c-0.002,0.011-0.006,0.021-0.01,0.032c-0.002,0.007-0.004,0.013-0.006,0.02
	c-0.004,0.01-0.008,0.02-0.012,0.03c-0.008,0.018-0.016,0.036-0.025,0.053c-0.008,0.015-0.018,0.03-0.029,0.045
	c-0.01,0.013-0.02,0.025-0.031,0.037c-0.012,0.011-0.023,0.021-0.035,0.031c-0.012,0.01-0.025,0.018-0.039,0.025
	c-0.016,0.008-0.029,0.015-0.045,0.02c-0.016,0.006-0.033,0.011-0.051,0.015c-0.02,0.005-0.039,0.008-0.061,0.01
	c-0.02,0.002-0.041,0.003-0.063,0.003c-0.012,0-0.023,0-0.033,0c-0.014-0.001-0.025-0.001-0.037-0.002
	c-0.006-0.001-0.012-0.001-0.018-0.002c-0.006-0.001-0.01-0.001-0.016-0.002c-0.021-0.003-0.041-0.008-0.061-0.015
	c-0.029-0.009-0.057-0.021-0.082-0.037c-0.016-0.009-0.029-0.019-0.045-0.03c-0.01-0.008-0.021-0.017-0.031-0.027
	c-0.02-0.019-0.037-0.04-0.055-0.063c-0.012-0.016-0.021-0.033-0.031-0.051c-0.018-0.03-0.029-0.062-0.039-0.095
	c-0.006-0.019-0.012-0.038-0.016-0.057c-0.004-0.021-0.006-0.043-0.008-0.065c-0.002-0.012-0.002-0.025-0.002-0.037
	c-0.002-0.013-0.002-0.025-0.002-0.038C11.057,19.324,11.055,19.292,11.053,19.26z"/>
<path fill="#E00096" d="M16.318,18.888c-0.002,0.041-0.004,0.083-0.004,0.124c-0.002,0.03-0.002,0.061-0.002,0.091
	c-0.002,0.033-0.002,0.065-0.004,0.098c-0.004,0.039-0.006,0.078-0.012,0.117c-0.002,0.017-0.004,0.033-0.008,0.049
	c-0.002,0.019-0.006,0.038-0.012,0.058c-0.006,0.032-0.016,0.063-0.027,0.094c-0.01,0.028-0.021,0.056-0.035,0.082
	c-0.014,0.024-0.027,0.047-0.043,0.069c-0.008,0.01-0.018,0.021-0.025,0.03c-0.008,0.009-0.018,0.019-0.025,0.027
	c-0.02,0.018-0.039,0.033-0.059,0.047c-0.021,0.015-0.045,0.027-0.068,0.038c-0.025,0.012-0.051,0.021-0.076,0.029
	c-0.029,0.008-0.059,0.015-0.088,0.019c-0.033,0.005-0.066,0.007-0.1,0.009c-0.012,0-0.023,0-0.035,0c-0.01,0-0.018,0-0.027,0
	c-0.016,0-0.033-0.001-0.051-0.003c-0.029-0.003-0.059-0.007-0.086-0.014c-0.027-0.006-0.055-0.014-0.08-0.024
	c-0.023-0.01-0.047-0.021-0.07-0.034c-0.012-0.006-0.021-0.013-0.031-0.021c-0.012-0.007-0.021-0.015-0.031-0.023
	c-0.02-0.016-0.037-0.034-0.055-0.053c-0.016-0.018-0.031-0.038-0.045-0.058c-0.014-0.023-0.027-0.047-0.039-0.072
	c-0.006-0.013-0.012-0.026-0.016-0.04c-0.01-0.024-0.018-0.05-0.025-0.075c-0.004-0.018-0.008-0.036-0.012-0.053
	c-0.002-0.016-0.004-0.032-0.006-0.048c-0.002-0.007-0.002-0.013-0.002-0.02c-0.002-0.008-0.002-0.016-0.004-0.024
	c-0.002-0.014-0.002-0.028-0.004-0.042c-0.002-0.014-0.004-0.028-0.004-0.042c-0.004-0.038-0.006-0.075-0.01-0.113
	c-0.002-0.05-0.004-0.1-0.004-0.15c-0.002-0.065,0-0.13,0.002-0.195c0.004-0.046,0.006-0.093,0.01-0.139
	c0.002-0.013,0.004-0.026,0.004-0.039c0.002-0.013,0.004-0.025,0.004-0.038c0.002-0.015,0.004-0.029,0.006-0.043
	c0.002-0.006,0.002-0.012,0.004-0.018c0-0.009,0.002-0.018,0.004-0.027c0.004-0.019,0.008-0.037,0.012-0.055
	c0.008-0.027,0.016-0.053,0.027-0.079c0.014-0.032,0.029-0.063,0.047-0.092c0.018-0.028,0.037-0.055,0.061-0.08
	c0.021-0.024,0.045-0.046,0.07-0.066c0.023-0.02,0.051-0.038,0.078-0.053c0.029-0.015,0.059-0.028,0.09-0.039
	c0.029-0.01,0.063-0.018,0.094-0.023c0.033-0.005,0.066-0.008,0.1-0.007c0.035,0,0.07,0.003,0.104,0.01
	c0.037,0.006,0.072,0.016,0.105,0.028c0.02,0.007,0.039,0.015,0.059,0.023c0.012,0.005,0.023,0.011,0.035,0.017
	c0.018,0.009,0.033,0.019,0.049,0.029s0.029,0.021,0.043,0.032c0.016,0.013,0.029,0.025,0.043,0.04
	c0.01,0.012,0.021,0.025,0.031,0.038c0.01,0.014,0.02,0.027,0.029,0.042c0.018,0.029,0.033,0.061,0.045,0.093
	c0.014,0.034,0.023,0.069,0.031,0.105c0.004,0.019,0.008,0.038,0.01,0.057c0.002,0.012,0.004,0.023,0.006,0.034
	c0,0.011,0.002,0.021,0.002,0.032c0.002,0.016,0.004,0.031,0.006,0.047c0.002,0.032,0.004,0.063,0.006,0.095
	c0,0.022,0.002,0.044,0.002,0.067c0.002,0.026,0.004,0.052,0.004,0.079C16.316,18.851,16.316,18.869,16.318,18.888z"/>
<path fill="#E00096" d="M11.99,23.859c-6.545,0-11.836-5.304-11.83-11.864C0.166,5.472,5.479,0.158,12.043,0.183
	c6.531,0.025,11.811,5.344,11.793,11.886C23.82,18.57,18.516,23.859,11.99,23.859z M14.689,18.93c0,0.038,0,0.076,0,0.114
	c-0.002,0.042-0.002,0.083-0.002,0.125c0,0.038,0,0.076,0.002,0.114c0,0.012,0,0.024,0,0.037c0.002,0.017,0.002,0.034,0.004,0.05
	c0.002,0.013,0.002,0.026,0.004,0.039c0.002,0.016,0.004,0.033,0.006,0.049c0.008,0.057,0.02,0.114,0.037,0.169
	c0.014,0.053,0.033,0.105,0.057,0.154c0.023,0.048,0.051,0.094,0.082,0.138c0.016,0.021,0.031,0.042,0.049,0.061
	c0.016,0.02,0.035,0.038,0.053,0.056c0.02,0.018,0.039,0.035,0.059,0.051c0.021,0.016,0.043,0.031,0.064,0.044
	c0.021,0.014,0.045,0.027,0.068,0.039c0.023,0.012,0.049,0.023,0.074,0.033c0.02,0.008,0.041,0.016,0.061,0.022
	c0.008,0.002,0.014,0.004,0.021,0.006c0.006,0.002,0.014,0.004,0.021,0.006s0.016,0.004,0.021,0.006
	c0.045,0.011,0.088,0.02,0.131,0.026c0.037,0.005,0.072,0.01,0.109,0.012c0.037,0.003,0.072,0.004,0.109,0.004
	c0.037,0,0.074-0.002,0.109-0.006c0.037-0.003,0.074-0.009,0.109-0.016c0.037-0.007,0.074-0.015,0.109-0.025
	c0.035-0.01,0.07-0.022,0.105-0.035c0.002,0,0.004-0.001,0.006-0.002c0,0.001,0.002,0.003,0.004,0.005
	c0.025,0.039,0.051,0.077,0.08,0.113c0.012,0.016,0.025,0.032,0.037,0.047c0.004,0.004,0.008,0.009,0.012,0.014
	s0.008,0.009,0.012,0.013c0.004,0.003,0.006,0.006,0.01,0.01c0.004,0.003,0.006,0.006,0.01,0.009
	c0.004,0.004,0.008,0.008,0.014,0.012c0.008,0.006,0.016,0.013,0.023,0.019c0.014,0.009,0.029,0.017,0.045,0.023
	c0.016,0.006,0.033,0.011,0.049,0.014c0.018,0.002,0.035,0.003,0.051,0.002c0.018-0.001,0.035-0.004,0.051-0.008
	c0.018-0.005,0.033-0.012,0.049-0.021c0.012-0.006,0.023-0.014,0.035-0.023c0.008-0.007,0.018-0.014,0.023-0.022
	c0.004-0.004,0.008-0.008,0.012-0.013c0.006-0.009,0.012-0.019,0.018-0.029c0.004-0.011,0.008-0.021,0.012-0.033
	c0.002-0.009,0.002-0.018,0.002-0.027c0-0.01,0-0.021-0.002-0.031c-0.002-0.017-0.008-0.034-0.016-0.049
	c-0.006-0.012-0.014-0.023-0.021-0.034c-0.006-0.01-0.014-0.019-0.02-0.028c-0.004-0.003-0.006-0.006-0.008-0.01
	c-0.002-0.002-0.004-0.004-0.006-0.007c-0.021-0.034-0.045-0.068-0.068-0.101c-0.021-0.03-0.043-0.06-0.066-0.089
	c0.018-0.02,0.033-0.041,0.047-0.062c0.016-0.022,0.029-0.045,0.041-0.068c0.014-0.024,0.025-0.049,0.037-0.074
	s0.021-0.05,0.029-0.076c0.018-0.048,0.029-0.099,0.039-0.149c0.002-0.013,0.006-0.026,0.008-0.04c0-0.008,0.002-0.017,0.002-0.024
	c0.002-0.008,0.004-0.016,0.004-0.024c0.002-0.012,0.004-0.025,0.006-0.038c0.002-0.022,0.004-0.045,0.008-0.068
	c0.004-0.053,0.01-0.105,0.012-0.158c0.01-0.155,0.01-0.312,0.002-0.467c-0.004-0.064-0.008-0.128-0.016-0.191
	c0-0.012-0.002-0.024-0.004-0.037c0-0.008-0.002-0.016-0.002-0.023c0-0.007-0.002-0.014-0.002-0.021
	c-0.006-0.033-0.01-0.065-0.018-0.098c-0.012-0.062-0.029-0.123-0.051-0.182c-0.012-0.028-0.023-0.056-0.037-0.083
	c-0.012-0.026-0.025-0.052-0.041-0.078c-0.02-0.033-0.043-0.065-0.066-0.096c-0.018-0.022-0.037-0.043-0.057-0.063
	s-0.041-0.039-0.063-0.057c-0.016-0.013-0.033-0.025-0.049-0.037c-0.023-0.017-0.047-0.032-0.072-0.046s-0.051-0.027-0.078-0.039
	c-0.025-0.012-0.053-0.022-0.082-0.032c-0.014-0.005-0.027-0.009-0.041-0.014c-0.018-0.004-0.033-0.009-0.049-0.013
	c-0.027-0.006-0.053-0.012-0.078-0.016c-0.027-0.005-0.053-0.008-0.08-0.012c-0.033-0.003-0.066-0.006-0.102-0.007
	c-0.053-0.002-0.105,0-0.158,0.005c-0.027,0.002-0.057,0.006-0.084,0.01c-0.02,0.003-0.037,0.007-0.057,0.011
	c-0.041,0.008-0.082,0.019-0.121,0.032c-0.053,0.017-0.104,0.039-0.152,0.064c-0.025,0.013-0.047,0.026-0.07,0.042
	c-0.021,0.015-0.043,0.03-0.064,0.047C15.02,17.793,15,17.811,14.98,17.829c-0.018,0.019-0.037,0.038-0.053,0.059
	c-0.018,0.021-0.035,0.042-0.051,0.064c-0.014,0.022-0.029,0.045-0.043,0.069s-0.025,0.049-0.037,0.074
	c-0.012,0.026-0.023,0.052-0.033,0.079c-0.014,0.038-0.025,0.076-0.035,0.115c-0.004,0.016-0.008,0.032-0.012,0.048
	c-0.004,0.022-0.008,0.044-0.012,0.067c-0.004,0.031-0.01,0.062-0.012,0.093c-0.002,0.014-0.004,0.028-0.004,0.042
	c-0.002,0.013-0.002,0.026-0.002,0.04c-0.002,0.013-0.002,0.026-0.002,0.039c0,0.027,0,0.055,0,0.082c0,0.035,0,0.069,0,0.104
	C14.688,18.844,14.688,18.887,14.689,18.93z M17.092,18.924c0,0.365,0,0.73,0,1.095c0,0.015,0,0.03,0,0.044
	c0.002,0.014,0.004,0.027,0.008,0.041c0.002,0.01,0.004,0.019,0.008,0.028c0.002,0.007,0.006,0.014,0.008,0.02
	c0.006,0.01,0.012,0.02,0.02,0.029c0.008,0.01,0.016,0.019,0.025,0.026c0.008,0.005,0.014,0.01,0.021,0.015
	c0.006,0.003,0.012,0.006,0.018,0.008s0.012,0.005,0.018,0.007c0.002,0.001,0.006,0.002,0.01,0.003c0.002,0,0.006,0.001,0.008,0.002
	c0.004,0,0.006,0.001,0.01,0.001c0.004,0.001,0.008,0.001,0.012,0.002s0.008,0.001,0.012,0.001c0.002,0,0.004,0,0.004,0
	c0.002,0,0.004,0,0.006,0s0.004,0,0.006,0c0.014,0,0.027,0,0.041,0s0.027,0,0.041,0c0.08,0,0.16,0,0.24,0c0.08,0,0.158,0,0.238,0
	c0.197,0,0.395,0,0.592,0c0.027,0,0.057,0,0.084,0c0.029,0,0.057,0,0.084,0c0.004,0,0.008,0,0.012,0c0.004,0,0.01-0.001,0.016-0.001
	c0.012-0.001,0.023-0.003,0.035-0.007c0.016-0.004,0.029-0.011,0.043-0.019c0.012-0.007,0.021-0.015,0.031-0.024
	c0.01-0.01,0.018-0.02,0.025-0.031c0.008-0.012,0.014-0.024,0.018-0.037c0.004-0.009,0.006-0.018,0.008-0.027
	c0.002-0.011,0.004-0.021,0.006-0.032c0-0.009,0-0.018,0-0.027c0-0.008,0-0.016,0-0.023c0-0.015-0.004-0.029-0.006-0.043
	c-0.004-0.015-0.01-0.029-0.018-0.043c-0.008-0.014-0.018-0.027-0.027-0.039c-0.012-0.011-0.023-0.021-0.037-0.029
	c-0.012-0.008-0.025-0.014-0.039-0.018c-0.01-0.003-0.02-0.005-0.027-0.007c-0.01-0.002-0.018-0.003-0.027-0.004
	c-0.012-0.001-0.025-0.001-0.037-0.001c-0.195,0.001-0.391,0-0.584,0c-0.154,0-0.307,0-0.461,0.002c-0.008,0-0.014,0-0.021,0
	c0-0.006,0-0.012,0-0.019c0.002-0.182,0.002-0.364,0.004-0.547c0-0.182,0-0.364,0-0.547c0-0.091,0-0.183,0-0.274s0-0.183,0-0.274
	c0-0.055,0-0.11,0-0.165c0-0.028,0-0.055,0-0.083s0-0.055,0-0.083c0-0.014,0-0.028-0.002-0.042c0-0.014,0-0.027-0.004-0.041
	c-0.002-0.016-0.006-0.031-0.012-0.046c-0.002-0.008-0.006-0.017-0.01-0.024c-0.004-0.009-0.01-0.017-0.016-0.024
	c-0.006-0.008-0.014-0.016-0.021-0.022s-0.016-0.013-0.025-0.019c-0.008-0.006-0.018-0.01-0.027-0.014s-0.02-0.007-0.029-0.01
	c-0.02-0.005-0.039-0.007-0.061-0.008c-0.021,0-0.041,0.001-0.063,0.005c-0.01,0.002-0.021,0.005-0.031,0.008
	c-0.01,0.004-0.02,0.008-0.029,0.013c-0.01,0.005-0.018,0.012-0.025,0.019c-0.01,0.007-0.016,0.015-0.023,0.022
	c-0.006,0.008-0.012,0.017-0.018,0.025c-0.004,0.008-0.008,0.017-0.012,0.025c-0.002,0.007-0.006,0.016-0.008,0.023
	s-0.002,0.016-0.004,0.024c-0.002,0.007-0.002,0.014-0.002,0.021c-0.002,0.007-0.002,0.014-0.002,0.021c0,0.014-0.002,0.028,0,0.042
	c0,0.03,0,0.061,0,0.091c0,0.031,0,0.061,0,0.092c0,0.1,0,0.199,0,0.298C17.092,18.527,17.092,18.726,17.092,18.924z M13.09,18.325
	c-0.002-0.178-0.002-0.355,0-0.533c0-0.013,0-0.026-0.002-0.04c0-0.011-0.002-0.022-0.004-0.034
	c-0.004-0.013-0.008-0.025-0.012-0.038c-0.004-0.007-0.006-0.015-0.01-0.022c-0.008-0.014-0.018-0.026-0.029-0.038
	s-0.023-0.021-0.039-0.029c-0.008-0.004-0.016-0.008-0.023-0.011c-0.014-0.005-0.027-0.009-0.041-0.011
	c-0.016-0.003-0.033-0.004-0.051-0.004s-0.035,0.001-0.053,0.005c-0.014,0.002-0.027,0.006-0.041,0.012
	c-0.008,0.003-0.016,0.008-0.023,0.012c-0.014,0.009-0.027,0.02-0.039,0.032c-0.01,0.011-0.02,0.024-0.025,0.038
	c-0.004,0.007-0.008,0.015-0.01,0.022c-0.004,0.012-0.008,0.025-0.01,0.038c-0.002,0.011-0.004,0.022-0.006,0.033
	c0,0.013,0,0.025,0,0.038c0,0.741,0,1.482,0,2.223c0,0.012,0,0.023,0,0.034c0.002,0.011,0.002,0.021,0.004,0.032
	c0.002,0.015,0.006,0.029,0.01,0.043c0.004,0.007,0.006,0.014,0.01,0.021c0.004,0.007,0.008,0.015,0.012,0.021
	s0.01,0.014,0.016,0.02s0.012,0.012,0.02,0.018c0.008,0.007,0.018,0.013,0.025,0.018c0.01,0.004,0.018,0.008,0.027,0.012
	c0.016,0.006,0.033,0.01,0.051,0.012c0.008,0.001,0.018,0.001,0.025,0.002c0.008,0,0.018,0,0.025,0
	c0.018-0.001,0.035-0.003,0.051-0.007c0.012-0.003,0.021-0.007,0.033-0.012c0.008-0.004,0.016-0.008,0.023-0.014
	c0.016-0.01,0.029-0.021,0.041-0.036c0.008-0.011,0.016-0.022,0.021-0.035c0.004-0.007,0.006-0.014,0.008-0.021
	c0.006-0.013,0.008-0.026,0.01-0.039c0.002-0.011,0.004-0.022,0.006-0.034c0-0.012,0-0.025,0-0.037c-0.002-0.289,0-0.578,0-0.866
	c0-0.024,0-0.048,0-0.072c0.002-0.023,0.002-0.046,0.006-0.069c0.002-0.022,0.004-0.044,0.01-0.065
	c0.004-0.024,0.01-0.048,0.02-0.071c0.008-0.025,0.02-0.05,0.033-0.073c0.014-0.021,0.027-0.042,0.045-0.06
	c0.008-0.009,0.016-0.018,0.025-0.026c0.008-0.008,0.018-0.016,0.027-0.023c0.006-0.005,0.012-0.009,0.02-0.014
	c0.012-0.008,0.023-0.016,0.037-0.022c0.02-0.01,0.039-0.019,0.061-0.025c0.021-0.007,0.043-0.013,0.066-0.017
	c0.016-0.003,0.033-0.005,0.049-0.007c0.027-0.002,0.053-0.002,0.078-0.001s0.049,0.003,0.074,0.008
	c0.014,0.002,0.027,0.005,0.039,0.008c0.021,0.005,0.041,0.012,0.061,0.021c0.01,0.004,0.02,0.009,0.029,0.014
	c0.008,0.005,0.018,0.011,0.025,0.017c0.008,0.005,0.016,0.011,0.023,0.017s0.016,0.012,0.021,0.019
	c0.014,0.013,0.027,0.028,0.039,0.043c0.006,0.008,0.012,0.017,0.016,0.025c0.006,0.009,0.012,0.018,0.016,0.027
	c0.006,0.01,0.01,0.02,0.014,0.03c0.006,0.011,0.01,0.021,0.014,0.032c0.004,0.017,0.01,0.033,0.014,0.05
	c0.002,0.005,0.002,0.011,0.004,0.016c0,0.005,0.002,0.011,0.004,0.016c0.002,0.014,0.004,0.028,0.006,0.042
	s0.002,0.028,0.004,0.042c0.002,0.035,0.002,0.069,0.002,0.103c0,0.016,0,0.031,0,0.047s0.002,0.031,0.002,0.047
	c0,0.135,0,0.271,0,0.407c0,0.135,0,0.27,0,0.404c0,0.012,0,0.024,0,0.037c0.002,0.011,0.004,0.022,0.006,0.033
	c0.004,0.012,0.008,0.024,0.014,0.037c0.002,0.006,0.006,0.013,0.01,0.02c0.002,0.004,0.004,0.008,0.008,0.012
	c0.004,0.006,0.01,0.013,0.014,0.018c0.006,0.006,0.012,0.011,0.018,0.016c0.008,0.005,0.014,0.01,0.02,0.014
	c0.008,0.004,0.016,0.008,0.023,0.011c0.008,0.004,0.018,0.007,0.027,0.009c0.008,0.002,0.014,0.003,0.021,0.004
	s0.016,0.002,0.023,0.002s0.016,0,0.023,0c0.01,0,0.021-0.001,0.031-0.002s0.02-0.002,0.027-0.004
	c0.008-0.001,0.014-0.003,0.021-0.005c0.014-0.004,0.025-0.009,0.037-0.016c0.014-0.007,0.027-0.017,0.037-0.027
	c0.01-0.009,0.018-0.02,0.025-0.031c0.004-0.007,0.008-0.014,0.01-0.021c0.004-0.005,0.006-0.01,0.006-0.016
	c0.004-0.007,0.006-0.015,0.006-0.023c0.004-0.015,0.006-0.031,0.006-0.046c-0.002-0.065-0.002-0.13,0-0.195
	c0-0.089,0.002-0.178,0.004-0.267c0-0.07,0.002-0.14,0.002-0.21c0-0.065-0.002-0.13-0.004-0.195
	c-0.002-0.056-0.004-0.112-0.008-0.168c0-0.023-0.002-0.046-0.004-0.07c-0.002-0.006-0.002-0.013-0.002-0.02
	c0-0.003,0-0.006-0.002-0.009c0-0.018-0.004-0.036-0.006-0.053c-0.006-0.039-0.014-0.077-0.023-0.115
	c-0.01-0.036-0.021-0.071-0.037-0.105c-0.014-0.033-0.029-0.065-0.049-0.097c-0.018-0.03-0.039-0.06-0.061-0.087
	c-0.023-0.027-0.047-0.052-0.074-0.075c-0.025-0.023-0.053-0.044-0.082-0.063s-0.061-0.036-0.094-0.051
	c-0.031-0.015-0.064-0.027-0.098-0.038c-0.037-0.011-0.072-0.02-0.109-0.026c-0.02-0.003-0.037-0.006-0.057-0.008
	c-0.02-0.002-0.039-0.004-0.059-0.005c-0.02-0.001-0.039-0.002-0.059-0.002s-0.041,0-0.061,0.001s-0.041,0.002-0.061,0.005
	c-0.021,0.002-0.041,0.005-0.061,0.009c-0.039,0.007-0.078,0.017-0.117,0.03c-0.043,0.015-0.084,0.033-0.125,0.054
	C13.125,18.303,13.107,18.314,13.09,18.325z M11.059,20.142c0.035,0.024,0.072,0.046,0.111,0.064
	c0.039,0.02,0.082,0.035,0.125,0.047c0.043,0.013,0.088,0.021,0.133,0.027c0.025,0.003,0.051,0.005,0.076,0.006
	c0.043,0.001,0.088,0,0.133-0.005c0.043-0.005,0.088-0.013,0.131-0.025c0.023-0.006,0.049-0.014,0.072-0.023
	c0.041-0.015,0.08-0.033,0.117-0.053c0.037-0.02,0.072-0.043,0.104-0.068c0.035-0.027,0.068-0.058,0.098-0.091
	c0.031-0.034,0.059-0.071,0.082-0.11c0.008-0.014,0.016-0.029,0.023-0.043c0.004-0.007,0.006-0.014,0.01-0.02
	c0.002-0.003,0.002-0.007,0.004-0.01c0.004-0.008,0.008-0.016,0.01-0.023c0.004-0.008,0.008-0.016,0.01-0.024
	c0.012-0.029,0.023-0.058,0.033-0.088c0.012-0.034,0.021-0.067,0.031-0.102c0.008-0.034,0.016-0.068,0.021-0.102
	c0.014-0.067,0.02-0.136,0.023-0.205c0.002-0.068,0-0.137-0.008-0.205c-0.008-0.069-0.021-0.137-0.037-0.205
	c-0.01-0.039-0.021-0.077-0.035-0.115c-0.006-0.016-0.01-0.031-0.016-0.046c-0.004-0.008-0.006-0.016-0.01-0.023
	c-0.004-0.009-0.006-0.018-0.01-0.027c-0.01-0.02-0.02-0.04-0.029-0.06c-0.021-0.042-0.047-0.081-0.076-0.118
	c-0.029-0.036-0.061-0.069-0.094-0.1c-0.033-0.03-0.07-0.057-0.107-0.081s-0.078-0.044-0.119-0.062
	c-0.027-0.013-0.059-0.023-0.088-0.032c-0.043-0.013-0.088-0.022-0.131-0.027c-0.063-0.008-0.127-0.01-0.191-0.004
	c-0.045,0.004-0.09,0.012-0.133,0.024c-0.045,0.011-0.088,0.027-0.131,0.045c-0.037,0.018-0.074,0.038-0.111,0.061
	c-0.012,0.008-0.023,0.017-0.037,0.025c-0.004-0.012-0.01-0.024-0.018-0.035c-0.006-0.01-0.014-0.019-0.021-0.027
	c-0.01-0.008-0.018-0.016-0.027-0.022c-0.01-0.006-0.02-0.011-0.031-0.016c-0.012-0.006-0.025-0.01-0.041-0.013
	c-0.02-0.004-0.041-0.005-0.061-0.005c-0.01,0-0.021,0.001-0.031,0.002c-0.01,0.001-0.02,0.003-0.029,0.006
	c-0.014,0.003-0.027,0.008-0.041,0.015c-0.01,0.005-0.02,0.011-0.027,0.018c-0.01,0.007-0.018,0.015-0.025,0.023
	c-0.008,0.008-0.014,0.017-0.02,0.027c-0.004,0.009-0.01,0.018-0.014,0.028c-0.004,0.012-0.008,0.025-0.01,0.038
	c-0.004,0.018-0.004,0.037-0.004,0.055c0,0.512,0,1.023,0,1.535c0,0.18,0,0.359,0,0.539c0,0.049,0,0.097,0,0.146
	c0,0.008,0,0.017,0,0.025c0,0.007,0,0.015,0,0.022c0,0.003,0.002,0.006,0.002,0.009s0,0.006,0,0.009c0,0.007,0.002,0.014,0.002,0.02
	c0.002,0.013,0.006,0.025,0.01,0.037c0.002,0.006,0.004,0.012,0.008,0.018c0.002,0.006,0.006,0.013,0.01,0.02
	c0.006,0.011,0.014,0.021,0.021,0.03c0.008,0.009,0.018,0.017,0.027,0.024c0.008,0.008,0.02,0.014,0.029,0.02
	c0.012,0.006,0.023,0.01,0.035,0.014c0.012,0.003,0.023,0.006,0.035,0.007s0.025,0.002,0.037,0.001c0.014,0,0.025-0.002,0.037-0.005
	s0.023-0.006,0.035-0.01c0.004-0.002,0.01-0.004,0.016-0.007c0.004-0.001,0.006-0.003,0.01-0.004
	c0.014-0.007,0.025-0.015,0.037-0.024c0.008-0.006,0.016-0.014,0.021-0.021c0.006-0.008,0.012-0.016,0.018-0.024
	c0.004-0.008,0.008-0.016,0.012-0.024c0.002-0.008,0.006-0.016,0.008-0.023c0-0.006,0.002-0.013,0.004-0.019
	c0-0.006,0.002-0.013,0.002-0.02c0-0.01,0-0.021,0-0.032c0-0.009,0-0.018,0-0.026C11.059,20.499,11.059,20.321,11.059,20.142z
	 M9.887,20.133c0.004,0.01,0.01,0.02,0.016,0.028c0.006,0.011,0.014,0.02,0.021,0.029c0.012,0.013,0.025,0.024,0.041,0.032
	c0.006,0.003,0.01,0.005,0.016,0.008c0.012,0.005,0.023,0.009,0.035,0.012c0.01,0.002,0.02,0.004,0.029,0.005
	s0.02,0.001,0.029,0.002c0.02,0,0.039-0.001,0.057-0.004c0.012-0.002,0.025-0.005,0.035-0.009c0.012-0.004,0.021-0.008,0.033-0.014
	c0.01-0.006,0.021-0.013,0.029-0.021c0.012-0.009,0.02-0.02,0.027-0.03c0.008-0.011,0.014-0.023,0.02-0.036
	c0.004-0.012,0.008-0.025,0.01-0.038c0.002-0.013,0.002-0.026,0.002-0.039c0-0.169,0.002-0.338,0.004-0.507
	c0.002-0.123,0.002-0.246,0.002-0.368c-0.002-0.062-0.004-0.123-0.006-0.185c0-0.031-0.002-0.062-0.004-0.093
	c0-0.009,0-0.019-0.002-0.028c0-0.01,0-0.02,0-0.03c-0.002-0.012-0.002-0.024-0.004-0.037c0-0.007,0-0.015-0.002-0.022
	c0-0.011-0.002-0.022-0.002-0.033c-0.006-0.042-0.016-0.084-0.029-0.124c-0.008-0.02-0.016-0.04-0.023-0.059
	c-0.01-0.019-0.02-0.037-0.029-0.055c-0.021-0.035-0.045-0.068-0.074-0.099c-0.014-0.015-0.027-0.029-0.043-0.042
	c-0.023-0.021-0.051-0.042-0.078-0.059c-0.035-0.022-0.072-0.042-0.111-0.058c-0.035-0.015-0.072-0.026-0.109-0.035
	c-0.01-0.002-0.021-0.005-0.031-0.007c-0.004-0.001-0.008-0.001-0.012-0.002c-0.01-0.001-0.021-0.003-0.031-0.005
	c-0.014-0.002-0.029-0.004-0.043-0.006c-0.035-0.004-0.068-0.007-0.104-0.009c-0.035-0.001-0.068-0.001-0.104,0.001
	c-0.02,0.001-0.039,0.003-0.059,0.005c-0.012,0.001-0.023,0.002-0.035,0.004c-0.018,0.002-0.033,0.005-0.051,0.008
	c-0.035,0.007-0.07,0.015-0.105,0.026c-0.033,0.01-0.066,0.023-0.098,0.038c-0.035,0.016-0.068,0.035-0.098,0.056
	c-0.021,0.015-0.043,0.031-0.063,0.048c-0.027,0.024-0.053,0.051-0.074,0.08c-0.025,0.03-0.045,0.063-0.064,0.096
	c-0.004,0.01-0.01,0.02-0.014,0.029c-0.004,0.008-0.008,0.017-0.012,0.025c-0.006,0.011-0.01,0.022-0.014,0.034
	c-0.004,0.014-0.008,0.027-0.012,0.041c-0.002,0.016-0.004,0.033-0.002,0.049c0,0.01,0,0.02,0.002,0.029
	c0.004,0.01,0.006,0.02,0.01,0.029c0.004,0.01,0.01,0.019,0.014,0.028c0.006,0.009,0.014,0.018,0.021,0.025
	c0.006,0.008,0.016,0.015,0.023,0.021c0.008,0.005,0.016,0.01,0.023,0.015s0.016,0.008,0.023,0.012
	c0.004,0.001,0.008,0.003,0.012,0.004c0.002,0.001,0.006,0.002,0.008,0.003c0.01,0.002,0.018,0.005,0.025,0.007
	c0.016,0.003,0.029,0.005,0.045,0.005c0.01,0,0.021,0,0.031-0.001c0.02-0.002,0.037-0.008,0.055-0.015
	c0.008-0.004,0.018-0.009,0.025-0.015s0.016-0.011,0.023-0.017c0.008-0.007,0.016-0.015,0.021-0.023
	c0.01-0.011,0.018-0.022,0.025-0.034c0.008-0.016,0.016-0.032,0.021-0.049c0.004-0.008,0.008-0.016,0.012-0.023
	c0.004-0.007,0.008-0.014,0.014-0.021c0.008-0.011,0.018-0.021,0.029-0.03c0.006-0.006,0.014-0.011,0.021-0.016
	c0.008-0.006,0.018-0.011,0.027-0.016c0.012-0.006,0.023-0.012,0.035-0.017c0.02-0.008,0.039-0.015,0.061-0.02
	c0.02-0.005,0.039-0.009,0.061-0.012c0.02-0.003,0.041-0.004,0.061-0.005c0.021,0,0.043,0,0.064,0.002
	c0.021,0.002,0.043,0.005,0.064,0.009c0.014,0.002,0.029,0.005,0.043,0.008c0.006,0.001,0.01,0.002,0.016,0.003
	c0.004,0.001,0.008,0.002,0.012,0.003c0.004,0.001,0.01,0.003,0.016,0.004c0.008,0.003,0.018,0.006,0.025,0.009
	c0.016,0.007,0.031,0.015,0.045,0.024c0.014,0.009,0.025,0.019,0.035,0.03c0.006,0.005,0.01,0.011,0.016,0.017
	c0.004,0.006,0.008,0.012,0.012,0.019c0.01,0.014,0.016,0.029,0.021,0.044c0.006,0.018,0.01,0.035,0.014,0.053
	c0,0.005,0.002,0.01,0.002,0.016s0.002,0.011,0.002,0.016c0,0.01,0.002,0.02,0.002,0.03c0.002,0.008,0.002,0.016,0.002,0.024
	c0,0.006,0.002,0.013,0.002,0.02c-0.002,0-0.004,0.001-0.006,0.001c-0.006,0.001-0.012,0.002-0.018,0.003
	c-0.008,0.001-0.014,0.002-0.021,0.003s-0.016,0.002-0.025,0.003c-0.01,0.001-0.021,0.003-0.033,0.004
	c-0.014,0.002-0.027,0.003-0.039,0.005s-0.021,0.003-0.033,0.005c-0.057,0.01-0.115,0.017-0.174,0.025
	c-0.057,0.008-0.113,0.016-0.17,0.026c-0.057,0.01-0.111,0.022-0.166,0.038c-0.029,0.008-0.057,0.017-0.084,0.027
	c-0.016,0.005-0.031,0.012-0.047,0.018c-0.021,0.009-0.043,0.019-0.063,0.029c-0.023,0.012-0.047,0.024-0.068,0.038
	c-0.025,0.016-0.051,0.034-0.074,0.053c-0.023,0.019-0.047,0.039-0.066,0.06c-0.02,0.021-0.039,0.043-0.055,0.067
	c-0.018,0.023-0.031,0.048-0.045,0.073c-0.012,0.026-0.023,0.052-0.031,0.079c-0.008,0.027-0.014,0.056-0.018,0.084
	c-0.004,0.024-0.006,0.05-0.008,0.075c0,0.012,0,0.024,0.002,0.037c0,0.008,0,0.017,0,0.025c0.002,0.005,0.002,0.01,0.002,0.014
	c0.002,0.018,0.006,0.036,0.01,0.053c0.008,0.035,0.018,0.069,0.033,0.102c0.014,0.033,0.031,0.064,0.051,0.093
	c0.02,0.03,0.043,0.058,0.066,0.084c0.021,0.022,0.045,0.043,0.068,0.063c0.029,0.022,0.059,0.043,0.09,0.062
	c0.066,0.038,0.139,0.066,0.215,0.083c0.01,0.002,0.018,0.004,0.027,0.006c0.008,0.001,0.018,0.002,0.025,0.003
	c0.008,0.001,0.018,0.003,0.027,0.004c0.006,0,0.01,0.001,0.014,0.001c0.014,0.001,0.025,0.002,0.039,0.003
	c0.033,0.002,0.066,0.003,0.1,0.003s0.066-0.002,0.1-0.006s0.064-0.008,0.098-0.015c0.031-0.007,0.064-0.016,0.096-0.027
	s0.063-0.024,0.092-0.039c0.027-0.014,0.053-0.029,0.078-0.046C9.873,20.144,9.881,20.139,9.887,20.133z M7.977,18.338
	c-0.002-0.005-0.004-0.01-0.008-0.014c-0.004-0.007-0.008-0.013-0.012-0.02s-0.01-0.012-0.016-0.018
	c-0.01-0.011-0.021-0.02-0.033-0.028C7.9,18.254,7.895,18.25,7.887,18.248c-0.01-0.004-0.02-0.008-0.029-0.011
	c-0.016-0.004-0.031-0.007-0.047-0.008c-0.008-0.001-0.016-0.001-0.023-0.001c-0.006,0-0.014,0-0.021,0
	c-0.016,0.001-0.031,0.003-0.047,0.007c-0.01,0.003-0.021,0.007-0.033,0.012c-0.006,0.003-0.014,0.007-0.02,0.012
	c-0.004,0.002-0.01,0.005-0.014,0.009c-0.006,0.005-0.012,0.01-0.018,0.016c-0.004,0.005-0.01,0.011-0.014,0.018
	c-0.006,0.006-0.01,0.012-0.014,0.019c-0.006,0.013-0.012,0.027-0.018,0.042c-0.004,0.012-0.006,0.025-0.008,0.038
	c-0.002,0.01-0.002,0.021-0.002,0.031c-0.002,0.01-0.002,0.021-0.002,0.031c0.002,0.385,0,0.771,0,1.156
	c0,0.134,0.002,0.268,0.002,0.402c0,0.004,0,0.009,0,0.014c0,0.003,0,0.007,0,0.011c0,0.008,0,0.016,0.002,0.023
	c0,0.011,0.002,0.021,0.004,0.032c0.002,0.009,0.006,0.018,0.008,0.027c0.002,0.005,0.004,0.01,0.006,0.015
	c0.004,0.009,0.01,0.019,0.016,0.027c0.004,0.008,0.012,0.017,0.018,0.024c0.004,0.004,0.01,0.009,0.014,0.014
	c0.006,0.004,0.012,0.009,0.018,0.013c0.01,0.007,0.021,0.013,0.033,0.018c0.014,0.005,0.027,0.009,0.041,0.011
	c0.01,0.002,0.02,0.003,0.029,0.003s0.021,0,0.033-0.001c0.012,0,0.021-0.002,0.033-0.004s0.023-0.005,0.035-0.009
	s0.021-0.009,0.033-0.015c0.01-0.006,0.02-0.013,0.029-0.021c0.006-0.005,0.012-0.01,0.016-0.016
	c0.008-0.009,0.016-0.018,0.021-0.028c0.004-0.009,0.01-0.019,0.012-0.028c0.002-0.004,0.004-0.009,0.006-0.014
	c0-0.004,0.002-0.009,0.002-0.014c0.002-0.004,0.002-0.009,0.004-0.013c0-0.004,0-0.009,0.002-0.014c0-0.004,0-0.008,0-0.012
	s0-0.008,0-0.012c0.002-0.007,0.002-0.014,0.002-0.021c0-0.02,0-0.04,0-0.06s0-0.04,0-0.06c0-0.098-0.002-0.195-0.002-0.293
	s0-0.196,0-0.293c0-0.03,0-0.059,0-0.088c0.002-0.029,0.002-0.059,0.002-0.088c0-0.024,0-0.048,0-0.073c0-0.009,0-0.019,0-0.028
	s0-0.019,0-0.028c0-0.009,0-0.018,0.002-0.026c0-0.009,0-0.018,0-0.027c0-0.006,0-0.013,0-0.02c0-0.007,0.002-0.013,0.002-0.02
	c0.002-0.012,0.002-0.024,0.006-0.037c0.002-0.015,0.006-0.03,0.01-0.044c0.006-0.02,0.014-0.039,0.023-0.057
	c0.006-0.008,0.01-0.017,0.016-0.024c0.004-0.004,0.006-0.009,0.01-0.014c0.006-0.007,0.012-0.014,0.02-0.021
	c0.006-0.007,0.012-0.013,0.02-0.019c0.006-0.004,0.012-0.008,0.016-0.012c0.008-0.005,0.018-0.01,0.025-0.015
	c0.016-0.009,0.031-0.016,0.049-0.022c0.021-0.008,0.045-0.014,0.068-0.018c0.006-0.001,0.014-0.002,0.02-0.003
	s0.012-0.002,0.02-0.002c0.004,0,0.008,0,0.01-0.001c0.004,0,0.008,0,0.012-0.001c0.012,0,0.023-0.001,0.035-0.002
	c0.01,0,0.02,0,0.027,0c0.01,0,0.02,0,0.029-0.001c0.012,0,0.023,0,0.035,0c0.012,0,0.025,0,0.037,0c0.004,0,0.008,0,0.014-0.001
	c0.004,0,0.008,0,0.014-0.001c0.006-0.001,0.014-0.002,0.02-0.004c0.008-0.001,0.014-0.003,0.02-0.005
	c0.01-0.002,0.018-0.006,0.025-0.01c0.014-0.006,0.025-0.015,0.037-0.025c0.01-0.009,0.02-0.02,0.027-0.032
	c0.008-0.011,0.014-0.023,0.02-0.036c0.006-0.016,0.01-0.032,0.012-0.049c0.002-0.015,0.004-0.029,0.002-0.044
	c0-0.012,0-0.023-0.002-0.035c-0.002-0.011-0.004-0.022-0.006-0.033c-0.004-0.012-0.01-0.024-0.016-0.036
	c-0.006-0.012-0.014-0.023-0.023-0.034c-0.01-0.011-0.02-0.021-0.031-0.028c-0.014-0.009-0.029-0.017-0.045-0.022
	c-0.014-0.004-0.025-0.007-0.039-0.008c-0.006-0.001-0.012-0.001-0.018-0.002H8.494c-0.006,0-0.012,0-0.016,0
	c-0.012,0-0.023,0-0.035,0c-0.016,0-0.031,0-0.049,0c-0.031,0-0.064,0.002-0.096,0.004c-0.035,0.003-0.068,0.008-0.102,0.015
	c-0.025,0.005-0.051,0.012-0.074,0.02c-0.018,0.006-0.035,0.012-0.051,0.02c-0.018,0.007-0.033,0.016-0.051,0.024
	C8.006,18.319,7.992,18.329,7.977,18.338z M5.637,19.029h0.002c0-0.033,0-0.066,0-0.1c0-0.047,0-0.094-0.002-0.142
	c0-0.035,0-0.07,0-0.104c0-0.033,0-0.065,0.002-0.098c0-0.015,0.002-0.03,0.004-0.046c0-0.013,0.002-0.027,0.004-0.04
	c0.002-0.026,0.006-0.052,0.012-0.077c0.004-0.024,0.01-0.049,0.018-0.073c0.006-0.023,0.014-0.046,0.023-0.068
	c0.01-0.023,0.023-0.045,0.035-0.067c0.014-0.02,0.027-0.039,0.043-0.057c0.006-0.006,0.012-0.012,0.018-0.017
	c0.008-0.009,0.018-0.018,0.027-0.026c0.014-0.012,0.027-0.022,0.043-0.033c0.01-0.008,0.021-0.015,0.033-0.022
	c0.018-0.01,0.035-0.021,0.053-0.029c0.014-0.006,0.025-0.011,0.037-0.016c0.025-0.01,0.051-0.018,0.076-0.024
	c0.053-0.014,0.105-0.021,0.16-0.021c0.055,0,0.109,0.006,0.162,0.018C6.439,18,6.492,18.018,6.541,18.042
	c0.023,0.012,0.047,0.025,0.07,0.041c0.016,0.01,0.031,0.021,0.047,0.034c0.021,0.017,0.041,0.035,0.061,0.054
	c0.035,0.037,0.066,0.079,0.092,0.125c0.004,0.006,0.008,0.012,0.01,0.018c0.004,0.005,0.006,0.011,0.01,0.016
	c0.002,0.004,0.004,0.008,0.004,0.012c0.002,0,0.002,0.001,0.002,0.001c0.002,0.004,0.004,0.009,0.004,0.014
	c0.002,0.005,0.004,0.01,0.008,0.014c0.002,0.004,0.004,0.008,0.006,0.013c0.002,0.005,0.006,0.01,0.008,0.014
	c0.004,0.006,0.008,0.011,0.012,0.016c0.012,0.013,0.025,0.025,0.039,0.036c0.014,0.01,0.029,0.018,0.045,0.024
	c0.014,0.004,0.027,0.008,0.041,0.01c0.01,0.001,0.021,0.002,0.031,0.002c0.012,0,0.023,0,0.035-0.002s0.021-0.003,0.033-0.005
	c0.01-0.002,0.02-0.005,0.029-0.007c0.004-0.001,0.01-0.002,0.016-0.004c0.004-0.001,0.01-0.003,0.016-0.006
	c0.014-0.005,0.027-0.013,0.039-0.022c0.01-0.008,0.018-0.017,0.025-0.026c0.006-0.007,0.01-0.014,0.014-0.021
	c0.004-0.008,0.008-0.017,0.01-0.026c0.004-0.012,0.008-0.025,0.008-0.038c0.002-0.016,0-0.032-0.002-0.048
	c0-0.011-0.002-0.022-0.006-0.034c-0.002-0.008-0.004-0.017-0.006-0.025c-0.002-0.014-0.006-0.027-0.01-0.04
	c-0.008-0.026-0.018-0.051-0.029-0.076c-0.01-0.025-0.023-0.049-0.037-0.073c-0.006-0.012-0.014-0.023-0.021-0.034
	s-0.016-0.022-0.023-0.033s-0.016-0.021-0.025-0.032c-0.008-0.01-0.018-0.021-0.027-0.03c-0.006-0.006-0.012-0.013-0.018-0.019
	c-0.008-0.008-0.016-0.017-0.025-0.024c-0.016-0.016-0.033-0.032-0.051-0.047c-0.029-0.023-0.057-0.045-0.086-0.066
	c-0.037-0.025-0.074-0.048-0.113-0.069c-0.039-0.02-0.078-0.038-0.117-0.052s-0.08-0.027-0.121-0.037s-0.082-0.017-0.123-0.021
	c-0.035-0.004-0.068-0.006-0.104-0.007c-0.041-0.001-0.084,0-0.125,0.004c-0.047,0.003-0.094,0.01-0.141,0.018
	c-0.021,0.004-0.041,0.008-0.063,0.013c-0.018,0.003-0.033,0.007-0.049,0.012c-0.012,0.002-0.021,0.005-0.033,0.008
	c-0.01,0.003-0.021,0.006-0.033,0.01c-0.02,0.006-0.041,0.013-0.061,0.021c-0.039,0.014-0.076,0.031-0.113,0.05
	c-0.035,0.019-0.068,0.04-0.1,0.063c-0.031,0.022-0.061,0.047-0.088,0.074s-0.053,0.055-0.076,0.084
	c-0.021,0.029-0.043,0.061-0.063,0.093c-0.012,0.02-0.021,0.04-0.031,0.061c-0.018,0.034-0.031,0.068-0.045,0.104
	c-0.006,0.018-0.012,0.036-0.018,0.054c-0.002,0.013-0.006,0.026-0.01,0.039c-0.006,0.019-0.01,0.038-0.014,0.057
	c-0.004,0.023-0.01,0.047-0.014,0.071c-0.002,0.017-0.004,0.034-0.006,0.051c-0.002,0.01-0.002,0.021-0.004,0.031
	c0,0.005-0.002,0.011-0.002,0.016c0,0.004,0,0.009,0,0.013c-0.002,0.015-0.004,0.029-0.004,0.043
	c-0.006,0.058-0.01,0.116-0.012,0.174s-0.004,0.116-0.004,0.174s0,0.116,0.002,0.174c0.002,0.055,0.006,0.11,0.008,0.165
	c0.002,0.028,0.004,0.057,0.008,0.085c0,0.02,0.002,0.039,0.004,0.059c0.004,0.027,0.008,0.055,0.012,0.083
	c0.01,0.052,0.021,0.103,0.037,0.153c0.014,0.048,0.033,0.096,0.055,0.142c0.02,0.044,0.045,0.086,0.072,0.126
	c0.027,0.04,0.057,0.077,0.09,0.111c0.018,0.017,0.035,0.034,0.053,0.049s0.037,0.031,0.055,0.045
	c0.02,0.014,0.041,0.028,0.061,0.041c0.021,0.013,0.043,0.024,0.064,0.035c0.021,0.011,0.043,0.021,0.066,0.031
	c0.023,0.009,0.047,0.018,0.07,0.026c0.049,0.016,0.1,0.029,0.15,0.038c0.037,0.007,0.074,0.012,0.111,0.015
	c0.027,0.002,0.055,0.004,0.082,0.005c0.039,0.001,0.076,0.001,0.115,0c0.049-0.002,0.098-0.007,0.146-0.015
	c0.047-0.007,0.092-0.018,0.137-0.031s0.088-0.029,0.129-0.048c0.041-0.018,0.08-0.04,0.119-0.064
	c0.037-0.024,0.072-0.05,0.107-0.08c0.033-0.029,0.064-0.061,0.094-0.094c0.027-0.034,0.055-0.07,0.078-0.108
	c0.025-0.039,0.047-0.079,0.064-0.121c0.018-0.041,0.033-0.082,0.047-0.125c0.006-0.022,0.014-0.045,0.018-0.068
	c0.006-0.022,0.01-0.044,0.014-0.066c0.008-0.043,0.012-0.087,0.016-0.13c0.002-0.043,0.004-0.085,0.004-0.128
	c0-0.042,0-0.083-0.002-0.125c0-0.049-0.002-0.099-0.002-0.148c0-0.009,0-0.018-0.002-0.026c0-0.009-0.002-0.018-0.004-0.026
	s-0.006-0.018-0.01-0.025c-0.004-0.009-0.008-0.017-0.014-0.024s-0.012-0.015-0.018-0.021c-0.006-0.006-0.012-0.012-0.02-0.017
	c-0.006-0.004-0.014-0.009-0.021-0.013c-0.006-0.003-0.014-0.006-0.02-0.009c-0.012-0.005-0.025-0.008-0.039-0.01
	c-0.008-0.001-0.018-0.003-0.025-0.003c-0.01-0.001-0.02-0.001-0.029-0.001c-0.004,0-0.008,0-0.012,0c-0.016,0-0.031,0-0.047,0
	c-0.146,0-0.291,0-0.438,0c-0.064,0-0.127,0-0.191-0.001c-0.01,0-0.02,0-0.029,0.001s-0.02,0.002-0.029,0.004
	c-0.014,0.002-0.027,0.006-0.041,0.011c-0.01,0.004-0.021,0.01-0.031,0.016c-0.01,0.007-0.02,0.015-0.029,0.024
	c-0.008,0.009-0.016,0.019-0.023,0.03c-0.004,0.006-0.008,0.012-0.01,0.019c-0.004,0.007-0.008,0.015-0.01,0.023
	c-0.004,0.012-0.006,0.025-0.008,0.038c-0.002,0.012-0.004,0.023-0.004,0.035c0,0.012,0,0.024,0.002,0.036
	c0.002,0.013,0.004,0.026,0.008,0.038c0.004,0.015,0.01,0.029,0.018,0.043c0.006,0.012,0.014,0.022,0.023,0.032
	c0.008,0.01,0.018,0.019,0.027,0.026c0.012,0.007,0.021,0.014,0.033,0.019c0.014,0.006,0.029,0.01,0.043,0.013
	c0.01,0.002,0.021,0.004,0.031,0.005c0.012,0,0.021,0.001,0.033,0.001c0.066-0.001,0.135-0.001,0.201-0.001c0.043,0,0.088,0,0.131,0
	c0.014,0,0.025,0,0.039,0c0.012,0,0.023,0,0.033,0c0.008,0,0.016,0,0.025,0.001c0.008,0,0.018,0,0.025,0.001
	c0.004,0,0.008,0.001,0.012,0.001c0,0.004,0,0.008,0,0.012c0,0.005,0,0.011,0,0.016c0,0.007,0,0.014,0,0.021
	c0,0.008,0,0.016,0,0.023c-0.002,0.013-0.002,0.025-0.002,0.038c0,0.008-0.002,0.015-0.002,0.023c0,0.012-0.002,0.025-0.002,0.037
	c-0.002,0.027-0.006,0.054-0.012,0.081c-0.004,0.024-0.01,0.049-0.018,0.073c-0.006,0.022-0.014,0.044-0.023,0.066
	c-0.008,0.02-0.018,0.04-0.027,0.059c-0.012,0.018-0.023,0.036-0.035,0.052s-0.025,0.031-0.041,0.045
	c-0.014,0.015-0.029,0.028-0.047,0.04c-0.016,0.013-0.035,0.024-0.053,0.034c-0.02,0.011-0.041,0.021-0.061,0.029
	c-0.023,0.009-0.047,0.017-0.07,0.023c-0.018,0.005-0.035,0.009-0.053,0.013c-0.014,0.003-0.029,0.005-0.045,0.008
	c-0.01,0.001-0.02,0.002-0.031,0.004c-0.016,0.002-0.033,0.004-0.049,0.005c-0.033,0.002-0.066,0.003-0.1,0.002
	c-0.025,0-0.053-0.002-0.08-0.006c-0.027-0.004-0.055-0.009-0.082-0.016C6.01,19.84,5.982,19.832,5.955,19.82
	c-0.025-0.011-0.051-0.024-0.074-0.039c-0.023-0.015-0.045-0.032-0.066-0.05c-0.01-0.01-0.02-0.02-0.029-0.031
	s-0.02-0.022-0.027-0.034c-0.01-0.012-0.018-0.025-0.025-0.038c-0.008-0.014-0.016-0.028-0.023-0.042
	c-0.014-0.031-0.027-0.064-0.037-0.098C5.66,19.45,5.652,19.41,5.646,19.37c-0.002-0.025-0.006-0.051-0.008-0.077
	c0-0.016,0-0.031-0.002-0.047c0-0.016,0-0.032,0-0.048C5.635,19.142,5.637,19.085,5.637,19.029z M10.428,15.98
	C10.428,15.98,10.428,15.981,10.428,15.98c0,0.001,0,0.001,0,0.002c0,0.05,0.004,0.101,0.01,0.151
	c0.006,0.049,0.014,0.098,0.025,0.146c0.021,0.095,0.053,0.187,0.094,0.275c0.039,0.086,0.088,0.169,0.145,0.246
	c0.055,0.076,0.119,0.146,0.189,0.21c0.068,0.063,0.145,0.12,0.227,0.168c0.08,0.048,0.168,0.089,0.256,0.12
	c0.047,0.016,0.092,0.029,0.139,0.04c0.047,0.011,0.096,0.02,0.143,0.025c0.049,0.006,0.098,0.009,0.146,0.01
	c0.051,0,0.102-0.001,0.15-0.006c0.053-0.005,0.104-0.012,0.154-0.022c0.049-0.01,0.098-0.022,0.146-0.038
	c0.094-0.03,0.186-0.069,0.271-0.117c0.084-0.047,0.162-0.103,0.236-0.166c0.07-0.063,0.137-0.132,0.195-0.208
	c0.057-0.076,0.105-0.157,0.146-0.243c0.041-0.087,0.074-0.178,0.096-0.271c0.012-0.047,0.021-0.095,0.027-0.144
	s0.01-0.098,0.01-0.148c0.002-0.05,0-0.101-0.004-0.151c-0.004-0.052-0.012-0.103-0.021-0.153c-0.002-0.012-0.004-0.023-0.006-0.035
	c0-0.009-0.002-0.018-0.002-0.026c0.002-0.003,0.002-0.006,0.002-0.01c0-0.002,0-0.005,0-0.008c0.002-0.004,0.002-0.007,0.004-0.011
	c0.002-0.002,0.002-0.005,0.004-0.008c0.002-0.003,0.006-0.006,0.008-0.01c0.006-0.005,0.01-0.01,0.016-0.014
	c0.008-0.005,0.016-0.01,0.021-0.015c0.01-0.006,0.02-0.012,0.029-0.018c0.896-0.511,1.789-1.024,2.68-1.543
	c0.008-0.005,0.018-0.01,0.027-0.015c0.008-0.003,0.016-0.007,0.023-0.01c0.002-0.001,0.006-0.002,0.01-0.003
	c0.002-0.001,0.006-0.001,0.008-0.002s0.004,0,0.006-0.001c0,0,0.002,0,0.004,0s0.006,0,0.008,0c0.004,0,0.008,0.001,0.012,0.003
	c0.002,0.001,0.004,0.002,0.006,0.003s0.006,0.002,0.008,0.004c0.008,0.004,0.014,0.008,0.021,0.013
	c0.008,0.006,0.018,0.013,0.025,0.021c0.041,0.035,0.086,0.068,0.129,0.1c0.043,0.03,0.088,0.058,0.135,0.084
	c0.043,0.025,0.09,0.048,0.137,0.068c0.045,0.02,0.092,0.037,0.141,0.052c0.047,0.014,0.094,0.026,0.143,0.035
	s0.098,0.015,0.146,0.018s0.1,0.003,0.148,0c0.051-0.003,0.1-0.009,0.15-0.018s0.1-0.021,0.15-0.035
	c0.051-0.015,0.102-0.032,0.15-0.052c0.025-0.01,0.051-0.021,0.076-0.033c0.025-0.011,0.049-0.023,0.074-0.036
	c0.047-0.024,0.094-0.051,0.139-0.08c0.043-0.028,0.084-0.059,0.125-0.091c0.039-0.031,0.076-0.065,0.111-0.101
	c0.035-0.035,0.068-0.072,0.098-0.111c0.031-0.039,0.059-0.079,0.084-0.121c0.025-0.042,0.049-0.085,0.068-0.129
	c0.021-0.045,0.039-0.091,0.053-0.138c0.016-0.048,0.029-0.096,0.039-0.146c0.01-0.05,0.018-0.101,0.023-0.152
	c0.004-0.053,0.006-0.106,0.006-0.159c0-0.027,0-0.055-0.002-0.082c0-0.027-0.002-0.055-0.006-0.082
	c-0.004-0.053-0.012-0.106-0.023-0.158c-0.01-0.05-0.021-0.101-0.039-0.149c-0.016-0.048-0.033-0.095-0.055-0.141
	c-0.02-0.045-0.043-0.089-0.068-0.131c-0.025-0.042-0.055-0.083-0.084-0.121c-0.031-0.039-0.064-0.076-0.1-0.111
	s-0.072-0.069-0.111-0.1c-0.039-0.032-0.082-0.062-0.125-0.09c-0.043-0.028-0.09-0.055-0.135-0.079
	c-0.049-0.025-0.1-0.048-0.148-0.068c-0.01-0.003-0.02-0.008-0.029-0.012c-0.006-0.003-0.014-0.007-0.021-0.012
	c-0.004-0.002-0.008-0.005-0.014-0.009c-0.002-0.001-0.004-0.003-0.006-0.005c-0.004-0.003-0.006-0.006-0.01-0.009
	c-0.002-0.003-0.004-0.005-0.006-0.008s-0.004-0.006-0.006-0.009c0-0.004-0.002-0.008-0.004-0.012c0-0.002-0.002-0.005-0.002-0.007
	c0-0.002,0-0.003,0-0.005c-0.002-0.003-0.002-0.007-0.002-0.01c-0.002-0.008-0.002-0.016-0.002-0.023
	c-0.002-0.01-0.002-0.02-0.002-0.029c0.006-1.031,0.006-2.062,0-3.092c0-0.011,0.002-0.022,0.002-0.034
	c0-0.009,0.002-0.018,0.002-0.027c0.002-0.007,0.004-0.015,0.006-0.021c0-0.002,0-0.005,0.002-0.007
	c0-0.002,0.002-0.004,0.002-0.006c0.002-0.003,0.004-0.007,0.006-0.01c0.004-0.003,0.006-0.007,0.01-0.01
	c0.002-0.002,0.004-0.004,0.006-0.005c0.004-0.002,0.006-0.004,0.008-0.006c0.008-0.005,0.016-0.009,0.023-0.013
	c0.01-0.005,0.021-0.01,0.031-0.014c0.051-0.02,0.102-0.042,0.15-0.067c0.047-0.024,0.092-0.05,0.137-0.078
	c0.043-0.028,0.084-0.057,0.125-0.089c0.039-0.031,0.076-0.064,0.111-0.1c0.035-0.035,0.068-0.072,0.1-0.11
	c0.029-0.039,0.059-0.079,0.084-0.121c0.025-0.042,0.049-0.086,0.068-0.131c0.021-0.046,0.041-0.093,0.055-0.141
	c0.018-0.049,0.029-0.099,0.041-0.149c0.01-0.052,0.02-0.105,0.023-0.158c0.004-0.027,0.006-0.055,0.008-0.082
	c0-0.027,0.002-0.054,0.002-0.082c0-0.052-0.002-0.105-0.006-0.157c-0.004-0.051-0.012-0.101-0.021-0.151
	c-0.01-0.048-0.021-0.097-0.035-0.144c-0.016-0.046-0.033-0.092-0.053-0.137c-0.02-0.044-0.041-0.087-0.066-0.128
	c-0.023-0.042-0.051-0.082-0.08-0.12s-0.061-0.076-0.096-0.111c-0.033-0.036-0.07-0.07-0.109-0.102
	c-0.039-0.033-0.078-0.063-0.121-0.092c-0.043-0.029-0.09-0.056-0.135-0.082c-0.025-0.013-0.049-0.025-0.072-0.037
	c-0.025-0.012-0.051-0.023-0.074-0.033c-0.049-0.021-0.098-0.039-0.148-0.055c-0.049-0.015-0.098-0.028-0.148-0.038
	c-0.049-0.01-0.098-0.017-0.146-0.021c-0.049-0.004-0.098-0.005-0.146-0.003c-0.049,0.002-0.098,0.006-0.145,0.014
	c-0.049,0.007-0.098,0.018-0.145,0.03c-0.047,0.013-0.094,0.029-0.139,0.047c-0.047,0.019-0.094,0.04-0.139,0.063
	s-0.09,0.05-0.133,0.079c-0.045,0.029-0.09,0.061-0.131,0.094c-0.01,0.007-0.018,0.013-0.027,0.02
	c-0.006,0.005-0.014,0.009-0.021,0.013c-0.006,0.003-0.012,0.006-0.018,0.009c-0.002,0-0.004,0.001-0.006,0.002
	s-0.004,0-0.006,0.001c-0.004,0-0.006,0.001-0.01,0.001s-0.008,0-0.012-0.001c-0.002,0-0.004-0.001-0.006-0.001
	c-0.004-0.001-0.006-0.001-0.01-0.002c-0.008-0.003-0.014-0.006-0.021-0.009c-0.01-0.004-0.018-0.009-0.027-0.015
	c-0.873-0.509-1.75-1.016-2.631-1.514c-0.014-0.008-0.029-0.017-0.043-0.026c-0.012-0.008-0.023-0.016-0.035-0.024
	c-0.01-0.008-0.02-0.017-0.027-0.026c-0.008-0.007-0.014-0.014-0.018-0.021c-0.006-0.007-0.01-0.015-0.014-0.022
	c-0.004-0.008-0.006-0.017-0.008-0.026c-0.002-0.005-0.002-0.01-0.004-0.015c0-0.006-0.002-0.012-0.002-0.018
	c-0.002-0.014-0.002-0.028-0.002-0.042c0.002-0.018,0.004-0.035,0.006-0.053c0.006-0.053,0.01-0.106,0.012-0.16
	c0-0.052,0-0.103-0.004-0.154c-0.004-0.05-0.012-0.1-0.021-0.148c-0.01-0.048-0.021-0.096-0.035-0.142
	c-0.016-0.046-0.033-0.091-0.053-0.135s-0.043-0.087-0.068-0.128c-0.023-0.042-0.053-0.082-0.082-0.12
	c-0.029-0.039-0.063-0.076-0.098-0.111c-0.035-0.036-0.072-0.07-0.109-0.103c-0.041-0.033-0.082-0.064-0.125-0.094
	c-0.021-0.015-0.045-0.029-0.068-0.043c-0.021-0.014-0.045-0.027-0.068-0.04c-0.043-0.024-0.09-0.047-0.137-0.068
	c-0.045-0.02-0.092-0.038-0.139-0.052c-0.047-0.015-0.094-0.027-0.141-0.037s-0.094-0.017-0.141-0.021s-0.094-0.006-0.143-0.005
	c-0.047,0.001-0.094,0.004-0.141,0.011s-0.094,0.016-0.139,0.027c-0.049,0.012-0.094,0.026-0.139,0.042
	c-0.047,0.017-0.094,0.037-0.137,0.058c-0.047,0.022-0.092,0.047-0.135,0.074c-0.023,0.014-0.045,0.028-0.066,0.042
	c-0.021,0.015-0.043,0.03-0.064,0.046c-0.043,0.031-0.082,0.063-0.121,0.098c-0.037,0.034-0.072,0.07-0.105,0.107
	c-0.033,0.037-0.064,0.075-0.092,0.115c-0.029,0.04-0.055,0.081-0.078,0.123s-0.043,0.086-0.061,0.131
	c-0.02,0.044-0.033,0.09-0.047,0.137s-0.023,0.095-0.031,0.143c-0.008,0.05-0.012,0.099-0.014,0.149
	c-0.004,0.051-0.004,0.103,0,0.154c0.002,0.053,0.008,0.106,0.016,0.159c0.002,0.013,0.004,0.026,0.004,0.039c0,0.01,0,0.02,0,0.03
	c0,0.004-0.002,0.008-0.002,0.012c0,0.003,0,0.006-0.002,0.01c0,0.005-0.002,0.01-0.004,0.015c-0.002,0.004-0.006,0.009-0.008,0.013
	c-0.002,0.002-0.004,0.004-0.006,0.006s-0.004,0.004-0.006,0.007c-0.006,0.006-0.014,0.012-0.02,0.018
	c-0.008,0.006-0.018,0.012-0.025,0.018c-0.012,0.007-0.021,0.013-0.033,0.02C9.455,4.854,8.568,5.364,7.684,5.881
	c-0.01,0.006-0.021,0.012-0.031,0.017c-0.01,0.004-0.018,0.008-0.025,0.011c-0.008,0.002-0.014,0.004-0.02,0.005
	S7.596,5.917,7.592,5.917s-0.008,0-0.014-0.001c-0.002,0-0.004-0.001-0.006-0.001c-0.004,0-0.006-0.001-0.008-0.002
	c-0.008-0.002-0.016-0.006-0.021-0.01c-0.01-0.004-0.018-0.01-0.025-0.015c-0.01-0.007-0.02-0.014-0.029-0.022
	C7.445,5.832,7.4,5.8,7.355,5.771C7.313,5.743,7.268,5.716,7.221,5.693C7.176,5.67,7.129,5.649,7.082,5.631
	C7.035,5.613,6.988,5.598,6.941,5.585C6.893,5.573,6.846,5.563,6.797,5.557C6.748,5.55,6.699,5.546,6.652,5.545
	c-0.051-0.001-0.1,0.001-0.148,0.005C6.455,5.556,6.406,5.563,6.357,5.574C6.309,5.584,6.26,5.598,6.211,5.613
	C6.16,5.63,6.111,5.649,6.064,5.67C6.039,5.681,6.016,5.692,5.99,5.705C5.967,5.717,5.943,5.729,5.92,5.743
	C5.873,5.768,5.828,5.796,5.785,5.826c-0.041,0.029-0.08,0.06-0.119,0.093C5.629,5.951,5.592,5.985,5.559,6.021
	C5.525,6.057,5.494,6.094,5.465,6.133S5.41,6.212,5.387,6.254C5.361,6.296,5.34,6.339,5.322,6.384
	c-0.02,0.044-0.037,0.091-0.051,0.137C5.258,6.569,5.246,6.617,5.238,6.666c-0.01,0.05-0.016,0.101-0.02,0.152
	C5.215,6.871,5.213,6.923,5.215,6.976c0,0.027,0.002,0.055,0.004,0.082c0.002,0.027,0.004,0.054,0.008,0.081
	C5.232,7.191,5.24,7.243,5.252,7.295c0.012,0.049,0.025,0.099,0.041,0.147C5.309,7.489,5.328,7.535,5.348,7.58
	c0.021,0.044,0.045,0.087,0.07,0.128S5.473,7.79,5.502,7.828C5.533,7.866,5.564,7.902,5.6,7.936
	c0.035,0.035,0.072,0.067,0.111,0.098c0.039,0.031,0.08,0.061,0.123,0.087c0.043,0.028,0.088,0.054,0.135,0.077
	c0.047,0.024,0.096,0.046,0.146,0.066c0.01,0.004,0.02,0.008,0.029,0.013C6.152,8.282,6.16,8.286,6.168,8.291
	C6.174,8.294,6.18,8.298,6.184,8.303c0.004,0.002,0.006,0.005,0.01,0.008c0.002,0.003,0.004,0.005,0.006,0.008
	C6.201,8.323,6.203,8.327,6.203,8.33c0.002,0.002,0.002,0.005,0.002,0.007C6.207,8.34,6.207,8.343,6.207,8.346
	c0.002,0.008,0.004,0.016,0.004,0.023c0,0.011,0.002,0.021,0.002,0.031c-0.006,1.043-0.006,2.086-0.002,3.13c0,0.01,0,0.02,0,0.029
	c0,0.007-0.002,0.015-0.002,0.022c-0.002,0.006-0.004,0.012-0.006,0.018c0,0.002,0,0.003-0.002,0.005c0,0.001,0,0.003-0.002,0.004
	c0,0.002-0.002,0.005-0.004,0.007c-0.002,0.003-0.004,0.005-0.008,0.008c-0.004,0.003-0.008,0.006-0.012,0.009
	c-0.006,0.004-0.012,0.008-0.02,0.011c-0.008,0.004-0.018,0.008-0.027,0.012c-0.051,0.02-0.1,0.042-0.148,0.066
	c-0.047,0.023-0.094,0.049-0.137,0.077c-0.045,0.027-0.086,0.057-0.127,0.088c-0.039,0.031-0.076,0.064-0.111,0.099
	c-0.035,0.035-0.068,0.071-0.1,0.109s-0.059,0.079-0.084,0.121c-0.027,0.042-0.051,0.085-0.072,0.13
	c-0.021,0.046-0.039,0.092-0.055,0.14c-0.018,0.049-0.031,0.099-0.041,0.149c-0.012,0.052-0.02,0.104-0.025,0.158
	c-0.004,0.027-0.006,0.055-0.008,0.082c-0.002,0.027-0.002,0.054-0.004,0.082c0,0.053,0.002,0.105,0.006,0.158
	c0.004,0.051,0.01,0.101,0.02,0.151c0.01,0.049,0.021,0.097,0.035,0.145c0.014,0.047,0.031,0.093,0.051,0.137
	c0.018,0.044,0.041,0.088,0.064,0.129c0.023,0.042,0.051,0.082,0.08,0.121c0.029,0.039,0.061,0.077,0.094,0.112
	c0.035,0.036,0.07,0.07,0.107,0.102c0.039,0.033,0.08,0.064,0.123,0.093c0.043,0.029,0.088,0.057,0.133,0.082
	c0.023,0.013,0.049,0.025,0.072,0.038c0.023,0.012,0.049,0.023,0.074,0.034c0.047,0.021,0.096,0.04,0.146,0.056
	c0.049,0.016,0.098,0.029,0.146,0.039c0.049,0.01,0.1,0.017,0.148,0.021s0.098,0.006,0.146,0.005s0.098-0.005,0.145-0.013
	c0.049-0.007,0.098-0.017,0.145-0.029s0.094-0.028,0.141-0.046s0.094-0.039,0.139-0.063c0.045-0.024,0.09-0.05,0.135-0.079
	c0.045-0.03,0.088-0.062,0.131-0.095c0.004-0.004,0.01-0.009,0.016-0.013c0.006-0.003,0.01-0.007,0.016-0.01
	c0.004-0.002,0.008-0.005,0.012-0.008c0.004-0.002,0.008-0.004,0.012-0.006c0.006-0.002,0.012-0.005,0.018-0.006
	c0.002-0.001,0.006-0.001,0.008-0.001c0.002,0,0.004-0.001,0.006-0.001s0.004,0,0.006,0c0.004,0,0.006,0,0.008,0.001
	s0.006,0.001,0.008,0.001c0.004,0.001,0.008,0.002,0.01,0.003c0.002,0,0.004,0.001,0.006,0.001s0.002,0.001,0.004,0.002
	c0.002,0.001,0.006,0.002,0.008,0.003s0.004,0.002,0.006,0.003s0.006,0.002,0.008,0.004c0.002,0,0.004,0.001,0.004,0.002
	c0.002,0,0.004,0.001,0.004,0.002c0.002,0,0.004,0.001,0.004,0.002c0.002,0.001,0.004,0.001,0.004,0.002
	c0.004,0.001,0.006,0.003,0.008,0.004c0.016,0.008,0.029,0.016,0.043,0.024s0.027,0.016,0.041,0.024
	c0.027,0.016,0.055,0.032,0.082,0.048c0.029,0.016,0.057,0.032,0.084,0.048s0.055,0.032,0.082,0.048
	c0.057,0.033,0.113,0.065,0.168,0.098c0.057,0.033,0.111,0.065,0.168,0.098c0.207,0.121,0.414,0.241,0.623,0.36
	c0.414,0.24,0.832,0.478,1.25,0.71c0.021,0.012,0.043,0.024,0.064,0.038c0.02,0.011,0.039,0.023,0.057,0.036
	c0.01,0.007,0.021,0.015,0.031,0.022c0.008,0.006,0.014,0.012,0.021,0.018c0.012,0.01,0.021,0.021,0.033,0.034
	c0.008,0.01,0.016,0.021,0.021,0.033c0.002,0.005,0.006,0.011,0.008,0.017c0.002,0.005,0.004,0.011,0.006,0.017
	c0.002,0.006,0.002,0.013,0.004,0.019c0,0.007,0,0.014,0,0.021c0,0.018-0.002,0.035-0.004,0.052
	c-0.002,0.01-0.004,0.021-0.008,0.031c-0.004,0.012-0.008,0.024-0.012,0.035c-0.002,0.008-0.004,0.015-0.006,0.023
	c-0.002,0.007-0.002,0.014-0.002,0.021c-0.002,0.006-0.002,0.011-0.002,0.017c0,0.005,0,0.01,0.002,0.015c0,0.004,0,0.008,0,0.012
	c0,0.003,0,0.007,0,0.011c0,0.002,0.002,0.004,0.002,0.006C10.428,15.978,10.428,15.979,10.428,15.98z"/>
</svg>
