<?xml version="1.0" encoding="utf-8"?>
<!-- Generator: Adobe Illustrator 16.0.0, SVG Export Plug-In . SVG Version: 6.00 Build 0)  -->
<!DOCTYPE svg PUBLIC "-//W3C//DTD SVG 1.1//EN" "http://www.w3.org/Graphics/SVG/1.1/DTD/svg11.dtd">
<svg version="1.1" id="Solid" xmlns="http://www.w3.org/2000/svg" xmlns:xlink="http://www.w3.org/1999/xlink" x="0px" y="0px"
	 width="24px" height="24px" viewBox="0 0 24 24" enable-background="new 0 0 24 24" xml:space="preserve">
<path fill="#579441" d="M11.99,23.859c-6.544,0-11.836-5.304-11.831-11.864C0.165,5.472,5.478,0.158,12.043,0.183
	c6.53,0.025,11.809,5.344,11.792,11.886C23.82,18.571,18.516,23.86,11.99,23.859z M16.768,7.862c0.528-0.45,1.076-0.869,1.709-1.164
	c0.231-0.108,0.467-0.207,0.698-0.315c0.06-0.028,0.174-0.036,0.14-0.137c-0.034-0.1-0.127-0.043-0.191-0.022
	c-0.354,0.116-0.701,0.255-1.029,0.435c-0.535,0.293-1.038,0.628-1.378,1.155C16.734,7.831,16.751,7.847,16.768,7.862z
	 M16.768,7.862c-0.017-0.016-0.034-0.032-0.051-0.047c-0.236,0.024-0.183-0.157-0.189-0.281c-0.052-0.947-0.097-1.895-0.15-2.842
	c-0.012-0.202-0.009-0.421-0.27-0.538c0.201,1.091,0.204,2.168,0.253,3.242c0.01,0.223-0.052,0.315-0.283,0.28
	c-0.151-0.023-0.3-0.009-0.365,0.168c-0.022,0.06,0.023,0.18-0.101,0.148c-0.106-0.027-0.14-0.12-0.108-0.23
	c0.018-0.06,0.048-0.123,0.044-0.182c-0.007-0.098-0.05-0.208-0.165-0.192c-0.113,0.016-0.135,0.113-0.095,0.225
	c0.025,0.068,0.129,0.134,0.026,0.219c-0.134-0.03-0.221-0.267-0.383-0.122c-0.146,0.13,0.055,0.243,0.073,0.37
	c0.008,0.062,0.033,0.123,0.055,0.183c0.078,0.212,0.042,0.343-0.192,0.451c-0.342,0.158-0.601,0.441-0.833,0.733
	c-0.22,0.277-0.472,0.521-0.717,0.773c-0.13,0.134-0.271,0.182-0.454,0.178c-0.597-0.014-1.189-0.003-1.776,0.15
	c-0.793,0.207-1.609,0.141-2.418,0.127c-0.236-0.005-0.461,0.033-0.608,0.223c-0.364,0.469-0.814,0.836-1.299,1.17
	c-0.575,0.395-1.112,0.885-1.901,0.695c-0.06-0.016-0.13-0.014-0.18,0.13c0.472,0.001,0.919,0.14,1.376-0.016
	c0.03-0.011,0.063-0.022,0.084-0.044c0.579-0.572,1.337-0.918,1.892-1.519c0.104-0.112,0.227-0.229,0.376-0.221
	C8.711,11.114,8.996,11.008,9.292,11c0.874-0.023,1.747-0.047,2.62-0.071c0.165-0.058,0.335-0.042,0.504-0.038
	c0.06,0.001,0.14,0,0.15,0.078c0.009,0.076-0.067,0.098-0.124,0.125c-0.246,0.209-0.41,0.49-0.626,0.718
	c-0.465,0.49-0.514,1.239-1.074,1.661c-0.051,0.037-0.067,0.13-0.085,0.201c-0.034,0.129,0.016,0.191,0.157,0.209
	c0.608,0.077,1.168-0.02,1.65-0.423c0.562-0.47,1.257-0.727,1.867-1.257c-0.025,0.268-0.116,0.385-0.267,0.456
	c-0.236,0.11-0.432,0.274-0.619,0.448c-0.459,0.43-0.916,0.861-1.367,1.299c-0.262,0.255-0.534,0.488-0.886,0.612
	c-0.19,0.067-0.318,0.205-0.405,0.386c-0.91,1.885-1.768,3.796-3.011,5.498c-0.062,0.084-0.159,0.169-0.122,0.306
	c0.168,0.006,0.288-0.05,0.363-0.18c0.313-0.538,0.703-1.024,1.019-1.563c0.66-1.124,1.181-2.314,1.752-3.48
	c0.081-0.165,0.167-0.274,0.363-0.304c0.181-0.027,0.376-0.109,0.391-0.32c0.014-0.2,0.132-0.307,0.261-0.412
	c0.462-0.379,0.954-0.719,1.462-1.029c0.267-0.164,0.496-0.363,0.723-0.574c0.555-0.518,0.976-1.124,1.263-1.824
	c0.053-0.128,0.125-0.232,0.283-0.197c0.147,0.032,0.21,0.148,0.205,0.286c-0.006,0.159-0.001,0.333-0.065,0.471
	c-0.25,0.544-0.027,0.95,0.352,1.313c0.37,0.354,0.74,0.708,1.024,1.137c0.167,0.252,0.389,0.451,0.583,0.678
	c0.069,0.08,0.175,0.208,0.292,0.094c0.098-0.097-0.008-0.207-0.08-0.273c-0.498-0.465-0.8-1.103-1.353-1.521
	c-0.134-0.102-0.234-0.247-0.35-0.372c-0.059-0.064-0.101-0.132-0.096-0.227c0.036-0.705-0.059-1.404-0.11-2.105
	c-0.054-0.734,0.231-0.971,0.959-0.791c0.196,0.048,0.385,0.123,0.578,0.184c0.142,0.046,0.283,0.096,0.428,0.129
	c0.199,0.048,0.375,0.037,0.486-0.184c0.087-0.174,0.248-0.217,0.437-0.18c0.092,0.018,0.221,0.033,0.205-0.113
	c-0.012-0.109-0.185-0.217-0.222-0.185c-0.247,0.214-0.551,0.083-0.817,0.165c-0.491,0.154-0.951,0.004-1.397-0.193
	c-0.118-0.052-0.164-0.162-0.149-0.292c0.014-0.122,0.09-0.173,0.2-0.218c0.386-0.159,0.462-0.375,0.282-0.756
	C16.853,8.209,16.743,8.057,16.768,7.862z"/>
</svg>
