<?xml version="1.0" encoding="utf-8"?>
<!-- Generator: Adobe Illustrator 16.0.0, SVG Export Plug-In . SVG Version: 6.00 Build 0)  -->
<!DOCTYPE svg PUBLIC "-//W3C//DTD SVG 1.1//EN" "http://www.w3.org/Graphics/SVG/1.1/DTD/svg11.dtd">
<svg version="1.1" id="Solid" xmlns="http://www.w3.org/2000/svg" xmlns:xlink="http://www.w3.org/1999/xlink" x="0px" y="0px"
	 width="24px" height="24px" viewBox="0 0 24 24" enable-background="new 0 0 24 24" xml:space="preserve">
<path fill="#E34D26" d="M11.98,9.783c-0.959,0-1.917,0-2.876,0c-0.272,0-0.272,0-0.246,0.266c0.001,0.014,0.003,0.027,0.005,0.04
	c0.103,1.094,0.21,2.188,0.302,3.282c0.015,0.174,0.058,0.219,0.232,0.218c1.314-0.008,2.628-0.004,3.942-0.004
	c0.089,0,0.188-0.032,0.17,0.133c-0.048,0.446-0.082,0.894-0.116,1.342c-0.006,0.086-0.037,0.127-0.12,0.156
	c-1.16,0.401-1.16,0.402-2.355,0.057c-0.064-0.018-0.128-0.042-0.193-0.052c-0.103-0.017-0.14-0.068-0.147-0.174
	c-0.015-0.233-0.056-0.466-0.069-0.699c-0.007-0.119-0.053-0.141-0.159-0.139c-0.322,0.006-0.644,0.006-0.965,0
	c-0.113-0.002-0.149,0.025-0.137,0.144c0.061,0.573,0.117,1.146,0.165,1.721c0.009,0.112,0.076,0.127,0.152,0.147
	c0.775,0.208,1.551,0.414,2.326,0.623c0.067,0.018,0.126,0.026,0.196,0.007c0.754-0.208,1.509-0.415,2.264-0.619
	c0.134-0.036,0.203-0.115,0.206-0.251c0.004-0.194-0.021-0.393,0.016-0.58c0.079-0.404,0.068-0.814,0.12-1.219
	c0.068-0.535,0.097-1.075,0.146-1.612c0.022-0.249,0.026-0.249-0.225-0.249c-1.354,0-2.708-0.003-4.063,0.005
	c-0.166,0.001-0.215-0.045-0.226-0.204c-0.02-0.28-0.052-0.561-0.096-0.838c-0.026-0.167,0.014-0.213,0.189-0.213
	c1.448,0.008,2.896,0.004,4.344,0.004c0.047,0,0.094-0.003,0.141,0c0.076,0.006,0.103-0.026,0.108-0.103
	c0.022-0.328,0.044-0.656,0.081-0.982c0.018-0.162-0.017-0.213-0.193-0.211C13.925,9.789,12.953,9.783,11.98,9.783z"/>
<path fill="#E34D26" d="M12.003,0.405c6.413,0.005,11.59,5.198,11.582,11.618c-0.009,6.412-5.205,11.583-11.628,11.572
	c-6.4-0.011-11.572-5.208-11.562-11.618C0.405,5.572,5.592,0.4,12.003,0.405z M12.01,7.734c-1.609,0-3.219,0-4.828-0.001
	c-0.105,0-0.184-0.017-0.167,0.15c0.108,1.093,0.205,2.188,0.302,3.283c0.193,2.182,0.386,4.365,0.574,6.548
	c0.012,0.141,0.062,0.204,0.201,0.242c1.245,0.34,2.488,0.688,3.731,1.036c0.106,0.03,0.205,0.033,0.312,0.003
	c1.224-0.342,2.446-0.688,3.674-1.016c0.216-0.058,0.273-0.155,0.289-0.364c0.072-0.969,0.163-1.937,0.25-2.904
	c0.101-1.134,0.207-2.269,0.308-3.403c0.1-1.121,0.193-2.243,0.301-3.363c0.016-0.163,0.004-0.215-0.179-0.214
	C15.188,7.737,13.599,7.734,12.01,7.734z M13.946,5.35c0.015,0.007,0.031,0.015,0.046,0.022c0,0.167,0,0.334,0,0.501
	c0,0.606,0,0.6,0.609,0.583c0.152-0.004,0.178-0.06,0.176-0.193c-0.006-0.519-0.002-1.039-0.002-1.558c0-0.632,0-0.628-0.644-0.626
	c-0.135,0-0.213,0.04-0.278,0.157c-0.124,0.223-0.263,0.438-0.41,0.679c-0.081-0.129-0.162-0.219-0.199-0.324
	c-0.16-0.455-0.484-0.573-0.933-0.516c-0.156,0.02-0.215,0.042-0.212,0.211c0.011,0.527,0.003,1.055,0.003,1.583
	c0,0.603,0,0.598,0.605,0.586c0.14-0.003,0.186-0.037,0.181-0.182c-0.012-0.303-0.003-0.607-0.003-0.984
	c0.206,0.315,0.368,0.564,0.55,0.842C13.615,5.857,13.78,5.604,13.946,5.35z M9.223,5.269c0-0.234,0-0.469,0-0.703
	c0-0.482,0-0.469-0.48-0.487c-0.241-0.009-0.334,0.037-0.32,0.307C8.449,4.88,8.43,4.874,7.931,4.88
	C7.759,4.882,7.704,4.84,7.706,4.66c0.006-0.585-0.002-0.577-0.583-0.581C6.934,4.078,6.907,4.147,6.91,4.311
	c0.009,0.536,0.003,1.071,0.003,1.607c0,0.537,0,0.525,0.527,0.541c0.216,0.006,0.285-0.044,0.277-0.271
	c-0.018-0.528-0.005-0.521,0.51-0.524c0.165,0,0.208,0.046,0.208,0.209c0,0.603,0.006,0.598,0.607,0.584
	c0.14-0.003,0.188-0.04,0.184-0.183C9.216,5.939,9.222,5.604,9.223,5.269z M10.273,5.651c0,0.075,0,0.151,0,0.226
	c0,0.603,0,0.598,0.614,0.58c0.146-0.004,0.184-0.051,0.181-0.189c-0.008-0.41,0-0.821-0.004-1.231
	c-0.001-0.111,0.018-0.162,0.148-0.165c0.178-0.004,0.427,0.093,0.517-0.049c0.088-0.138,0.02-0.373,0.034-0.563
	c0.011-0.151-0.054-0.18-0.189-0.178C10.979,4.087,10.384,4.091,9.79,4.08c-0.176-0.003-0.239,0.045-0.22,0.222
	C9.588,4.483,9.521,4.712,9.61,4.836c0.086,0.121,0.328,0.039,0.5,0.037c0.138-0.001,0.17,0.049,0.165,0.176
	C10.267,5.249,10.273,5.45,10.273,5.651z M15.166,5.261c0,0.344,0.004,0.687-0.002,1.03c-0.002,0.115,0.028,0.165,0.152,0.164
	c0.536-0.005,1.075,0.031,1.607-0.014c0.332-0.028,0.083-0.335,0.14-0.506c0.029-0.087,0.083-0.266-0.145-0.257
	c-0.259,0.01-0.52-0.005-0.779,0.005c-0.146,0.006-0.187-0.045-0.182-0.186c0.01-0.276,0.002-0.553,0.002-0.829
	c0-0.616,0-0.612-0.63-0.587c-0.135,0.005-0.17,0.048-0.167,0.176C15.171,4.591,15.166,4.926,15.166,5.261z"/>
</svg>
