<?xml version="1.0" encoding="utf-8"?>
<!-- Generator: Adobe Illustrator 16.0.0, SVG Export Plug-In . SVG Version: 6.00 Build 0)  -->
<!DOCTYPE svg PUBLIC "-//W3C//DTD SVG 1.1//EN" "http://www.w3.org/Graphics/SVG/1.1/DTD/svg11.dtd">
<svg version="1.1" id="Solid" xmlns="http://www.w3.org/2000/svg" xmlns:xlink="http://www.w3.org/1999/xlink" x="0px" y="0px"
	 width="24px" height="24px" viewBox="0 0 24 24" enable-background="new 0 0 24 24" xml:space="preserve">
<path fill="#E93B56" d="M14.936,10.641c0,1.379,0,2.758,0,4.137c-0.227,0.023-0.459,0.039-0.695,0.046
	c-0.857,0.026-1.453-0.353-1.785-1.137c-0.232-0.548-0.24-1.085-0.025-1.607c0.186-0.453,0.494-0.786,0.922-0.997
	C13.859,10.833,14.387,10.685,14.936,10.641z"/>
<path fill="#E93B56" d="M11.99,23.859c-6.545,0-11.836-5.304-11.83-11.864C0.166,5.472,5.479,0.159,12.043,0.183
	c6.531,0.024,11.811,5.345,11.793,11.886C23.82,18.571,18.516,23.86,11.99,23.859z M7.121,16.336h1.988V7.018H7.121V16.336z
	 M14.936,9.038c-0.361,0.031-0.742,0.08-1.143,0.147c-1.303,0.22-2.246,0.819-2.826,1.8c-0.615,1.036-0.705,2.137-0.271,3.301
	c0.402,1.08,1.227,1.728,2.469,1.943c1.172,0.203,2.25,0.141,3.232-0.188c0.178-0.059,0.354-0.121,0.527-0.186
	c0-3.145,0-6.289,0-9.433c-0.662,0-1.326,0-1.988,0C14.936,7.294,14.936,8.167,14.936,9.038z"/>
</svg>
