<?xml version="1.0" encoding="utf-8"?>
<!-- Generator: Adobe Illustrator 16.0.0, SVG Export Plug-In . SVG Version: 6.00 Build 0)  -->
<!DOCTYPE svg PUBLIC "-//W3C//DTD SVG 1.1//EN" "http://www.w3.org/Graphics/SVG/1.1/DTD/svg11.dtd">
<svg version="1.1" id="Solid" xmlns="http://www.w3.org/2000/svg" xmlns:xlink="http://www.w3.org/1999/xlink" x="0px" y="0px"
	 width="24px" height="24px" viewBox="0 0 24 24" enable-background="new 0 0 24 24" xml:space="preserve">
<path fill="#FCDF1F" d="M11.99,23.859c-6.544,0-11.836-5.304-11.831-11.864C0.165,5.472,5.478,0.158,12.043,0.183
	c6.53,0.025,11.809,5.344,11.792,11.886C23.82,18.57,18.516,23.859,11.99,23.859z M10.524,11.102c0-1.062-0.007-1.941,0.005-2.821
	c0.003-0.228-0.049-0.319-0.295-0.307c-0.399,0.02-0.8,0.02-1.199,0C8.786,7.961,8.715,8.038,8.718,8.288
	c0.017,1.57,0.017,3.14,0.023,4.709c0.001,0.291-0.009,0.581-0.094,0.862c-0.142,0.47-0.438,0.715-0.928,0.764
	c-0.321,0.032-0.642,0.012-0.951-0.079c-0.159-0.047-0.211-0.01-0.23,0.149c-0.041,0.347-0.084,0.695-0.151,1.039
	c-0.037,0.195,0.029,0.27,0.21,0.305c0.513,0.099,1.028,0.146,1.55,0.092c1.365-0.143,2.116-0.848,2.313-2.213
	C10.604,12.922,10.487,11.919,10.524,11.102z M14.975,7.855c-0.549,0.004-1.064,0.062-1.554,0.256
	c-0.86,0.341-1.452,0.922-1.568,1.874c-0.119,0.979,0.36,1.664,1.154,2.167c0.365,0.231,0.761,0.396,1.167,0.539
	c0.302,0.107,0.602,0.221,0.861,0.414c0.552,0.409,0.469,1.146-0.16,1.422c-0.242,0.106-0.501,0.133-0.763,0.13
	c-0.628-0.008-1.229-0.15-1.798-0.41c-0.147-0.067-0.206-0.058-0.243,0.108c-0.083,0.37-0.178,0.737-0.277,1.104
	c-0.037,0.137-0.021,0.224,0.126,0.28c1.308,0.496,2.629,0.615,3.941,0.056c0.848-0.361,1.331-1.029,1.395-1.969
	c0.064-0.943-0.34-1.637-1.131-2.126c-0.351-0.217-0.731-0.367-1.114-0.512c-0.345-0.131-0.696-0.255-0.994-0.482
	c-0.474-0.361-0.413-0.944,0.122-1.21c0.21-0.104,0.436-0.141,0.668-0.145c0.505-0.008,1,0.068,1.462,0.273
	c0.226,0.1,0.286,0.036,0.334-0.178c0.073-0.321,0.165-0.639,0.275-0.949c0.069-0.195-0.002-0.262-0.169-0.326
	C16.141,7.954,15.551,7.869,14.975,7.855z"/>
</svg>
