<?xml version="1.0" encoding="utf-8"?>
<!-- Generator: Adobe Illustrator 16.0.0, SVG Export Plug-In . SVG Version: 6.00 Build 0)  -->
<!DOCTYPE svg PUBLIC "-//W3C//DTD SVG 1.1//EN" "http://www.w3.org/Graphics/SVG/1.1/DTD/svg11.dtd">
<svg version="1.1" id="Solid" xmlns="http://www.w3.org/2000/svg" xmlns:xlink="http://www.w3.org/1999/xlink" x="0px" y="0px"
	 width="24px" height="24px" viewBox="0 0 24 24" enable-background="new 0 0 24 24" xml:space="preserve">
<path fill="#FE5A04" d="M11.99,23.859c-6.545,0-11.836-5.304-11.83-11.864C0.166,5.472,5.479,0.158,12.043,0.183
	c6.531,0.025,11.811,5.344,11.793,11.886C23.82,18.571,18.516,23.86,11.99,23.859z M5.344,10.552l-1.861,1.438l1.846,1.506h1.471
	L4.805,12l2.025-1.448H5.344z M3.438,13.497v-2.944h-1.08v2.944H3.438z M15.459,10.552L13.6,11.991l1.846,1.506h1.471L14.922,12
	l2.023-1.448H15.459z M13.555,13.497v-2.944h-1.08v2.944H13.555z M20.93,13.497h1.104l-2.055-2.944h-0.953l-2.063,2.944h1.104
	l0.357-0.508h2.15L20.93,13.497z M10.758,13.497c0.406,0,0.762-0.271,0.869-0.664c0.023-0.089,0.031-0.178,0.031-0.27
	c0-0.087,0-0.174,0-0.261c0-0.175,0-0.349,0-0.522c0-0.294,0-0.588,0-0.882c0-0.073,0-0.147,0-0.22c0-0.037,0-0.074,0-0.111
	c0-0.004,0-0.008,0-0.014c0-0.003-0.008-0.001-0.01-0.001c-0.004,0-0.01,0-0.014,0c-0.018,0-0.033,0-0.051,0
	c-0.035,0-0.068,0-0.104,0c-0.275,0-0.551,0-0.826,0c-0.01,0-0.021,0-0.031,0c-0.006,0-0.012,0-0.016,0s-0.01-0.003-0.01,0.003
	c0,0.012,0,0.023,0,0.034c0,0.022,0,0.045,0,0.067c0,0.045,0,0.09,0,0.136c0,0.09,0,0.181,0,0.271c0,0.18,0,0.361,0,0.541
	c0,0.181,0,0.361,0,0.541c0,0.046,0,0.091,0,0.136c0,0.046,0.002,0.091-0.004,0.137c-0.016,0.104-0.074,0.195-0.162,0.251
	c-0.094,0.061-0.162,0.057-0.266,0.057c-0.092,0-0.186,0-0.277,0c-0.188,0-0.373,0-0.559,0s-0.371,0-0.559,0
	c-0.045,0-0.088,0-0.133-0.014c-0.047-0.013-0.088-0.033-0.125-0.064c-0.076-0.06-0.125-0.146-0.135-0.242
	c-0.002-0.026-0.002-0.232-0.002-0.258c0-0.086,0-0.171,0-0.256c0-0.172,0-0.343,0-0.514c0-0.172,0-0.343,0-0.514
	c0-0.086,0-0.172,0-0.257c0-0.011,0-0.021,0-0.032c0-0.006,0-0.011,0-0.016c0-0.003,0.002-0.007-0.002-0.007
	c-0.006,0-0.01,0-0.016,0c-0.039,0-0.08,0-0.119,0c-0.082,0-0.162,0-0.242,0c-0.148,0-0.297,0-0.447,0c-0.074,0-0.148,0-0.223,0
	c-0.006,0-0.01,0-0.014,0c-0.006,0-0.004,0.003-0.004,0.006c0,0.005,0,0.01,0,0.015c0,0.01,0,0.02,0,0.03c0,0.02,0,0.04,0,0.06
	c0,0.159,0,0.318,0,0.478c0,0.318,0,0.637,0,0.955c0,0.086,0,0.172,0,0.257c0,0.086,0,0.172,0,0.258
	c0.004,0.191,0.066,0.375,0.18,0.527c0.121,0.16,0.289,0.274,0.482,0.328c0.088,0.023,0.176,0.031,0.268,0.031
	c0.096,0,0.191,0,0.287,0C9.27,13.497,10.014,13.497,10.758,13.497z"/>
<polygon fill="#FE5A04" points="20.15,12.381 18.848,12.381 19.5,11.45 "/>
</svg>
