<?xml version="1.0" encoding="utf-8"?>
<!-- Generator: Adobe Illustrator 16.0.0, SVG Export Plug-In . SVG Version: 6.00 Build 0)  -->
<!DOCTYPE svg PUBLIC "-//W3C//DTD SVG 1.1//EN" "http://www.w3.org/Graphics/SVG/1.1/DTD/svg11.dtd">
<svg version="1.1" id="Solid" xmlns="http://www.w3.org/2000/svg" xmlns:xlink="http://www.w3.org/1999/xlink" x="0px" y="0px"
	 width="24px" height="24px" viewBox="0 0 24 24" enable-background="new 0 0 24 24" xml:space="preserve">
<path fill="#01AE43" d="M11.99,23.88c-6.545,0-11.837-5.304-11.831-11.864C0.165,5.493,5.479,0.179,12.043,0.204
	c6.531,0.025,11.81,5.344,11.793,11.886C23.82,18.591,18.516,23.88,11.99,23.88z M12.04,3.107c0,0,0.003-0.001,0.003-0.001
	c-0.018-0.032-0.041-0.093-0.053-0.091c-0.066,0.014-0.033,0.07-0.035,0.111c-0.08,0.124-0.155,0.248-0.27,0.349
	C10.064,4.919,9.377,6.75,9.6,8.881c0.162,1.549,0.971,2.773,2.229,3.693c0.044,0.388,0.087,0.776,0.13,1.165
	c0.008,0.076,0.014,0.153,0.115,0.16c0.098,0.007,0.122-0.057,0.135-0.139c0.063-0.417,0.129-0.833,0.193-1.25
	c0.475-0.3,0.84-0.711,1.15-1.169c1.456-2.139,1.118-4.798-0.373-6.795C12.814,4.055,12.306,3.678,12.04,3.107z M15.07,17.451
	c0.621,0.06,1.219,0.163,1.789-0.102c0.504-0.233,0.727-0.702,0.656-1.324c-0.051-0.446-0.375-0.817-0.809-0.919
	c-0.514-0.12-1.035,0.019-1.552-0.047c-0.056-0.007-0.108,0.027-0.119,0.083c-0.014,0.072,0.052,0.082,0.103,0.087
	c0.229,0.023,0.256,0.173,0.252,0.363c-0.008,0.382-0.001,0.764-0.004,1.146C15.385,17.011,15.461,17.318,15.07,17.451z
	 M3.524,16.073c0.168,0.094,0.356,0.115,0.326,0.292c-0.063,0.369,0.232,0.822-0.296,1.101c0.324,0,0.595,0,0.866,0
	c-0.215-0.096-0.256-0.247-0.239-0.449c0.017-0.189,0.014-0.382,0.001-0.573c-0.012-0.179,0.099-0.242,0.234-0.293
	c0.154-0.059,0.295-0.038,0.404,0.09c0.205,0.24,0.111,1.01-0.166,1.212c0.281,0.047,0.537,0.033,0.807-0.017
	c-0.213-0.083-0.241-0.234-0.23-0.419c0.01-0.168,0.015-0.343-0.018-0.507c-0.041-0.2,0.035-0.302,0.211-0.357
	c0.179-0.056,0.34-0.03,0.451,0.133c0.172,0.251,0.073,0.973-0.154,1.165c0.232,0.046,0.612,0.042,0.896-0.04
	c-0.404-0.03-0.37-0.251-0.359-0.467c0.007-0.148,0.004-0.297,0-0.446c-0.019-0.545-0.387-0.755-0.865-0.483
	c-0.14,0.08-0.242,0.149-0.373-0.018c-0.104-0.131-0.265-0.09-0.414-0.087c-0.17,0.003-0.34,0.37-0.514,0.008
	c-0.004-0.007-0.06,0.008-0.09,0.016C3.861,15.976,3.721,16.017,3.524,16.073z M17.76,17.451c0.467,0.048,0.906,0.112,1.346,0.023
	c0.18-0.036,0.344-0.109,0.482-0.23c0.416-0.358,0.33-0.77-0.25-1.145c0.205-0.153,0.361-0.327,0.289-0.61
	c-0.057-0.224-0.206-0.343-0.414-0.393c-0.439-0.105-0.887,0.026-1.329-0.035c-0.053-0.007-0.103,0.03-0.104,0.092
	c-0.003,0.056,0.048,0.067,0.088,0.069c0.242,0.013,0.247,0.179,0.244,0.36c-0.004,0.382,0,0.763-0.001,1.145
	C18.109,17.017,18.152,17.327,17.76,17.451z M12.629,15.962c-0.266,0.085-0.479-0.016-0.701-0.064
	c-0.541-0.119-0.949,0.225-0.885,0.721c0.028,0.213,0.198,0.302,0.32,0.407c-0.041,0.15-0.392,0.148-0.168,0.362
	c0.165,0.157,0.079,0.195-0.039,0.291c-0.272,0.221-0.256,0.474,0.031,0.664c0.422,0.278,1.18,0.035,1.353-0.433
	c0.109-0.296-0.013-0.53-0.325-0.59c-0.187-0.036-0.379-0.041-0.566-0.063c-0.078-0.009-0.156-0.038-0.145-0.134
	c0.01-0.069,0.074-0.099,0.144-0.1c0.19-0.001,0.347-0.082,0.486-0.204C12.395,16.589,12.26,16.147,12.629,15.962z M8.725,16.1
	c0.296,0.068,0.365,0.244,0.338,0.486c-0.014,0.126,0.002,0.254-0.003,0.382c-0.006,0.164,0.04,0.354-0.193,0.413
	c-0.048,0.013-0.062,0.052-0.047,0.1c0.017,0.052,0.06,0.05,0.103,0.049c0.191-0.002,0.382-0.004,0.572-0.002
	c0.057,0.001,0.107,0.004,0.129-0.059c0.024-0.073-0.025-0.091-0.081-0.102c-0.163-0.03-0.144-0.153-0.142-0.271
	c0.004-0.202,0.014-0.405-0.002-0.605c-0.015-0.18,0.051-0.286,0.221-0.329c0.164-0.041,0.318-0.025,0.432,0.12
	c0.08,0.105,0.107,0.886,0.051,1.002c-0.044,0.091-0.26,0.063-0.178,0.207c0.061,0.104,0.215,0.011,0.326,0.027
	c0.115,0.016,0.233,0.007,0.35,0.01c0.046,0.001,0.084-0.007,0.102-0.055c0.02-0.049,0.003-0.083-0.047-0.094
	c-0.201-0.045-0.176-0.199-0.18-0.349c-0.006-0.243-0.012-0.489-0.049-0.729c-0.046-0.292-0.279-0.455-0.538-0.425
	c-0.198,0.022-0.382,0.316-0.597,0.034c-0.003-0.003-0.021,0.002-0.03,0.006C9.105,15.976,8.926,15.966,8.725,16.1z M12.896,16.723
	c0.006,0.509,0.313,0.817,0.807,0.811c0.488-0.006,0.869-0.395,0.855-0.873c-0.012-0.443-0.362-0.792-0.79-0.786
	C13.25,15.883,12.891,16.232,12.896,16.723z M7.631,17.534c0.508-0.004,0.858-0.362,0.851-0.869
	c-0.007-0.469-0.329-0.796-0.776-0.789c-0.506,0.009-0.865,0.353-0.867,0.827C6.838,17.221,7.14,17.538,7.631,17.534z"/>
<path fill="#01AE43" d="M8.145,16.784c-0.011,0.261-0.033,0.513-0.334,0.589c-0.238,0.061-0.484-0.127-0.583-0.433
	c-0.028-0.089-0.046-0.186-0.051-0.28c-0.021-0.362,0.115-0.585,0.364-0.614c0.256-0.03,0.504,0.182,0.574,0.494
	C8.133,16.622,8.136,16.708,8.145,16.784z"/>
<path fill="#01AE43" d="M14.205,16.763c-0.017,0.297-0.042,0.563-0.352,0.607c-0.3,0.043-0.472-0.153-0.561-0.417
	c-0.037-0.108-0.057-0.227-0.059-0.342c-0.005-0.259,0.047-0.499,0.351-0.562c0.237-0.049,0.468,0.124,0.562,0.416
	C14.182,16.575,14.191,16.692,14.205,16.763z"/>
<path fill="#01AE43" d="M12.021,16.507c-0.016,0.178-0.061,0.364-0.309,0.382c-0.209,0.016-0.383-0.194-0.388-0.458
	c-0.005-0.213,0.064-0.383,0.308-0.4C11.852,16.014,12.02,16.217,12.021,16.507z"/>
<path fill="#01AE43" d="M18.467,15.676c0.066-0.143-0.131-0.45,0.256-0.437c0.338,0.011,0.53,0.176,0.533,0.46
	c0.002,0.295-0.146,0.391-0.511,0.417C18.364,16.144,18.489,15.882,18.467,15.676z"/>
<path fill="#01AE43" d="M18.866,17.327c-0.378-0.005-0.405-0.069-0.401-0.778c0.002-0.188,0.025-0.294,0.259-0.281
	c0.451,0.026,0.702,0.211,0.7,0.56C19.422,17.152,19.221,17.332,18.866,17.327z"/>
<path fill="#01AE43" d="M15.768,16.202c0-0.233,0.014-0.466-0.003-0.698c-0.017-0.235,0.093-0.288,0.302-0.28
	c0.41,0.016,0.756,0.149,0.939,0.532c0.196,0.405,0.183,0.824-0.062,1.209c-0.19,0.302-0.537,0.422-0.888,0.348
	c-0.191-0.041-0.297-0.145-0.289-0.35c0.005-0.127,0-0.254,0-0.381S15.768,16.329,15.768,16.202z"/>
<path fill="#01AE43" d="M11.779,18.291c-0.115-0.012-0.232-0.014-0.334-0.077c-0.124-0.076-0.221-0.175-0.197-0.331
	c0.023-0.163,0.14-0.258,0.291-0.294c0.09-0.021,0.189-0.017,0.283-0.008c0.222,0.021,0.465,0.034,0.488,0.332
	C12.328,18.126,12.076,18.293,11.779,18.291z"/>
</svg>
