<?xml version="1.0" encoding="utf-8"?>
<!-- Generator: Adobe Illustrator 16.0.0, SVG Export Plug-In . SVG Version: 6.00 Build 0)  -->
<!DOCTYPE svg PUBLIC "-//W3C//DTD SVG 1.1//EN" "http://www.w3.org/Graphics/SVG/1.1/DTD/svg11.dtd">
<svg version="1.1" id="Solid" xmlns="http://www.w3.org/2000/svg" xmlns:xlink="http://www.w3.org/1999/xlink" x="0px" y="0px"
	 width="24px" height="24px" viewBox="0 0 24 24" enable-background="new 0 0 24 24" xml:space="preserve">
<path fill="#26B45F" d="M11.99,23.859c-6.545,0-11.836-5.304-11.83-11.864C0.166,5.472,5.479,0.158,12.043,0.183
	c6.531,0.025,11.811,5.344,11.793,11.886C23.82,18.57,18.516,23.859,11.99,23.859z M5.541,11.996c0,1.017,0,2.033,0,3.049
	c0,0.455,0.195,0.803,0.586,1.034c0.443,0.262,0.891,0.519,1.342,0.772c0.459,0.258,0.945,0.394,1.482,0.347
	c0.646-0.056,1.127-0.445,1.291-1.07c0.064-0.252,0.072-0.51,0.072-0.769c0.002-1.833,0.002-3.667,0-5.5
	c0-0.668,0.043-0.569-0.574-0.574c-0.41-0.003-0.41,0-0.41,0.409c0,1.892,0.002,3.783,0,5.674c0,0.702-0.48,1.025-1.139,0.77
	c-0.092-0.036-0.18-0.085-0.266-0.134c-0.398-0.228-0.789-0.465-1.191-0.684c-0.174-0.095-0.244-0.209-0.244-0.414
	c0.008-1.941,0.008-3.883,0-5.824c0-0.205,0.074-0.315,0.244-0.414c1.689-0.97,3.375-1.945,5.057-2.925
	c0.16-0.093,0.279-0.084,0.434,0.005c1.689,0.983,3.383,1.962,5.078,2.937c0.137,0.079,0.203,0.168,0.203,0.333
	c-0.004,1.983-0.004,3.966-0.002,5.949c0.002,0.148-0.041,0.246-0.176,0.323c-1.717,0.988-3.432,1.979-5.143,2.974
	c-0.133,0.077-0.238,0.078-0.369-0.003c-0.381-0.236-0.773-0.458-1.154-0.693c-0.129-0.08-0.238-0.093-0.367-0.008
	c-0.189,0.123-0.4,0.203-0.613,0.278c-0.061,0.022-0.146,0.03-0.16,0.099c-0.021,0.092,0.074,0.12,0.135,0.155
	c0.564,0.337,1.133,0.667,1.695,1.008c0.434,0.264,0.857,0.261,1.295,0.007c1.721-0.999,3.441-1.995,5.166-2.987
	c0.447-0.257,0.66-0.631,0.66-1.146c-0.004-1.983-0.004-3.966,0-5.949c0.002-0.524-0.217-0.899-0.676-1.162
	c-1.709-0.982-3.416-1.972-5.119-2.965c-0.453-0.265-0.889-0.267-1.344-0.003C9.623,5.895,7.91,6.888,6.193,7.876
	c-0.449,0.258-0.66,0.629-0.654,1.146C5.547,10.013,5.541,11.004,5.541,11.996z M13.631,9.119c-0.768-0.035-1.461,0.115-1.922,0.419
	c-0.529,0.351-0.744,0.853-0.695,1.477c0.051,0.623,0.414,0.992,0.98,1.196c0.346,0.125,0.705,0.189,1.068,0.236
	c0.602,0.077,1.215,0.097,1.791,0.308c0.445,0.164,0.541,0.691,0.195,1.024c-0.115,0.113-0.258,0.183-0.414,0.218
	c-0.693,0.16-1.387,0.157-2.076-0.016c-0.316-0.079-0.543-0.277-0.654-0.597c-0.164-0.474-0.166-0.473-0.672-0.473
	c-0.033,0-0.068,0.003-0.102,0c-0.221-0.021-0.313,0.063-0.301,0.301c0.035,0.724,0.451,1.301,1.184,1.577
	c0.725,0.273,1.479,0.298,2.24,0.225c0.467-0.045,0.918-0.157,1.318-0.418c0.611-0.402,0.811-0.985,0.719-1.688
	c-0.08-0.623-0.504-0.924-1.051-1.105c-0.404-0.134-0.824-0.198-1.244-0.259c-0.518-0.076-1.041-0.122-1.545-0.28
	c-0.178-0.056-0.346-0.131-0.371-0.354c-0.025-0.248,0.021-0.469,0.242-0.614c0.098-0.063,0.205-0.118,0.316-0.145
	c0.568-0.137,1.141-0.132,1.707,0.005c0.297,0.072,0.572,0.244,0.633,0.544c0.094,0.457,0.377,0.497,0.742,0.453
	c0.041-0.005,0.084-0.004,0.125,0c0.199,0.018,0.27-0.071,0.246-0.267c-0.086-0.732-0.443-1.26-1.141-1.536
	C14.527,9.183,14.082,9.136,13.631,9.119z"/>
</svg>
