<?xml version="1.0" encoding="utf-8"?>
<!-- Generator: Adobe Illustrator 16.0.0, SVG Export Plug-In . SVG Version: 6.00 Build 0)  -->
<!DOCTYPE svg PUBLIC "-//W3C//DTD SVG 1.1//EN" "http://www.w3.org/Graphics/SVG/1.1/DTD/svg11.dtd">
<svg version="1.1" id="Solid" xmlns="http://www.w3.org/2000/svg" xmlns:xlink="http://www.w3.org/1999/xlink" x="0px" y="0px"
	 width="24px" height="24px" viewBox="0 0 24 24" enable-background="new 0 0 24 24" xml:space="preserve">
<path fill="#1867A1" d="M8.107,8.697c0.182-0.02,0.35-0.032,0.5-0.039c0.539-0.022,1.008,0.067,1.406,0.269
	c0.375,0.19,0.623,0.476,0.742,0.856c0.086,0.274,0.088,0.562,0.008,0.864c-0.111,0.421-0.389,0.717-0.83,0.887
	c-0.547,0.209-1.115,0.258-1.705,0.145c-0.041-0.009-0.082-0.016-0.121-0.021C8.107,10.67,8.107,9.684,8.107,8.697z"/>
<path fill="#1867A1" d="M11.99,23.859c-6.545,0-11.836-5.304-11.83-11.864C0.166,5.472,5.479,0.159,12.043,0.183
	c6.531,0.024,11.811,5.345,11.793,11.886C23.82,18.571,18.516,23.86,11.99,23.859z M13.918,14.348c0,0.596,0,1.191,0,1.787
	c0.15,0.041,0.299,0.082,0.449,0.123c0.879,0.241,1.775,0.268,2.658,0.064c1.037-0.238,1.66-0.939,1.77-1.885
	c0.102-0.872-0.314-1.559-1.285-2.057c-0.506-0.26-1.037-0.469-1.551-0.713c-0.232-0.109-0.424-0.276-0.344-0.571
	c0.07-0.255,0.311-0.288,0.523-0.313c0.631-0.071,1.24,0.048,1.836,0.258c0.09,0.031,0.178,0.089,0.26,0.089
	c0-0.604,0-1.207,0-1.811c-0.158-0.018-0.314-0.034-0.471-0.051c-0.348-0.039-0.414-0.045-0.48-0.051
	c-0.176-0.016-0.355-0.02-0.365-0.02c-0.424,0-0.613-0.01-0.803,0.001c-1.219,0.067-2.107,0.714-2.322,1.686
	c-0.232,1.058,0.217,1.853,1.412,2.449c0.436,0.218,0.893,0.395,1.332,0.606c0.199,0.096,0.379,0.244,0.33,0.502
	c-0.047,0.254-0.264,0.324-0.486,0.355c-0.746,0.104-1.455-0.023-2.15-0.303C14.135,14.458,14.029,14.348,13.918,14.348z
	 M8.107,6.954c-0.664,0-1.326,0-1.99,0c0,3.106,0,6.213,0,9.318c0.664,0,1.326,0,1.99,0c0-0.979,0-1.959,0-2.938
	c0.182,0.021,0.365,0.039,0.549,0.051c0.938,0.064,1.82-0.113,2.65-0.532c0.672-0.34,1.119-0.931,1.342-1.773
	c0.16-0.604,0.182-1.18,0.063-1.728c-0.164-0.762-0.537-1.332-1.117-1.713c-0.617-0.404-1.336-0.621-2.158-0.654
	C9.107,6.971,8.664,6.961,8.107,6.954z"/>
</svg>
