<?xml version="1.0" encoding="utf-8"?>
<!-- Generator: Adobe Illustrator 16.0.0, SVG Export Plug-In . SVG Version: 6.00 Build 0)  -->
<!DOCTYPE svg PUBLIC "-//W3C//DTD SVG 1.1//EN" "http://www.w3.org/Graphics/SVG/1.1/DTD/svg11.dtd">
<svg version="1.1" id="Solid" xmlns="http://www.w3.org/2000/svg" xmlns:xlink="http://www.w3.org/1999/xlink" x="0px" y="0px"
	 width="24px" height="24px" viewBox="0 0 24 24" enable-background="new 0 0 24 24" xml:space="preserve">
<path fill="#4747A4" d="M8.326,8.712c0.183-0.02,0.35-0.032,0.5-0.039c0.539-0.022,1.008,0.067,1.406,0.269
	c0.376,0.19,0.624,0.476,0.743,0.857c0.085,0.273,0.088,0.561,0.008,0.863c-0.111,0.421-0.389,0.717-0.832,0.887
	c-0.546,0.209-1.114,0.258-1.704,0.145c-0.041-0.009-0.082-0.016-0.122-0.021C8.326,10.686,8.326,9.7,8.326,8.712z"/>
<path fill="#4747A4" d="M11.99,23.859c-6.544,0-11.836-5.304-11.831-11.864C0.165,5.472,5.478,0.159,12.043,0.183
	c6.53,0.024,11.809,5.345,11.792,11.886C23.82,18.571,18.516,23.86,11.99,23.859z M15.772,9.247c-0.515,0-1.03,0-1.544,0
	c0,2.375,0,4.722,0,7.041c0.663,0,1.326,0,1.989,0c0-1.299,0-2.598,0-3.896c0.002-0.706,0.251-1.097,0.748-1.175
	c0.421-0.065,0.825-0.112,1.211-0.141c0.114-0.008,0.228-0.014,0.342-0.018c0-0.623,0-1.246,0-1.869
	c-0.189-0.012-0.38-0.014-0.573-0.008c-0.479,0.014-0.904,0.169-1.275,0.465c-0.162,0.128-0.316,0.262-0.463,0.402
	c-0.018-0.089-0.039-0.178-0.065-0.268C16.077,9.557,15.954,9.378,15.772,9.247z M8.326,6.969c-0.663,0-1.326,0-1.989,0
	c0,3.106,0,6.213,0,9.318c0.663,0,1.326,0,1.989,0c0-0.979,0-1.959,0-2.938c0.182,0.021,0.366,0.039,0.55,0.051
	c0.938,0.064,1.821-0.113,2.649-0.532c0.672-0.34,1.119-0.931,1.342-1.773c0.16-0.604,0.181-1.181,0.063-1.728
	c-0.164-0.762-0.537-1.332-1.118-1.713C11.196,7.25,10.477,7.033,9.654,7C9.326,6.987,8.883,6.977,8.326,6.969z"/>
</svg>
