<?xml version="1.0" encoding="utf-8"?>
<!-- Generator: Adobe Illustrator 16.0.0, SVG Export Plug-In . SVG Version: 6.00 Build 0)  -->
<!DOCTYPE svg PUBLIC "-//W3C//DTD SVG 1.1//EN" "http://www.w3.org/Graphics/SVG/1.1/DTD/svg11.dtd">
<svg version="1.1" id="Solid" xmlns="http://www.w3.org/2000/svg" xmlns:xlink="http://www.w3.org/1999/xlink" x="0px" y="0px"
	 width="24px" height="24px" viewBox="0 0 24 24" enable-background="new 0 0 24 24" xml:space="preserve">
<path fill="#0382BD" d="M11.99,23.859c-6.545,0-11.837-5.304-11.831-11.864C0.165,5.472,5.478,0.158,12.043,0.183
	c6.531,0.025,11.81,5.344,11.792,11.886C23.82,18.571,18.516,23.86,11.99,23.859z M8.12,5.822c0,0.069,0,0.138,0,0.207
	c0,3.9,0,7.801,0,11.701c0.436,0.172,0.872,0.343,1.308,0.514c0.47-0.121,0.94-0.241,1.41-0.361c0.045-0.021,0.088-0.044,0.13-0.071
	c0.075-0.048,0.124-0.115,0.146-0.2c0.021-0.082,0.029-0.164,0.027-0.245c-0.008-0.218-0.018-0.437-0.027-0.655
	c-0.021-0.426-0.033-0.852-0.035-1.277c-0.001-0.277-0.006-0.556-0.017-0.836c-0.003-0.073,0.01-0.145,0.038-0.214
	c0.041-0.101,0.09-0.197,0.148-0.292c0.049-0.081,0.121-0.135,0.215-0.162c0.064-0.018,0.124-0.01,0.178,0.025
	c0.082,0.055,0.162,0.107,0.24,0.16c0.203,0.137,0.381,0.305,0.535,0.5c0.432,0.553,0.842,1.115,1.23,1.686
	c0.297,0.436,0.596,0.871,0.897,1.305c0.036,0.053,0.076,0.104,0.119,0.152c0.073,0.084,0.165,0.145,0.273,0.18
	c0.079,0.027,0.157,0.041,0.237,0.045c0.592,0.025,1.182,0.057,1.773,0.094c0.455,0.029,0.91,0.057,1.365,0.084
	c-0.131-0.175-0.262-0.35-0.392-0.525c-0.386-0.519-0.765-1.041-1.14-1.568c-0.314-0.442-0.627-0.888-0.938-1.335
	c-0.211-0.304-0.406-0.616-0.589-0.937c-0.106-0.188-0.192-0.387-0.259-0.6c-0.068-0.223-0.063-0.443,0.02-0.664
	c0.098-0.258,0.232-0.486,0.404-0.689c0.224-0.26,0.404-0.551,0.543-0.869c0.155-0.361,0.24-0.736,0.254-1.127
	c0.014-0.404-0.027-0.804-0.125-1.197c-0.091-0.367-0.235-0.714-0.434-1.039c-0.185-0.303-0.42-0.56-0.707-0.771
	c-0.383-0.282-0.8-0.492-1.253-0.629c-0.536-0.163-1.081-0.271-1.634-0.326c-0.709-0.07-1.42-0.097-2.132-0.081
	C9.328,5.816,8.724,5.823,8.12,5.822z"/>
<path fill="#0382BD" d="M10.864,9.853c-0.007-0.224-0.009-0.391-0.006-0.5c0.005-0.164,0.026-0.327,0.066-0.489
	c0.028-0.113,0.089-0.207,0.185-0.282c0.092-0.072,0.194-0.113,0.307-0.119c0.158-0.01,0.316-0.017,0.473-0.021
	c0.184-0.007,0.363,0.015,0.541,0.064c0.141,0.038,0.273,0.098,0.398,0.178c0.111,0.07,0.191,0.166,0.244,0.288
	c0.045,0.106,0.064,0.214,0.057,0.325c-0.01,0.143-0.023,0.285-0.043,0.426c-0.021,0.15-0.067,0.293-0.141,0.43
	c-0.055,0.1-0.129,0.182-0.223,0.246c-0.146,0.1-0.305,0.173-0.474,0.221c-0.179,0.051-0.362,0.09-0.548,0.117
	c-0.106,0.016-0.209,0.006-0.31-0.031c-0.118-0.044-0.226-0.112-0.32-0.205c-0.12-0.116-0.187-0.256-0.198-0.42
	C10.867,10.003,10.865,9.927,10.864,9.853z"/>
</svg>
