<?xml version="1.0" encoding="utf-8"?>
<!-- Generator: Adobe Illustrator 16.0.0, SVG Export Plug-In . SVG Version: 6.00 Build 0)  -->
<!DOCTYPE svg PUBLIC "-//W3C//DTD SVG 1.1//EN" "http://www.w3.org/Graphics/SVG/1.1/DTD/svg11.dtd">
<svg version="1.1" id="Solid" xmlns="http://www.w3.org/2000/svg" xmlns:xlink="http://www.w3.org/1999/xlink" x="0px" y="0px"
	 width="24px" height="24px" viewBox="0 0 24 24" enable-background="new 0 0 24 24" xml:space="preserve">
<path fill="#7ADAF9" d="M11.99,23.859c-6.545,0-11.836-5.304-11.83-11.864C0.166,5.472,5.479,0.158,12.043,0.183
	c6.531,0.025,11.811,5.344,11.793,11.886C23.82,18.57,18.516,23.859,11.99,23.859z M7.809,14.179
	c-0.004,0.55,0.082,1.023,0.258,1.396c0.24,0.512,0.672,0.77,1.236,0.74c0.27-0.014,0.525-0.083,0.773-0.184
	c0.689-0.281,1.279-0.715,1.824-1.213c0.096-0.087,0.141-0.078,0.23,0.004c0.455,0.417,0.949,0.785,1.506,1.06
	c0.381,0.188,0.773,0.331,1.207,0.324c0.438-0.007,0.779-0.193,1.016-0.564c0.207-0.324,0.289-0.688,0.33-1.063
	c0.074-0.683-0.016-1.353-0.158-2.018c-0.025-0.123,0.008-0.16,0.115-0.192c0.301-0.089,0.59-0.206,0.875-0.336
	c0.564-0.258,1.096-0.565,1.504-1.048c0.465-0.552,0.459-1.201-0.008-1.75c-0.127-0.149-0.27-0.283-0.424-0.403
	c-0.59-0.461-1.268-0.751-1.977-0.975c-0.096-0.03-0.131-0.064-0.107-0.17c0.084-0.366,0.141-0.736,0.168-1.11
	c0.039-0.562,0.021-1.119-0.172-1.656c-0.25-0.693-0.803-1.012-1.525-0.882c-0.172,0.031-0.342,0.077-0.504,0.141
	c-0.703,0.276-1.303,0.714-1.854,1.219c-0.105,0.096-0.162,0.086-0.258-0.004c-0.258-0.243-0.537-0.463-0.832-0.66
	C10.561,4.52,10.07,4.245,9.5,4.148C8.773,4.024,8.24,4.332,7.982,5.021c-0.094,0.252-0.143,0.513-0.17,0.78
	C7.744,6.473,7.842,7.132,7.979,7.787C8,7.893,7.977,7.93,7.879,7.959C7.508,8.069,7.15,8.21,6.805,8.381
	C6.309,8.626,5.844,8.913,5.48,9.34c-0.438,0.515-0.467,1.085-0.082,1.639c0.111,0.162,0.248,0.3,0.398,0.427
	c0.605,0.515,1.322,0.817,2.066,1.061c0.135,0.043,0.146,0.099,0.121,0.217C7.875,13.176,7.807,13.673,7.809,14.179z M7.832,19.39
	c0.523-0.201,0.709-0.561,0.629-1.18c-0.053-0.41-0.316-0.634-0.814-0.7c-0.438-0.058-0.877-0.014-1.314-0.035
	c-0.156-0.008-0.189,0.047-0.188,0.194c0.006,0.838,0.004,1.677,0.004,2.515c0,0.492-0.002,0.488,0.494,0.478
	c0.117-0.002,0.158-0.028,0.156-0.152c-0.01-0.308,0-0.615-0.006-0.923c-0.002-0.096,0.02-0.131,0.125-0.134
	c0.135-0.002,0.225,0.024,0.303,0.149c0.199,0.318,0.418,0.625,0.629,0.937c0.037,0.055,0.059,0.123,0.148,0.121
	c0.213-0.004,0.424-0.001,0.672-0.001C8.381,20.22,8.113,19.814,7.832,19.39z M11.131,20.309c-0.055-0.04-0.109-0.08-0.164-0.122
	c-0.143-0.112-0.248-0.189-0.463-0.055c-0.375,0.234-0.814,0.038-0.906-0.334c-0.035-0.139-0.02-0.197,0.141-0.192
	c0.307,0.009,0.615,0.003,0.922,0.003c0.564,0,0.564,0,0.484-0.577c-0.066-0.466-0.355-0.768-0.795-0.828
	c-0.607-0.083-1.053,0.112-1.252,0.544c-0.135,0.289-0.143,0.593-0.129,0.901c0.023,0.518,0.268,0.886,0.689,1.009
	C10.141,20.799,10.867,20.765,11.131,20.309z M13.121,20.416c-0.045,0.232,0.051,0.264,0.197,0.244c0.068-0.009,0.139-0.007,0.209,0
	c0.1,0.01,0.133-0.028,0.131-0.129c-0.008-0.539,0.004-1.078-0.016-1.615c-0.016-0.411-0.227-0.628-0.633-0.698
	c-0.129-0.022-0.262-0.04-0.391-0.034c-0.385,0.02-0.77,0.05-1.023,0.425c0.09,0.059,0.18,0.106,0.256,0.168
	c0.119,0.098,0.201,0.112,0.342-0.004c0.201-0.167,0.461-0.142,0.701-0.058c0.152,0.053,0.174,0.198,0.16,0.325
	c-0.014,0.128-0.145,0.082-0.227,0.091c-0.26,0.029-0.521,0.04-0.77,0.13c-0.371,0.134-0.543,0.422-0.5,0.832
	c0.037,0.348,0.281,0.577,0.66,0.625C12.543,20.761,12.818,20.645,13.121,20.416z M14.193,19.472c0,0.069-0.006,0.139,0,0.208
	c0.043,0.421,0.189,0.789,0.617,0.946c0.451,0.166,0.904,0.165,1.314-0.131c0.061-0.043,0.15-0.149,0.137-0.169
	c-0.082-0.13-0.236-0.186-0.354-0.282c-0.074-0.062-0.104,0.009-0.15,0.043c-0.395,0.286-0.854,0.107-0.943-0.369
	c-0.035-0.191-0.029-0.382,0.012-0.572c0.088-0.393,0.48-0.596,0.809-0.369c0.203,0.14,0.293,0.049,0.443-0.042
	c0.182-0.109,0.17-0.195,0.025-0.318c-0.57-0.489-1.6-0.217-1.838,0.49C14.203,19.089,14.182,19.279,14.193,19.472z M16.775,19.459
	c0.002,0,0.002,0,0.002,0c0,0.169-0.002,0.339,0,0.508c0.012,0.545,0.268,0.785,0.813,0.763c0.084-0.004,0.17-0.011,0.252-0.026
	c0.104-0.019,0.268-0.002,0.184-0.187c-0.053-0.116,0.076-0.387-0.25-0.298c-0.271,0.074-0.391-0.032-0.398-0.316
	c-0.008-0.285-0.004-0.57-0.004-0.855c-0.002-0.327,0-0.339,0.322-0.323c0.191,0.01,0.244-0.043,0.242-0.237
	c0-0.189-0.043-0.27-0.238-0.237c-0.061,0.01-0.123-0.003-0.186,0.003c-0.107,0.012-0.154-0.023-0.143-0.138
	c0.008-0.084-0.01-0.171,0.004-0.254c0.035-0.23-0.045-0.309-0.285-0.291c-0.313,0.023-0.314,0.005-0.314,0.321
	c0,0.069-0.006,0.14,0.002,0.208c0.016,0.122-0.031,0.174-0.152,0.152c-0.197-0.035-0.168,0.103-0.16,0.214
	c0.008,0.112-0.07,0.289,0.166,0.253c0.133-0.02,0.15,0.051,0.146,0.161C16.771,19.074,16.775,19.267,16.775,19.459z"/>
<path fill="#7ADAF9" d="M12.027,12.445c-0.416,0.003-0.789-0.017-1.164-0.037c-0.078-0.004-0.133-0.026-0.178-0.094
	c-0.443-0.644-0.836-1.316-1.172-2.022c-0.029-0.06-0.014-0.105,0.012-0.158c0.326-0.699,0.717-1.361,1.145-2.001
	c0.045-0.065,0.096-0.095,0.176-0.101c0.77-0.057,1.539-0.058,2.309-0.001c0.08,0.006,0.127,0.038,0.172,0.103
	c0.436,0.636,0.824,1.299,1.156,1.996c0.029,0.063,0.025,0.11-0.004,0.171c-0.326,0.693-0.713,1.352-1.139,1.989
	c-0.053,0.081-0.119,0.114-0.215,0.119C12.746,12.427,12.367,12.451,12.027,12.445z M13.275,10.215
	c0.002-0.703-0.566-1.276-1.268-1.279c-0.709-0.003-1.291,0.573-1.291,1.277c0,0.705,0.564,1.272,1.271,1.276
	C12.705,11.494,13.275,10.931,13.275,10.215z"/>
<path fill="#7ADAF9" d="M8.434,14.003c0.014-0.376,0.072-0.792,0.158-1.205c0.018-0.087,0.041-0.114,0.141-0.09
	c0.504,0.123,1.014,0.211,1.529,0.265c0.096,0.01,0.158,0.048,0.215,0.124c0.313,0.419,0.643,0.826,1.006,1.204
	c0.045,0.047,0.084,0.083,0.012,0.147c-0.498,0.44-1.02,0.847-1.641,1.102c-0.242,0.099-0.494,0.169-0.764,0.132
	c-0.176-0.024-0.303-0.114-0.396-0.262c-0.201-0.322-0.236-0.684-0.26-1.048C8.428,14.264,8.434,14.156,8.434,14.003z"/>
<path fill="#7ADAF9" d="M15.572,6.403c-0.021,0.421-0.078,0.836-0.168,1.249c-0.016,0.073-0.041,0.091-0.113,0.074
	c-0.527-0.132-1.064-0.216-1.604-0.277c-0.057-0.006-0.094-0.027-0.127-0.072c-0.33-0.439-0.674-0.866-1.055-1.263
	c-0.041-0.043-0.061-0.073-0.004-0.124c0.541-0.478,1.102-0.922,1.797-1.161c0.17-0.059,0.346-0.092,0.527-0.087
	c0.238,0.007,0.406,0.119,0.518,0.327c0.184,0.346,0.213,0.724,0.229,1.104C15.574,6.249,15.572,6.326,15.572,6.403z"/>
<path fill="#7ADAF9" d="M18.254,10.216c-0.012,0.139-0.064,0.265-0.145,0.38c-0.17,0.238-0.391,0.42-0.633,0.578
	c-0.473,0.307-0.984,0.526-1.52,0.698c-0.088,0.028-0.123,0.019-0.15-0.076c-0.15-0.512-0.346-1.009-0.559-1.497
	c-0.027-0.061-0.031-0.111-0.004-0.174c0.215-0.489,0.404-0.986,0.557-1.498c0.02-0.065,0.033-0.11,0.123-0.08
	c0.666,0.22,1.307,0.487,1.857,0.936c0.129,0.104,0.24,0.224,0.334,0.359C18.193,9.954,18.242,10.076,18.254,10.216z"/>
<path fill="#7ADAF9" d="M5.748,10.214c0.012-0.194,0.107-0.351,0.23-0.492c0.313-0.361,0.719-0.59,1.137-0.799
	c0.299-0.148,0.615-0.257,0.93-0.367c0.088-0.031,0.123-0.016,0.148,0.078c0.148,0.513,0.344,1.009,0.559,1.498
	c0.027,0.063,0.029,0.112,0.002,0.173c-0.215,0.489-0.404,0.986-0.555,1.499c-0.018,0.057-0.027,0.11-0.111,0.083
	c-0.744-0.248-1.465-0.539-2.037-1.1C5.891,10.629,5.766,10.449,5.748,10.214z"/>
<path fill="#7ADAF9" d="M15.58,14.191c-0.002,0.335-0.023,0.667-0.145,0.984c-0.166,0.436-0.389,0.563-0.848,0.484
	c-0.467-0.081-0.863-0.316-1.25-0.572c-0.283-0.188-0.541-0.406-0.797-0.627c-0.074-0.063-0.072-0.101-0.008-0.169
	c0.363-0.377,0.693-0.784,1.002-1.206c0.055-0.074,0.117-0.105,0.205-0.114c0.516-0.051,1.025-0.142,1.529-0.266
	c0.105-0.026,0.131,0.009,0.15,0.099C15.514,13.262,15.582,13.722,15.58,14.191z"/>
<path fill="#7ADAF9" d="M9.252,4.75c0.4,0.018,0.789,0.203,1.16,0.427c0.373,0.226,0.717,0.494,1.043,0.784
	c0.074,0.066,0.084,0.103,0.01,0.178c-0.363,0.376-0.693,0.783-1.002,1.206c-0.049,0.067-0.104,0.1-0.189,0.108
	C9.752,7.509,9.236,7.595,8.729,7.722C8.65,7.742,8.607,7.739,8.588,7.647C8.441,6.945,8.354,6.241,8.486,5.526
	c0.027-0.142,0.072-0.278,0.137-0.407C8.752,4.855,8.916,4.753,9.252,4.75z"/>
<path fill="#7ADAF9" d="M11.232,13.053c0.527,0.024,1.014,0.021,1.543,0.002c-0.119,0.146-0.215,0.268-0.316,0.385
	c-0.129,0.147-0.26,0.292-0.391,0.437c-0.029,0.034-0.057,0.074-0.109,0.019C11.713,13.635,11.479,13.366,11.232,13.053z"/>
<path fill="#7ADAF9" d="M9.918,8.131C9.633,8.57,9.398,9,9.152,9.455C9,9.099,8.891,8.757,8.785,8.413
	C8.756,8.317,8.836,8.34,8.873,8.331C9.203,8.246,9.541,8.189,9.918,8.131z"/>
<path fill="#7ADAF9" d="M14.08,12.298c0.287-0.442,0.525-0.871,0.766-1.326c0.152,0.35,0.258,0.688,0.365,1.027
	c0.02,0.064-0.008,0.083-0.061,0.095C14.807,12.171,14.463,12.247,14.08,12.298z"/>
<path fill="#7ADAF9" d="M12.766,7.379c-0.521-0.023-1.01-0.027-1.521-0.001c0.088-0.157,0.197-0.27,0.297-0.388
	c0.127-0.149,0.258-0.293,0.389-0.438c0.029-0.031,0.053-0.079,0.107-0.021C12.285,6.795,12.523,7.067,12.766,7.379z"/>
<path fill="#7ADAF9" d="M14.85,9.448c-0.246-0.445-0.477-0.877-0.771-1.31c0.334,0.034,0.631,0.098,0.926,0.163
	c0.221,0.049,0.223,0.053,0.154,0.268c-0.063,0.2-0.131,0.399-0.199,0.598C14.928,9.253,14.893,9.338,14.85,9.448z"/>
<path fill="#7ADAF9" d="M9.152,10.98c0.24,0.453,0.484,0.878,0.766,1.311c-0.379-0.041-0.725-0.122-1.072-0.198
	c-0.066-0.015-0.059-0.057-0.045-0.105C8.902,11.656,9.012,11.326,9.152,10.98z"/>
<path fill="#7ADAF9" d="M13.064,19.754c0.002,0.339-0.471,0.616-0.764,0.462c-0.094-0.049-0.135-0.131-0.133-0.226
	c0-0.137,0.053-0.257,0.182-0.322c0.199-0.097,0.416-0.111,0.629-0.115C13.137,19.551,13.029,19.697,13.064,19.754z"/>
<path fill="#7ADAF9" d="M10.08,19.198c-0.094,0-0.188-0.009-0.277,0.002c-0.229,0.026-0.219-0.083-0.154-0.243
	c0.094-0.232,0.252-0.32,0.537-0.287c0.223,0.025,0.33,0.16,0.375,0.373c0.027,0.13-0.012,0.166-0.135,0.157
	C10.311,19.192,10.195,19.198,10.08,19.198z"/>
<path fill="#7ADAF9" d="M6.795,18.457c0-0.409,0-0.409,0.402-0.406c0.076,0.001,0.154,0.003,0.23,0.009
	c0.289,0.024,0.383,0.115,0.389,0.375c0.008,0.297-0.08,0.407-0.373,0.444c-0.145,0.018-0.293,0.002-0.436,0.019
	c-0.172,0.02-0.242-0.034-0.215-0.211C6.805,18.612,6.795,18.534,6.795,18.457z"/>
</svg>
