<?xml version="1.0" encoding="utf-8"?>
<!-- Generator: Adobe Illustrator 16.0.0, SVG Export Plug-In . SVG Version: 6.00 Build 0)  -->
<!DOCTYPE svg PUBLIC "-//W3C//DTD SVG 1.1//EN" "http://www.w3.org/Graphics/SVG/1.1/DTD/svg11.dtd">
<svg version="1.1" id="Solid" xmlns="http://www.w3.org/2000/svg" xmlns:xlink="http://www.w3.org/1999/xlink" x="0px" y="0px"
	 width="24px" height="24px" viewBox="0 0 24 24" enable-background="new 0 0 24 24" xml:space="preserve">
<path fill="#9F9F9F" d="M11.99,23.859c-6.544,0-11.836-5.304-11.831-11.864C0.165,5.472,5.478,0.158,12.043,0.183
	c6.53,0.025,11.809,5.344,11.792,11.886C23.82,18.571,18.516,23.86,11.99,23.859z M10.135,15.634
	c0.438-1.231-0.196-2.208-0.653-3.231c0.119-0.048,0.225-0.085,0.326-0.135c0.96-0.473,1.934-0.922,2.875-1.43
	c0.601-0.324,0.653-0.541,0.465-1.221c-0.377-1.368-1.14-2.495-2.184-3.44c-0.068-0.062-0.156-0.102-0.259-0.168
	c-0.013,2.12-0.557,4.008-1.934,5.624c-0.274-0.243-0.507-0.449-0.694-0.615c0.364-0.754,0.773-1.445,1.037-2.188
	C9.461,7.849,9.62,6.823,9.342,5.777C9.262,5.478,9.095,5.31,8.781,5.326C7.846,5.374,6.996,5.699,6.273,6.059
	c0.23,0.731,0.537,1.396,0.63,2.09c0.095,0.709-0.02,1.446-0.042,2.134c-0.674-0.094-1.245-0.175-1.816-0.251
	c-0.297-0.04-0.542,0.079-0.663,0.339c-0.134,0.292-0.271,0.606-0.292,0.919c-0.042,0.609,0.243,0.811,0.842,0.699
	c0.89-0.165,1.743-0.068,2.514,0.434C8.65,13.204,9.582,14.219,10.135,15.634z M21.654,11.84c-0.155,0.068-0.321,0.118-0.462,0.207
	c-0.395,0.25-0.768,0.537-1.172,0.771c-0.894,0.519-1.788,1.041-2.711,1.502c-0.292,0.146-0.678,0.126-1.021,0.129
	c-0.115,0.001-0.231-0.163-0.346-0.252c0.081-0.103,0.146-0.226,0.246-0.306c0.382-0.309,0.642-0.686,0.812-1.261
	c-0.333,0.097-0.57,0.158-0.802,0.235c-0.946,0.317-1.669,0.025-2.113-0.86c-0.208-0.415-0.41-0.832-0.588-1.195
	c-0.895,0.487-1.77,0.962-2.642,1.442c-0.109,0.061-0.218,0.139-0.295,0.233c-0.188,0.232-0.224,0.516-0.006,0.72
	c0.282,0.266,0.287,0.57,0.245,0.898c-0.039,0.3-0.096,0.599-0.162,0.895c-0.066,0.298,0.035,0.513,0.273,0.689
	c1.288,0.957,2.57,1.922,3.863,2.872c0.113,0.083,0.29,0.079,0.438,0.116c-0.01-0.179,0.03-0.383-0.043-0.528
	c-0.094-0.184-0.279-0.322-0.428-0.477c-0.187-0.192-0.376-0.382-0.565-0.573c0.207,0.113,0.371,0.268,0.544,0.41
	c0.183,0.15,0.297,0.357,0.627,0.325c0.315-0.03,0.479,0.357,0.271,0.718c0.931-0.418,1.271-1.091,1.254-2.003
	c0.027,0.079,0.045,0.133,0.052,0.153c0.613-0.508,1.199-1.029,1.822-1.501c0.945-0.714,1.805-1.51,2.508-2.465
	c0.187-0.254,0.327-0.542,0.488-0.814C21.711,11.895,21.682,11.868,21.654,11.84z"/>
<path fill="#9F9F9F" d="M11.838,13.77l0.736,0.539c0.066,0.049,0.09,0.129,0.053,0.18l-0.094,0.129
	c-0.037,0.051-0.121,0.052-0.188,0.004l-0.735-0.54c-0.066-0.049-0.09-0.13-0.053-0.18l0.094-0.128
	C11.688,13.723,11.772,13.721,11.838,13.77z"/>
<path fill="#9F9F9F" d="M15.434,14.662c-0.963-0.745-1.905-0.437-2.322,0.701c-0.18,0.489-0.225,0.505-0.698,0.263
	c-0.314-0.161-0.631-0.318-0.95-0.47c-0.23-0.109-0.325-0.274-0.331-0.538c-0.009-0.408-0.067-0.814-0.108-1.26
	c0.181,0.047,0.404,0.105,0.649,0.17c-0.429,0.504-0.429,0.504,0.094,0.887c0.112,0.082,0.223,0.165,0.335,0.246
	c0.488,0.355,0.57,0.391,0.923-0.086c0.286-0.385,0.643-0.437,1.037-0.465c1.053-0.078,2.392,0.905,2.641,1.808
	C16.34,15.552,15.933,15.047,15.434,14.662z"/>
</svg>
