<?xml version="1.0" encoding="utf-8"?>
<!-- Generator: Adobe Illustrator 16.0.0, SVG Export Plug-In . SVG Version: 6.00 Build 0)  -->
<!DOCTYPE svg PUBLIC "-//W3C//DTD SVG 1.1//EN" "http://www.w3.org/Graphics/SVG/1.1/DTD/svg11.dtd">
<svg version="1.1" id="Solid" xmlns="http://www.w3.org/2000/svg" xmlns:xlink="http://www.w3.org/1999/xlink" x="0px" y="0px"
	 width="24px" height="24px" viewBox="0 0 24 24" enable-background="new 0 0 24 24" xml:space="preserve">
<path fill="#059A9A" d="M11.99,23.859c-6.544,0-11.836-5.304-11.831-11.864C0.165,5.472,5.478,0.159,12.043,0.183
	c6.53,0.024,11.809,5.345,11.792,11.886C23.82,18.571,18.516,23.86,11.99,23.859z M3.314,12.458
	c0.146,0.064,0.305,0.128,0.265,0.324c-0.037,0.184-0.198,0.217-0.36,0.23c-0.357,0.033-0.699-0.049-1.082-0.154
	c0,0.196,0,0.393,0,0.588c0.719,0.18,1.173,0.195,1.616,0.049c0.386-0.129,0.656-0.371,0.699-0.795
	c0.042-0.42-0.193-0.69-0.532-0.88c-0.25-0.14-0.516-0.249-0.771-0.381c-0.106-0.056-0.235-0.12-0.208-0.267
	c0.024-0.134,0.151-0.191,0.271-0.217c0.255-0.056,0.505,0.004,0.753,0.063c0.09,0.02,0.18,0.041,0.27,0.063
	c0-0.184,0-0.368,0-0.552c-0.353-0.067-1.066-0.172-1.442-0.047c-0.366,0.121-0.656,0.331-0.699,0.751
	c-0.042,0.409,0.147,0.707,0.499,0.896C2.825,12.254,3.072,12.352,3.314,12.458z M20.891,12.458
	c0.146,0.064,0.305,0.128,0.265,0.324c-0.037,0.184-0.198,0.217-0.36,0.23c-0.357,0.033-0.699-0.049-1.082-0.154
	c0,0.196,0,0.393,0,0.588c0.72,0.18,1.173,0.195,1.616,0.049c0.386-0.129,0.656-0.371,0.699-0.795c0.042-0.42-0.194-0.69-0.533-0.88
	c-0.25-0.14-0.516-0.249-0.771-0.381c-0.106-0.056-0.235-0.12-0.208-0.267c0.024-0.134,0.152-0.191,0.271-0.217
	c0.255-0.056,0.505,0.004,0.754,0.063c0.09,0.02,0.18,0.041,0.27,0.063c0-0.184,0-0.368,0-0.552
	c-0.353-0.067-1.066-0.172-1.442-0.047c-0.366,0.121-0.656,0.331-0.699,0.751c-0.042,0.409,0.147,0.707,0.499,0.896
	C20.401,12.254,20.648,12.352,20.891,12.458z M18.474,10.44v1.81l-1.17-1.81h-0.878v3.117h0.613v-1.988l1.107,1.988h0.944V10.44
	H18.474z M14.522,11.016h1.397v-0.555h-2.265v3.078h2.265v-0.555h-1.397v-0.709h1.173v-0.551h-1.173V11.016z M7.343,11.016h1.397
	v-0.555H6.476v3.078h2.265v-0.555H7.343v-0.709h1.173v-0.551H7.343V11.016z M11.232,13.559l0.884-2.091l0,2.091h0.85V10.46h-1.063
	l-0.79,1.885l-0.778-1.885H9.244v3.099h0.614l-0.001-1.95l0.849,1.95H11.232z M4.862,13.54h0.926v-3.082H4.862V13.54z"/>
</svg>
