<?xml version="1.0" encoding="utf-8"?>
<!-- Generator: Adobe Illustrator 16.0.0, SVG Export Plug-In . SVG Version: 6.00 Build 0)  -->
<!DOCTYPE svg PUBLIC "-//W3C//DTD SVG 1.1//EN" "http://www.w3.org/Graphics/SVG/1.1/DTD/svg11.dtd">
<svg version="1.1" id="Solid" xmlns="http://www.w3.org/2000/svg" xmlns:xlink="http://www.w3.org/1999/xlink" x="0px" y="0px"
	 width="24px" height="24px" viewBox="0 0 24 24" enable-background="new 0 0 24 24" xml:space="preserve">
<path fill="#414141" d="M15.73,5.529c-0.133-0.019-0.252-0.043-0.373-0.052c-0.805-0.063-1.439,0.285-1.977,0.845
	c-0.615,0.64-1.029,1.411-1.414,2.2c-0.316,0.648-0.582,1.32-0.926,1.955c-0.076,0.14-0.156,0.276-0.268,0.394
	c-0.17,0.177-0.287,0.182-0.457,0.007c-0.244-0.251-0.402-0.56-0.545-0.873c-0.49-1.079-0.775-2.205-0.662-3.398
	c0.104-1.08,0.572-1.924,1.635-2.34c0.617-0.242,1.26-0.288,1.912-0.222c1.133,0.117,2.121,0.565,2.963,1.337
	c0.035,0.032,0.068,0.065,0.102,0.1C15.727,5.486,15.725,5.5,15.73,5.529z M12.297,4.521c-0.117,0-0.234-0.006-0.35,0.001
	c-0.127,0.008-0.254,0.021-0.379,0.045c-0.229,0.044-0.459,0.084-0.65,0.233c-0.131,0.103-0.129,0.226,0.004,0.327
	c0.08,0.061,0.172,0.103,0.268,0.132c0.602,0.183,1.211,0.188,1.824,0.087c0.189-0.031,0.373-0.078,0.543-0.169
	c0.088-0.048,0.18-0.102,0.18-0.222c0-0.114-0.088-0.164-0.17-0.211c-0.061-0.035-0.125-0.062-0.189-0.083
	C13.025,4.547,12.664,4.51,12.297,4.521z"/>
<path fill="#414141" d="M11.99,23.859c-6.545,0-11.836-5.304-11.83-11.864C0.166,5.472,5.479,0.158,12.043,0.183
	c6.531,0.025,11.811,5.344,11.793,11.886C23.82,18.571,18.516,23.86,11.99,23.859z M9.799,18.151
	c0.004-0.146-0.117-0.273-0.264-0.279c-0.148-0.006-0.271,0.109-0.275,0.258c-0.004,0.162,0.102,0.276,0.262,0.281
	C9.674,18.415,9.795,18.302,9.799,18.151z M10.207,18.358c0,0,0,0-0.002,0c0,0.323,0,0.646,0,0.969c0,0.053,0.006,0.102,0.074,0.103
	c0.105,0.001,0.213,0.001,0.318-0.001c0.039,0,0.068-0.022,0.068-0.066c0.002-0.028,0.002-0.056,0.002-0.084
	c0.002-0.586,0-1.172,0.002-1.758c0-0.301,0.164-0.553,0.439-0.655c0.271-0.102,0.529-0.062,0.766,0.104
	c0.064,0.044,0.121,0.062,0.195,0.036c0.078-0.025,0.16-0.043,0.24-0.064c0.084-0.021,0.1-0.08,0.041-0.145
	c-0.359-0.392-0.799-0.52-1.311-0.392c-0.453,0.112-0.826,0.577-0.832,1.043C10.203,17.75,10.207,18.054,10.207,18.358z
	 M7.357,16.36C7.357,16.36,7.357,16.36,7.357,16.36c-0.057,0.001-0.115,0-0.172,0.002c-0.064,0.002-0.084,0.026-0.07,0.09
	c0.008,0.035,0.021,0.069,0.033,0.104c0.189,0.545,0.381,1.092,0.57,1.638c0.137,0.388,0.271,0.776,0.406,1.164
	c0.008,0.024,0.02,0.045,0.043,0.06c0.102,0.059,0.219,0.016,0.256-0.094c0.104-0.301,0.205-0.601,0.311-0.9
	c0.227-0.654,0.455-1.309,0.684-1.963c0.023-0.072,0.006-0.098-0.07-0.099c-0.105-0.001-0.209,0.001-0.313-0.001
	c-0.064-0.002-0.098,0.028-0.117,0.086c-0.098,0.293-0.199,0.586-0.299,0.879c-0.094,0.273-0.188,0.549-0.283,0.822
	c-0.012,0.032-0.021,0.081-0.061,0.082c-0.041,0-0.049-0.049-0.061-0.082c-0.109-0.309-0.219-0.619-0.326-0.929
	c-0.092-0.263-0.184-0.524-0.275-0.786c-0.018-0.051-0.047-0.076-0.104-0.072C7.459,16.363,7.408,16.36,7.357,16.36z M14.154,18.39
	c0-0.261,0-0.522,0-0.784c0-0.098,0.002-0.195-0.018-0.291c-0.066-0.33-0.225-0.6-0.525-0.767c-0.322-0.18-0.672-0.19-1.025-0.14
	c-0.076,0.012-0.092,0.059-0.043,0.118c0.047,0.056,0.102,0.104,0.148,0.158c0.086,0.103,0.188,0.147,0.326,0.146
	c0.436-0.009,0.641,0.306,0.67,0.652c0.006,0.081-0.016,0.102-0.1,0.102c-0.227,0.001-0.453,0.001-0.682,0.001
	c-0.072-0.001-0.143,0.005-0.215,0.019c-0.338,0.059-0.646,0.353-0.719,0.688c-0.131,0.588,0.307,1.135,0.908,1.139
	c0.387,0.002,0.773,0,1.158,0c0.098,0,0.115-0.019,0.115-0.116C14.154,19.006,14.154,18.698,14.154,18.39z M14.502,16.358
	c0,0,0,0.001,0,0.002c-0.07,0-0.141-0.002-0.211,0c-0.045,0.002-0.064,0.027-0.051,0.074c0.004,0.016,0.008,0.032,0.014,0.049
	c0.135,0.395,0.268,0.791,0.402,1.186c0.195,0.582,0.393,1.165,0.59,1.746c0.012,0.031,0.008,0.057-0.004,0.086
	c-0.17,0.422-0.338,0.843-0.504,1.264c-0.031,0.076-0.014,0.104,0.072,0.105s0.174,0,0.262,0c0.125,0,0.125,0,0.172-0.113
	c0.148-0.367,0.307-0.73,0.449-1.101c0.412-1.062,0.826-2.121,1.24-3.183c0.031-0.078,0.014-0.105-0.07-0.107
	c-0.123-0.002-0.246,0-0.369-0.001c-0.039,0-0.064,0.015-0.078,0.052c-0.021,0.055-0.045,0.109-0.066,0.165
	c-0.25,0.645-0.5,1.288-0.75,1.933c-0.016,0.037-0.021,0.098-0.07,0.096c-0.043-0.002-0.049-0.06-0.061-0.096
	c-0.172-0.515-0.344-1.029-0.516-1.543c-0.061-0.178-0.119-0.354-0.176-0.532c-0.018-0.059-0.053-0.087-0.117-0.083
	C14.607,16.361,14.555,16.358,14.502,16.358z M17.883,9.356c-0.016-3.191-2.574-5.718-5.777-5.706
	C8.975,3.663,6.371,6.234,6.422,9.45c0.047,3.072,2.563,5.631,5.775,5.615C15.334,15.049,17.898,12.474,17.883,9.356z"/>
<path fill="#414141" d="M13.23,18.963c-0.127,0-0.256,0.006-0.383-0.002c-0.172-0.012-0.318-0.084-0.391-0.248
	c-0.076-0.172-0.063-0.344,0.051-0.494c0.088-0.119,0.221-0.17,0.367-0.172c0.238-0.003,0.477-0.001,0.713,0
	c0.078,0,0.1,0.021,0.1,0.098c0.002,0.254,0,0.509,0.002,0.764c0,0.044-0.014,0.059-0.059,0.058c-0.133-0.003-0.268-0.001-0.4-0.001
	C13.23,18.964,13.23,18.963,13.23,18.963z"/>
<path fill="#414141" d="M8.859,5.286c-0.041,0.065-0.08,0.13-0.121,0.195c-0.418,0.694-0.543,1.456-0.5,2.25
	c0.082,1.528,0.561,2.917,1.51,4.13c0.176,0.227,0.389,0.422,0.662,0.534c0.309,0.128,0.572,0.021,0.809-0.176
	c0.387-0.325,0.617-0.764,0.84-1.205c0.424-0.838,0.754-1.719,1.188-2.553c0.264-0.504,0.547-0.996,0.977-1.384
	c0.283-0.256,0.607-0.423,1-0.427c0.398-0.004,0.701,0.186,0.953,0.471c0.332,0.377,0.512,0.833,0.596,1.319
	c0.273,1.6-0.109,3.029-1.209,4.229c-1.035,1.131-2.354,1.609-3.869,1.485c-2.174-0.179-3.998-1.73-4.492-3.864
	C6.756,8.366,7.299,6.706,8.729,5.34c0.029-0.028,0.066-0.051,0.098-0.077C8.838,5.271,8.848,5.278,8.859,5.286z"/>
</svg>
