<?xml version="1.0" encoding="utf-8"?>
<!-- Generator: Adobe Illustrator 16.0.0, SVG Export Plug-In . SVG Version: 6.00 Build 0)  -->
<!DOCTYPE svg PUBLIC "-//W3C//DTD SVG 1.1//EN" "http://www.w3.org/Graphics/SVG/1.1/DTD/svg11.dtd">
<svg version="1.1" id="Solid" xmlns="http://www.w3.org/2000/svg" xmlns:xlink="http://www.w3.org/1999/xlink" x="0px" y="0px"
	 width="24px" height="24px" viewBox="0 0 24 24" enable-background="new 0 0 24 24" xml:space="preserve">
<path fill="#1959BC" d="M11.99,23.859c-6.544,0-11.836-5.304-11.831-11.864C0.165,5.472,5.478,0.159,12.043,0.183
	c6.53,0.024,11.809,5.345,11.792,11.886C23.82,18.571,18.516,23.86,11.99,23.859z M8.031,7.901c0.812,0,1.624,0,2.436,0
	c0.203,0,0.406,0,0.609,0c0.086,0,0.172,0.001,0.258,0.014c0.117,0.016,0.227,0.047,0.336,0.092c0.23,0.094,0.431,0.248,0.582,0.446
	c0.146,0.191,0.239,0.417,0.272,0.654c0.019,0.136,0.014,0.272,0.014,0.408c0,0.202,0,0.405,0,0.608c0,0.858,0,1.717,0,2.574
	c0,0.43,0,0.858,0,1.287c0,0.107,0,0.215,0,0.322c0,0.054,0,0.107,0,0.16c0,0.084,0,0.166-0.009,0.248
	c-0.061,0.522-0.409,0.967-0.902,1.15c-0.109,0.04-0.22,0.066-0.335,0.079c-0.078,0.009-0.156,0.009-0.234,0.009
	c-0.101,0-0.202,0-0.304,0c-0.203,0-0.405,0-0.608,0c-0.406,0-0.811,0-1.216,0c-0.203,0-0.405,0-0.608,0c-0.051,0-0.102,0-0.152,0
	c-0.025,0-0.051,0-0.076,0c-0.013,0-0.025,0-0.038,0c-0.006,0-0.013,0-0.019,0c-0.002,0-0.004,0-0.004,0.002
	c0,0.006,0,0.011,0,0.016c0,0.01,0,0.021,0,0.031c0,0.334,0,0.67,0,1.004c0,0.064,0.003,0.128,0.021,0.191
	c0.016,0.059,0.039,0.113,0.072,0.165c0.067,0.106,0.165,0.188,0.28,0.235c0.127,0.053,0.211,0.045,0.342,0.045
	c0.125,0,0.25,0,0.375,0c2.043,0,4.086,0,6.129,0c0.501,0,1.002,0,1.503,0c0.13,0,0.259,0,0.389,0c0.064,0,0.125-0.01,0.186-0.03
	c0.131-0.044,0.244-0.132,0.318-0.249c0.036-0.057,0.062-0.117,0.077-0.184c0.022-0.094,0.016-0.188,0.016-0.281
	c0-0.37,0-0.739,0-1.109c0-0.682,0-1.364,0-2.047c0-2.043,0-4.085,0-6.127c0-0.199,0-0.396,0-0.596c0-0.059,0.003-0.197-0.003-0.257
	c-0.009-0.088-0.035-0.165-0.079-0.241c-0.091-0.154-0.245-0.26-0.422-0.288c-0.048-0.008-0.096-0.008-0.145-0.008
	c-0.085,0-0.17,0-0.255,0c-0.167,0-0.334,0-0.501,0c-1.197,0-2.394,0-3.591,0c-1.134,0-2.268,0-3.402,0c-0.224,0-0.449,0-0.673,0
	c-0.113,0-0.196,0.011-0.299,0.061c-0.1,0.049-0.185,0.124-0.244,0.218C8.065,6.598,8.036,6.69,8.031,6.8
	c-0.002,0.053,0,0.105,0,0.159c0,0.057,0,0.113,0,0.17C8.031,7.386,8.031,7.643,8.031,7.901z M11.736,9.3
	c0-0.28-0.194-0.523-0.467-0.585C11.206,8.701,11.143,8.7,11.079,8.7c-0.066,0-0.133,0-0.2,0c-0.134,0-0.267,0-0.4,0
	c-0.533,0-1.067,0-1.601,0c-1.067,0-2.134,0-3.201,0c-0.066,0-0.133,0-0.2,0c-0.064,0-0.125,0.009-0.188,0.028
	C5.156,8.77,5.042,8.858,4.966,8.976C4.929,9.034,4.903,9.094,4.887,9.163C4.872,9.225,4.871,9.288,4.871,9.352
	c0,0.133,0,0.267,0,0.4c0,0.533,0,1.066,0,1.6c0,1.067,0,2.135,0,3.201c0,0.281,0.194,0.523,0.468,0.585
	c0.063,0.015,0.126,0.015,0.19,0.015c0.067,0,0.133,0,0.2,0c0.133,0,0.267,0,0.4,0c0.534,0,1.067,0,1.601,0c1.067,0,2.134,0,3.201,0
	c0.067,0,0.134,0,0.2,0c0.064,0,0.126-0.008,0.188-0.027c0.134-0.043,0.248-0.131,0.324-0.248c0.038-0.059,0.063-0.119,0.079-0.186
	c0.015-0.063,0.016-0.127,0.016-0.19c0-0.134,0-0.267,0-0.399c0-0.534,0-1.067,0-1.602C11.736,11.434,11.736,10.368,11.736,9.3z"/>
<polygon fill="#1959BC" points="7.268,12.603 7.842,10.1 8.737,10.1 9.311,12.603 9.885,10.1 10.551,10.1 9.734,13.665 
	8.888,13.665 8.29,11.053 7.691,13.665 6.846,13.665 6.028,10.1 6.694,10.1 "/>
</svg>
