<?xml version="1.0" encoding="utf-8"?>
<!DOCTYPE svg PUBLIC "-//W3C//DTD SVG 1.1//EN" "http://www.w3.org/Graphics/SVG/1.1/DTD/svg11.dtd">
<svg version="1.1" id="Solid" xmlns="http://www.w3.org/2000/svg" xmlns:xlink="http://www.w3.org/1999/xlink" x="0px" y="0px"
	 width="24px" height="24px" viewBox="0 0 24 24" enable-background="new 0 0 24 24" xml:space="preserve">
<path d="M21.6,12c0,1.211-0.229,2.408-0.674,3.533c-0.483,1.221-1.21,2.327-2.138,3.255s-2.035,1.655-3.255,2.138
	C14.408,21.371,13.21,21.6,12,21.6c-1.21,0-2.407-0.229-3.533-0.674c-1.219-0.482-2.326-1.21-3.254-2.137
	c-0.928-0.928-1.655-2.035-2.139-3.256C2.628,14.408,2.4,13.211,2.4,12s0.229-2.408,0.674-3.533
	c0.482-1.221,1.211-2.328,2.138-3.255c0.928-0.928,2.035-1.655,3.255-2.138C9.591,2.629,10.79,2.4,12,2.4
	c1.211,0,2.408,0.229,3.534,0.674c1.22,0.482,2.327,1.21,3.255,2.137c0.928,0.928,1.654,2.035,2.137,3.256
	C21.372,9.592,21.6,10.789,21.6,12z M11.136,12.389c0,1.271,0,2.541,0,3.811c0,0.159,0,0.318,0,0.477c0,0.006,0,0.01,0,0.016
	c0,0.002,0,0.004,0,0.007s0.002,0.003,0.005,0.003c0.01,0,0.021,0,0.03,0c0.02,0,0.039,0,0.059,0c0.04,0,0.08,0,0.119,0
	c0.08,0,0.159,0,0.238,0c0.318,0,0.635,0,0.953,0c0.079,0,0.158,0,0.238,0c0.02,0,0.039,0,0.059,0c0.006,0,0.011,0,0.016,0
	c0.004,0,0.011,0.004,0.011-0.004c0-0.01,0-0.02,0-0.03c0-0.04,0-0.079,0-0.119c0-0.159,0-0.317,0-0.476c0-0.318,0-0.636,0-0.953
	c0-0.635,0-1.27,0-1.905c0-0.159,0-0.317,0-0.476c0-0.08,0-0.16,0-0.238c0-0.021,0-0.041,0-0.061c0-0.01,0-0.02,0-0.029
	c0-0.005,0-0.01,0-0.016c0-0.008,0.002-0.006,0.009-0.006c0.04,0,0.08,0,0.119,0c0.318,0,0.635,0,0.953,0c0.079,0,0.158,0,0.238,0
	c0.039,0,0.078,0,0.119,0c0.002,0,0.004,0,0.007,0c0.004,0,0.002-0.003,0.003-0.005c0-0.005,0-0.011,0.002-0.015
	c0-0.01,0.002-0.02,0.003-0.029c0.002-0.021,0.005-0.04,0.007-0.06c0.018-0.158,0.036-0.315,0.055-0.474
	c0.037-0.314,0.072-0.631,0.109-0.946c0.005-0.039,0.01-0.079,0.014-0.118c0-0.002-0.002-0.001-0.002-0.001
	c-0.002,0-0.003,0-0.004,0c-0.003,0-0.006,0-0.008,0c-0.005,0-0.01,0-0.016,0c-0.01,0-0.02,0-0.029,0c-0.02,0-0.039,0-0.059,0
	c-0.08,0-0.16,0-0.238,0c-0.159,0-0.318,0-0.477,0c-0.159,0-0.318,0-0.477,0c-0.08,0-0.158,0-0.238,0c-0.02,0-0.039,0-0.06,0
	c-0.01,0-0.021,0-0.03,0c-0.004,0-0.001-0.004-0.001-0.006c0-0.003,0-0.005,0-0.007c0-0.006,0-0.011,0-0.016
	c0-0.039,0-0.079,0-0.119c0-0.317,0-0.635,0-0.953c0-0.039,0-0.078,0-0.119c0-0.038-0.001-0.077,0.001-0.116
	c0.002-0.081,0.021-0.151,0.059-0.224C13,9.033,13.14,8.93,13.304,8.901c0.064-0.011,0.168-0.009,0.23-0.009c0.08,0,0.159,0,0.238,0
	c0.159,0,0.318,0,0.477,0c0.08,0,0.158,0,0.238,0c0.02,0,0.039,0,0.06,0c0.003,0,0.005,0,0.007,0s0.003,0,0.004,0
	c0.002,0,0-0.002,0-0.003c0-0.005,0-0.01,0-0.015c0-0.01,0-0.02,0-0.03c0-0.04,0-0.079,0-0.119c0-0.159,0-0.317,0-0.476
	s0-0.316,0-0.475c0-0.079,0-0.158,0-0.236c0-0.04,0-0.08,0-0.119c0-0.02,0-0.039,0-0.06c0-0.002,0.002-0.005-0.002-0.005
	c-0.002,0-0.005,0-0.008-0.001c-0.004-0.001-0.01-0.001-0.014-0.001c-0.01-0.002-0.02-0.003-0.03-0.004
	c-0.315-0.033-0.63-0.053-0.947-0.051c-0.241,0.002-0.708,0.024-0.946,0.076c-0.32,0.069-0.6,0.234-0.834,0.455
	c-0.229,0.216-0.383,0.455-0.496,0.746c-0.05,0.131-0.1,0.303-0.119,0.441c-0.017,0.125-0.021,0.25-0.023,0.376
	c-0.002,0.093-0.002,0.186-0.002,0.278c0,0.299,0,0.598,0,0.897c0,0.037,0,0.075,0,0.112c0,0.019,0,0.037,0,0.056
	c0,0.001,0,0.003,0,0.003c0,0.002-0.002,0.001-0.003,0.001c-0.003,0-0.005,0-0.007,0c-0.005,0-0.01,0-0.014,0
	c-0.01,0-0.02,0-0.029,0c-0.074,0-0.148,0-0.224,0c-0.149,0-0.299,0-0.448,0c-0.159,0-0.318,0-0.477,0c-0.08,0-0.158,0-0.238,0
	c-0.001,0-0.002,0-0.004,0s0,0.002,0,0.003c0,0.002,0,0.006,0,0.008c0,0.005,0,0.01,0,0.015c0,0.01,0,0.021,0,0.03
	c0,0.02,0,0.039,0,0.059c0,0.04,0,0.08,0,0.119c0,0.318,0,0.635,0,0.953c0,0.08,0,0.158,0,0.238c0,0.039,0,0.079,0,0.119
	c0,0.02,0,0.039,0,0.06c0,0.01,0,0.02,0,0.029c0,0.005,0,0.011,0,0.015c0,0.003,0.002,0,0.004,0c0,0,0.002,0,0.003,0
	c0.003,0,0.005,0,0.007,0c0.159,0,0.318,0,0.477,0C10.501,12.389,10.819,12.389,11.136,12.389z"/>
</svg>
