<?xml version="1.0" encoding="utf-8"?>
<!DOCTYPE svg PUBLIC "-//W3C//DTD SVG 1.1//EN" "http://www.w3.org/Graphics/SVG/1.1/DTD/svg11.dtd">
<svg version="1.1" id="Solid" xmlns="http://www.w3.org/2000/svg" xmlns:xlink="http://www.w3.org/1999/xlink" x="0px" y="0px"
	 width="24px" height="24px" viewBox="0 0 24 24" enable-background="new 0 0 24 24" xml:space="preserve">
<path d="M21.601,12c0,1.211-0.229,2.408-0.674,3.533c-0.483,1.22-1.21,2.327-2.138,3.255s-2.035,1.655-3.255,2.138
	C14.408,21.371,13.211,21.6,12,21.6c-1.21,0-2.407-0.229-3.533-0.674c-1.219-0.482-2.326-1.21-3.254-2.137
	c-0.928-0.928-1.655-2.035-2.139-3.256C2.629,14.408,2.4,13.211,2.4,12s0.229-2.408,0.674-3.533C3.557,7.246,4.285,6.14,5.212,5.212
	C6.14,4.284,7.247,3.557,8.467,3.074C9.592,2.629,10.79,2.4,12,2.4c1.211,0,2.408,0.229,3.534,0.674
	c1.22,0.482,2.327,1.21,3.255,2.137c0.928,0.928,1.654,2.035,2.137,3.256C21.372,9.592,21.601,10.789,21.601,12z M10.557,16.047
	c-0.171,0.034-0.342,0.059-0.518,0.065c-0.154,0.006-0.373-0.003-0.527-0.032c-0.34-0.065-0.654-0.287-0.821-0.594
	c-0.042-0.077-0.071-0.159-0.106-0.239c-0.035-0.081-0.074-0.159-0.115-0.237c-0.088-0.163-0.164-0.289-0.316-0.407
	c-0.049-0.038-0.168-0.114-0.219-0.149C7.91,14.438,7.84,14.395,7.82,14.371c-0.023-0.027-0.032-0.072-0.012-0.105
	c0.021-0.033,0.092-0.043,0.122-0.049c0.044-0.008,0.087-0.012,0.132-0.013c0.087-0.001,0.172,0.007,0.257,0.024
	c0.087,0.018,0.167,0.045,0.243,0.094c0.083,0.054,0.125,0.105,0.187,0.182c0.056,0.068,0.11,0.138,0.163,0.209
	c0.053,0.07,0.101,0.145,0.151,0.217c0.198,0.283,0.53,0.478,0.882,0.488c0.17,0.005,0.357-0.03,0.516-0.092
	c0.021-0.008,0.041-0.016,0.061-0.025c0.01-0.004,0.02-0.008,0.03-0.013c0.003-0.001,0.003-0.013,0.003-0.015
	c0-0.006,0.001-0.012,0.002-0.017c0.005-0.044,0.012-0.086,0.02-0.129c0.018-0.086,0.042-0.169,0.073-0.251
	c0.03-0.083,0.065-0.162,0.118-0.234c0.026-0.035,0.055-0.066,0.087-0.096c0.016-0.016,0.032-0.029,0.049-0.044
	c0.009-0.007,0.017-0.015,0.024-0.021c0.005-0.003,0.009-0.007,0.014-0.011c0.002-0.001,0.004-0.003,0.006-0.005
	c0.002-0.001-0.002-0.001-0.004-0.001c0,0-0.002,0-0.004,0c-0.174-0.016-0.347-0.039-0.52-0.068
	c-0.172-0.03-0.342-0.068-0.508-0.125c-0.165-0.056-0.322-0.127-0.475-0.213c-0.314-0.178-0.561-0.388-0.754-0.701
	c-0.172-0.281-0.304-0.665-0.368-0.984c-0.067-0.336-0.095-0.716-0.035-1.059c0.062-0.35,0.201-0.664,0.407-0.951
	c0.051-0.07,0.105-0.137,0.163-0.202c0.015-0.016,0.028-0.032,0.044-0.048c0.002-0.002,0.003-0.003,0.002-0.006
	c0-0.003-0.002-0.006-0.002-0.008c-0.002-0.006-0.003-0.011-0.004-0.016c-0.003-0.011-0.006-0.021-0.008-0.032
	c-0.01-0.042-0.02-0.085-0.027-0.128C8.822,9.75,8.807,9.576,8.807,9.398c0.002-0.175,0.02-0.345,0.057-0.516
	c0.018-0.084,0.041-0.168,0.068-0.25c0.006-0.021,0.014-0.041,0.021-0.062C8.953,8.569,8.959,8.57,8.959,8.57
	c0.004,0.001,0.006,0.001,0.009,0.001c0.005,0.001,0.011,0.001,0.017,0.001c0.01,0,0.021,0.002,0.031,0.002
	C9.06,8.577,9.103,8.582,9.145,8.587c0.35,0.042,0.683,0.159,0.986,0.333c0.152,0.088,0.293,0.188,0.424,0.304
	c0.002,0.002,0.004,0.005,0.008,0.004c0.002-0.001,0.004-0.001,0.008-0.002c0.005-0.001,0.01-0.003,0.016-0.005
	c0.01-0.002,0.021-0.006,0.031-0.008c0.021-0.006,0.043-0.012,0.063-0.016c0.042-0.012,0.085-0.021,0.128-0.031
	c0.085-0.018,0.17-0.035,0.256-0.049c0.173-0.029,0.346-0.049,0.52-0.064c0.086-0.009,0.174-0.016,0.26-0.021
	c0.043-0.002,0.087-0.005,0.131-0.007c0.043-0.003,0.086,0.001,0.13,0.004c0.33,0.02,0.712,0.06,1.036,0.127
	c0.086,0.019,0.171,0.038,0.256,0.061c0.01,0.003,0.021,0.006,0.031,0.009c0.002,0,0.013,0.004,0.016,0.002
	c0.004-0.004,0.008-0.008,0.012-0.011c0.017-0.015,0.033-0.028,0.05-0.042c0.034-0.027,0.067-0.055,0.103-0.08
	c0.143-0.106,0.291-0.195,0.45-0.271c0.16-0.076,0.323-0.137,0.496-0.18c0.084-0.021,0.169-0.037,0.255-0.05
	c0.043-0.006,0.086-0.011,0.129-0.015c0.021-0.002,0.043-0.004,0.064-0.005c0.011-0.001,0.021-0.001,0.033-0.002
	c0.002,0,0.014-0.003,0.014,0.001c0.002,0.006,0.004,0.011,0.006,0.016c0.116,0.334,0.158,0.678,0.131,1.03
	c-0.006,0.089-0.018,0.177-0.032,0.265c-0.007,0.043-0.017,0.086-0.025,0.129c-0.005,0.021-0.01,0.042-0.015,0.063
	c-0.003,0.012-0.006,0.021-0.009,0.032c-0.002,0.007,0.004,0.009,0.007,0.013c0.004,0.004,0.008,0.008,0.012,0.012
	c0.12,0.13,0.223,0.27,0.313,0.421c0.182,0.305,0.287,0.634,0.313,0.987c0.024,0.336-0.026,0.732-0.115,1.055
	c-0.046,0.17-0.104,0.334-0.177,0.494c-0.071,0.161-0.155,0.311-0.265,0.45c-0.221,0.28-0.508,0.475-0.824,0.622
	c-0.342,0.158-0.637,0.219-1.004,0.27c-0.086,0.012-0.172,0.022-0.258,0.031c-0.012,0.001-0.021,0.002-0.033,0.003
	c-0.005,0.001-0.01,0.001-0.016,0.001c-0.008,0.001,0.004,0.007,0.007,0.01c0.017,0.014,0.033,0.027,0.05,0.042
	c0.033,0.028,0.064,0.058,0.092,0.091c0.058,0.068,0.096,0.144,0.129,0.225c0.033,0.082,0.061,0.164,0.08,0.249
	c0.048,0.204,0.04,0.31,0.035,0.517c-0.004,0.173-0.005,0.346-0.006,0.52c0,0.172,0.002,0.346,0.004,0.518
	c0,0.077,0.003,0.442,0.002,0.52c-0.003,0.095,0.065,0.169,0.134,0.219c0.071,0.053,0.153,0.074,0.241,0.07
	c0.074-0.003,0.205-0.035,0.275-0.057c0.085-0.025,0.166-0.061,0.246-0.098c1.348-0.6,2.412-1.694,2.977-3.057
	c0.518-1.25,0.578-2.64,0.174-3.93C17.057,8.903,16.1,7.724,14.82,7.006c-1.188-0.666-2.565-0.891-3.901-0.635
	C9.496,6.644,8.229,7.44,7.368,8.605c-0.819,1.109-1.214,2.47-1.112,3.846c0.104,1.398,0.71,2.707,1.711,3.689
	c0.512,0.502,1.111,0.903,1.77,1.185c0.098,0.042,0.15,0.062,0.254,0.086c0.045,0.011,0.092,0.021,0.139,0.028
	c0.045,0.006,0.088,0.007,0.133,0c0.088-0.016,0.159-0.059,0.219-0.123c0.085-0.09,0.07-0.131,0.07-0.241
	C10.554,16.732,10.559,16.391,10.557,16.047z"/>
</svg>
