<?xml version="1.0" encoding="utf-8"?>
<!DOCTYPE svg PUBLIC "-//W3C//DTD SVG 1.1//EN" "http://www.w3.org/Graphics/SVG/1.1/DTD/svg11.dtd">
<svg version="1.1" id="Solid" xmlns="http://www.w3.org/2000/svg" xmlns:xlink="http://www.w3.org/1999/xlink" x="0px" y="0px"
	 width="24px" height="24px" viewBox="0 0 24 24" enable-background="new 0 0 24 24" xml:space="preserve">
<path d="M21.6,12c0,1.211-0.229,2.408-0.674,3.533c-0.483,1.221-1.21,2.327-2.138,3.255c-0.928,0.928-2.035,1.655-3.255,2.138
	C14.408,21.371,13.211,21.6,12,21.6c-1.21,0-2.408-0.229-3.534-0.674c-1.219-0.482-2.327-1.21-3.254-2.137
	c-0.927-0.928-1.655-2.035-2.138-3.256C2.628,14.408,2.4,13.211,2.4,12s0.229-2.408,0.674-3.533c0.482-1.221,1.21-2.328,2.137-3.255
	c0.928-0.928,2.035-1.655,3.255-2.138C9.592,2.629,10.79,2.4,12,2.4s2.408,0.229,3.534,0.674c1.22,0.482,2.327,1.21,3.254,2.137
	c0.928,0.928,1.655,2.035,2.138,3.256C21.372,9.592,21.6,10.789,21.6,12z M6.853,9.667c0,1.462,0,2.924,0,4.386
	c0,0.166-0.004,0.331,0.009,0.497c0.007,0.081,0.017,0.161,0.032,0.241c0.03,0.168,0.075,0.33,0.137,0.489
	c0.13,0.334,0.327,0.638,0.58,0.893c0.492,0.496,1.158,0.773,1.856,0.773c1.462,0,2.924,0,4.386,0c0.167,0,0.333,0.005,0.5-0.009
	c0.178-0.016,0.35-0.048,0.521-0.098c0.365-0.108,0.702-0.295,0.987-0.547c0.563-0.496,0.885-1.209,0.885-1.96
	c0-1.462,0-2.924,0-4.386c0-0.166,0.005-0.331-0.009-0.497c-0.006-0.081-0.017-0.161-0.031-0.241
	c-0.03-0.168-0.075-0.33-0.137-0.489c-0.13-0.334-0.328-0.638-0.58-0.894c-0.491-0.495-1.158-0.772-1.856-0.772
	c-1.462,0-2.923,0-4.385,0c-0.166,0-0.331-0.005-0.497,0.009C9.168,7.069,9.088,7.08,9.008,7.094C8.84,7.124,8.678,7.17,8.519,7.231
	c-0.334,0.13-0.638,0.327-0.893,0.58C7.13,8.303,6.853,8.969,6.853,9.667z"/>
<circle cx="14.446" cy="9.365" r="0.622"/>
<circle cx="11.799" cy="12" r="2.069"/>
</svg>
