<?xml version="1.0" encoding="utf-8"?>
<!DOCTYPE svg PUBLIC "-//W3C//DTD SVG 1.1//EN" "http://www.w3.org/Graphics/SVG/1.1/DTD/svg11.dtd">
<svg version="1.1" id="Solid" xmlns="http://www.w3.org/2000/svg" xmlns:xlink="http://www.w3.org/1999/xlink" x="0px" y="0px"
	 width="24px" height="24px" viewBox="0 0 24 24" enable-background="new 0 0 24 24" xml:space="preserve">
<path d="M21.6,12c0,1.21-0.229,2.408-0.674,3.534c-0.482,1.22-1.209,2.327-2.137,3.254s-2.035,1.655-3.256,2.138
	C14.408,21.372,13.211,21.6,12,21.6s-2.408-0.229-3.533-0.674c-1.219-0.482-2.326-1.21-3.254-2.137
	c-0.928-0.928-1.656-2.035-2.139-3.255C2.629,14.408,2.4,13.211,2.4,12c0-1.21,0.229-2.408,0.674-3.534
	c0.482-1.22,1.211-2.327,2.137-3.254c0.928-0.928,2.035-1.655,3.256-2.138C9.592,2.628,10.789,2.4,12,2.4s2.408,0.229,3.533,0.674
	c1.221,0.482,2.328,1.21,3.256,2.137c0.928,0.928,1.654,2.035,2.137,3.255C21.371,9.592,21.6,10.789,21.6,12z M9.924,9.093
	c0-0.244-0.105-0.471-0.283-0.635S9.227,8.207,8.986,8.207S8.512,8.294,8.334,8.458c-0.18,0.164-0.285,0.391-0.285,0.635
	c0,0.245,0.105,0.471,0.285,0.635c0.178,0.164,0.412,0.25,0.652,0.25s0.477-0.087,0.654-0.25C9.818,9.564,9.924,9.337,9.924,9.093z
	 M8.152,15.793h1.67v-5.107h-1.67V15.793z M14.281,13.04c0,0.582,0,1.164,0,1.745c0,0.291,0,0.582,0,0.873c0,0.036,0,0.073,0,0.109
	c0,0.005,0,0.009,0,0.014c0,0.002,0,0.004,0,0.007c0,0.002-0.002,0.006,0.002,0.006c0.008,0,0.018,0,0.027,0
	c0.018,0,0.035,0,0.055,0c0.072,0,0.145,0,0.217,0c0.146,0,0.291,0,0.438,0c0.289,0,0.58,0,0.871,0c0.02,0,0.037,0,0.055,0
	c0.002,0,0.006,0.002,0.006-0.001c0-0.002,0-0.004,0-0.007c0-0.004,0-0.009,0-0.013c0-0.009,0-0.019,0-0.027
	c0-0.037,0-0.073,0-0.109c0-0.073,0-0.146,0-0.218c0-0.146,0-0.291,0-0.437c0-0.582,0-1.163,0-1.745c0-0.144,0-0.288,0-0.432
	c0-0.175,0.006-0.257-0.018-0.433c-0.037-0.294-0.119-0.56-0.256-0.824c-0.137-0.267-0.301-0.483-0.553-0.656
	c-0.246-0.168-0.539-0.262-0.83-0.302c-0.303-0.042-0.584-0.021-0.879,0.06c-0.287,0.079-0.525,0.23-0.713,0.464
	c-0.045,0.057-0.088,0.117-0.131,0.177c-0.021,0.03-0.041,0.06-0.063,0.09c-0.01,0.015-0.02,0.031-0.029,0.046
	c-0.006,0.007-0.01,0.015-0.016,0.023c0,0.001-0.002,0.001-0.002,0.002c0,0.002,0-0.002,0-0.003c0-0.002,0-0.004,0-0.007
	c0-0.004,0-0.009,0-0.014c0-0.144,0-0.289,0-0.433c0-0.072,0-0.145,0-0.216c0-0.018,0-0.036,0-0.054c0-0.009,0-0.018,0-0.027
	c0-0.002,0-0.005,0-0.007s0.002-0.006,0-0.006c-0.006,0-0.01,0-0.014,0c-0.037,0-0.072,0-0.109,0c-0.145,0-0.287,0-0.432,0
	c-0.291,0-0.582,0-0.873,0c-0.072,0-0.145,0-0.219,0c-0.004,0-0.008,0-0.014,0c-0.004,0-0.01-0.003-0.01,0.003
	c0,0.009,0,0.018,0,0.027c0,0.018,0,0.036,0,0.055c0,0.036,0,0.072,0,0.109c0,0.146,0,0.291,0,0.436c0,0.582,0,1.164,0,1.745
	s0,1.164,0,1.745c0,0.291,0,0.582,0,0.873c0,0.036,0,0.073,0,0.109c0,0.002-0.002,0.005,0.002,0.005c0.002,0,0.004,0,0.006,0
	c0.006,0,0.01,0,0.014,0c0.01,0,0.02,0,0.027,0c0.02,0,0.037,0,0.055,0c0.072,0,0.146,0,0.219,0c0.145,0,0.291,0,0.436,0
	c0.291,0,0.582,0,0.873,0c0.01,0,0.018,0,0.027,0c0.002,0,0.004,0,0.006,0s0.006,0.002,0.006-0.002c0-0.004,0-0.009,0-0.013
	c0-0.019,0-0.037,0-0.055c0-0.037,0-0.073,0-0.109c0-0.072,0-0.145,0-0.218c0-0.146,0-0.291,0-0.437c0-0.582,0-1.163,0-1.745
	c0-0.071,0-0.143,0-0.213c0-0.071,0.002-0.142,0.01-0.213c0.016-0.133,0.053-0.286,0.117-0.406c0.131-0.245,0.422-0.461,0.703-0.495
	c0.148-0.018,0.291,0.01,0.428,0.068c0.135,0.058,0.26,0.141,0.354,0.257c0.094,0.118,0.139,0.243,0.164,0.388
	c0.014,0.074,0.023,0.148,0.031,0.222C14.275,12.896,14.281,12.967,14.281,13.04z"/>
</svg>
