<?xml version="1.0" encoding="utf-8"?>
<!DOCTYPE svg PUBLIC "-//W3C//DTD SVG 1.1//EN" "http://www.w3.org/Graphics/SVG/1.1/DTD/svg11.dtd">
<svg version="1.1" id="Solid" xmlns="http://www.w3.org/2000/svg" xmlns:xlink="http://www.w3.org/1999/xlink" x="0px" y="0px"
	 width="24px" height="24px" viewBox="0 0 24 24" enable-background="new 0 0 24 24" xml:space="preserve">
<polygon points="10.979,10.398 13.578,12.008 10.979,13.617 "/>
<path d="M21.6,12c0,1.21-0.229,2.408-0.674,3.534c-0.482,1.22-1.209,2.327-2.137,3.254s-2.035,1.655-3.256,2.138
	C14.408,21.372,13.211,21.6,12,21.6s-2.408-0.229-3.533-0.674c-1.219-0.482-2.326-1.21-3.254-2.137
	c-0.928-0.928-1.656-2.035-2.139-3.255C2.629,14.408,2.4,13.211,2.4,12c0-1.21,0.229-2.408,0.674-3.534
	c0.482-1.22,1.211-2.327,2.137-3.254c0.928-0.928,2.035-1.655,3.256-2.138C9.592,2.628,10.789,2.4,12,2.4s2.408,0.229,3.533,0.674
	c1.221,0.482,2.328,1.21,3.256,2.137c0.928,0.928,1.654,2.035,2.137,3.255C21.371,9.592,21.6,10.789,21.6,12z M6.973,9.954
	c-0.199,1.279-0.211,2.58-0.035,3.862c0.021,0.156,0.041,0.311,0.09,0.463c0.051,0.158,0.121,0.299,0.219,0.433
	c0.195,0.27,0.473,0.468,0.791,0.567c0.166,0.051,0.293,0.061,0.465,0.081c0.158,0.019,0.32,0.036,0.48,0.052
	c0.32,0.032,0.643,0.06,0.965,0.082c1.293,0.088,2.58,0.093,3.875,0.015c0.322-0.02,0.645-0.044,0.965-0.074
	c0.184-0.017,0.775-0.077,0.959-0.105c0.66-0.102,1.18-0.621,1.283-1.282c0.197-1.279,0.209-2.58,0.033-3.862
	c-0.021-0.156-0.041-0.311-0.088-0.463c-0.051-0.158-0.123-0.299-0.221-0.433c-0.195-0.27-0.473-0.468-0.791-0.567
	C15.797,8.67,15.67,8.661,15.5,8.641c-0.16-0.019-0.32-0.036-0.48-0.052c-0.322-0.032-0.645-0.06-0.967-0.082
	c-1.293-0.088-2.58-0.093-3.875-0.015c-0.322,0.02-0.643,0.044-0.965,0.074C9.029,8.583,8.438,8.643,8.256,8.671
	C7.594,8.773,7.074,9.292,6.973,9.954z"/>
</svg>
