<?xml version="1.0" encoding="utf-8"?>
<!-- Generator: Adobe Illustrator 16.0.0, SVG Export Plug-In . SVG Version: 6.00 Build 0)  -->
<!DOCTYPE svg PUBLIC "-//W3C//DTD SVG 1.1//EN" "http://www.w3.org/Graphics/SVG/1.1/DTD/svg11.dtd">
<svg version="1.1" xmlns="http://www.w3.org/2000/svg" xmlns:xlink="http://www.w3.org/1999/xlink" x="0px" y="0px" width="1000px"
	 height="1000px" viewBox="0 0 1000 1000" enable-background="new 0 0 1000 1000" xml:space="preserve">
<g id="BgDark" display="none">
	<linearGradient id="SVGID_1_" gradientUnits="userSpaceOnUse" x1="-70.4282" y1="600.582" x2="1070.4282" y2="399.4182">
		<stop  offset="0" style="stop-color:#323232"/>
		<stop  offset="1" style="stop-color:#1E1E1E"/>
	</linearGradient>
	<rect display="inline" fill="url(#SVGID_1_)" width="1000" height="1000"/>
</g>
<g id="BgLight" display="none">
	<linearGradient id="SVGID_2_" gradientUnits="userSpaceOnUse" x1="4.882813e-004" y1="9.765625e-004" x2="1000" y2="1000.0005">
		<stop  offset="0" style="stop-color:#F5F5F5"/>
		<stop  offset="1" style="stop-color:#BFBFBF"/>
	</linearGradient>
	<rect y="0" display="inline" fill="url(#SVGID_2_)" width="1000" height="1000"/>
</g>
<g id="Logo2" display="none">
	<path display="inline" d="M732.022,476.391c-97.125,45.421-258.176,131.822-300.935,105.799
		c-21.443-13.044-13.248-54.158,11.614-176.076c-44.119,47.874-84.007,125.126-119.936,233.517
		c-22.676-138.443,3.552-311.862,25.269-393.957c-68.568,83.943-167.88,410.484-167.88,596.54
		c-41.253-136.397-76.497-307.969-102.724-492.38c-10.928,19.328-32.238,60.104-41.253,139.333
		C32.492,388.216,49.152,333.372,79.75,266.508c41.12,170.065,71.718,306.393,90.842,428.177
		c-1.366-85.785,69.939-411.582,226.757-561.569c-37.155,193.77-47.397,296.697-51.362,373.124
		c15.573-31.145,41.253-90.633,133.05-183.522c-32.238,183.591-40.3,213.51-31.279,228.053
		C465.651,579.8,551.437,547.016,732.022,476.391z"/>
	<path display="inline" d="M826.277,514.64c-1.501,5.399-7.104,8.607-12.567,7.103c-5.325-1.43-8.47-7.034-7.104-12.428
		c1.5-5.395,7.104-8.603,12.567-7.104C824.499,503.646,827.644,509.244,826.277,514.64z"/>
	<g display="inline">
		<text transform="matrix(1 0 0 1 272.0581 840.7793)" font-family="'BebasKai'" font-size="125.8914">VICTOR MARTINEZ</text>
	</g>
</g>
<g id="Logo2_Kopie">
	<path d="M863.524,494.617c-117.344,54.875-311.921,159.264-363.58,127.823c-25.908-15.76-16.006-65.432,14.031-212.729
		c-53.304,57.84-101.495,151.174-144.903,282.127c-27.396-167.262,4.291-376.782,30.529-475.966
		C316.759,317.29,196.774,711.807,196.774,936.594c-49.841-164.791-92.421-372.078-124.108-594.879
		c-13.203,23.351-38.949,72.616-49.841,168.338C18.372,388.087,38.5,321.826,75.468,241.042
		c49.68,205.468,86.648,370.174,109.753,517.311c-1.65-103.643,84.499-497.261,273.962-678.472
		c-44.89,234.107-57.264,358.461-62.054,450.798c18.815-37.628,49.841-109.501,160.747-221.727
		c-38.949,221.811-48.689,257.957-37.791,275.527C541.702,619.553,645.346,579.943,863.524,494.617z"/>
	<path d="M977.4,540.828c-1.813,6.523-8.582,10.398-15.184,8.58c-6.434-1.727-10.232-8.498-8.582-15.014
		c1.813-6.518,8.582-10.393,15.184-8.582C975.252,527.547,979.051,534.309,977.4,540.828z"/>
</g>
</svg>
