<?xml version="1.0" standalone="no"?>
<!DOCTYPE svg PUBLIC "-//W3C//DTD SVG 1.1//EN" "http://www.w3.org/Graphics/SVG/1.1/DTD/svg11.dtd" >
<svg xmlns="http://www.w3.org/2000/svg" xmlns:xlink="http://www.w3.org/1999/xlink" version="1.1">
<metadata>
Created by FontForge 20170731 at Thu Feb 25 08:20:55 2021
 By Aleksey,,,
Copyright (c) 2021, Vuxal
</metadata>
<defs>
<font id="Signux" horiz-adv-x="700" >
  <font-face 
    font-family="Signux"
    font-weight="400"
    font-stretch="normal"
    units-per-em="1000"
    panose-1="2 0 5 3 0 0 0 0 0 0"
    ascent="800"
    descent="-200"
    x-height="550"
    cap-height="550"
    bbox="-1.5 -44 1000.33 779"
    underline-thickness="50"
    underline-position="-150"
    unicode-range="U+0020-00FF"
  />
<missing-glyph horiz-adv-x="364" 
d="M33 0v666h265v-666h-265zM66 33h199v600h-199v-600z" />
    <glyph glyph-name=".notdef" horiz-adv-x="364" 
d="M33 0v666h265v-666h-265zM66 33h199v600h-199v-600z" />
    <glyph glyph-name=".null" horiz-adv-x="0" 
 />
    <glyph glyph-name="nonmarkingreturn" horiz-adv-x="333" 
 />
    <glyph glyph-name="space" unicode=" " horiz-adv-x="300" 
 />
    <glyph glyph-name="exclam" unicode="!" horiz-adv-x="300" 
d="M96 98.5q0 5.5 1 10.5t3 10q1 2 2.5 4.5t3.5 4.5l4 6q5 4 11 7q5 2 11 4q3 1 6.5 1.5t7.5 0.5h7q8 0 15 -2l10 -4q6 -3 11 -7q3 -3 5 -6q3 -4 5 -9t3 -10t1 -10.5t-1 -10.5q-1 -6 -3 -11q-1 -2 -2.5 -4.5t-2.5 -4.5q-2 -3 -5 -5q-5 -5 -11 -8q-5 -2 -10 -3
q-4 -1 -7.5 -1.5t-7.5 -0.5h-7q-7 0 -14 2q-6 1 -11 3q-6 3 -11 8q-2 2 -4 5q-4 4 -6 9t-3 11q-1 5 -1 10.5zM96 185v365h107v-365h-107z" />
    <glyph glyph-name="quotedbl" unicode="&#x22;" horiz-adv-x="400" 
d="M321 550l-26 -240h-54l-26 240h106zM77 550h106l-26 -240h-54z" />
    <glyph glyph-name="numbersign" unicode="#" 
d="M203 460l24 90h110l-24 -90h157l24 90h110l-24 -90h97l-29 -107h-96l-29 -107h97l-29 -106h-96l-24 -90h-111l24 90h-156l-24 -90h-110l24 90h-97l29 106h96l29 107h-97l28 107h97zM413 246l28 107h-156l-28 -107h156z" />
    <glyph glyph-name="dollar" unicode="$" 
d="M516 353q24 0 45 -10q23 -11 39 -33q17 -23 24 -54q3 -14 5 -30v-30q0 -17 -2 -31q-2 -16 -6 -30q-9 -30 -28 -50q-17 -20 -41 -29q-11 -4 -23 -5q-5 -1 -11 -1h-2h-8h-16.5h-16h-16.5h-36h-18h-2v-1v-1v-7v-18v-64v-2v-1v0h-1h-2h-4h-7h-14h-29h-29h-15h-3h-2h-1v0v1v3
v21v52v15v1v1v0v0h-5h-18h-36h-73h-34h-5h-2v0v0v1v1v7v14v28v28v14v7v3v2v1v0v0h111h222h30h15h8h4h1v0v1q1 0 1 1q4 6 6 14q1 7 2 15v16q0 10 -1 15q0 8 -2 15q-1 4 -2 7l-2 4q-1 0 -1 1t-1 1v0v0h-30h-60h-121h-120q-23 0 -43 10q-23 10 -39 31q-17 21 -25 51
q-4 14 -5 29q-1 8 -1 15q-1 5 -1 9v8v8q0 2 1 4q0 31 10 58q9 28 28 48q17 18 40 27q11 3 22 5q5 1 11 1h3h8h16h15.5h15.5h37h18h2v0v1v8v17v64v3v0v0h1h2h3h8h14h29h29h15h3h2h1v0v-1v-3v-21v-51v-16v-1v0v0v0v0h5h18h36h73h34h5h2v0v-1v-2v-7v-14v-28v-28v-13v-7v-4v-2
v-1v0v0h-111h-222h-31h-15h-7h-4h-1v0h-1q0 -1 -1 -2q-3 -5 -5 -14q-1 -7 -2 -15v-15q0 -11 1 -16q0 -8 2 -15q1 -4 2 -7q1 -2 2 -3q0 -1 1 -2v-1h1v0v0h30h60h241z" />
    <glyph glyph-name="percent" unicode="%" 
d="M565 293q57 0 94 -32q19 -17 29 -41q4 -11 6 -24q1 -6 1 -12q1 -4 1 -12.5t-1 -12.5q0 -6 -1 -12q-2 -12 -6 -24q-10 -24 -29 -41q-37 -32 -94 -32t-93 32q-20 17 -29 41q-5 11 -6 24l-2 12v12.5v12.5l2 12q1 13 6 24q9 24 29 41q36 32 93 32zM565.5 213h-7t-6.5 -0.5
t-6 -1.5t-5.5 -1.5t-5 -1.5t-4.5 -2q-3 -2 -6 -5l-2 -2l-2 -2t-2 -2.5t-1.5 -3l-1 -3t-0.5 -3.5q-1 -4 -1 -8v-11q0 -4 1 -8q0 -2 0.5 -3.5l1 -3t1.5 -2.5t2 -2.5t2 -2.5l2 -2q3 -3 6 -5q3 -1 5 -2t4.5 -1.5t5.5 -1.5t6.5 -1.5t6.5 -0.5h6.5h6.5t6 0.5t6 1.5t6 1.5t5 1.5
l4 2q4 2 7 5l2 2t2 2.5t1.5 2.5t1.5 2.5t1 3t1 3.5q1 4 1 8v11q0 4 -1 8q-1 2 -1 3.5t-1 3t-1.5 3t-1.5 2.5l-2 2l-2 2q-3 3 -7 5q-2 1 -4.5 2t-5 1.5t-5.5 1.5t-6 1.5t-6 0.5h-6.5zM462 550h132l-332 -500h-131zM159 550q57 0 93 -32q20 -17 29 -41q5 -11 7 -24q1 -6 1 -12
v-12.5v-12.5q0 -6 -1 -12q-2 -13 -7 -24q-9 -24 -29 -41q-36 -32 -93 -32t-93 32q-20 17 -29 41q-5 11 -7 24q-1 6 -1 12v12.5v12.5q0 6 1 12q2 13 7 24q9 24 29 41q36 32 93 32zM159 470h-6.5t-6.5 -0.5t-6 -1.5t-5.5 -1.5t-5 -1.5t-4.5 -2q-3 -2 -6 -5q-2 -1 -3 -2
t-1.5 -2.5t-1.5 -2.5t-1.5 -2.5l-1 -3t-0.5 -3.5q-1 -4 -1 -8v-11q0 -4 1 -8q0 -2 0.5 -3.5l1 -3t1.5 -3t1.5 -2.5t1.5 -2t3 -2q3 -3 6 -5q2 -1 4.5 -2t5 -1.5t5.5 -1.5t6 -1.5t6.5 -0.5h6.5h6.5t6.5 0.5t6 1.5t5.5 1.5t5 1.5t4.5 2q4 2 7 5l2 2l2 2t1.5 2.5l1 3l1 3
t1.5 3.5v8v11v8q-1 2 -1.5 3.5l-1 3t-1 2.5t-1.5 2.5t-2 2.5l-2 2q-3 3 -7 5q-2 1 -4.5 2t-5 1.5t-5.5 1.5t-6 1.5t-6.5 0.5h-6.5z" />
    <glyph glyph-name="ampersand" unicode="&#x26;" 
d="M415 424q-1 3 -6 7q-3 2 -7 4q-8 3 -17 5t-18 3h-19h-18q-9 -1 -17 -3q-10 -2 -17 -6q-5 -2 -8 -4l-3 -3q-2 -2 -2.5 -4t0 -4.5t1.5 -4.5q0 -1 1 -2l1 -1l2 -2t1 -2q1 -1 3.5 -4t4 -5t3.5 -4l12 -15t10 -12q28 -34 44 -54q14 -17 43.5 -53.5t44.5 -54.5q2 -2 6 -7
q0 -1 1 -2t2 -1q0 -1 1 -2v0v0h1v1q6 8 8 16q1 5 1 9v3v1v0v0h1h4h18h72h9h2h1v0v-1v-2q0 -6 -1 -12q-2 -25 -12 -47q-10 -25 -29 -44q-2 -3 -4 -5q-1 -1 -2 -1.5t-1 -1.5v0l0.5 -0.5l0.5 -0.5l3 -3q1 -1 2.5 -3.5t2.5 -3.5l22 -27l11 -13q3 -3 5 -7h1v-1h1v0h-23h-44h-43
h-22h-6v0v0v0l-1 1t-2.5 3t-2.5 3t-1 1.5v0.5v0l-1 -1h-2q-3 -1 -7 -2q-8 -1 -16 -3q-15 -2 -31 -3h-16h-11h-11h-11q-16 0 -32 2q-32 4 -60 14q-41 15 -69 41q-28 25 -41 59q-6 15 -8 32q-3 15 -2 31q1 34 16 63q9 20 24 37q8 9 17 16l10 8q2 1 5 3l2 2h1v0l-1 1
q-16 27 -16 59q-1 32 14 58q17 30 49 49q28 16 64 22q17 2 35 3h5h8h10q5 0 9 -1q9 0 18 -1q36 -5 65 -19q29 -16 47 -40q16 -21 21 -48q4 -24 -1 -49q-6 -26 -23 -47q-3 -3 -5 -6q-1 -1 -3 -2q0 -1 -1 -1v-1v0v1q-4 4 -4 5q-4 4 -8 9q-26 32 -61 74zM260 274q-5 -2 -9 -5
q-3 -2 -7 -5q-3 -2 -5 -4.5l-4 -5t-3.5 -5t-2.5 -5l-2 -5t-1 -5.5q-1 -5 -1 -10.5t1 -11.5q0 -2 1 -4.5l2 -5t2.5 -5t3.5 -5t4 -4.5l5 -5q4 -3 7 -5q4 -3 9 -5q5 -3 10 -5l12 -4t12.5 -3.5t14 -2.5t15 -1.5t15.5 -0.5h17q-10 12 -44 53.5t-52 64.5z" />
    <glyph glyph-name="quotesingle" unicode="'" horiz-adv-x="200" 
d="M153 550l-27 -240h-53l-27 240h107z" />
    <glyph glyph-name="parenleft" unicode="(" horiz-adv-x="300" 
d="M243 156v-62v-31v-8v-4v-1v0h-1v0h-2h-5q-23 1 -45 8q-36 11 -64 38q-30 28 -48 69q-15 36 -20 78q-2 19 -3 40v20v20q2 43 13 81q11 40 33 70q25 37 62 56q33 18 72 20h7h1v0v-1v-2v-4v-10v-20v-38v-20v-10v-2h-1v0h-2h-5q-19 -2 -34 -16q-14 -12 -23 -32
q-8 -17 -12 -38q-4 -18 -4 -39v-10v-11v-20q1 -21 5 -40q5 -21 13 -38q11 -20 25 -31q16 -12 38 -12z" />
    <glyph glyph-name="parenright" unicode=")" horiz-adv-x="300" 
d="M56 156q21 0 37 12q15 11 25 31q9 17 13 38q4 19 5 40q1 6 1 20v11q0 6 -1 10q0 21 -4 39q-4 21 -11 38q-10 20 -23 32q-15 14 -35 16h-5h-1h-1v0v2v10v20v38v20v10v4v2v1v0h7q39 -2 72 -20q37 -19 63 -56q21 -30 33 -70q11 -38 12 -81v-20v-20q0 -21 -3 -40
q-5 -42 -20 -78q-18 -41 -47 -69q-29 -27 -65 -38q-21 -7 -44 -8h-6h-1h-1v0v0v1v4v8v31v62z" />
    <glyph glyph-name="asterisk" unicode="*" horiz-adv-x="300" 
d="M67 457l69 -39v79h53v-79l68 39l27 -46l-68 -39l68 -40l-27 -46l-68 39v-78h-53v78l-69 -39l-26 46l68 40l-68 39z" />
    <glyph glyph-name="plus" unicode="+" horiz-adv-x="600" 
d="M486 353v-107h-134v-133h-106v133h-134v107h134v133h106v-133h134z" />
    <glyph glyph-name="comma" unicode="," horiz-adv-x="200" 
d="M49 -44v153v76v9v1v0v1v0h1h2h4h19h39h21h10h5h1v-1v0v-1v-2q0 -18 -2 -36q-5 -37 -18 -74t-33 -68q-22 -35 -49 -58z" />
    <glyph glyph-name="hyphen" unicode="-" horiz-adv-x="500" 
d="M63 246v107h373v-107h-373z" />
    <glyph glyph-name="period" unicode="." horiz-adv-x="200" 
d="M46 98q0 6 1 11t3 10q1 2 2.5 4.5t2.5 4.5q3 3 5 6q5 4 11 7l10 4q4 1 7.5 1h7.5h7q7 0 14 -1q6 -2 11 -4q6 -3 11 -7l4 -6q4 -4 6 -9t3 -10t1 -11t-1 -11t-3 -10q-1 -2 -2.5 -4.5t-3.5 -4.5q-2 -3 -4 -5q-5 -5 -11 -8q-5 -2 -11 -4q-3 0 -6.5 -0.5t-7.5 -0.5h-7
q-8 0 -15 1l-10 4q-6 3 -11 8l-5 5q-3 4 -5 9t-3 10t-1 11z" />
    <glyph glyph-name="slash" unicode="/" 
d="M449 550h132l-331 -500h-132z" />
    <glyph glyph-name="zero" unicode="0" horiz-adv-x="500" 
d="M481 376v-85v-43v-21v-8q0 -7 -1 -14q-2 -15 -6 -29q-14 -44 -52 -75q-39 -32 -97 -45q-24 -5 -50 -6h-25h-25q-54 2 -97 20q-55 23 -84 66q-26 39 -26 88v85v43v21v8q0 7 1 14q2 15 6 29q14 44 52 75q39 33 97 45q24 5 50 6h25h25q54 -2 97 -20q55 -23 84 -66
q26 -39 26 -88zM374 376q0 6 -1 11.5t-3 9.5q-2 6 -6 10q-4 5 -10 10q-6 6 -15 10q-10 5 -22 9q-12 3 -27 5q-14 2 -30 2h-10.5h-10.5q-15 0 -30 -2t-27 -5q-12 -4 -22 -9q-9 -4 -15 -10q-6 -5 -10 -10q-4 -4 -6 -10q-2 -4 -3 -9.5t-1 -11.5v-152q0 -6 1 -11.5t3 -9.5
q2 -6 6 -10q4 -5 10 -10q6 -6 15 -10q10 -5 22 -9q12 -3 27 -5t30 -2h21q16 0 30 2q15 2 27 5q12 4 22 9q9 4 15 10q6 5 10 10q4 4 6 10q2 4 3 9.5t1 11.5v152z" />
    <glyph glyph-name="one" unicode="1" horiz-adv-x="300" 
d="M150 390h-107l107 80l106 80v-500h-106v340z" />
    <glyph glyph-name="two" unicode="2" horiz-adv-x="500" 
d="M137 376q0 -16 9 -28q7 -11 22 -20q1 -1 3 -2v0v0h-1q-1 -1 -2 -1l-6.5 -4t-12.5 -7q-5 -3 -15 -8.5t-11 -6.5q-5 -2 -13.5 -7t-13.5 -7q-2 -1 -6.5 -3.5t-6.5 -3.5l-6 -4q-1 0 -2 -0.5t-2 -1.5l-1 -1h-1v0v0l-1 1l-1 1q-29 33 -36 77q-3 19 -2 39q2 21 8 40q13 36 42 63
q30 28 74 43q41 14 91 15h11h6h5q14 0 24 -1q24 -1 46 -5q53 -11 91 -40q37 -28 53 -68q8 -19 10 -39q3 -19 1 -38q-4 -41 -29 -75q-9 -12 -20 -23q-3 -3 -6 -5q-1 -1 -2.5 -2t-2 -1.5l-1.5 -1.5l-2 -2q-13 -11 -15 -13q-14 -12 -30 -25q-58 -49 -61 -52l-2 -1l-1 -1v0v0h1
h5h10h20h40h80h13h3h1v0v-1v-2v-6v-27v-52v-13v-3v-2v-1v0v0h-1h-5h-19h-40h-159h-161h-40h-20h-10h-5h-3v0v0v0l2 2q13 11 40 34t40 34l132 112q34 28 67 57q6 5 17.5 15t15.5 13q9 7 16 14q3 2 4 3l1.5 1.5l0.5 0.5q2 1 3 2q4 3 7 8q7 8 9 19t0 21.5t-8 19.5q-6 8 -16 15
q-16 11 -40 17q-19 5 -43 5h-11h-1h-2h-1h-1h-1h-1h-1h-1h-1h-1h-22q-24 -2 -43 -8q-23 -7 -38 -20q-8 -8 -12.5 -17.5t-4.5 -21.5z" />
    <glyph glyph-name="three" unicode="3" horiz-adv-x="500" 
d="M406 358q36 -23 55 -57q18 -31 20 -67q2 -35 -10 -67q-14 -36 -44 -62q-25 -23 -59 -36t-73 -17q-10 -1 -19 -2h-19h-18q-10 0 -19 1q-40 2 -75 13q-31 10 -56 27.5t-42 41.5q-16 22 -23 48q-3 12 -5 24q0 6 -1 13v6v0h1h1h75h18h9h3v-1v0v-1v-5q2 -18 17 -32
q12 -11 32 -18q16 -6 35 -8q9 -2 19 -2h19h10h9q9 0 18 1q20 2 36 7q20 7 33 17q16 12 20 30q2 9 1 18.5t-5 17.5q-8 14 -27 25q-15 8 -34 12q-17 4 -37 5q-4 1 -9 1h-2h-2v0v0v0v5v18v74v4v3v1v0v0v0q5 0 10 1q9 0 18 2q10 2 17 6q5 2 8 5q2 1 3 3q2 2 2.5 4t0 4.5
t-1.5 4.5q-2 3 -7 6q-6 4 -17 7q-8 2 -18 4h-18h-10h-10q-9 0 -18 -2q-10 -2 -18 -5q-11 -4 -15 -10q-1 -2 -1 -4v-1v-1v0h-1h-1h-1h-4.5h-4.5h-18.5h-18.5h-18h-18.5h-18.5h-2h-1v0v0v2q0 5 1 9q0 9 3 18q4 19 15 36q12 17 30 31q17 13 40 21q22 8 48 11q12 2 25 2h12h12
q47 -1 84 -17q38 -18 58 -49q19 -28 19 -63q1 -34 -17 -63z" />
    <glyph glyph-name="four" unicode="4" horiz-adv-x="500" 
d="M259 263h222v-213h-106v106h-357l357 394v-159z" />
    <glyph glyph-name="five" unicode="5" horiz-adv-x="500" 
d="M233 398h24h1.5h1.5v-1v0h3h7h12q26 -2 49 -7q50 -12 85 -39q35 -26 52 -64q7 -17 11 -36l2 -18v-4v-4v-6q-1 -36 -17 -67q-17 -34 -50 -58q-34 -24 -79 -35q-22 -5 -45 -8q-11 -1 -23 -1h-5h-8h-16h-6h-3h-5q-69 3 -119 32q-26 14 -45 34q-18 20 -29 43q-9 22 -12 46
q-1 6 -1 12v3v2v0.5v1.5v0h3h8h17.5h17.5h43h11h5h1v0v0v-2q1 -1 1 -2q0 -12 5 -21t14 -16q8 -6 19 -11q17 -9 41 -13q10 -1 21 -2h22h12h11q11 0 21 2q23 3 41 11q24 10 34 26q6 9 8 20q1 12 -2 22t-10 19q-7 8 -17 14q-31 19 -84 20h-1v0v0h-1h-1h-1h-2h-6h-11h-6h-5h-11
h-42h-83h-9h-2h-1h-1v1v4v18v35v69v70v35v17v9v1v0v0h1v0h11h22h41h167h72h17h4h1v0v-1v-2v-9v-72v-12v-6v-3v-1v0v0h-7h-15h-33h-77h-94h-1h-1h-1v0v-4v-6v-13v-13v-7v-3v0v0h1h2h45z" />
    <glyph glyph-name="six" unicode="6" horiz-adv-x="500" 
d="M18 224v11v8q1 7 1 14q2 15 4 29q5 28 14 55q19 54 55 97q37 42 88 69q51 26 113 36q35 6 72 7h9v0v0v-1v-2v-3v-13v-26v-53v-6v-2v-1v0h-1h-3h-13l-26 -2q-44 -5 -79 -19q-20 -8 -37 -18l-8 -6q-1 -1 -2 -1.5l-1 -0.5h-1v0h1h2q9 1 18 1h19h18q19 0 37 -2q69 -7 116 -42
q46 -33 61 -85q7 -25 6 -52q-2 -28 -12 -53q-11 -27 -32 -49q-22 -23 -53 -38q-49 -23 -112 -26h-14h-14q-17 0 -30 1q-30 2 -57 10q-33 9 -60 25.5t-45 39.5q-34 42 -34 98zM374 224q0 6 -1 11t-3 10t-6 10t-10 10t-15 10q-10 5 -22 8q-12 4 -27 6t-30 2h-10.5h-10.5
q-16 0 -30 -2q-15 -2 -27 -6q-12 -3 -22 -8q-9 -5 -16 -10q-5 -5 -9 -10t-6 -10t-3 -10t-1 -11t1 -11.5t3 -9.5q2 -5 6 -10t9 -10q7 -5 16 -10q10 -5 22 -9q12 -3 27 -5q14 -2 30 -2h10.5h10.5q15 0 30 2t27 6q12 3 22 8q9 5 15 10t10 10t6 10t3 10t1 11z" />
    <glyph glyph-name="seven" unicode="7" horiz-adv-x="500" 
d="M480 550l-331 -500h-132l261 393h-261v107h463z" />
    <glyph glyph-name="eight" unicode="8" horiz-adv-x="500" 
d="M406 358q48 -31 66 -80q8 -22 9 -46q1 -23 -4 -46q-11 -45 -46 -78q-37 -34 -93 -49q-24 -6 -50 -8q-12 -1 -25 -1h-12h-12q-53 0 -98 15q-55 19 -87 59q-30 36 -35 83q-3 24 2 47q4 25 17 46q13 24 34 42q5 5 11 9q3 3 6 5q1 1 3 2h1v0v1q-1 0 -1 1q-5 8 -8 17
q-9 21 -8 45q0 23 9 44q10 23 29 41q20 18 48 29q22 9 48 12q13 2 26 2h11.5h12.5q55 -1 96 -22q25 -14 42 -35q16 -20 22 -44q5 -22 2 -45q-3 -25 -16 -46zM183 420v-3v-1.5t0.5 -0.5t0.5 -0.5t0.5 -1.5t1.5 -1.5t2 -1.5t3 -2q1 -1 4 -3q2 -1 5 -2l6 -2l8 -2t8.5 -1.5
t9.5 -1t10 -0.5h15q5 0 10 0.5t9.5 1t8.5 1.5l8 2l6 2t5 2q2 2 4 3t3 2t2 1.5t1.5 1.5t0.5 1.5t0.5 0.5t0.5 0.5v1v1.5v2v3v0.5t-0.5 1t-0.5 1t-0.5 1l-1.5 1.5l-2 2t-3 2l-4 2t-5 2q-3 2 -6 3l-8 2t-8.5 1.5t-9.5 0.5h-10h-15h-10t-9.5 -0.5t-8.5 -1.5l-8 -2q-3 -1 -6 -3
q-3 -1 -5 -2q-3 -1 -4 -2q-2 -1 -3 -2l-2 -2l-1.5 -1.5t-0.5 -1t-0.5 -1t-0.5 -1v-1v-1v-1.5zM125 223.5q0 -5.5 1 -10.5q0 -3 1 -5.5l2 -5t2.5 -5t3.5 -5t4 -4.5q3 -3 6 -5q3 -3 7 -5q4 -3 8 -5q5 -2 10 -5l12 -4t12.5 -3t14 -2t15 -1.5t15.5 -0.5h21q8 0 15.5 0.5
t14.5 1.5l14 2t13 3l12 4q5 2 10 5q4 2 8 5q4 2 7 5q3 2 5.5 4.5t4.5 5t3.5 5t2.5 5l2 5t1 5.5q1 5 1 10.5t-1 11.5q0 2 -1 4.5l-2 5t-2.5 5t-3.5 5t-4 4.5q-3 3 -6 5q-3 3 -7 5q-4 3 -8 5q-5 3 -10 5l-12 4t-13 3.5t-14 2.5t-14.5 1.5t-15.5 0.5h-21q-8 0 -15.5 -0.5
t-15 -1.5t-14 -2.5t-12.5 -3.5l-12 -4q-5 -2 -10 -5q-4 -2 -8 -5q-4 -2 -7 -5q-3 -2 -6 -5q-2 -2 -4 -4.5t-3.5 -5t-2.5 -5l-2 -5t-1 -4.5q-1 -6 -1 -11.5z" />
    <glyph glyph-name="nine" unicode="9" horiz-adv-x="500" 
d="M481 376v-11v-8q-1 -7 -1 -14q-2 -15 -4 -29q-5 -28 -14 -55q-19 -54 -55 -97q-37 -42 -89 -69q-50 -26 -112 -36q-35 -6 -72 -7h-9v0v0v1v2v3v13v27v52v6v2v1v0h1h3h13l26 2q44 5 79 19q20 8 36 18q5 3 9 6q1 1 2 1l1 1v0h1h-1h-2q-9 -1 -19 -1h-18h-18q-19 0 -37 2
q-69 7 -116 42q-46 33 -61 85q-7 25 -6 52q2 28 12 53q11 27 32 49q22 23 53 38q49 23 112 26h14h14q17 0 29 -1q31 -2 58 -10q33 -9 60 -25.5t45 -39.5q34 -42 34 -98zM125 376q0 -6 1 -11t3 -10t6 -10t10 -10t15 -10q10 -5 22 -8q12 -4 27 -6q14 -2 30 -2h21q15 0 30 2
t27 6q12 3 22 8q9 5 15 10t10 10t6 10t3 10t1 11t-1 11.5t-3 9.5q-2 5 -6 10t-10 10t-15 10q-10 5 -22 9q-12 3 -27 5t-30 2h-21q-16 0 -30 -2q-15 -2 -27 -5q-12 -4 -22 -9q-9 -5 -15 -10t-10 -10t-6 -10t-3 -10t-1 -11z" />
    <glyph glyph-name="colon" unicode=":" horiz-adv-x="200" 
d="M51 219.5q0 5.5 1 10.5q1 6 3 11t6 9q2 3 4 5q5 5 11 8q5 2 11 3q7 2 14 2h7q4 0 7.5 -0.5t7.5 -1.5q5 -1 10 -3q6 -3 11 -8q3 -2 5 -5q1 -2 2.5 -4.5t2.5 -4.5q2 -5 3 -11q1 -5 1 -10.5t-1 -10.5t-3 -10t-5 -9q-2 -3 -5 -6q-5 -4 -11 -7l-10 -4q-7 -2 -15 -2h-7
q-4 0 -7.5 0.5t-6.5 1.5q-6 2 -11 4q-6 3 -11 7l-4 6q-2 2 -3.5 4.5t-2.5 4.5q-2 5 -3 10t-1 10.5zM51 379.5q0 5.5 1 10.5q1 6 3 11q1 2 2.5 4.5t3.5 4.5q2 3 4 5q5 5 11 8q5 2 11 3q3 1 6.5 1.5t7.5 0.5h7q8 0 15 -2q5 -1 10 -3q6 -3 11 -8q3 -2 5 -5q3 -4 5 -9t3 -11
q1 -5 1 -10.5t-1 -10.5t-3 -10q-1 -2 -2.5 -4.5t-2.5 -4.5q-2 -3 -5 -6q-5 -4 -11 -7l-10 -4q-4 -1 -7.5 -1.5t-7.5 -0.5h-7q-7 0 -14 2q-6 2 -11 4q-6 3 -11 7l-4 6q-4 4 -6 9t-3 10t-1 10.5z" />
    <glyph glyph-name="semicolon" unicode=";" horiz-adv-x="200" 
d="M51 379.5q0 5.5 1 10.5q1 6 3 11q1 2 2.5 4.5t3.5 4.5q2 3 5 5q4 5 10 8q5 2 11 3q3 1 6.5 1.5t7.5 0.5h7q8 0 15 -2q5 -1 10 -3q6 -3 11 -8q3 -2 5 -5q3 -4 5 -9t3 -11q1 -5 1 -10.5t-1 -10.5t-3 -10q-1 -2 -2.5 -4.5t-2.5 -4.5q-2 -3 -5 -6q-5 -4 -11 -7l-10 -4
q-4 -1 -7.5 -1.5t-7.5 -0.5h-7q-7 0 -14 2q-6 2 -11 4q-6 3 -10 7q-3 3 -5 6q-4 4 -6 9t-3 10t-1 10.5zM49 -43v152v76v9v1v1v0v0h1h2h5h19h39h20h11h5v0v0v-1v-1v-2q0 -18 -2 -35q-5 -38 -17 -74q-13 -38 -33 -69q-22 -35 -50 -57z" />
    <glyph glyph-name="less" unicode="&#x3c;" horiz-adv-x="400" 
d="M280 64l-236 236l236 236l75 -76l-160 -160l160 -160z" />
    <glyph glyph-name="equal" unicode="=" horiz-adv-x="600" 
d="M113 340v107h373v-107h-373zM113 153v107h373v-107h-373z" />
    <glyph glyph-name="greater" unicode="&#x3e;" horiz-adv-x="400" 
d="M123 64l-76 76l161 160l-161 160l76 76l235 -236z" />
    <glyph glyph-name="question" unicode="?" horiz-adv-x="600" 
d="M246 98.5q0 5.5 1 10.5t3 10q1 2 2.5 4.5t3.5 4.5q2 3 5 6q4 4 10 7q5 2 11 4q3 1 6.5 1.5t7.5 0.5h7q8 0 15 -2l10 -4q6 -3 11 -7q3 -3 5 -6q3 -4 5 -9t3 -10t1 -10.5t-1 -10.5q-1 -6 -3 -11q-1 -2 -2.5 -4.5t-2.5 -4.5q-2 -3 -5 -5q-5 -5 -11 -8q-5 -2 -10 -3
q-4 -1 -7.5 -1.5t-7.5 -0.5h-7q-7 0 -14 2q-6 1 -11 3q-6 3 -10 8q-3 2 -5 5q-4 4 -6 9t-3 11q-1 5 -1 10.5zM246 313q14 -2 28 -3q7 -1 14 -1h15h15q7 1 14 1q14 2 27 5q33 8 50 25q11 10 14 23q3 14 0 28q-4 13 -15 23q-10 9 -24 15q-23 11 -54 13q-10 1 -29 1h-29
q-31 -3 -54 -13q-28 -11 -38 -30q-3 -6 -4 -12q-1 -3 -1 -6v-3v-2v-1v0h-1h-24h-50h-24h-6h-1h-1v0v1v4q0 4 1 8q1 16 6 32q14 51 59 84q46 34 113 42q14 2 29 3h28q17 0 29 -1q14 -1 28 -3q61 -10 103 -40q26 -19 42 -45q16 -24 22 -51q5 -26 2 -53t-16 -52
q-15 -30 -42 -52q-27 -23 -65 -35q-18 -7 -38 -10l-10 -2q-2 0 -5 -1v0h-1v0v-1v-5v-11v-2v-1v0v0h-3h-6h-56h-28h-7h-4h-2h-1v1v0v14v113z" />
    <glyph glyph-name="at" unicode="@" horiz-adv-x="800" 
d="M400 -30q-63 0 -122 23q-63 25 -111.5 73t-73.5 111q-23 59 -23.5 121.5t22.5 121.5q25 63 73 111.5t111 74.5q58 23 121 24q30 0 60 -5q31 -6 61 -17q64 -25 112.5 -72.5t74.5 -110.5q24 -59 24 -122q1 -8 0 -17v-4v-1l-0.5 -1t-0.5 -3q-1 -5 -3 -10q-5 -21 -14 -40
q-16 -39 -41 -66q-24 -26 -53 -35q-27 -9 -54 -3q-28 7 -53 31q-13 12 -24 28q-3 3 -5 8h-1v0l-1 -1l-1 -1t-3 -2q-5 -4 -12 -7q-12 -5 -27 -8q-7 -1 -14 -1h-14h-13h-13q-15 0 -28 3q-34 8 -52 36q-16 25 -21 61q-4 33 1 65q3 17 8 31q6 17 15 29q10 14 24 22q13 8 30 11
q8 1 17 2h15h16h15q18 -1 32 -6q16 -5 28 -16q11 -10 20 -26q7 -13 11 -30q5 -20 6 -42q1 -6 1 -11q-1 -3 -0.5 -5t0.5 -4q1 -8 3 -17q4 -16 12.5 -29.5t20.5 -21.5q25 -16 51 -4q12 5 22 17t15 27q3 8 4 17q1 4 1 8v8q1 15 -1 30q-3 31 -14 61q-24 66 -78 109
q-52 42 -118 52q-62 9 -121 -11q-64 -22 -108 -73.5t-56 -118.5q-10 -59 7 -117q20 -63 68 -109q47 -45 111 -61q29 -7 59 -7h1h1v-1v-2v-5v-10v-21v-41zM433 258q6 15 6 39q1 22 -4 39q-1 2 -2 5q-1 2 -3 4q-3 4 -8 4q-4 1 -10 1h-10h-19h-5q-3 -1 -5 -2q-5 -2 -7 -7
q-6 -15 -6 -38q-1 -23 4 -39q1 -3 2 -5q1 -3 2 -4q4 -4 9 -5h10h10h19h5t5 1q5 2 7 7z" />
    <glyph glyph-name="A" unicode="A" 
d="M16 50l333 500l334 -500h-129l-205 308l-205 -308h-128z" />
    <glyph glyph-name="B" unicode="B" 
d="M69 550h245h20h5h5q7 -1 12 -2q13 -3 24 -9q24 -14 39 -41q14 -27 17 -62v-16v-16q0 -4 -1 -8v-4v-1v-1v0h1h8h31h16h9h7q5 0 9 -1q41 -5 69 -34q31 -32 40 -83q3 -16 4 -33v-16v-16q0 -34 -10 -64q-10 -31 -29 -52q-19 -22 -43 -32q-12 -5 -24 -7q-6 -1 -12 -1
q-4 -1 -11 -1h-31h-58h-108h-119h-58h-29h-14h-8h-3h-2h-1v0v1v1v9v489zM327 390v2q2 8 2 19v12q0 11 -2 19v1h-151v-53h150h1zM502 157h2t1.5 0.5t1.5 0.5l1 1l3 3q1 3 3 6t3 7q2 5 3 11q3 12 3 27v15q0 7 -1 14t-2 12q-1 6 -3 11q-1 4 -3 8q-2 3 -3 5t-3 3l-1 1
q-1 1 -1.5 1h-1.5h-2h-326v-126h326z" />
    <glyph glyph-name="C" unicode="C" 
d="M297 443q-44 -5 -77.5 -34t-44.5 -71q-3 -10 -4 -21v-1v-1v-3v-5v-11v-10v-2v-1v-2q0 -3 1 -5q2 -11 5 -20q14 -43 50 -70q17 -14 38 -21q10 -4 20 -6l10 -2h5h1.5h1.5h2h86h171h60h8h3h1v0v-1v-2v-2v-21v-43v-21v-10v-6v-1v0h-2h-4h-7h-30h-120h-96h-47h-24h-6h-1h-2
q-9 1 -14 2q-15 2 -29 5q-60 16 -107 58q-67 60 -80 150q0 5 -1 10v2v3v5v21v11v5v3v2q1 10 3 20q9 43 30 80q44 74 124 106q18 7 37 12q10 2 19 3q5 1 9 2h3h2h1h7h32h63h123h61h30h15h8h2h1v0v-5v-11v-86v-4v-1v0v0h-1h-1h-3h-5h-11h-21h-21h-21h-85h-168z" />
    <glyph glyph-name="D" unicode="D" 
d="M629 311v-15v-16q0 -16 -2 -32q-3 -33 -13 -62q-20 -61 -63 -96q-32 -27 -72 -36q-10 -2 -19 -3q-5 -1 -9 -1h-10h-124h-243h-2h-2v0h-1v0v1v2v4v8v14v30v60v120v243v10v5v3v0h1h2h3h6h13h201h114h27h13q8 0 17 -2q36 -5 67 -24q47 -30 72 -88q24 -54 24 -125zM176 443
v-286h266q7 0 13.5 1t12.5 4q7 3 12 7q7 5 12 12q7 8 12 19q6 11 10 24q4 14 7 31q2 16 2 34v22q0 18 -2 34q-3 17 -7 31q-4 13 -10 24q-5 11 -12 19q-5 7 -12 12q-5 4 -12 7q-6 3 -12.5 4t-13.5 1h-266z" />
    <glyph glyph-name="E" unicode="E" 
d="M171 443v-53h227v-107h-227v-126h453v-107h-560v500h560v-107h-453z" />
    <glyph glyph-name="F" unicode="F" 
d="M624 550v-107h-453v-53h227v-107h-227v-233h-107v500h560z" />
    <glyph glyph-name="G" unicode="G" 
d="M677 353q9 -40 4 -83q-6 -45 -28 -83q-24 -42 -65 -72q-42 -31 -97 -47q-44 -14 -94 -17q-16 -1 -48 -1h-23q-12 0 -24 1q-50 3 -94 17q-46 13 -83 37q-46 30 -73 73q-26 39 -33 86q-3 21 -3 43q1 22 6 43q10 47 39 86q25 33 63 58t86 39q45 13 97 16q13 1 25 1h24h25
q12 -1 25 -2q27 -2 53 -7q1 -1 2 -1v0h1h-1v-1v-1q-1 0 -1 -1v-1q-1 -1 -1.5 -2.5t-1.5 -2.5l-3.5 -7.5t-4.5 -11.5q-7 -14 -18 -37q0 -1 -3.5 -8t-4.5 -11q-3 -4 -5 -9q0 -1 -1 -2.5t-1 -2.5t-1 -1v0v-1v0h-3q-20 3 -41 3h-10h-12h-11h-10q-22 0 -41 -3q-45 -5 -80 -21
q-23 -11 -40 -25q-19 -16 -30 -36q-11 -21 -13.5 -45.5t4.5 -46.5q6 -23 22 -42q14 -17 35 -31q19 -12 43 -20q21 -7 46 -11q22 -4 46 -5h24h13h12q51 0 93 13q24 7 43 18q22 13 38 29q8 8 14 18q4 5 6 10l1 1v1v0h-1h-3h-6h-47h-47h-3h-1v0v0v2v6v12v23v47v12v3v1v0h1h1h6
h24h189z" />
    <glyph glyph-name="H" unicode="H" 
d="M536 390v160h106v-500h-106v233h-347v-233h-107v500h107v-160h347z" />
    <glyph glyph-name="I" unicode="I" horiz-adv-x="300" 
d="M96 50v500h107v-500h-107z" />
    <glyph glyph-name="J" unicode="J" 
d="M424 157q25 0 46 12q24 13 36 36q6 11 9 23q2 6 2 12q1 3 1 6v7v48v52v126v26v28v13v1v2v1v0v0h3h4.5h4.5h20h20h39h10h5h1v0v0v-1v-2v-3v-4.5v-4.5v-53v-126q-1 -26 -1 -59v-31v-16v-15q-5 -66 -49 -117q-43 -49 -108 -63q-15 -4 -29 -5h-14h-16h-62h-249h-32v0v0v1v2v4
v8v15v63v7v4v2v1v0h1h16h31h62h249z" />
    <glyph glyph-name="K" unicode="K" 
d="M335 292l-271 -242v500h107v-262l293 262h160l-209 -186l209 -314h-128z" />
    <glyph glyph-name="L" unicode="L" horiz-adv-x="600" 
d="M86 550h54h27h13h7h4h1h1v0v-1v-108v-124v-62v-9v-7q1 -7 3 -14q11 -39 47 -58q16 -8 35 -10h9h23h70h85h24h13h7h3h1v0v-1v-1v-2v-80v-13v-6v-4v0h-1h-1h-17h-32h-57h-85h-33q-13 0 -24 2q-25 2 -49 12q-52 20 -86 64t-41 100q0 6 -1 12v13v27v54v216z" />
    <glyph glyph-name="M" unicode="M" 
d="M122 50h-106v500l333 -346l333 346v-500h-106v236l-227 -236l-227 236v-236z" />
    <glyph glyph-name="N" unicode="N" 
d="M178 334v-284h-114v500l447 -284v284h113v-500z" />
    <glyph glyph-name="O" unicode="O" 
d="M16 300q0 57 26 105q28 54 84 90q45 30 105 44q29 6 59 9l30 2h29.5h29.5l30 -2q30 -3 59 -9q60 -14 105 -44q56 -36 84 -90q26 -48 26 -105t-26 -105q-28 -54 -84 -90q-46 -30 -105 -44q-29 -6 -59 -9l-30 -2h-29.5h-29.5l-30 2q-31 3 -59 9q-60 14 -105 44
q-56 36 -84 90q-26 48 -26 105zM123 300q0 -13 2 -25q2 -7 3.5 -13t4.5 -12t6 -11l8 -12q5 -6 10 -11q5 -6 12 -11q6 -5 14 -10l16 -10q9 -4 19 -8t20.5 -7.5t22 -5.5t24 -4t25 -2.5t25.5 -0.5h29q13 0 25.5 0.5t25 2.5t24 4t22 5.5t20.5 7.5t19 8l16 10t14 10q7 5 12 11
q5 5 10 11l8 12q3 5 5.5 11t4.5 12t4 13q2 12 2 25t-2 25q-2 7 -4 13t-4.5 12t-6 11.5t-7.5 11.5q-5 6 -10 11q-5 6 -12 11q-6 5 -14 10l-16 10q-9 4 -19 8t-20.5 7.5t-22 5.5t-24 4t-25 2.5t-25.5 0.5h-29q-13 0 -25.5 -0.5t-25 -2.5t-24 -4t-22 -5.5t-20.5 -7.5
t-18.5 -8.5t-16.5 -9.5t-14 -10q-7 -5 -12 -11q-5 -5 -10 -11l-8 -12q-3 -5 -6 -11t-4.5 -12t-3.5 -13q-2 -12 -2 -25z" />
    <glyph glyph-name="P" unicode="P" 
d="M478 157h-124.5h-123.5h-31h-8h-8h-3.5h-4.5h-1.5h-1.5h-1v0v-1v-1v-2v-62v-31v-7v-2v-1v0v0h-1h-4h-16h-62h-15h-8v0h-1v1v2v4v31v62v124v248v15v8v4v1v0h1h2h31h62h124h108h54h27h9q26 -1 49 -11q25 -11 44 -32q20 -21 33 -51q11 -29 15 -64q1 -8 1 -17v-16v-33
q-2 -37 -14 -69q-12 -33 -33 -56t-48 -34q-24 -10 -51 -10zM479 263q2 0 4 1q2 0 3 0.5l2 1t2.5 1.5l3 2t3 2.5l2.5 2.5q2 2 3 5l4 6t3 7q2 4 3 8q1 5 2.5 10t2 10.5t1 11.5t0.5 13v17q0 6 -0.5 12t-1 11.5t-2 11t-2.5 10t-3 8.5q-1 4 -3 7l-4 6q-1 2 -3 4q-1 2 -2.5 3.5
t-3 2.5t-2.5 2t-2.5 1.5t-2.5 0.5t-3 1h-6h-306v-180h308z" />
    <glyph glyph-name="Q" unicode="Q" 
d="M558 96q-51 -29 -116 -40q-31 -5 -64 -6h-16h-15h-31q-69 3 -127 24q-60 22 -102 61q-49 47 -65 112q-14 59 3 117q17 57 60 99q45 44 114 67q56 18 123 20h30h31q33 -2 63 -7q70 -12 123 -45t82 -82q33 -54 32 -119t-35 -118q-2 -4 -4 -7l-3 -3v-1l-1 -1v0h1
q1 -1 2.5 -2t6.5 -5q11 -8 12 -9q2 -1 6 -4t6 -5q5 -4 5.5 -4.5t1.5 -1t2 -0.5v-1v0v0l-1 -1l-1 -1l-36 -48q-16 -22 -18 -24q-1 -1 -2.5 -3t-1.5 -3l-3 -3l-1 -2v0v0q-1 0 -1 1q-8 5 -12 9q-19 14 -48 36zM123 300q0 -13 2 -25q2 -7 4 -13t4.5 -12t5.5 -11l8 -12
q5 -6 10 -11q6 -6 12 -11l14 -10l16 -10q9 -4 19 -8t20.5 -7.5t22 -5.5t24 -4t25 -2.5t25.5 -0.5h29q13 0 26 0.5t25 2.5t23.5 4t22 5.5t20.5 7.5t19 8l16 10t14 10q7 5 12 11q5 5 10 11l8 12q3 5 6 11t4.5 12t3.5 13q2 12 2 25t-2 25q-2 7 -3.5 13t-4.5 12t-6.5 11.5
t-7.5 11.5q-5 6 -10 11q-5 6 -12 11q-6 5 -14 10l-16 10q-9 4 -19 8t-20.5 7.5t-22 5.5t-23.5 4t-25 2.5t-26 0.5h-29q-13 0 -25.5 -0.5t-25 -2.5t-24 -4t-22 -5.5t-20.5 -7.5t-18.5 -8.5t-16.5 -9.5l-14 -10q-6 -5 -12 -11q-5 -5 -10 -11l-8 -12q-3 -5 -5.5 -11t-4.5 -12
t-4 -13q-2 -12 -2 -25z" />
    <glyph glyph-name="R" unicode="R" 
d="M77 550h284h82h26h12h9q10 0 20 -1q20 -3 39 -13q41 -20 64 -65q16 -30 21 -68q3 -17 3 -36v-18v-18q-2 -38 -13 -71q-12 -34 -34 -58q-9 -11 -20 -19q-5 -4 -11 -7l-2 -2h-1v0h-1v0l1 -1l1 -2t2 -3q2 -3 4.5 -6.5t5.5 -8t4 -7.5q10 -14 58 -85q1 -2 3.5 -5.5t3.5 -5.5
h-1v0h-1h-0.5h-1.5h-1h-2h-6h-13h-13h-51h-37h-1v0h-1v1l-0.5 0.5l-0.5 0.5q-1 1 -1.5 2.5t-1.5 1.5q-2 4 -5 8q-1 2 -4.5 7t-5.5 8q-7 10 -20.5 30.5t-19.5 30.5q-1 1 -4.5 6.5t-5.5 8.5q-1 0 -1 0.5v0.5l-1 1v0h-2h-4h-8h-33h-70h-70h-35h-18h-9h-4h-1v0v-1v-1v-2v-71v-18
v-9v-4v-1v0h-1h-1h-2h-36h-35h-18h-9h-4h-1v0v0v2v2v71v141v284zM184 443v-180h308q2 0 4 1q2 0 5 1.5l5 2.5l6 6q3 5 6 11q4 7 7 15q2 10 4 21t2 24v17q0 12 -2 24q-2 11 -4 20q-3 9 -7 16q-3 6 -6 10t-6 6q-2 2 -5 3t-5.5 1.5t-5.5 0.5h-306z" />
    <glyph glyph-name="S" unicode="S" 
d="M511 353q24 0 46 -10q23 -12 40 -35q16 -23 23 -55q3 -15 4 -31q1 -7 1 -16v-15q-1 -34 -11 -62q-11 -30 -30 -49t-44 -26q-11 -3 -23 -4h-9h-7h-217h-109h-54h-2h-1v0v1v3v7v14v27v54v1v0v0h1h2h3h7h14h27h109h217h7h3h1v0h1q0 1 1 2q3 5 4 12q2 7 3 14v14v7v7
q0 7 -1 13q-2 8 -4 13q-1 4 -3 7l-1 1v0h-2h-3h-109h-108h-109q-24 0 -45 10q-24 12 -40 35q-17 23 -24 55q-3 15 -4 31v16v15q0 34 10 62q11 30 31 49q18 19 43 26q11 3 23 4h9h7h218h108h55h1h1v0v-1v-3v-7v-14v-27v-54v-1v0v0h-1h-2h-3h-7h-13h-28h-108h-218h-7h-3h-1v0
h-1v-2q-3 -5 -5 -12t-2 -14q-1 -5 -1 -14v-7v-7q1 -7 2 -13q1 -8 3 -13q1 -4 3 -7h1v-1v0h2h3h109h217z" />
    <glyph glyph-name="T" unicode="T" 
d="M403 50h-107v393h-226v107h560v-107h-227v-393z" />
    <glyph glyph-name="U" unicode="U" 
d="M364 157q55 0 100 14q26 8 46 20q23 14 39 33q16 20 23 44q3 12 4 25v10v6v50v133v33v16v9v0h1h2h5h8h68h17h4h1h1v0v-1v-2v-8v-34v-120v-60v-15v-7v-6q0 -7 -1 -14q-5 -63 -40 -113q-22 -32 -55 -56t-75 -39q-41 -15 -88 -21q-22 -3 -45 -4h-23h-22q-100 0 -177 37
q-40 19 -69 47q-29 27 -47 61q-15 30 -21 63q-3 15 -4 31v12v4v33v66v131v9v4v1v1v0v0h2h18h36h36h9h5v0h1v0v-2v-8v-71v-140v-22v-15q1 -11 3 -22q6 -22 19 -40q13 -17 32 -31q33 -24 81 -34q21 -5 44 -7q11 -1 22 -1h13h27z" />
    <glyph glyph-name="V" unicode="V" 
d="M16 550h128l205 -308l206 308h128l-334 -500z" />
    <glyph glyph-name="W" unicode="W" horiz-adv-x="1000" 
d="M500 300q0 1 -0.5 1t-0.5 -1l-166 -249l-332 498h126l205 -307h1l166 249l167 -249h1l205 307h126l-332 -498zM128 551h-129q-1 0 0 -1l333 -500q0 -1 0.5 -1t0.5 1l166 249l167 -249v-1l1 1l333 500q1 1 -1 1h-128v-1l-205 -307l-166 250h-1l-166 -250l-205 307v1z
M499 300l-166 -250l-334 500h129l205 -308l166 250l167 -250l205 308h128l-333 -500z" />
    <glyph glyph-name="X" unicode="X" 
d="M349 371l187 179h147l-260 -250l260 -250h-147l-187 179l-186 -179h-147l260 250l-260 250h147z" />
    <glyph glyph-name="Y" unicode="Y" 
d="M70 388v148v10v4v0h1h2h3h22h44h22h11h1h1v0v-1v-3v-22v-106v-27v-4v-7q1 -7 3 -14q3 -13 11 -24q14 -21 41 -35q23 -11 52 -17q17 -3 35 -4q9 -1 18 -1h20h12q18 1 35 3q19 3 35 7q18 6 32 14q17 9 29 21q13 13 18 30q3 8 5 17v9v5v114v29v14v2v0h1h2h7h15h58h15h7h2v0
v0v-1v-3v-25v-86v-43v-9q0 -11 -2 -21q-3 -21 -10 -41q-16 -43 -52 -76q-29 -25 -69 -42q-38 -16 -83 -21q-3 -1 -5 -1h-3h-1q-1 0 -1 -1h-1v-2v-5v-10v-20v-80v-8v-4v0v-1v0h-1h-2h-16h-32h-33h-16h-4h-1h-1v0v0v2v9v65v32v16v4v2h-1v1h-1h-3h-4q-18 3 -35 7q-44 9 -78 29
q-36 20 -60 48q-23 27 -34 60q-11 30 -11 63z" />
    <glyph glyph-name="Z" unicode="Z" 
d="M469 550h156l-319 -393h318v-107h-560l319 393h-319v107h405z" />
    <glyph glyph-name="bracketleft" unicode="[" horiz-adv-x="300" 
d="M243 157v-107h-187v500h187v-107h-80v-286h80z" />
    <glyph glyph-name="backslash" unicode="\" 
d="M250 550l331 -500h-132l-331 500h132z" />
    <glyph glyph-name="bracketright" unicode="]" horiz-adv-x="300" 
d="M56 157h80v286h-80v107h187v-500h-187v107z" />
    <glyph glyph-name="asciicircum" unicode="^" horiz-adv-x="400" 
d="M199 454l-60 -92h-65l125 188l125 -188h-64z" />
    <glyph glyph-name="underscore" unicode="_" 
d="M29 50v107h667v-107h-667z" />
    <glyph glyph-name="grave" unicode="`" horiz-adv-x="300" 
d="M179 526l-56 -56l-113 113l57 56z" />
    <glyph glyph-name="a" unicode="a" 
d="M16 50l333 500l334 -500h-129l-205 308l-205 -308h-128z" />
    <glyph glyph-name="b" unicode="b" 
d="M70 550h244h20h5h6l12 -2q13 -3 24 -9q24 -14 39 -41q14 -27 16 -62q1 -6 1 -16q0 -13 -1 -16v-8v-4t-1 -1v-1h1h1h7h32h16h9h7q4 0 9 -1q40 -5 69 -34q30 -32 40 -83q3 -16 4 -33v-16v-16q-1 -34 -10 -64q-11 -31 -30 -52q-18 -22 -43 -32q-11 -5 -24 -7q-5 -1 -11 -1
q-5 -1 -11 -1h-31h-59h-107h-120h-58h-28h-15h-7h-4h-1h-1v0v1v1v9v489zM327 390q0 1 1 2q2 8 2 19v12q0 11 -2 19l-1 1h-150v-53h149h1zM502 157h3l1 0.5l1 0.5q1 0 2 1q1 2 2 3q2 3 3 6q2 3 4 7q1 5 3 11q2 12 2 27v15v14q-1 7 -2 12q-2 6 -3 11l-4 8q-1 3 -3 5q-1 2 -2 3
t-2 1q0 1 -1 1h-1h-3h-325v-126h325z" />
    <glyph glyph-name="c" unicode="c" 
d="M297 443q-44 -5 -77.5 -34t-44.5 -71q-3 -10 -4 -21v-1v-1v-3v-5v-11v-10v-2v-1v-2q0 -3 1 -5q2 -11 5 -20q14 -43 50 -70q17 -14 38 -21q10 -4 20 -6l10 -2h5h1.5h1.5h2h86h171h60h8h3h1v0v-1v-2v-2v-21v-43v-21v-10v-6v-1v0h-2h-4h-7h-30h-120h-96h-47h-24h-6h-1h-2
q-9 1 -14 2q-15 2 -29 5q-60 16 -107 58q-67 60 -80 150q0 5 -1 10v2v3v5v21v11v5v3v2q1 10 3 20q9 43 30 80q44 74 124 106q18 7 37 12q10 2 19 3q5 1 9 2h3h2h1h7h32h63h123h61h30h15h8h2h1v0v-5v-11v-86v-4v-1v0v0h-1h-1h-3h-5h-11h-21h-21h-21h-85h-168z" />
    <glyph glyph-name="d" unicode="d" 
d="M629 311v-15v-16q0 -16 -2 -32q-3 -33 -13 -62q-20 -61 -63 -96q-32 -27 -72 -36q-10 -2 -19 -3q-5 -1 -9 -1h-10h-124h-243h-2h-2v0h-1v0v1v2v4v8v14v30v60v120v243v10v5v3v0h1h2h3h6h13h201h114h27h13q8 0 17 -2q36 -5 67 -24q47 -30 72 -88q24 -54 24 -125zM176 443
v-286h266q7 0 13.5 1t12.5 4q7 3 12 7q7 5 12 12q7 8 12 19q6 11 10 24q4 14 7 31q2 16 2 34v22q0 18 -2 34q-3 17 -7 31q-4 13 -10 24q-5 11 -12 19q-5 7 -12 12q-5 4 -12 7q-6 3 -12.5 4t-13.5 1h-266z" />
    <glyph glyph-name="e" unicode="e" 
d="M171 443v-53h227v-107h-227v-126h453v-107h-560v500h560v-107h-453z" />
    <glyph glyph-name="f" unicode="f" 
d="M624 550v-107h-453v-53h227v-107h-227v-233h-107v500h560z" />
    <glyph glyph-name="g" unicode="g" 
d="M677 353q9 -40 4 -83q-6 -45 -28 -83q-24 -42 -65 -72q-42 -31 -97 -47q-44 -14 -94 -17q-16 -1 -48 -1h-23q-12 0 -24 1q-50 3 -94 17q-46 13 -83 37q-46 30 -73 73q-26 39 -33 86q-3 21 -3 43q1 22 6 43q10 47 39 86q25 33 63 58t86 39q45 13 97 16q13 1 25 1h24h25
q12 -1 25 -2q27 -2 53 -7q1 -1 2 -1v0h1h-1v-1v-1q-1 0 -1 -1v-1q-1 -1 -1.5 -2.5t-1.5 -2.5l-3.5 -7.5t-4.5 -11.5q-7 -14 -18 -37q0 -1 -3.5 -8t-4.5 -11q-3 -4 -5 -9q0 -1 -1 -2.5t-1 -2.5t-1 -1v0v-1v0h-3q-20 3 -41 3h-10h-12h-11h-10q-22 0 -41 -3q-45 -5 -80 -21
q-23 -11 -40 -25q-19 -16 -30 -36q-11 -21 -13.5 -45.5t4.5 -46.5q6 -23 22 -42q14 -17 35 -31q19 -12 43 -20q21 -7 46 -11q22 -4 46 -5h24h13h12q51 0 93 13q24 7 43 18q22 13 38 29q8 8 14 18q4 5 6 10l1 1v1v0h-1h-3h-6h-47h-47h-3h-1v0v0v2v6v12v23v47v12v3v1v0h1h1h6
h24h189z" />
    <glyph glyph-name="h" unicode="h" 
d="M536 390v160h106v-500h-106v233h-347v-233h-107v500h107v-160h347z" />
    <glyph glyph-name="i" unicode="i" horiz-adv-x="300" 
d="M96 50v500h107v-500h-107z" />
    <glyph glyph-name="j" unicode="j" horiz-adv-x="1000" 
d="M574 157q25 0 46 12q24 13 36 36q6 11 9 23q2 6 2 12q1 3 1 6v7v48v52v126v26v28v13v1v2v1v0v0h3h4.5h4.5h20h20h39h10h5h1v0v0v-1v-2v-3v-4.5v-4.5v-53v-126q-1 -26 -1 -59v-31v-16v-15q-5 -66 -49 -117q-43 -49 -108 -63q-15 -4 -29 -5h-14h-16h-62h-249h-32v0v0v1v2v4
v8v15v63v7v4v2v1v0h1h16h31h62h249z" />
    <glyph glyph-name="k" unicode="k" 
d="M335 292l-271 -242v500h107v-262l293 262h160l-209 -186l209 -314h-128z" />
    <glyph glyph-name="l" unicode="l" horiz-adv-x="500" 
d="M36 550h54h27h13h7h4h1h1v0v-1v-108v-124v-62v-9v-7q1 -7 3 -14q11 -39 47 -58q16 -8 35 -10h9h23h70h85h24h13h7h3h1v0v-1v-1v-2v-80v-13v-6v-4v0h-1h-1h-17h-32h-57h-85h-33q-13 0 -24 2q-25 2 -49 12q-52 20 -86 64t-41 100q0 6 -1 12v13v27v54v216z" />
    <glyph glyph-name="m" unicode="m" 
d="M122 50h-106v500l333 -346l333 346v-500h-106v236l-227 -236l-227 236v-236z" />
    <glyph glyph-name="n" unicode="n" 
d="M178 334v-284h-114v500l447 -284v284h113v-500z" />
    <glyph glyph-name="o" unicode="o" horiz-adv-x="750" 
d="M42 300q0 57 25 105q28 54 84 90q46 30 105 44q29 6 60 9q14 1 30 2h29h29l30 -2q31 -3 59 -9q60 -14 106 -44q55 -36 84 -90q25 -48 25 -105t-25 -105q-29 -54 -84 -90q-46 -30 -106 -44q-28 -6 -59 -9l-30 -2h-29h-29q-16 1 -30 2q-31 3 -60 9q-59 14 -105 44
q-56 36 -84 90q-25 48 -25 105zM148 300q0 -13 3 -25q1 -7 3 -13t4.5 -12t6.5 -11q3 -6 8 -12q4 -6 9 -11q6 -6 12 -11l14 -10q8 -5 17 -10q8 -4 18 -8t21 -7.5t22.5 -5.5t23.5 -4t24.5 -2.5t25.5 -0.5h30q13 0 25.5 0.5t24.5 2.5t23.5 4t22.5 5.5t20.5 7.5t18.5 8
q9 5 16 10q8 5 15 10q6 5 11 11q6 5 10 11l8 12q3 5 6 11t5 12t3 13q2 12 2 25t-2 25q-1 7 -3 13t-5 12t-6.5 11.5t-7.5 11.5t-10 11q-5 6 -11 11q-7 5 -15 10q-7 5 -16 10q-9 4 -18.5 8t-20.5 7.5t-22.5 5.5t-23.5 4t-24.5 2.5t-25.5 0.5h-30q-13 0 -25.5 -0.5t-24.5 -2.5
t-23.5 -4t-22.5 -5.5t-21 -7.5t-18.5 -8.5t-16.5 -9.5l-14 -10q-6 -5 -12 -11q-5 -5 -9 -11q-5 -6 -8 -12q-4 -5 -6.5 -11t-4.5 -12t-3 -13q-3 -12 -3 -25z" />
    <glyph glyph-name="p" unicode="p" 
d="M478 157h-124.5h-123.5h-31h-8h-8h-3.5h-4.5h-1.5h-1.5h-1v0v-1v-1v-2v-62v-31v-7v-2v-1v0v0h-1h-4h-16h-62h-15h-8v0h-1v1v2v4v31v62v124v248v15v8v4v1v0h1h2h31h62h124h108h54h27h9q26 -1 49 -11q25 -11 44 -32q20 -21 33 -51q11 -29 15 -64q1 -8 1 -17v-16v-33
q-2 -37 -14 -69q-12 -33 -33 -56t-48 -34q-24 -10 -51 -10zM479 263q2 0 4 1q2 0 3 0.5l2 1t2.5 1.5l3 2t3 2.5l2.5 2.5q2 2 3 5l4 6t3 7q2 4 3 8q1 5 2.5 10t2 10.5t1 11.5t0.5 13v17q0 6 -0.5 12t-1 11.5t-2 11t-2.5 10t-3 8.5q-1 4 -3 7l-4 6q-1 2 -3 4q-1 2 -2.5 3.5
t-3 2.5t-2.5 2t-2.5 1.5t-2.5 0.5t-3 1h-6h-306v-180h308z" />
    <glyph glyph-name="q" unicode="q" 
d="M558 96q-51 -29 -116 -40q-31 -5 -64 -6h-16h-15h-31q-69 3 -127 24q-60 22 -102 61q-49 47 -65 112q-14 59 3 117q17 57 60 99q45 44 114 67q56 18 123 20h30h31q33 -2 63 -7q70 -12 123 -45t82 -82q33 -54 32 -119t-35 -118q-2 -4 -4 -7l-3 -3v-1l-1 -1v0h1
q1 -1 2.5 -2t6.5 -5q11 -8 12 -9q2 -1 6 -4t6 -5q5 -4 5.5 -4.5t1.5 -1t2 -0.5v-1v0v0l-1 -1l-1 -1l-36 -48q-16 -22 -18 -24q-1 -1 -2.5 -3t-1.5 -3l-3 -3l-1 -2v0v0q-1 0 -1 1q-8 5 -12 9q-19 14 -48 36zM123 300q0 -13 2 -25q2 -7 4 -13t4.5 -12t5.5 -11l8 -12
q5 -6 10 -11q6 -6 12 -11l14 -10l16 -10q9 -4 19 -8t20.5 -7.5t22 -5.5t24 -4t25 -2.5t25.5 -0.5h29q13 0 26 0.5t25 2.5t23.5 4t22 5.5t20.5 7.5t19 8l16 10t14 10q7 5 12 11q5 5 10 11l8 12q3 5 6 11t4.5 12t3.5 13q2 12 2 25t-2 25q-2 7 -3.5 13t-4.5 12t-6.5 11.5
t-7.5 11.5q-5 6 -10 11q-5 6 -12 11q-6 5 -14 10l-16 10q-9 4 -19 8t-20.5 7.5t-22 5.5t-23.5 4t-25 2.5t-26 0.5h-29q-13 0 -25.5 -0.5t-25 -2.5t-24 -4t-22 -5.5t-20.5 -7.5t-18.5 -8.5t-16.5 -9.5l-14 -10q-6 -5 -12 -11q-5 -5 -10 -11l-8 -12q-3 -5 -5.5 -11t-4.5 -12
t-4 -13q-2 -12 -2 -25z" />
    <glyph glyph-name="r" unicode="r" 
d="M77 550h284h82h26h12h9q10 0 20 -1q20 -3 39 -13q41 -20 64 -65q16 -30 21 -68q3 -17 3 -36v-18v-18q-2 -38 -13 -71q-12 -34 -34 -58q-9 -11 -20 -19q-5 -4 -11 -7l-2 -2h-1v0h-1v0l1 -1l1 -2t2 -3q2 -3 4.5 -6.5t5.5 -8t4 -7.5q10 -14 58 -85q1 -2 3.5 -5.5t3.5 -5.5
h-1v0h-1h-0.5h-1.5h-1h-2h-6h-13h-13h-51h-37h-1v0h-1v1l-0.5 0.5l-0.5 0.5q-1 1 -1.5 2.5t-1.5 1.5q-2 4 -5 8q-1 2 -4.5 7t-5.5 8q-7 10 -20.5 30.5t-19.5 30.5q-1 1 -4.5 6.5t-5.5 8.5q-1 0 -1 0.5v0.5l-1 1v0h-2h-4h-8h-33h-70h-70h-35h-18h-9h-4h-1v0v-1v-1v-2v-71v-18
v-9v-4v-1v0h-1h-1h-2h-36h-35h-18h-9h-4h-1v0v0v2v2v71v141v284zM184 443v-180h308q2 0 4 1q2 0 5 1.5l5 2.5l6 6q3 5 6 11q4 7 7 15q2 10 4 21t2 24v17q0 12 -2 24q-2 11 -4 20q-3 9 -7 16q-3 6 -6 10t-6 6q-2 2 -5 3t-5.5 1.5t-5.5 0.5h-306z" />
    <glyph glyph-name="s" unicode="s" 
d="M511 353q24 0 46 -10q23 -12 40 -35q16 -23 23 -55q3 -15 4 -31q1 -7 1 -16v-15q-1 -34 -11 -62q-11 -30 -30 -49t-44 -26q-11 -3 -23 -4h-9h-7h-217h-109h-54h-2h-1v0v1v3v7v14v27v54v1v0v0h1h2h3h7h14h27h109h217h7h3h1v0h1q0 1 1 2q3 5 4 12q2 7 3 14v14v7v7
q0 7 -1 13q-2 8 -4 13q-1 4 -3 7l-1 1v0h-2h-3h-109h-108h-109q-24 0 -45 10q-24 12 -40 35q-17 23 -24 55q-3 15 -4 31v16v15q0 34 10 62q11 30 31 49q18 19 43 26q11 3 23 4h9h7h218h108h55h1h1v0v-1v-3v-7v-14v-27v-54v-1v0v0h-1h-2h-3h-7h-13h-28h-108h-218h-7h-3h-1v0
h-1v-2q-3 -5 -5 -12t-2 -14q-1 -5 -1 -14v-7v-7q1 -7 2 -13q1 -8 3 -13q1 -4 3 -7h1v-1v0h2h3h109h217z" />
    <glyph glyph-name="t" unicode="t" 
d="M403 50h-107v393h-226v107h560v-107h-227v-393z" />
    <glyph glyph-name="u" unicode="u" 
d="M364 157q55 0 100 14q26 8 46 20q23 14 39 33q16 20 23 44q3 12 4 25v10v6v50v133v33v16v9v0h1h2h5h8h68h17h4h1h1v0v-1v-2v-8v-34v-120v-60v-15v-7v-6q0 -7 -1 -14q-5 -63 -40 -113q-22 -32 -55 -56t-75 -39q-41 -15 -88 -21q-22 -3 -45 -4h-23h-22q-100 0 -177 37
q-40 19 -69 47q-29 27 -47 61q-15 30 -21 63q-3 15 -4 31v12v4v33v66v131v9v4v1v1v0v0h2h18h36h36h9h5v0h1v0v-2v-8v-71v-140v-22v-15q1 -11 3 -22q6 -22 19 -40q13 -17 32 -31q33 -24 81 -34q21 -5 44 -7q11 -1 22 -1h13h27z" />
    <glyph glyph-name="v" unicode="v" 
d="M16 550h128l205 -308l206 308h128l-334 -500z" />
    <glyph glyph-name="w" unicode="w" horiz-adv-x="1000" 
d="M500 300q0 1 -0.5 1t-0.5 -1l-166 -249l-332 498h126l205 -307h1l166 249l167 -249h1l205 307h126l-332 -498zM128 551h-129q-1 0 0 -1l333 -500q0 -1 0.5 -1t0.5 1l166 249l167 -249v-1l1 1l333 500q1 1 -1 1h-128v-1l-205 -307l-166 250h-1l-166 -250l-205 307v1z
M499 300l-166 -250l-334 500h129l205 -308l166 250l167 -250l205 308h128l-333 -500z" />
    <glyph glyph-name="x" unicode="x" 
d="M349 371l187 179h147l-260 -250l260 -250h-147l-187 179l-186 -179h-147l260 250l-260 250h147z" />
    <glyph glyph-name="y" unicode="y" 
d="M70 388v148v10v4v0h1h2h3h22h44h22h11h1h1v0v-1v-3v-22v-106v-27v-4v-7q1 -7 3 -14q3 -13 11 -24q14 -21 41 -35q23 -11 52 -17q17 -3 35 -4q9 -1 18 -1h20h12q18 1 35 3q19 3 35 7q18 6 32 14q17 9 29 21q13 13 18 30q3 8 5 17v9v5v114v29v14v2v0h1h2h7h15h58h15h7h2v0
v0v-1v-3v-25v-86v-43v-9q0 -11 -2 -21q-3 -21 -10 -41q-16 -43 -52 -76q-29 -25 -69 -42q-38 -16 -83 -21q-3 -1 -5 -1h-3h-1q-1 0 -1 -1h-1v-2v-5v-10v-20v-80v-8v-4v0v-1v0h-1h-2h-16h-32h-33h-16h-4h-1h-1v0v0v2v9v65v32v16v4v2h-1v1h-1h-3h-4q-18 3 -35 7q-44 9 -78 29
q-36 20 -60 48q-23 27 -34 60q-11 30 -11 63z" />
    <glyph glyph-name="z" unicode="z" 
d="M469 550h156l-319 -393h318v-107h-560l319 393h-319v107h405z" />
    <glyph glyph-name="braceleft" unicode="{" horiz-adv-x="300" 
d="M178 300q12 -15 21 -34q4 -9 6 -18q2 -7 5 -20q1 -4 3.5 -17.5t3.5 -20.5q2 -12 4 -20q1 -4 2 -5l2 -4q4 -4 9 -4h8h1v0v-1v-2v-4v-16v-32v-32v-16v-4v0v0h-1h-2h-4h-8q-15 1 -27 4q-22 4 -37 14t-26 26q-9 14 -16 35q-5 16 -10 42q-1 6 -5 27q-2 8 -3 14q0 4 -1 5
q-2 7 -7 14q-10 14 -27 15q-2 1 -8 1h-2h-1v0v1v4v16v32v32v16v4v1v0h1h2q6 0 8 1q17 1 27 15q5 7 7 14q1 1 1 6q1 5 3 13q4 21 5 27q5 26 10 42q7 21 16 35q11 16 26 26t37 14q12 3 27 4h8h4h2h1v0v-4v-16v-32v-32v-16v-4v-2v-1v0h-1h-8q-5 0 -9 -4l-2 -4q-1 -1 -2 -5
q-2 -8 -4 -20q-1 -7 -3.5 -20.5t-3.5 -17.5q-3 -13 -5 -20q-2 -9 -6 -18q-9 -19 -21 -34z" />
    <glyph glyph-name="bar" unicode="|" horiz-adv-x="300" 
d="M96 -44v687h107v-687h-107z" />
    <glyph glyph-name="braceright" unicode="}" horiz-adv-x="300" 
d="M134 300q-13 15 -21 34q-4 9 -7 18q-1 7 -4 20q-1 4 -3.5 17.5t-3.5 20.5l-5 20q-1 4 -1 5l-2 4q-4 4 -9 4h-8h-1v0h-1v1v2v4v16v32v32v16v4h1h1h2h4h7q15 -1 28 -4q21 -4 37 -14q15 -10 25 -26q10 -14 17 -35q5 -16 10 -42q1 -6 5 -27q1 -8 2 -13t2 -6q2 -7 6 -14
q11 -14 28 -15q2 -1 8 -1h2h1v0v-1v-4v-16v-32v-32v-16v-4v-1v0h-1h-2q-6 0 -8 -1q-17 -1 -28 -15q-4 -7 -6 -14q-1 -1 -2 -5q-1 -6 -2 -14q-4 -21 -5 -27q-5 -26 -10 -42q-7 -21 -17 -35q-10 -16 -25 -26q-16 -10 -37 -14q-13 -3 -27 -4h-8h-4h-2h-1v0h-1v4v16v32v32v16v4
v2v1h1h1h8q5 0 9 4l2 4q0 1 1 5l5 20q1 7 3.5 20.5t3.5 17.5q3 13 4 20q3 9 7 18q8 19 21 34z" />
    <glyph glyph-name="asciitilde" unicode="~" horiz-adv-x="400" 
d="M279 385q43 0 72 -19q15 -10 24 -24q8 -13 11 -28q1 -5 1 -9v-7v-5v-12v-23v-3v-1v0v-1v0h-3h-11h-21h-44h-1v0v1v2v3v5v12v22v1v0q-1 1 -3 1q-2 1 -5 2q-4 2 -10 3h-11h-11q-12 0 -21 -3q-3 -1 -5 -2q0 -1 -1 -1v-1v0q0 -3 -1 -5q0 -9 -3 -18q-5 -15 -15 -27
q-11 -12 -27 -21q-16 -8 -35 -11q-10 -2 -19 -2q-5 -1 -10 -1h-9q-43 0 -73 20q-14 10 -23 23t-12 28q-1 6 -1 12v4v4v8v22v6v3v2v0h1h2h25h52v0v0v-1v-2v-3v-6v-8v-10v-2v-1v1v-10v-1v-1v-1v0q4 -3 11 -5q6 -1 12 -1q3 -1 12 -1q8 0 12 1q7 0 12 2q3 1 5 2t3 1q0 1 1 1v0v1
v2q0 11 3 21q5 15 16 27q10 12 26 20t36 12q9 1 19 2h9h10z" />
    <glyph glyph-name="exclamdown" unicode="&#xa1;" horiz-adv-x="300" 
d="M96 501.5q0 5.5 1 10.5t3 10q1 3 2.5 5t2.5 5l5 5q5 4 11 7q5 3 10 4q4 1 7.5 1.5t7.5 0.5h7q7 0 14 -2q6 -1 11 -4q6 -3 11 -7q2 -3 4 -5q4 -5 6 -10t3 -10t1 -10.5t-1 -10.5q-1 -6 -3 -10q-1 -3 -2.5 -5.5t-3.5 -4.5q-2 -3 -4 -5q-5 -5 -11 -7q-5 -3 -11 -4
q-3 -1 -6.5 -1.5t-7.5 -0.5h-7q-8 0 -15 2q-5 1 -10 4q-6 2 -11 7q-3 2 -5 5q-3 4 -5 10q-2 4 -3 10q-1 5 -1 10.5zM96 50v364h107v-364h-107z" />
    <glyph glyph-name="dieresis" unicode="&#xa8;" horiz-adv-x="500" 
d="M436 594.5q0 -5.5 -1 -10.5t-3 -10t-6 -10l-5 -5q-4 -4 -10 -7q-5 -3 -11 -4q-7 -2 -14 -2h-7q-4 0 -7.5 0.5t-7.5 1.5q-5 1 -10 4q-6 3 -11 7l-5 5q-1 3 -2.5 5t-2.5 5q-2 5 -3 10t-1 10.5t1 10.5q1 6 3 10q2 6 5 10q2 3 5 5q5 5 11 7q5 3 10 4q7 2 15 2h7q4 0 7.5 -0.5
t6.5 -1.5q6 -1 11 -4q6 -2 10 -7q3 -2 5 -5q2 -2 3.5 -4.5t2.5 -5.5q2 -4 3 -10q1 -5 1 -10.5zM62 594.5q0 5.5 1 10.5q1 6 3 10q1 3 2.5 5.5t3.5 4.5q2 3 4 5q5 5 11 7q5 3 10 4q4 1 7.5 1.5t7.5 0.5h7q8 0 15 -2q5 -1 10 -4q6 -2 11 -7l5 -5q3 -5 5 -10q2 -4 3 -10
q1 -5 1 -10.5t-1 -10.5t-3 -10q-1 -3 -2.5 -5t-2.5 -5q-3 -2 -5 -5q-5 -4 -11 -7q-5 -3 -10 -4q-4 -1 -7.5 -1.5t-7.5 -0.5h-7q-8 0 -15 2q-5 1 -10 4q-6 3 -11 7q-2 3 -4 5q-4 5 -6 10t-3 10t-1 10.5z" />
    <glyph glyph-name="copyright" unicode="&#xa9;" 
d="M680 300q0 -63 -24 -122q-25 -63 -73 -111.5t-112 -73.5q-59 -23 -121.5 -23t-121.5 23q-63 25 -111.5 73.5t-73.5 111.5q-23 59 -23 122t23 121q25 64 73.5 112.5t111.5 73.5q59 23 121.5 23t121.5 -23q64 -25 112 -73.5t73 -112.5q24 -58 24 -121zM600 300q0 48 -18 92
q-19 48 -55.5 84.5t-84.5 55.5q-45 18 -92.5 18t-91.5 -18q-49 -19 -85.5 -55.5t-55.5 -84.5q-17 -44 -17 -92t17 -92q19 -48 55.5 -85t85.5 -56q44 -17 91.5 -17t92.5 17q48 19 84.5 56t55.5 85q18 44 18 92zM329 175q-38 4 -68.5 27.5t-43.5 59.5q-3 9 -5 18q-1 4 -2 9v4
v2v3v18v1v2v2v4q1 5 2 9q8 39 36 66q32 32 77 38h2h1.5h0.5h1h1h2h4h17h34h37h18h9h3h1h1v-1v-3v-6v-52v-13v-3v-1v-1v0h-1h-1h-68h-34h-17h-1h-1h-1q-2 0 -4 -1q-4 -1 -7 -2q-8 -3 -14 -8q-13 -11 -17 -27q-1 -1 -1 -3v-2v-1v-1v-6v-5v-2v-2t1 -3l2 -8q7 -17 23 -26
q7 -4 15 -5q2 -1 4 -1h1h1h2h8h17h48h23h12h6h3h1v0v-1v-2v-4v-17v-33v-23v0v0h-1v0h-2h-4h-8h-16h-31h-32h-15h-8h-4h-2h-1h-1h-1.5h-1.5z" />
    <glyph glyph-name="guillemotleft" unicode="&#xab;" 
d="M279 64l-236 236l236 236l75 -76l-160 -160l160 -160zM581 64l-236 236l236 236l75 -76l-160 -160l160 -160z" />
    <glyph glyph-name="logicalnot" unicode="&#xac;" horiz-adv-x="800" 
d="M626 246h-560v107h667v-107v-106h-107v106z" />
    <glyph glyph-name="uni00AD" unicode="&#xad;" horiz-adv-x="400" 
d="M13 246v107h373v-107h-373z" />
    <glyph glyph-name="registered" unicode="&#xae;" 
d="M383 215h-107v-40h-80v263h220q8 0 16 -2q9 -1 17 -5t15.5 -9.5t14 -13.5t10.5 -17q5 -9 8 -19t4 -21q2 -10 2 -20v-9q0 -8 -1 -15q-1 -8 -2 -15q-2 -7 -4 -14.5t-5 -13.5t-7 -12t-9 -11l-8 -8q13 -19 39 -58h-48h-48q-5 6 -14 19.5t-13 20.5zM276 358v-63h140q1 0 1 1
t1 2t1.5 3t1.5 4q0 2 0.5 5l1 6t0.5 6v9q0 3 -0.5 6l-1 6t-0.5 5q-1 2 -1.5 4t-1.5 3t-1 2l-1 1v0h-140zM680 300q0 -63 -24 -121q-25 -64 -73 -112.5t-112 -73.5q-58 -23 -121 -23t-122 23q-63 25 -111.5 73.5t-73.5 112.5q-23 58 -23 121t23 121q25 64 73.5 112.5
t111.5 73.5q59 23 122 23t121 -23q64 -25 112 -73.5t73 -112.5q24 -58 24 -121zM600 300q0 48 -18 92q-19 48 -55.5 84.5t-84.5 55.5q-45 18 -92.5 18t-91.5 -18q-49 -19 -85.5 -55.5t-55.5 -84.5q-17 -44 -17 -92t17 -92q19 -48 55.5 -84.5t85.5 -55.5q44 -18 91.5 -18
t92.5 18q48 19 84.5 55.5t55.5 84.5q18 44 18 92z" />
    <glyph glyph-name="macron" unicode="&#xaf;" 
d="M29 506v107h667v-107h-667z" />
    <glyph glyph-name="degree" unicode="&#xb0;" horiz-adv-x="500" 
d="M83 424.5q0 28.5 13 53.5q14 27 42 44q23 15 53 22q14 3 29 5q8 1 15 1h15h14q8 0 15 -1q16 -2 30 -5q30 -7 53 -22q27 -18 42 -45q12 -24 12 -52.5t-12 -52.5q-15 -27 -42 -45q-23 -15 -53 -22q-14 -3 -30 -4q-7 -1 -15 -1h-14h-15q-8 0 -15 1q-15 1 -29 5q-30 6 -53 21
q-28 18 -42 45q-13 24 -13 52.5zM163 425q0 -4 1 -7q0 -2 0.5 -3.5t1.5 -3.5t1.5 -3.5t2 -3l3 -3l3.5 -3.5t5 -3q3 -2 6 -3.5l7 -3.5t8 -3t9 -2t10 -1.5t10.5 -1t10.5 -0.5h15q6 0 11.5 0.5t10.5 1t9.5 1.5l9 2t8 3t7.5 3q3 2 5 4q3 1 5 3l3.5 3.5l3 3t2.5 3t1.5 3.5t1 3.5
t1.5 3.5v7v7q-1 2 -1.5 3.5l-1 3t-1.5 3t-2.5 3.5t-3 3.5t-3.5 3t-4.5 3.5t-6 3.5l-7 3t-8 3t-9 2.5t-9.5 1.5t-10.5 1t-11.5 0.5h-15q-5 0 -10.5 -0.5t-10.5 -1t-10 -1.5t-9 -2.5l-8 -3t-7 -3t-6 -3.5t-5 -3.5t-3.5 -3t-3 -3.5t-2 -3.5t-1.5 -3t-1.5 -3t-0.5 -3.5
q-1 -3 -1 -7z" />
    <glyph glyph-name="plusminus" unicode="&#xb1;" horiz-adv-x="500" 
d="M63 6v107h373v-107h-373zM436 353v-107h-134v-133h-106v133h-134v107h134v133h106v-133h134z" />
    <glyph glyph-name="uni00B2" unicode="&#xb2;" horiz-adv-x="300" 
d="M62 476q0 -8 4 -14q4 -5 11 -10q1 0 2 -1v0v0h-0.5t-0.5 -1q-2 -1 -4 -1q-5 -4 -6 -4.5t-14 -6.5q-2 -2 -6.5 -4.5t-6.5 -3.5q-1 0 -3 -1.5t-3 -1.5l-4 -2l-1 -1h-1q0 -1 -1 -1v0v1q-15 17 -19 39q-1 10 -1 20q1 10 5 20q6 18 20 32q16 14 38 22q21 7 46 7h6h5h12
q12 -1 23 -3q27 -6 46 -20t27 -35q4 -9 5 -19q1 -9 0 -19q-2 -21 -14 -38l-10 -12q-2 -1 -3 -2l-1.5 -1.5t-1 -0.5t-1 -0.5t-0.5 -1.5l-8 -6q-2 -2 -7.5 -6.5t-7.5 -6.5l-31 -26l-1 -1v0v0v0h3h5h10h20h40h7h2v0v0v-1v-1v-3v-13v-27v-6v-2v-1v0v0v0h-3h-10h-20h-80h-81h-21
h-10h-5h-2h-2v0v0v0h1q8 7 22 19t19 16q33 28 67 57q16 14 33 28l17 14q4 4 8 7q0 1 1 1.5l1 0.5l1 1l1 1l4 4q3 4 4.5 9.5t0.5 11t-5 10.5q-3 4 -8 7q-8 6 -20 9q-10 2 -21 2h-6h-3h-3h-11q-12 -1 -21 -4q-12 -4 -19 -10q-5 -4 -7 -9t-2 -11z" />
    <glyph glyph-name="acute" unicode="&#xb4;" horiz-adv-x="300" 
d="M176 470l-56 56l112 113l57 -56z" />
    <glyph glyph-name="periodcentered" unicode="&#xb7;" horiz-adv-x="1000" 
d="M446 320q0 6 1 11t3 10q1 2 2.5 4.5t2.5 4.5q3 3 5 6q5 4 11 7l10 4q4 1 7.5 1h7.5h7q7 0 14 -1q6 -2 11 -4q6 -3 11 -7l4 -6q4 -4 6 -9t3 -10t1 -11t-1 -11t-3 -10q-1 -2 -2.5 -4.5t-3.5 -4.5q-2 -3 -4 -5q-5 -5 -11 -8q-5 -2 -11 -4q-3 0 -6.5 -0.5t-7.5 -0.5h-7
q-8 0 -15 1l-10 4q-6 3 -11 8l-5 5q-3 4 -5 9t-3 10t-1 11z" />
    <glyph glyph-name="uni00B9" unicode="&#xb9;" horiz-adv-x="300" 
d="M112 459h-61l61 45l61 46v-286h-61v195z" />
    <glyph glyph-name="ordmasculine" unicode="&#xba;" horiz-adv-x="500" 
d="M83 424.5q0 28.5 13 53.5q14 27 42 44q23 15 53 22q14 3 29 5q8 1 15 1h15h14q8 0 15 -1q16 -2 30 -5q30 -7 53 -22q27 -18 42 -45q12 -24 12 -52.5t-12 -52.5q-15 -27 -42 -45q-23 -15 -53 -22q-14 -3 -30 -4q-7 -1 -15 -1h-14h-15q-8 0 -15 1q-15 1 -29 5q-30 6 -53 21
q-28 18 -42 45q-13 24 -13 52.5zM163 425q0 -4 1 -7q0 -2 0.5 -3.5t1.5 -3.5t1.5 -3.5t2 -3l3 -3l3.5 -3.5t5 -3q3 -2 6 -3.5l7 -3.5t8 -3t9 -2t10 -1.5t10.5 -1t10.5 -0.5h15q6 0 11.5 0.5t10.5 1t9.5 1.5l9 2t8 3t7.5 3q3 2 5 4q3 1 5 3l3.5 3.5l3 3t2.5 3t1.5 3.5t1 3.5
t1.5 3.5v7v7q-1 2 -1.5 3.5l-1 3t-1.5 3t-2.5 3.5t-3 3.5t-3.5 3t-4.5 3.5t-6 3.5l-7 3t-8 3t-9 2.5t-9.5 1.5t-10.5 1t-11.5 0.5h-15q-5 0 -10.5 -0.5t-10.5 -1t-10 -1.5t-9 -2.5l-8 -3t-7 -3t-6 -3.5t-5 -3.5t-3.5 -3t-3 -3.5t-2 -3.5t-1.5 -3t-1.5 -3t-0.5 -3.5
q-1 -3 -1 -7z" />
    <glyph glyph-name="guillemotright" unicode="&#xbb;" 
d="M424 64l-76 76l161 160l-161 160l76 76l235 -236zM121 64l-75 76l160 160l-160 160l75 76l236 -236z" />
    <glyph glyph-name="onequarter" unicode="&#xbc;" 
d="M548 155h109v-104h-52v52h-175l175 193v-78zM93 460h-61l61 45l61 46v-286h-61v195zM449 550h132l-331 -500h-132z" />
    <glyph glyph-name="onehalf" unicode="&#xbd;" horiz-adv-x="900" 
d="M648 216q0 -8 4 -14t11 -10q1 -1 2 -1v0v0l-0.5 -0.5t-1.5 -0.5q-1 -1 -3 -2q-6 -3 -6.5 -3.5t-13.5 -7.5l-7 -3.5t-6 -3.5t-3.5 -2t-3.5 -2q-1 0 -3 -1q-1 -1 -2 -1v-0.5t-1 -0.5v0v0l-1 1q-15 17 -18 39q-2 10 -1 20t4 20q6 18 21 32t37 21q21 7 46 8h6h6h11
q13 -1 24 -3q27 -6 46 -20t27 -35q4 -9 5 -19t0 -19q-2 -21 -14 -38q-5 -7 -11 -12l-3 -3l-0.5 -0.5l-1 -1l-1 -1t-1.5 -0.5l-7 -7q-3 -2 -8 -6t-8 -7l-30 -25l-1 -1v-1h-1v0h1h2h5h11h20h40h7h1h1v0v0v-1v-3v-14v-26v-7v-1v-1v-1v0h-1h-2h-10h-20h-80h-82h-20h-10h-5h-3h-1
v0v0.5v0.5h1q7 7 21 19t19 16q34 28 67 56q17 15 34 29l16 14q5 4 9 7l0.5 1t1.5 1l1 1l1 1l4 4q3 4 4 9.5t0 11t-4 9.5t-8 8q-8 5 -20 8q-10 3 -22 3h-5h-3h-3h-11q-12 -1 -22 -4q-12 -4 -19 -10q-4 -4 -6 -9t-2 -11zM193 460h-61l61 45l61 46v-286h-61v195zM549 550h132
l-331 -500h-132z" />
    <glyph glyph-name="threequarters" unicode="&#xbe;" horiz-adv-x="900" 
d="M262 433q20 -13 31 -32q10 -18 11 -39q2 -20 -5 -38q-8 -21 -25 -36q-15 -13 -35 -20q-19 -8 -41 -10q-6 -1 -11 -1h-11h-10h-11q-23 1 -43 8q-18 6 -32.5 16t-23.5 23t-13 28q-2 6 -3 14q0 3 -1 7v3v0h1v0h1h42h11h5h1v0v0v-1q1 -1 1 -3q1 -10 9 -18q7 -6 18 -10
q10 -4 21 -5q5 -1 10 -1h11h6h5q6 0 11 1q11 1 20 4q12 3 19 9q9 7 12 17q1 5 0.5 10.5t-3.5 10.5q-4 8 -15 14q-9 5 -20 8q-10 2 -21 2h-5l-1 1h-1h-1v0v0v2v11v42v3v1v1v0v0h1h5q6 1 11 2t10 3q2 1 4 3l2 2t1 2v2.5t-1 2.5q-1 2 -4 3q-3 3 -9 5q-5 1 -11 1q-4 1 -10 1h-6
h-5q-6 0 -11 -1t-10 -3q-6 -3 -8 -6q-1 -1 -1 -2v-1v0v-1h-1h-1h-5h-11h-21h-1h-1h-1h-1h-1h-1h-1h-1h-1h-1h-1h-1h-1h-1h-1h-1h-1h-1h-1h-2h-1v0v0v1v1v5q0 5 2 10q2 11 9 21q6 10 16 17.5t24 12.5q12 4 27 6q7 1 14 1h7h7q27 0 48 -10q22 -10 34 -28q10 -16 10.5 -35.5
t-9.5 -36.5zM648 155h109v-104h-52v52h-175l175 193v-78zM549 550h132l-331 -500h-132z" />
    <glyph glyph-name="questiondown" unicode="&#xbf;" horiz-adv-x="600" 
d="M246 501.5q0 5.5 1 10.5t3 10q1 3 2.5 5t2.5 5q3 2 5 5q5 4 11 7q5 3 10 4q4 1 7.5 1.5t7.5 0.5h7q7 0 14 -2q6 -1 11 -4q6 -3 11 -7q2 -3 4 -5q4 -5 6 -10t3 -10t1 -10.5t-1 -10.5q-1 -6 -3 -10q-1 -3 -2.5 -5.5t-3.5 -4.5q-2 -3 -4 -5q-5 -5 -11 -7q-5 -3 -11 -4
q-3 -1 -6.5 -1.5t-7.5 -0.5h-7q-8 0 -15 2q-5 1 -10 4q-6 2 -11 7l-5 5q-3 4 -5 10q-2 4 -3 10q-1 5 -1 10.5zM353 286q-14 3 -28 4h-14h-15h-15q-7 0 -14 -1q-14 -1 -27 -4q-33 -8 -50 -25q-11 -11 -14 -24q-3 -14 1 -28q3 -13 15 -23q9 -9 23 -15q23 -10 54 -13
q10 -1 29 -1q21 0 29 1q31 2 54 12q28 12 38 31q3 5 4 12q1 3 1 6v3v1v1v0v0h1h24h50h24h6h1h1v0v0v-4q0 -4 -1 -8q-1 -17 -6 -33q-14 -50 -59 -83q-46 -34 -113 -43q-14 -1 -29 -2h-28h-29q-14 1 -28 4q-61 9 -103 40q-26 19 -42 44q-16 24 -22 52q-5 26 -2 52q3 28 16 53
q15 29 42 51q27 23 65 36q18 6 38 10q5 1 10 1q2 1 5 1h1v0v1v6v11v1v1v0v0h3h6h56h28h7h4h2h1v0v-1v-14v-113z" />
    <glyph glyph-name="Agrave" unicode="&#xc0;" 
d="M294 607l-57 -57l-112 113l56 57zM16 50l333 500l334 -500h-129l-205 308l-205 -308h-128z" />
    <glyph glyph-name="Aacute" unicode="&#xc1;" 
d="M462 550l-57 57l113 113l57 -57zM16 50l333 500l334 -500h-129l-205 308l-205 -308h-128z" />
    <glyph glyph-name="Acircumflex" unicode="&#xc2;" 
d="M349 638l-60 -91h-65l125 188l125 -188h-64zM16 50l333 500l334 -500h-129l-205 308l-205 -308h-128z" />
    <glyph glyph-name="Atilde" unicode="&#xc3;" 
d="M428 722q44 0 73 -19q15 -10 24 -24q8 -13 11 -28q1 -4 1 -9v-6v-6v-11v-24v-3v-1v0v0h-3h-11h-21h-44h-1v0v1v1v3v6v11v22v1v0q-1 1 -3 2t-5 1q-4 2 -10 3h-11h-11q-12 0 -21 -3q-3 -1 -5 -2l-1 -1v0v-1q0 -3 -1 -5q0 -9 -3 -18q-5 -15 -15 -27q-11 -12 -27 -21
q-16 -8 -35 -11q-10 -2 -20 -2h-9h-9q-44 0 -73 19q-14 10 -23 24q-9 12 -12 28q-1 5 -1 11v4v4v8v22v6v3v2v0v0h1h1h26h51h1v0v0v-1v-2v-3v-5v-9v-10v-2v0v-10v-1v-1v-1v0q4 -3 11 -5q6 -1 12 -1h12h12q7 1 12 2q3 1 5 2t3 2h1v0v1v3q0 10 3 20q5 15 15 27q11 12 27 20
q16 9 36 12q9 2 19 2h9h9zM16 50l333 500l334 -500h-129l-205 308l-205 -308h-128z" />
    <glyph glyph-name="Adieresis" unicode="&#xc4;" 
d="M536 661.5q0 -5.5 -1 -10.5t-3 -10t-6 -10q-2 -3 -5 -5q-4 -4 -10 -7q-5 -3 -11 -4q-7 -2 -14 -2h-7q-4 0 -7.5 0.5t-7.5 1.5q-5 1 -10 4q-6 3 -11 7q-3 2 -5 5q-1 2 -2.5 4.5t-2.5 5.5q-2 5 -3 10t-1 10.5t1 10.5t3 10t5 10l5 5q5 4 11 7q5 3 10 4q7 2 15 2h7
q4 0 7.5 -0.5t6.5 -1.5q6 -1 11 -4q6 -3 10 -7l5 -5q2 -3 3.5 -5t2.5 -5q2 -5 3 -10t1 -10.5zM162 661.5q0 5.5 1 10.5t3 10q1 3 2.5 5t3.5 5q2 2 4 5q5 4 11 7q5 3 10 4q4 1 7.5 1.5t7.5 0.5h7q8 0 15 -2q5 -1 10 -4q6 -3 11 -7q2 -3 5 -5q3 -5 5 -10t3 -10t1 -10.5
t-1 -10.5q-1 -6 -3 -10q-1 -3 -2.5 -5.5t-2.5 -4.5l-5 -5q-5 -4 -11 -7q-5 -3 -10 -4q-4 -1 -7.5 -1.5t-7.5 -0.5h-7q-8 0 -15 2q-5 1 -10 4q-6 3 -11 7q-2 2 -4 5q-4 5 -6 10t-3 10t-1 10.5zM16 50l333 500l334 -500h-129l-205 308l-205 -308h-128z" />
    <glyph glyph-name="Aring" unicode="&#xc5;" 
d="M226 682.5q0 21.5 10 40.5q11 20 32 34q17 11 40 16q11 3 23 4q5 0 11 1h11h11q6 -1 12 -1q11 -1 22 -4q23 -5 40 -16q21 -14 32 -34q10 -19 10 -40.5t-10 -39.5q-11 -21 -32 -34q-17 -12 -40 -17q-11 -3 -22 -4h-12h-11h-11h-12q-11 1 -22 4q-23 5 -40 17q-21 13 -32 34
q-10 18 -10 39.5zM287 683q0 -3 1 -6q0 -1 0.5 -2.5t1 -2.5l1 -2t1.5 -2.5t2.5 -2.5t3 -2.5t3.5 -3t4.5 -2.5l5 -2t6 -2l7 -2t7.5 -1.5l8 -1t8 -0.5h12q4 0 8 0.5l8 1t7.5 1.5l7 2t6 2l5 2t4.5 2.5t3.5 3t3 2.5t2.5 2.5t1.5 2.5l1 2t1 2.5t0.5 2.5q1 3 1 6t-1 5q0 2 -0.5 3
l-1 2t-1 2.5t-1.5 2.5l-2.5 2.5t-3 2.5t-3.5 2.5t-4.5 3t-5 2.5t-6 2t-7 1.5t-7.5 1l-8 1t-8 0.5h-12q-4 0 -8 -0.5l-8 -1t-7.5 -1t-7 -1.5t-6 -2t-5 -2.5t-4.5 -3t-3.5 -2.5t-3 -2.5l-2.5 -2.5t-1.5 -2.5t-1 -2.5l-1 -2t-0.5 -3q-1 -2 -1 -5zM16 50l333 500l334 -500h-129
l-205 308l-205 -308h-128z" />
    <glyph glyph-name="Egrave" unicode="&#xc8;" 
d="M379 640l-56 -56l-113 112l57 57zM171 443v-53h227v-107h-227v-126h453v-107h-560v500h560v-107h-453z" />
    <glyph glyph-name="Eacute" unicode="&#xc9;" 
d="M376 582l-56 57l112 113l57 -57zM171 443v-53h227v-107h-227v-126h453v-107h-560v500h560v-107h-453z" />
    <glyph glyph-name="Ecircumflex" unicode="&#xca;" 
d="M349 681l-60 -91h-65l125 188l125 -188h-64zM171 443v-53h227v-107h-227v-126h453v-107h-560v500h560v-107h-453z" />
    <glyph glyph-name="Edieresis" unicode="&#xcb;" 
d="M536 674q0 -6 -1 -11t-3 -10t-6 -9q-2 -3 -5 -5q-4 -5 -10 -8q-5 -2 -11 -4q-7 -1 -14 -1h-7q-4 0 -7.5 0.5t-7.5 0.5l-10 4q-6 3 -11 8q-3 2 -5 5q-1 2 -2.5 4.5t-2.5 4.5q-2 5 -3 10t-1 11t1 11t3 10t5 9q2 3 5 5q5 5 11 8l10 4q7 1 15 1h7q4 0 7.5 -0.5t6.5 -0.5
q6 -2 11 -4q6 -3 10 -8q3 -2 5 -5q2 -2 3.5 -4.5t2.5 -4.5q2 -5 3 -10t1 -11zM162 674q0 6 1 11t3 10q1 2 2.5 4.5t3.5 4.5q2 3 4 5q5 5 11 8l10 4q4 0 7.5 0.5t7.5 0.5h7q8 0 15 -1l10 -4q6 -3 11 -8l5 -5q3 -4 5 -9t3 -10t1 -11t-1 -11t-3 -10q-1 -2 -2.5 -4.5t-2.5 -4.5
l-5 -5q-5 -5 -11 -8l-10 -4q-4 0 -7.5 -0.5t-7.5 -0.5h-7q-8 0 -15 1l-10 4q-6 3 -11 8q-2 2 -4 5q-4 4 -6 9t-3 10t-1 11zM171 443v-53h227v-107h-227v-126h453v-107h-560v500h560v-107h-453z" />
    <glyph glyph-name="Igrave" unicode="&#xcc;" horiz-adv-x="400" 
d="M254 659l-57 -57l-113 113l57 57zM146 50v500h107v-500h-107z" />
    <glyph glyph-name="Iacute" unicode="&#xcd;" horiz-adv-x="400" 
d="M201 591l-57 57l113 112l57 -56zM146 50v500h107v-500h-107z" />
    <glyph glyph-name="Icircumflex" unicode="&#xce;" horiz-adv-x="400" 
d="M199 678l-60 -91h-65l125 188l125 -188h-64zM146 50v500h107v-500h-107z" />
    <glyph glyph-name="Idieresis" unicode="&#xcf;" horiz-adv-x="400" 
d="M386 674.5q0 -5.5 -1 -10.5q-1 -6 -3 -10q-2 -6 -6 -10q-2 -3 -5 -5q-4 -5 -10 -7q-5 -3 -11 -4q-7 -2 -14 -2h-7q-4 0 -7.5 0.5t-7.5 1.5q-5 1 -10 4q-6 2 -11 7q-3 2 -5 5q-1 2 -2.5 4.5t-2.5 5.5q-2 4 -3 10q-1 5 -1 10.5t1 10.5t3 10t5 10l5 5q5 4 11 7q5 3 10 4
q7 2 15 2h7q4 0 7.5 -0.5t6.5 -1.5q6 -1 11 -4q6 -3 10 -7l5 -5q2 -3 3.5 -5t2.5 -5q2 -5 3 -10t1 -10.5zM12 674.5q0 5.5 1 10.5t3 10q1 3 2.5 5t3.5 5q2 2 4 5q5 4 11 7q5 3 10 4q4 1 7.5 1.5t7.5 0.5h7q8 0 15 -2q5 -1 10 -4q6 -3 11 -7q2 -3 5 -5q3 -5 5 -10t3 -10
t1 -10.5t-1 -10.5q-1 -6 -3 -10q-1 -3 -2.5 -5.5t-2.5 -4.5l-5 -5q-5 -5 -11 -7q-5 -3 -10 -4q-4 -1 -7.5 -1.5t-7.5 -0.5h-7q-8 0 -15 2q-5 1 -10 4q-6 2 -11 7q-2 2 -4 5q-4 4 -6 10q-2 4 -3 10q-1 5 -1 10.5zM146 50v500h107v-500h-107z" />
    <glyph glyph-name="Ntilde" unicode="&#xd1;" 
d="M325 578q42 0 70 19q15 10 23 23q9 13 11 27q1 5 1 10v6v5v11v23v3v1v1v0h-2h-11h-21h-43v0v-1v-2v-3v-5v-11v-22v-1h-1q-1 -1 -2 -1q-2 -1 -5 -2q-4 -2 -10 -2q-5 -1 -10 -1h-11q-12 0 -20 3q-3 1 -5 2l-1 1h-1v1v0v5q-1 9 -3 18q-5 14 -15 26q-11 12 -26 20t-34 12
q-9 1 -19 2h-9h-9q-42 0 -70 -19q-15 -10 -23 -23q-9 -13 -11 -28q-1 -5 -1 -10v-5v-3v-9v-21v-6v-3v-1v-1v0v0h2h25h50v0v0v1v2v3v6v8v9v3v0v9v2v1v0v1q4 2 11 4q5 1 11 1q3 1 12 1q8 0 12 -1q6 0 11 -2l6 -2q1 0 2 -1l1 -1v0v-1v-2q0 -11 3 -20q5 -15 15 -26
q11 -12 26 -20t34 -12q9 -1 19 -2h9h9zM178 334v-284h-114v500l447 -284v284h113v-500z" />
    <glyph glyph-name="Ograve" unicode="&#xd2;" 
d="M379 646l-56 -56l-113 112l57 57zM16 300q0 57 26 105q28 54 84 90q45 30 105 44q29 6 59 9l30 2h29.5h29.5l30 -2q30 -3 59 -9q60 -14 105 -44q56 -36 84 -90q26 -48 26 -105t-26 -105q-28 -54 -84 -90q-46 -30 -105 -44q-29 -6 -59 -9l-30 -2h-29.5h-29.5l-30 2
q-31 3 -59 9q-60 14 -105 44q-56 36 -84 90q-26 48 -26 105zM123 300q0 -13 2 -25q2 -7 3.5 -13t4.5 -12t6 -11l8 -12q5 -6 10 -11q5 -6 12 -11q6 -5 14 -10l16 -10q9 -4 19 -8t20.5 -7.5t22 -5.5t24 -4t25 -2.5t25.5 -0.5h29q13 0 25.5 0.5t25 2.5t24 4t22 5.5t20.5 7.5
t19 8l16 10t14 10q7 5 12 11q5 5 10 11l8 12q3 5 5.5 11t4.5 12t4 13q2 12 2 25t-2 25q-2 7 -4 13t-4.5 12t-6 11.5t-7.5 11.5q-5 6 -10 11q-5 6 -12 11q-6 5 -14 10l-16 10q-9 4 -19 8t-20.5 7.5t-22 5.5t-24 4t-25 2.5t-25.5 0.5h-29q-13 0 -25.5 -0.5t-25 -2.5t-24 -4
t-22 -5.5t-20.5 -7.5t-18.5 -8.5t-16.5 -9.5t-14 -10q-7 -5 -12 -11q-5 -5 -10 -11l-8 -12q-3 -5 -6 -11t-4.5 -12t-3.5 -13q-2 -12 -2 -25z" />
    <glyph glyph-name="Oacute" unicode="&#xd3;" 
d="M376 591l-56 56l112 113l57 -57zM16 300q0 57 26 105q28 54 84 90q45 30 105 44q29 6 59 9l30 2h29.5h29.5l30 -2q30 -3 59 -9q60 -14 105 -44q56 -36 84 -90q26 -48 26 -105t-26 -105q-28 -54 -84 -90q-46 -30 -105 -44q-29 -6 -59 -9l-30 -2h-29.5h-29.5l-30 2
q-31 3 -59 9q-60 14 -105 44q-56 36 -84 90q-26 48 -26 105zM123 300q0 -13 2 -25q2 -7 3.5 -13t4.5 -12t6 -11l8 -12q5 -6 10 -11q5 -6 12 -11q6 -5 14 -10l16 -10q9 -4 19 -8t20.5 -7.5t22 -5.5t24 -4t25 -2.5t25.5 -0.5h29q13 0 25.5 0.5t25 2.5t24 4t22 5.5t20.5 7.5
t19 8l16 10t14 10q7 5 12 11q5 5 10 11l8 12q3 5 5.5 11t4.5 12t4 13q2 12 2 25t-2 25q-2 7 -4 13t-4.5 12t-6 11.5t-7.5 11.5q-5 6 -10 11q-5 6 -12 11q-6 5 -14 10l-16 10q-9 4 -19 8t-20.5 7.5t-22 5.5t-24 4t-25 2.5t-25.5 0.5h-29q-13 0 -25.5 -0.5t-25 -2.5t-24 -4
t-22 -5.5t-20.5 -7.5t-18.5 -8.5t-16.5 -9.5t-14 -10q-7 -5 -12 -11q-5 -5 -10 -11l-8 -12q-3 -5 -6 -11t-4.5 -12t-3.5 -13q-2 -12 -2 -25z" />
    <glyph glyph-name="Ocircumflex" unicode="&#xd4;" 
d="M349 674l-60 -92h-65l125 188l125 -188h-64zM16 300q0 57 26 105q28 54 84 90q45 30 105 44q29 6 59 9l30 2h29.5h29.5l30 -2q30 -3 59 -9q60 -14 105 -44q56 -36 84 -90q26 -48 26 -105t-26 -105q-28 -54 -84 -90q-46 -30 -105 -44q-29 -6 -59 -9l-30 -2h-29.5h-29.5
l-30 2q-31 3 -59 9q-60 14 -105 44q-56 36 -84 90q-26 48 -26 105zM123 300q0 -13 2 -25q2 -7 3.5 -13t4.5 -12t6 -11l8 -12q5 -6 10 -11q5 -6 12 -11q6 -5 14 -10l16 -10q9 -4 19 -8t20.5 -7.5t22 -5.5t24 -4t25 -2.5t25.5 -0.5h29q13 0 25.5 0.5t25 2.5t24 4t22 5.5
t20.5 7.5t19 8l16 10t14 10q7 5 12 11q5 5 10 11l8 12q3 5 5.5 11t4.5 12t4 13q2 12 2 25t-2 25q-2 7 -4 13t-4.5 12t-6 11.5t-7.5 11.5q-5 6 -10 11q-5 6 -12 11q-6 5 -14 10l-16 10q-9 4 -19 8t-20.5 7.5t-22 5.5t-24 4t-25 2.5t-25.5 0.5h-29q-13 0 -25.5 -0.5t-25 -2.5
t-24 -4t-22 -5.5t-20.5 -7.5t-18.5 -8.5t-16.5 -9.5t-14 -10q-7 -5 -12 -11q-5 -5 -10 -11l-8 -12q-3 -5 -6 -11t-4.5 -12t-3.5 -13q-2 -12 -2 -25z" />
    <glyph glyph-name="Otilde" unicode="&#xd5;" 
d="M398 593q42 0 70 19q14 10 23 23q8 13 11 28l1 9v6v6v11v23v3v1v0v0h-2h-11h-21h-43v0v0v-1v-1v-3v-6v-11v-21v-1h-1v-1q-1 0 -2 -1q-2 -1 -5 -2q-4 -1 -10 -2h-10h-11q-12 0 -21 3l-4 2h-1l-1 1v0v1v4q-1 10 -4 18q-4 15 -14 26q-11 13 -26 21q-16 8 -35 11l-18 2h-9h-9
q-42 0 -71 -19q-14 -9 -23 -23q-8 -12 -10 -27q-1 -6 -2 -11v-4v-4v-8v-21v-6v-4v-1v-1v0h1h2h24h50h1v0v1v1v1v3v6v9v9v2v0v9v2v1v1v0q4 3 11 4q5 1 11 2h12h12q6 -1 11 -2q3 -1 5 -2t3 -2v0v-1v0v-3q1 -10 4 -20q5 -14 15 -26t26 -20q15 -8 34 -11q9 -2 19 -2q4 -1 9 -1h9
zM16 300q0 57 26 105q28 54 84 90q45 30 105 44q29 6 59 9l30 2h29.5h29.5l30 -2q30 -3 59 -9q60 -14 105 -44q56 -36 84 -90q26 -48 26 -105t-26 -105q-28 -54 -84 -90q-46 -30 -105 -44q-29 -6 -59 -9l-30 -2h-29.5h-29.5l-30 2q-31 3 -59 9q-60 14 -105 44q-56 36 -84 90
q-26 48 -26 105zM123 300q0 -13 2 -25q2 -7 3.5 -13t4.5 -12t6 -11l8 -12q5 -6 10 -11q5 -6 12 -11q6 -5 14 -10l16 -10q9 -4 19 -8t20.5 -7.5t22 -5.5t24 -4t25 -2.5t25.5 -0.5h29q13 0 25.5 0.5t25 2.5t24 4t22 5.5t20.5 7.5t19 8l16 10t14 10q7 5 12 11q5 5 10 11l8 12
q3 5 5.5 11t4.5 12t4 13q2 12 2 25t-2 25q-2 7 -4 13t-4.5 12t-6 11.5t-7.5 11.5q-5 6 -10 11q-5 6 -12 11q-6 5 -14 10l-16 10q-9 4 -19 8t-20.5 7.5t-22 5.5t-24 4t-25 2.5t-25.5 0.5h-29q-13 0 -25.5 -0.5t-25 -2.5t-24 -4t-22 -5.5t-20.5 -7.5t-18.5 -8.5t-16.5 -9.5
t-14 -10q-7 -5 -12 -11q-5 -5 -10 -11l-8 -12q-3 -5 -6 -11t-4.5 -12t-3.5 -13q-2 -12 -2 -25z" />
    <glyph glyph-name="Odieresis" unicode="&#xd6;" 
d="M536 681.5q0 -5.5 -1 -10.5t-3 -10t-6 -10l-5 -5q-4 -4 -10 -7q-5 -3 -11 -4q-7 -2 -14 -2h-7q-4 0 -7.5 0.5t-7.5 1.5q-5 1 -10 4q-6 3 -11 7l-5 5q-1 3 -2.5 5t-2.5 5q-2 5 -3 10t-1 10.5t1 10.5q1 6 3 10q2 5 5 10q2 3 5 5q5 5 11 7q5 3 10 4q7 2 15 2h7q4 0 7.5 -0.5
t6.5 -1.5q6 -1 11 -4q6 -2 10 -7q3 -2 5 -5q2 -2 3.5 -4.5t2.5 -5.5q2 -4 3 -10q1 -5 1 -10.5zM162 681.5q0 5.5 1 10.5q1 6 3 10q1 3 2.5 5.5t3.5 4.5q2 3 4 5q5 5 11 7q5 3 10 4q4 1 7.5 1.5t7.5 0.5h7q8 0 15 -2q5 -1 10 -4q6 -2 11 -7l5 -5q3 -5 5 -10q2 -4 3 -10
q1 -5 1 -10.5t-1 -10.5t-3 -10q-1 -3 -2.5 -5t-2.5 -5q-3 -2 -5 -5q-5 -4 -11 -7q-5 -3 -10 -4q-4 -1 -7.5 -1.5t-7.5 -0.5h-7q-8 0 -15 2q-5 1 -10 4q-6 3 -11 7q-2 3 -4 5q-4 5 -6 10t-3 10t-1 10.5zM16 300q0 57 26 105q28 54 84 90q45 30 105 44q29 6 59 9l30 2h29.5
h29.5l30 -2q30 -3 59 -9q60 -14 105 -44q56 -36 84 -90q26 -48 26 -105t-26 -105q-28 -54 -84 -90q-46 -30 -105 -44q-29 -6 -59 -9l-30 -2h-29.5h-29.5l-30 2q-31 3 -59 9q-60 14 -105 44q-56 36 -84 90q-26 48 -26 105zM123 300q0 -13 2 -25q2 -7 3.5 -13t4.5 -12t6 -11
l8 -12q5 -6 10 -11q5 -6 12 -11q6 -5 14 -10l16 -10q9 -4 19 -8t20.5 -7.5t22 -5.5t24 -4t25 -2.5t25.5 -0.5h29q13 0 25.5 0.5t25 2.5t24 4t22 5.5t20.5 7.5t19 8l16 10t14 10q7 5 12 11q5 5 10 11l8 12q3 5 5.5 11t4.5 12t4 13q2 12 2 25t-2 25q-2 7 -4 13t-4.5 12
t-6 11.5t-7.5 11.5q-5 6 -10 11q-5 6 -12 11q-6 5 -14 10l-16 10q-9 4 -19 8t-20.5 7.5t-22 5.5t-24 4t-25 2.5t-25.5 0.5h-29q-13 0 -25.5 -0.5t-25 -2.5t-24 -4t-22 -5.5t-20.5 -7.5t-18.5 -8.5t-16.5 -9.5t-14 -10q-7 -5 -12 -11q-5 -5 -10 -11l-8 -12q-3 -5 -6 -11
t-4.5 -12t-3.5 -13q-2 -12 -2 -25z" />
    <glyph glyph-name="multiply" unicode="&#xd7;" horiz-adv-x="500" 
d="M344 470l75 -76l-94 -94l94 -94l-75 -76l-94 94l-95 -94l-75 76l94 94l-94 94l75 76l95 -95z" />
    <glyph glyph-name="Ugrave" unicode="&#xd9;" 
d="M379 640l-56 -57l-113 113l57 56zM364 157q55 0 100 14q26 8 46 20q23 14 39 33q16 20 23 44q3 12 4 25v10v6v50v133v33v16v9v0h1h2h5h8h68h17h4h1h1v0v-1v-2v-8v-34v-120v-60v-15v-7v-6q0 -7 -1 -14q-5 -63 -40 -113q-22 -32 -55 -56t-75 -39q-41 -15 -88 -21
q-22 -3 -45 -4h-23h-22q-100 0 -177 37q-40 19 -69 47q-29 27 -47 61q-15 30 -21 63q-3 15 -4 31v12v4v33v66v131v9v4v1v1v0v0h2h18h36h36h9h5v0h1v0v-2v-8v-71v-140v-22v-15q1 -11 3 -22q6 -22 19 -40q13 -17 32 -31q33 -24 81 -34q21 -5 44 -7q11 -1 22 -1h13h27z" />
    <glyph glyph-name="Uacute" unicode="&#xda;" 
d="M376 589l-56 57l112 112l57 -56zM364 157q55 0 100 14q26 8 46 20q23 14 39 33q16 20 23 44q3 12 4 25v10v6v50v133v33v16v9v0h1h2h5h8h68h17h4h1h1v0v-1v-2v-8v-34v-120v-60v-15v-7v-6q0 -7 -1 -14q-5 -63 -40 -113q-22 -32 -55 -56t-75 -39q-41 -15 -88 -21
q-22 -3 -45 -4h-23h-22q-100 0 -177 37q-40 19 -69 47q-29 27 -47 61q-15 30 -21 63q-3 15 -4 31v12v4v33v66v131v9v4v1v1v0v0h2h18h36h36h9h5v0h1v0v-2v-8v-71v-140v-22v-15q1 -11 3 -22q6 -22 19 -40q13 -17 32 -31q33 -24 81 -34q21 -5 44 -7q11 -1 22 -1h13h27z" />
    <glyph glyph-name="Ucircumflex" unicode="&#xdb;" 
d="M349 682l-60 -91h-65l125 188l125 -188h-64zM364 157q55 0 100 14q26 8 46 20q23 14 39 33q16 20 23 44q3 12 4 25v10v6v50v133v33v16v9v0h1h2h5h8h68h17h4h1h1v0v-1v-2v-8v-34v-120v-60v-15v-7v-6q0 -7 -1 -14q-5 -63 -40 -113q-22 -32 -55 -56t-75 -39q-41 -15 -88 -21
q-22 -3 -45 -4h-23h-22q-100 0 -177 37q-40 19 -69 47q-29 27 -47 61q-15 30 -21 63q-3 15 -4 31v12v4v33v66v131v9v4v1v1v0v0h2h18h36h36h9h5v0h1v0v-2v-8v-71v-140v-22v-15q1 -11 3 -22q6 -22 19 -40q13 -17 32 -31q33 -24 81 -34q21 -5 44 -7q11 -1 22 -1h13h27z" />
    <glyph glyph-name="Udieresis" unicode="&#xdc;" 
d="M536 680.5q0 -5.5 -1 -10.5q-1 -6 -3 -10q-2 -6 -6 -10q-2 -3 -5 -5q-4 -5 -10 -7q-5 -3 -11 -4q-7 -2 -14 -2h-7q-4 0 -7.5 0.5t-7.5 1.5q-5 1 -10 4q-6 2 -11 7q-3 2 -5 5q-1 2 -2.5 4.5t-2.5 5.5q-2 4 -3 10q-1 5 -1 10.5t1 10.5t3 10t5 10l5 5q5 4 11 7q5 3 10 4
q7 2 15 2h7q4 0 7.5 -0.5t6.5 -1.5q6 -1 11 -4q6 -3 10 -7l5 -5q2 -3 3.5 -5t2.5 -5q2 -5 3 -10t1 -10.5zM162 680.5q0 5.5 1 10.5t3 10q1 3 2.5 5t3.5 5q2 2 4 5q5 4 11 7q5 3 10 4q4 1 7.5 1.5t7.5 0.5h7q8 0 15 -2q5 -1 10 -4q6 -3 11 -7q2 -3 5 -5q3 -5 5 -10t3 -10
t1 -10.5t-1 -10.5q-1 -6 -3 -10q-1 -3 -2.5 -5.5t-2.5 -4.5l-5 -5q-5 -5 -11 -7q-5 -3 -10 -4q-4 -1 -7.5 -1.5t-7.5 -0.5h-7q-8 0 -15 2q-5 1 -10 4q-6 2 -11 7q-2 2 -4 5q-4 4 -6 10q-2 4 -3 10q-1 5 -1 10.5zM364 157q55 0 100 14q26 8 46 20q23 14 39 33q16 20 23 44
q3 12 4 25v10v6v50v133v33v16v9v0h1h2h5h8h68h17h4h1h1v0v-1v-2v-8v-34v-120v-60v-15v-7v-6q0 -7 -1 -14q-5 -63 -40 -113q-22 -32 -55 -56t-75 -39q-41 -15 -88 -21q-22 -3 -45 -4h-23h-22q-100 0 -177 37q-40 19 -69 47q-29 27 -47 61q-15 30 -21 63q-3 15 -4 31v12v4v33
v66v131v9v4v1v1v0v0h2h18h36h36h9h5v0h1v0v-2v-8v-71v-140v-22v-15q1 -11 3 -22q6 -22 19 -40q13 -17 32 -31q33 -24 81 -34q21 -5 44 -7q11 -1 22 -1h13h27z" />
    <glyph glyph-name="Yacute" unicode="&#xdd;" 
d="M376 583l-56 57l112 112l57 -56zM70 388v148v10v4v0h1h2h3h22h44h22h11h1h1v0v-1v-3v-22v-106v-27v-4v-7q1 -7 3 -14q3 -13 11 -24q14 -21 41 -35q23 -11 52 -17q17 -3 35 -4q9 -1 18 -1h20h12q18 1 35 3q19 3 35 7q18 6 32 14q17 9 29 21q13 13 18 30q3 8 5 17v9v5v114
v29v14v2v0h1h2h7h15h58h15h7h2v0v0v-1v-3v-25v-86v-43v-9q0 -11 -2 -21q-3 -21 -10 -41q-16 -43 -52 -76q-29 -25 -69 -42q-38 -16 -83 -21q-3 -1 -5 -1h-3h-1q-1 0 -1 -1h-1v-2v-5v-10v-20v-80v-8v-4v0v-1v0h-1h-2h-16h-32h-33h-16h-4h-1h-1v0v0v2v9v65v32v16v4v2h-1v1h-1
h-3h-4q-18 3 -35 7q-44 9 -78 29q-36 20 -60 48q-23 27 -34 60q-11 30 -11 63z" />
    <glyph glyph-name="agrave" unicode="&#xe0;" 
d="M294 607l-57 -57l-112 113l56 57zM16 50l333 500l334 -500h-129l-205 308l-205 -308h-128z" />
    <glyph glyph-name="aacute" unicode="&#xe1;" 
d="M462 550l-57 57l113 113l57 -57zM16 50l333 500l334 -500h-129l-205 308l-205 -308h-128z" />
    <glyph glyph-name="acircumflex" unicode="&#xe2;" 
d="M349 638l-60 -91h-65l125 188l125 -188h-64zM16 50l333 500l334 -500h-129l-205 308l-205 -308h-128z" />
    <glyph glyph-name="atilde" unicode="&#xe3;" 
d="M428 722q44 0 73 -19q15 -10 24 -24q8 -13 11 -28q1 -4 1 -9v-6v-6v-11v-24v-3v-1v0v0h-3h-11h-21h-44h-1v0v1v1v3v6v11v22v1v0q-1 1 -3 2t-5 1q-4 2 -10 3h-11h-11q-12 0 -21 -3q-3 -1 -5 -2l-1 -1v0v-1q0 -3 -1 -5q0 -9 -3 -18q-5 -15 -15 -27q-11 -12 -27 -21
q-16 -8 -35 -11q-10 -2 -20 -2h-9h-9q-44 0 -73 19q-14 10 -23 24q-9 12 -12 28q-1 5 -1 11v4v4v8v22v6v3v2v0v0h1h1h26h51h1v0v0v-1v-2v-3v-5v-9v-10v-2v0v-10v-1v-1v-1v0q4 -3 11 -5q6 -1 12 -1h12h12q7 1 12 2q3 1 5 2t3 2h1v0v1v3q0 10 3 20q5 15 15 27q11 12 27 20
q16 9 36 12q9 2 19 2h9h9zM16 50l333 500l334 -500h-129l-205 308l-205 -308h-128z" />
    <glyph glyph-name="adieresis" unicode="&#xe4;" 
d="M536 661.5q0 -5.5 -1 -10.5t-3 -10t-6 -10q-2 -3 -5 -5q-4 -4 -10 -7q-5 -3 -11 -4q-7 -2 -14 -2h-7q-4 0 -7.5 0.5t-7.5 1.5q-5 1 -10 4q-6 3 -11 7q-3 2 -5 5q-1 2 -2.5 4.5t-2.5 5.5q-2 5 -3 10t-1 10.5t1 10.5t3 10t5 10l5 5q5 4 11 7q5 3 10 4q7 2 15 2h7
q4 0 7.5 -0.5t6.5 -1.5q6 -1 11 -4q6 -3 10 -7l5 -5q2 -3 3.5 -5t2.5 -5q2 -5 3 -10t1 -10.5zM162 661.5q0 5.5 1 10.5t3 10q1 3 2.5 5t3.5 5q2 2 4 5q5 4 11 7q5 3 10 4q4 1 7.5 1.5t7.5 0.5h7q8 0 15 -2q5 -1 10 -4q6 -3 11 -7q2 -3 5 -5q3 -5 5 -10t3 -10t1 -10.5
t-1 -10.5q-1 -6 -3 -10q-1 -3 -2.5 -5.5t-2.5 -4.5l-5 -5q-5 -4 -11 -7q-5 -3 -10 -4q-4 -1 -7.5 -1.5t-7.5 -0.5h-7q-8 0 -15 2q-5 1 -10 4q-6 3 -11 7q-2 2 -4 5q-4 5 -6 10t-3 10t-1 10.5zM16 50l333 500l334 -500h-129l-205 308l-205 -308h-128z" />
    <glyph glyph-name="aring" unicode="&#xe5;" 
d="M226 682.5q0 21.5 10 40.5q11 20 32 34q17 11 40 16q11 3 23 4q5 0 11 1h11h11q6 -1 12 -1q11 -1 22 -4q23 -5 40 -16q21 -14 32 -34q10 -19 10 -40.5t-10 -39.5q-11 -21 -32 -34q-17 -12 -40 -17q-11 -3 -22 -4h-12h-11h-11h-12q-11 1 -22 4q-23 5 -40 17q-21 13 -32 34
q-10 18 -10 39.5zM287 683q0 -3 1 -6q0 -1 0.5 -2.5t1 -2.5l1 -2t1.5 -2.5t2.5 -2.5t3 -2.5t3.5 -3t4.5 -2.5l5 -2t6 -2l7 -2t7.5 -1.5l8 -1t8 -0.5h12q4 0 8 0.5l8 1t7.5 1.5l7 2t6 2l5 2t4.5 2.5t3.5 3t3 2.5t2.5 2.5t1.5 2.5l1 2t1 2.5t0.5 2.5q1 3 1 6t-1 5q0 2 -0.5 3
l-1 2t-1 2.5t-1.5 2.5l-2.5 2.5t-3 2.5t-3.5 2.5t-4.5 3t-5 2.5t-6 2t-7 1.5t-7.5 1l-8 1t-8 0.5h-12q-4 0 -8 -0.5l-8 -1t-7.5 -1t-7 -1.5t-6 -2t-5 -2.5t-4.5 -3t-3.5 -2.5t-3 -2.5l-2.5 -2.5t-1.5 -2.5t-1 -2.5l-1 -2t-0.5 -3q-1 -2 -1 -5zM16 50l333 500l334 -500h-129
l-205 308l-205 -308h-128z" />
    <glyph glyph-name="egrave" unicode="&#xe8;" 
d="M379 640l-56 -56l-113 112l57 57zM171 443v-53h227v-107h-227v-126h453v-107h-560v500h560v-107h-453z" />
    <glyph glyph-name="eacute" unicode="&#xe9;" 
d="M376 582l-56 57l112 113l57 -57zM171 443v-53h227v-107h-227v-126h453v-107h-560v500h560v-107h-453z" />
    <glyph glyph-name="ecircumflex" unicode="&#xea;" 
d="M349 681l-60 -91h-65l125 188l125 -188h-64zM171 443v-53h227v-107h-227v-126h453v-107h-560v500h560v-107h-453z" />
    <glyph glyph-name="edieresis" unicode="&#xeb;" 
d="M536 674q0 -6 -1 -11t-3 -10t-6 -9q-2 -3 -5 -5q-4 -5 -10 -8q-5 -2 -11 -4q-7 -1 -14 -1h-7q-4 0 -7.5 0.5t-7.5 0.5l-10 4q-6 3 -11 8q-3 2 -5 5q-1 2 -2.5 4.5t-2.5 4.5q-2 5 -3 10t-1 11t1 11t3 10t5 9q2 3 5 5q5 5 11 8l10 4q7 1 15 1h7q4 0 7.5 -0.5t6.5 -0.5
q6 -2 11 -4q6 -3 10 -8q3 -2 5 -5q2 -2 3.5 -4.5t2.5 -4.5q2 -5 3 -10t1 -11zM162 674q0 6 1 11t3 10q1 2 2.5 4.5t3.5 4.5q2 3 4 5q5 5 11 8l10 4q4 0 7.5 0.5t7.5 0.5h7q8 0 15 -1l10 -4q6 -3 11 -8l5 -5q3 -4 5 -9t3 -10t1 -11t-1 -11t-3 -10q-1 -2 -2.5 -4.5t-2.5 -4.5
l-5 -5q-5 -5 -11 -8l-10 -4q-4 0 -7.5 -0.5t-7.5 -0.5h-7q-8 0 -15 1l-10 4q-6 3 -11 8q-2 2 -4 5q-4 4 -6 9t-3 10t-1 11zM171 443v-53h227v-107h-227v-126h453v-107h-560v500h560v-107h-453z" />
    <glyph glyph-name="igrave" unicode="&#xec;" horiz-adv-x="400" 
d="M254 659l-57 -57l-113 113l57 57zM146 50v500h107v-500h-107z" />
    <glyph glyph-name="iacute" unicode="&#xed;" horiz-adv-x="400" 
d="M201 591l-57 57l113 112l57 -56zM146 50v500h107v-500h-107z" />
    <glyph glyph-name="icircumflex" unicode="&#xee;" horiz-adv-x="400" 
d="M199 678l-60 -91h-65l125 188l125 -188h-64zM146 50v500h107v-500h-107z" />
    <glyph glyph-name="idieresis" unicode="&#xef;" horiz-adv-x="400" 
d="M386 674.5q0 -5.5 -1 -10.5q-1 -6 -3 -10q-2 -6 -6 -10q-2 -3 -5 -5q-4 -5 -10 -7q-5 -3 -11 -4q-7 -2 -14 -2h-7q-4 0 -7.5 0.5t-7.5 1.5q-5 1 -10 4q-6 2 -11 7q-3 2 -5 5q-1 2 -2.5 4.5t-2.5 5.5q-2 4 -3 10q-1 5 -1 10.5t1 10.5t3 10t5 10l5 5q5 4 11 7q5 3 10 4
q7 2 15 2h7q4 0 7.5 -0.5t6.5 -1.5q6 -1 11 -4q6 -3 10 -7l5 -5q2 -3 3.5 -5t2.5 -5q2 -5 3 -10t1 -10.5zM12 674.5q0 5.5 1 10.5t3 10q1 3 2.5 5t3.5 5q2 2 4 5q5 4 11 7q5 3 10 4q4 1 7.5 1.5t7.5 0.5h7q8 0 15 -2q5 -1 10 -4q6 -3 11 -7q2 -3 5 -5q3 -5 5 -10t3 -10
t1 -10.5t-1 -10.5q-1 -6 -3 -10q-1 -3 -2.5 -5.5t-2.5 -4.5l-5 -5q-5 -5 -11 -7q-5 -3 -10 -4q-4 -1 -7.5 -1.5t-7.5 -0.5h-7q-8 0 -15 2q-5 1 -10 4q-6 2 -11 7q-2 2 -4 5q-4 4 -6 10q-2 4 -3 10q-1 5 -1 10.5zM146 50v500h107v-500h-107z" />
    <glyph glyph-name="ntilde" unicode="&#xf1;" 
d="M325 578q42 0 70 19q15 10 23 23q9 13 11 27q1 5 1 10v6v5v11v23v3v1v1v0h-2h-11h-21h-43v0v-1v-2v-3v-5v-11v-22v-1h-1q-1 -1 -2 -1q-2 -1 -5 -2q-4 -2 -10 -2q-5 -1 -10 -1h-11q-12 0 -20 3q-3 1 -5 2l-1 1h-1v1v0v5q-1 9 -3 18q-5 14 -15 26q-11 12 -26 20t-34 12
q-9 1 -19 2h-9h-9q-42 0 -70 -19q-15 -10 -23 -23q-9 -13 -11 -28q-1 -5 -1 -10v-5v-3v-9v-21v-6v-3v-1v-1v0v0h2h25h50v0v0v1v2v3v6v8v9v3v0v9v2v1v0v1q4 2 11 4q5 1 11 1q3 1 12 1q8 0 12 -1q6 0 11 -2l6 -2q1 0 2 -1l1 -1v0v-1v-2q0 -11 3 -20q5 -15 15 -26
q11 -12 26 -20t34 -12q9 -1 19 -2h9h9zM178 334v-284h-114v500l447 -284v284h113v-500z" />
    <glyph glyph-name="ograve" unicode="&#xf2;" 
d="M379 646l-56 -56l-113 112l57 57zM16 300q0 57 26 105q28 54 84 90q45 30 105 44q29 6 59 9l30 2h29.5h29.5l30 -2q30 -3 59 -9q60 -14 105 -44q56 -36 84 -90q26 -48 26 -105t-26 -105q-28 -54 -84 -90q-46 -30 -105 -44q-29 -6 -59 -9l-30 -2h-29.5h-29.5l-30 2
q-31 3 -59 9q-60 14 -105 44q-56 36 -84 90q-26 48 -26 105zM123 300q0 -13 2 -25q2 -7 3.5 -13t4.5 -12t6 -11l8 -12q5 -6 10 -11q5 -6 12 -11q6 -5 14 -10l16 -10q9 -4 19 -8t20.5 -7.5t22 -5.5t24 -4t25 -2.5t25.5 -0.5h29q13 0 25.5 0.5t25 2.5t24 4t22 5.5t20.5 7.5
t19 8l16 10t14 10q7 5 12 11q5 5 10 11l8 12q3 5 5.5 11t4.5 12t4 13q2 12 2 25t-2 25q-2 7 -4 13t-4.5 12t-6 11.5t-7.5 11.5q-5 6 -10 11q-5 6 -12 11q-6 5 -14 10l-16 10q-9 4 -19 8t-20.5 7.5t-22 5.5t-24 4t-25 2.5t-25.5 0.5h-29q-13 0 -25.5 -0.5t-25 -2.5t-24 -4
t-22 -5.5t-20.5 -7.5t-18.5 -8.5t-16.5 -9.5t-14 -10q-7 -5 -12 -11q-5 -5 -10 -11l-8 -12q-3 -5 -6 -11t-4.5 -12t-3.5 -13q-2 -12 -2 -25z" />
    <glyph glyph-name="oacute" unicode="&#xf3;" 
d="M376 591l-56 56l112 113l57 -57zM16 300q0 57 26 105q28 54 84 90q45 30 105 44q29 6 59 9l30 2h29.5h29.5l30 -2q30 -3 59 -9q60 -14 105 -44q56 -36 84 -90q26 -48 26 -105t-26 -105q-28 -54 -84 -90q-46 -30 -105 -44q-29 -6 -59 -9l-30 -2h-29.5h-29.5l-30 2
q-31 3 -59 9q-60 14 -105 44q-56 36 -84 90q-26 48 -26 105zM123 300q0 -13 2 -25q2 -7 3.5 -13t4.5 -12t6 -11l8 -12q5 -6 10 -11q5 -6 12 -11q6 -5 14 -10l16 -10q9 -4 19 -8t20.5 -7.5t22 -5.5t24 -4t25 -2.5t25.5 -0.5h29q13 0 25.5 0.5t25 2.5t24 4t22 5.5t20.5 7.5
t19 8l16 10t14 10q7 5 12 11q5 5 10 11l8 12q3 5 5.5 11t4.5 12t4 13q2 12 2 25t-2 25q-2 7 -4 13t-4.5 12t-6 11.5t-7.5 11.5q-5 6 -10 11q-5 6 -12 11q-6 5 -14 10l-16 10q-9 4 -19 8t-20.5 7.5t-22 5.5t-24 4t-25 2.5t-25.5 0.5h-29q-13 0 -25.5 -0.5t-25 -2.5t-24 -4
t-22 -5.5t-20.5 -7.5t-18.5 -8.5t-16.5 -9.5t-14 -10q-7 -5 -12 -11q-5 -5 -10 -11l-8 -12q-3 -5 -6 -11t-4.5 -12t-3.5 -13q-2 -12 -2 -25z" />
    <glyph glyph-name="ocircumflex" unicode="&#xf4;" 
d="M349 674l-60 -92h-65l125 188l125 -188h-64zM16 300q0 57 26 105q28 54 84 90q45 30 105 44q29 6 59 9l30 2h29.5h29.5l30 -2q30 -3 59 -9q60 -14 105 -44q56 -36 84 -90q26 -48 26 -105t-26 -105q-28 -54 -84 -90q-46 -30 -105 -44q-29 -6 -59 -9l-30 -2h-29.5h-29.5
l-30 2q-31 3 -59 9q-60 14 -105 44q-56 36 -84 90q-26 48 -26 105zM123 300q0 -13 2 -25q2 -7 3.5 -13t4.5 -12t6 -11l8 -12q5 -6 10 -11q5 -6 12 -11q6 -5 14 -10l16 -10q9 -4 19 -8t20.5 -7.5t22 -5.5t24 -4t25 -2.5t25.5 -0.5h29q13 0 25.5 0.5t25 2.5t24 4t22 5.5
t20.5 7.5t19 8l16 10t14 10q7 5 12 11q5 5 10 11l8 12q3 5 5.5 11t4.5 12t4 13q2 12 2 25t-2 25q-2 7 -4 13t-4.5 12t-6 11.5t-7.5 11.5q-5 6 -10 11q-5 6 -12 11q-6 5 -14 10l-16 10q-9 4 -19 8t-20.5 7.5t-22 5.5t-24 4t-25 2.5t-25.5 0.5h-29q-13 0 -25.5 -0.5t-25 -2.5
t-24 -4t-22 -5.5t-20.5 -7.5t-18.5 -8.5t-16.5 -9.5t-14 -10q-7 -5 -12 -11q-5 -5 -10 -11l-8 -12q-3 -5 -6 -11t-4.5 -12t-3.5 -13q-2 -12 -2 -25z" />
    <glyph glyph-name="otilde" unicode="&#xf5;" 
d="M398 593q42 0 70 19q14 10 23 23q8 13 11 28l1 9v6v6v11v23v3v1v0v0h-2h-11h-21h-43v0v0v-1v-1v-3v-6v-11v-21v-1h-1v-1q-1 0 -2 -1q-2 -1 -5 -2q-4 -1 -10 -2h-10h-11q-12 0 -21 3l-4 2h-1l-1 1v0v1v4q-1 10 -4 18q-4 15 -14 26q-11 13 -26 21q-16 8 -35 11l-18 2h-9h-9
q-42 0 -71 -19q-14 -9 -23 -23q-8 -12 -10 -27q-1 -6 -2 -11v-4v-4v-8v-21v-6v-4v-1v-1v0h1h2h24h50h1v0v1v1v1v3v6v9v9v2v0v9v2v1v1v0q4 3 11 4q5 1 11 2h12h12q6 -1 11 -2q3 -1 5 -2t3 -2v0v-1v0v-3q1 -10 4 -20q5 -14 15 -26t26 -20q15 -8 34 -11q9 -2 19 -2q4 -1 9 -1h9
zM16 300q0 57 26 105q28 54 84 90q45 30 105 44q29 6 59 9l30 2h29.5h29.5l30 -2q30 -3 59 -9q60 -14 105 -44q56 -36 84 -90q26 -48 26 -105t-26 -105q-28 -54 -84 -90q-46 -30 -105 -44q-29 -6 -59 -9l-30 -2h-29.5h-29.5l-30 2q-31 3 -59 9q-60 14 -105 44q-56 36 -84 90
q-26 48 -26 105zM123 300q0 -13 2 -25q2 -7 3.5 -13t4.5 -12t6 -11l8 -12q5 -6 10 -11q5 -6 12 -11q6 -5 14 -10l16 -10q9 -4 19 -8t20.5 -7.5t22 -5.5t24 -4t25 -2.5t25.5 -0.5h29q13 0 25.5 0.5t25 2.5t24 4t22 5.5t20.5 7.5t19 8l16 10t14 10q7 5 12 11q5 5 10 11l8 12
q3 5 5.5 11t4.5 12t4 13q2 12 2 25t-2 25q-2 7 -4 13t-4.5 12t-6 11.5t-7.5 11.5q-5 6 -10 11q-5 6 -12 11q-6 5 -14 10l-16 10q-9 4 -19 8t-20.5 7.5t-22 5.5t-24 4t-25 2.5t-25.5 0.5h-29q-13 0 -25.5 -0.5t-25 -2.5t-24 -4t-22 -5.5t-20.5 -7.5t-18.5 -8.5t-16.5 -9.5
t-14 -10q-7 -5 -12 -11q-5 -5 -10 -11l-8 -12q-3 -5 -6 -11t-4.5 -12t-3.5 -13q-2 -12 -2 -25z" />
    <glyph glyph-name="odieresis" unicode="&#xf6;" 
d="M536 681.5q0 -5.5 -1 -10.5t-3 -10t-6 -10l-5 -5q-4 -4 -10 -7q-5 -3 -11 -4q-7 -2 -14 -2h-7q-4 0 -7.5 0.5t-7.5 1.5q-5 1 -10 4q-6 3 -11 7l-5 5q-1 3 -2.5 5t-2.5 5q-2 5 -3 10t-1 10.5t1 10.5q1 6 3 10q2 5 5 10q2 3 5 5q5 5 11 7q5 3 10 4q7 2 15 2h7q4 0 7.5 -0.5
t6.5 -1.5q6 -1 11 -4q6 -2 10 -7q3 -2 5 -5q2 -2 3.5 -4.5t2.5 -5.5q2 -4 3 -10q1 -5 1 -10.5zM162 681.5q0 5.5 1 10.5q1 6 3 10q1 3 2.5 5.5t3.5 4.5q2 3 4 5q5 5 11 7q5 3 10 4q4 1 7.5 1.5t7.5 0.5h7q8 0 15 -2q5 -1 10 -4q6 -2 11 -7l5 -5q3 -5 5 -10q2 -4 3 -10
q1 -5 1 -10.5t-1 -10.5t-3 -10q-1 -3 -2.5 -5t-2.5 -5q-3 -2 -5 -5q-5 -4 -11 -7q-5 -3 -10 -4q-4 -1 -7.5 -1.5t-7.5 -0.5h-7q-8 0 -15 2q-5 1 -10 4q-6 3 -11 7q-2 3 -4 5q-4 5 -6 10t-3 10t-1 10.5zM16 300q0 57 26 105q28 54 84 90q45 30 105 44q29 6 59 9l30 2h29.5
h29.5l30 -2q30 -3 59 -9q60 -14 105 -44q56 -36 84 -90q26 -48 26 -105t-26 -105q-28 -54 -84 -90q-46 -30 -105 -44q-29 -6 -59 -9l-30 -2h-29.5h-29.5l-30 2q-31 3 -59 9q-60 14 -105 44q-56 36 -84 90q-26 48 -26 105zM123 300q0 -13 2 -25q2 -7 3.5 -13t4.5 -12t6 -11
l8 -12q5 -6 10 -11q5 -6 12 -11q6 -5 14 -10l16 -10q9 -4 19 -8t20.5 -7.5t22 -5.5t24 -4t25 -2.5t25.5 -0.5h29q13 0 25.5 0.5t25 2.5t24 4t22 5.5t20.5 7.5t19 8l16 10t14 10q7 5 12 11q5 5 10 11l8 12q3 5 5.5 11t4.5 12t4 13q2 12 2 25t-2 25q-2 7 -4 13t-4.5 12
t-6 11.5t-7.5 11.5q-5 6 -10 11q-5 6 -12 11q-6 5 -14 10l-16 10q-9 4 -19 8t-20.5 7.5t-22 5.5t-24 4t-25 2.5t-25.5 0.5h-29q-13 0 -25.5 -0.5t-25 -2.5t-24 -4t-22 -5.5t-20.5 -7.5t-18.5 -8.5t-16.5 -9.5t-14 -10q-7 -5 -12 -11q-5 -5 -10 -11l-8 -12q-3 -5 -6 -11
t-4.5 -12t-3.5 -13q-2 -12 -2 -25z" />
    <glyph glyph-name="divide" unicode="&#xf7;" horiz-adv-x="600" 
d="M246 476.5q0 5.5 1 10.5t3 10q1 2 2.5 4.5t3.5 4.5q2 3 5 6q4 4 10 7q5 2 11 4q3 1 6.5 1h7.5h7q8 0 15 -1l10 -4q6 -3 11 -7q3 -3 5 -6q3 -4 5 -9t3 -10t1 -10.5t-1 -10.5q-1 -6 -3 -11q-1 -2 -2.5 -4.5t-2.5 -4.5q-2 -3 -5 -5q-5 -5 -11 -8l-10 -4q-4 0 -7.5 -0.5
t-7.5 -0.5h-7q-7 0 -14 1q-6 2 -11 4q-6 3 -10 8q-3 2 -5 5q-4 4 -6 9t-3 11q-1 5 -1 10.5zM113 247v106h373v-106h-373zM246 123.5q0 5.5 1 10.5q1 6 3 11t6 9q2 3 5 5q4 5 10 8q5 2 11 4q7 1 14 1h7q4 0 7.5 -0.5t7.5 -0.5l10 -4q6 -3 11 -8q3 -2 5 -5q1 -2 2.5 -4.5
t2.5 -4.5q2 -5 3 -11q1 -5 1 -10.5t-1 -10.5t-3 -10t-5 -9q-2 -3 -5 -6q-5 -4 -11 -7l-10 -4q-7 -1 -15 -1h-7h-7.5t-6.5 1q-6 2 -11 4q-6 3 -10 7q-3 3 -5 6q-2 2 -3.5 4.5t-2.5 4.5q-2 5 -3 10t-1 10.5z" />
    <glyph glyph-name="ugrave" unicode="&#xf9;" 
d="M379 640l-56 -57l-113 113l57 56zM364 157q55 0 100 14q26 8 46 20q23 14 39 33q16 20 23 44q3 12 4 25v10v6v50v133v33v16v9v0h1h2h5h8h68h17h4h1h1v0v-1v-2v-8v-34v-120v-60v-15v-7v-6q0 -7 -1 -14q-5 -63 -40 -113q-22 -32 -55 -56t-75 -39q-41 -15 -88 -21
q-22 -3 -45 -4h-23h-22q-100 0 -177 37q-40 19 -69 47q-29 27 -47 61q-15 30 -21 63q-3 15 -4 31v12v4v33v66v131v9v4v1v1v0v0h2h18h36h36h9h5v0h1v0v-2v-8v-71v-140v-22v-15q1 -11 3 -22q6 -22 19 -40q13 -17 32 -31q33 -24 81 -34q21 -5 44 -7q11 -1 22 -1h13h27z" />
    <glyph glyph-name="uacute" unicode="&#xfa;" 
d="M376 589l-56 57l112 112l57 -56zM364 157q55 0 100 14q26 8 46 20q23 14 39 33q16 20 23 44q3 12 4 25v10v6v50v133v33v16v9v0h1h2h5h8h68h17h4h1h1v0v-1v-2v-8v-34v-120v-60v-15v-7v-6q0 -7 -1 -14q-5 -63 -40 -113q-22 -32 -55 -56t-75 -39q-41 -15 -88 -21
q-22 -3 -45 -4h-23h-22q-100 0 -177 37q-40 19 -69 47q-29 27 -47 61q-15 30 -21 63q-3 15 -4 31v12v4v33v66v131v9v4v1v1v0v0h2h18h36h36h9h5v0h1v0v-2v-8v-71v-140v-22v-15q1 -11 3 -22q6 -22 19 -40q13 -17 32 -31q33 -24 81 -34q21 -5 44 -7q11 -1 22 -1h13h27z" />
    <glyph glyph-name="ucircumflex" unicode="&#xfb;" 
d="M349 682l-60 -91h-65l125 188l125 -188h-64zM364 157q55 0 100 14q26 8 46 20q23 14 39 33q16 20 23 44q3 12 4 25v10v6v50v133v33v16v9v0h1h2h5h8h68h17h4h1h1v0v-1v-2v-8v-34v-120v-60v-15v-7v-6q0 -7 -1 -14q-5 -63 -40 -113q-22 -32 -55 -56t-75 -39q-41 -15 -88 -21
q-22 -3 -45 -4h-23h-22q-100 0 -177 37q-40 19 -69 47q-29 27 -47 61q-15 30 -21 63q-3 15 -4 31v12v4v33v66v131v9v4v1v1v0v0h2h18h36h36h9h5v0h1v0v-2v-8v-71v-140v-22v-15q1 -11 3 -22q6 -22 19 -40q13 -17 32 -31q33 -24 81 -34q21 -5 44 -7q11 -1 22 -1h13h27z" />
    <glyph glyph-name="udieresis" unicode="&#xfc;" 
d="M536 680.5q0 -5.5 -1 -10.5q-1 -6 -3 -10q-2 -6 -6 -10q-2 -3 -5 -5q-4 -5 -10 -7q-5 -3 -11 -4q-7 -2 -14 -2h-7q-4 0 -7.5 0.5t-7.5 1.5q-5 1 -10 4q-6 2 -11 7q-3 2 -5 5q-1 2 -2.5 4.5t-2.5 5.5q-2 4 -3 10q-1 5 -1 10.5t1 10.5t3 10t5 10l5 5q5 4 11 7q5 3 10 4
q7 2 15 2h7q4 0 7.5 -0.5t6.5 -1.5q6 -1 11 -4q6 -3 10 -7l5 -5q2 -3 3.5 -5t2.5 -5q2 -5 3 -10t1 -10.5zM162 680.5q0 5.5 1 10.5t3 10q1 3 2.5 5t3.5 5q2 2 4 5q5 4 11 7q5 3 10 4q4 1 7.5 1.5t7.5 0.5h7q8 0 15 -2q5 -1 10 -4q6 -3 11 -7q2 -3 5 -5q3 -5 5 -10t3 -10
t1 -10.5t-1 -10.5q-1 -6 -3 -10q-1 -3 -2.5 -5.5t-2.5 -4.5l-5 -5q-5 -5 -11 -7q-5 -3 -10 -4q-4 -1 -7.5 -1.5t-7.5 -0.5h-7q-8 0 -15 2q-5 1 -10 4q-6 2 -11 7q-2 2 -4 5q-4 4 -6 10q-2 4 -3 10q-1 5 -1 10.5zM364 157q55 0 100 14q26 8 46 20q23 14 39 33q16 20 23 44
q3 12 4 25v10v6v50v133v33v16v9v0h1h2h5h8h68h17h4h1h1v0v-1v-2v-8v-34v-120v-60v-15v-7v-6q0 -7 -1 -14q-5 -63 -40 -113q-22 -32 -55 -56t-75 -39q-41 -15 -88 -21q-22 -3 -45 -4h-23h-22q-100 0 -177 37q-40 19 -69 47q-29 27 -47 61q-15 30 -21 63q-3 15 -4 31v12v4v33
v66v131v9v4v1v1v0v0h2h18h36h36h9h5v0h1v0v-2v-8v-71v-140v-22v-15q1 -11 3 -22q6 -22 19 -40q13 -17 32 -31q33 -24 81 -34q21 -5 44 -7q11 -1 22 -1h13h27z" />
    <glyph glyph-name="yacute" unicode="&#xfd;" 
d="M376 583l-56 57l112 112l57 -56zM70 388v148v10v4v0h1h2h3h22h44h22h11h1h1v0v-1v-3v-22v-106v-27v-4v-7q1 -7 3 -14q3 -13 11 -24q14 -21 41 -35q23 -11 52 -17q17 -3 35 -4q9 -1 18 -1h20h12q18 1 35 3q19 3 35 7q18 6 32 14q17 9 29 21q13 13 18 30q3 8 5 17v9v5v114
v29v14v2v0h1h2h7h15h58h15h7h2v0v0v-1v-3v-25v-86v-43v-9q0 -11 -2 -21q-3 -21 -10 -41q-16 -43 -52 -76q-29 -25 -69 -42q-38 -16 -83 -21q-3 -1 -5 -1h-3h-1q-1 0 -1 -1h-1v-2v-5v-10v-20v-80v-8v-4v0v-1v0h-1h-2h-16h-32h-33h-16h-4h-1h-1v0v0v2v9v65v32v16v4v2h-1v1h-1
h-3h-4q-18 3 -35 7q-44 9 -78 29q-36 20 -60 48q-23 27 -34 60q-11 30 -11 63z" />
    <glyph glyph-name="ydieresis" unicode="&#xff;" 
d="M536 680q0 -6 -1 -11t-3 -10t-6 -9q-2 -3 -5 -5q-4 -5 -10 -8q-5 -2 -11 -4q-7 -1 -14 -1h-7q-4 0 -7.5 0.5t-7.5 0.5l-10 4q-6 3 -11 8q-3 2 -5 5q-1 2 -2.5 4.5t-2.5 4.5q-2 5 -3 10t-1 11t1 11t3 10t5 9q2 3 5 5q5 5 11 8l10 4q7 1 15 1h7q4 0 7.5 -0.5t6.5 -0.5
q6 -2 11 -4q6 -3 10 -8q3 -2 5 -5q2 -2 3.5 -4.5t2.5 -4.5q2 -5 3 -10t1 -11zM162 680q0 6 1 11t3 10q1 2 2.5 4.5t3.5 4.5q2 3 4 5q5 5 11 8l10 4q4 0 7.5 0.5t7.5 0.5h7q8 0 15 -1l10 -4q6 -3 11 -8l5 -5q3 -4 5 -9t3 -10t1 -11t-1 -11t-3 -10q-1 -2 -2.5 -4.5t-2.5 -4.5
l-5 -5q-5 -5 -11 -8l-10 -4q-4 0 -7.5 -0.5t-7.5 -0.5h-7q-8 0 -15 1l-10 4q-6 3 -11 8q-2 2 -4 5q-4 4 -6 9t-3 10t-1 11zM70 388v148v10v4v0h1h2h3h22h44h22h11h1h1v0v-1v-3v-22v-106v-27v-4v-7q1 -7 3 -14q3 -13 11 -24q14 -21 41 -35q23 -11 52 -17q17 -3 35 -4
q9 -1 18 -1h20h12q18 1 35 3q19 3 35 7q18 6 32 14q17 9 29 21q13 13 18 30q3 8 5 17v9v5v114v29v14v2v0h1h2h7h15h58h15h7h2v0v0v-1v-3v-25v-86v-43v-9q0 -11 -2 -21q-3 -21 -10 -41q-16 -43 -52 -76q-29 -25 -69 -42q-38 -16 -83 -21q-3 -1 -5 -1h-3h-1q-1 0 -1 -1h-1v-2
v-5v-10v-20v-80v-8v-4v0v-1v0h-1h-2h-16h-32h-33h-16h-4h-1h-1v0v0v2v9v65v32v16v4v2h-1v1h-1h-3h-4q-18 3 -35 7q-44 9 -78 29q-36 20 -60 48q-23 27 -34 60q-11 30 -11 63z" />
  </font>
</defs>
</svg>
